<svg width="327" height="118" viewBox="0 0 327 118" fill="none" xmlns="http://www.w3.org/2000/svg">
<path d="M205.661 102.022V86.3745H209.525L212.045 93.3345C212.205 93.7985 212.357 94.2785 212.501 94.7745C212.645 95.2545 212.797 95.7345 212.957 96.2145H213.053C213.213 95.7345 213.357 95.2545 213.485 94.7745C213.629 94.2785 213.781 93.7985 213.941 93.3345L216.413 86.3745H220.253V102.022H217.036V96.2865C217.036 95.9025 217.053 95.4785 217.085 95.0145C217.117 94.5505 217.157 94.0865 217.205 93.6225C217.253 93.1425 217.301 92.6785 217.349 92.2305C217.397 91.7665 217.445 91.3425 217.493 90.9585H217.397L216.125 94.6785L213.893 100.654H211.949L209.717 94.6785L208.469 90.9585H208.373C208.421 91.3425 208.469 91.7665 208.517 92.2305C208.565 92.6785 208.613 93.1425 208.661 93.6225C208.709 94.0865 208.749 94.5505 208.781 95.0145C208.813 95.4785 208.829 95.9025 208.829 96.2865V102.022H205.661ZM226.654 102.31C226.11 102.31 225.614 102.214 225.166 102.022C224.734 101.846 224.366 101.598 224.062 101.278C223.758 100.942 223.518 100.558 223.342 100.126C223.182 99.6945 223.102 99.2225 223.102 98.7105C223.102 97.4625 223.63 96.4865 224.686 95.7825C225.742 95.0785 227.446 94.6065 229.798 94.3665C229.766 93.8385 229.606 93.4225 229.318 93.1185C229.046 92.7985 228.582 92.6385 227.926 92.6385C227.414 92.6385 226.902 92.7345 226.39 92.9265C225.894 93.1185 225.358 93.3825 224.782 93.7185L223.51 91.3905C224.278 90.9265 225.078 90.5505 225.91 90.2625C226.758 89.9745 227.654 89.8305 228.598 89.8305C230.134 89.8305 231.302 90.2705 232.102 91.1505C232.918 92.0145 233.326 93.3665 233.326 95.2065V102.022H230.446L230.206 100.798H230.11C229.598 101.246 229.062 101.614 228.502 101.902C227.942 102.174 227.326 102.31 226.654 102.31ZM227.854 99.5745C228.254 99.5745 228.598 99.4865 228.886 99.3105C229.174 99.1345 229.478 98.8865 229.798 98.5665V96.4785C228.55 96.6545 227.686 96.9105 227.206 97.2465C226.726 97.5825 226.486 97.9825 226.486 98.4465C226.486 98.8305 226.606 99.1185 226.846 99.3105C227.102 99.4865 227.438 99.5745 227.854 99.5745ZM236.31 102.022V90.1185H239.838V102.022H236.31ZM238.062 88.3665C237.47 88.3665 236.982 88.1985 236.598 87.8625C236.214 87.5105 236.022 87.0625 236.022 86.5185C236.022 85.9745 236.214 85.5345 236.598 85.1985C236.982 84.8625 237.47 84.6945 238.062 84.6945C238.67 84.6945 239.158 84.8625 239.526 85.1985C239.91 85.5345 240.102 85.9745 240.102 86.5185C240.102 87.0625 239.91 87.5105 239.526 87.8625C239.158 88.1985 238.67 88.3665 238.062 88.3665ZM246.183 102.31C245.575 102.31 245.063 102.214 244.647 102.022C244.231 101.83 243.895 101.566 243.639 101.23C243.399 100.878 243.223 100.462 243.111 99.9825C242.999 99.4865 242.943 98.9345 242.943 98.3265V85.1985H246.471V98.4705C246.471 98.8385 246.535 99.0945 246.663 99.2385C246.807 99.3825 246.951 99.4545 247.095 99.4545C247.175 99.4545 247.239 99.4545 247.287 99.4545C247.351 99.4545 247.431 99.4385 247.527 99.4065L247.959 102.022C247.767 102.102 247.519 102.166 247.215 102.214C246.927 102.278 246.583 102.31 246.183 102.31ZM253.146 102.022V89.3505H248.85V86.3745H260.994V89.3505H256.698V102.022H253.146ZM263.146 102.022V90.1185H266.674V102.022H263.146ZM264.898 88.3665C264.306 88.3665 263.818 88.1985 263.434 87.8625C263.05 87.5105 262.858 87.0625 262.858 86.5185C262.858 85.9745 263.05 85.5345 263.434 85.1985C263.818 84.8625 264.306 84.6945 264.898 84.6945C265.506 84.6945 265.994 84.8625 266.362 85.1985C266.746 85.5345 266.938 85.9745 266.938 86.5185C266.938 87.0625 266.746 87.5105 266.362 87.8625C265.994 88.1985 265.506 88.3665 264.898 88.3665ZM269.779 102.022V90.1185H272.659L272.899 91.6545H272.995C273.491 91.1585 274.019 90.7345 274.579 90.3825C275.139 90.0145 275.811 89.8305 276.595 89.8305C277.443 89.8305 278.123 90.0065 278.635 90.3585C279.163 90.6945 279.579 91.1825 279.883 91.8225C280.411 91.2785 280.963 90.8145 281.539 90.4305C282.131 90.0305 282.827 89.8305 283.627 89.8305C284.907 89.8305 285.843 90.2625 286.435 91.1265C287.043 91.9745 287.347 93.1425 287.347 94.6305V102.022H283.819V95.0865C283.819 94.2225 283.699 93.6305 283.459 93.3105C283.235 92.9905 282.867 92.8305 282.355 92.8305C281.763 92.8305 281.083 93.2145 280.315 93.9825V102.022H276.787V95.0865C276.787 94.2225 276.667 93.6305 276.427 93.3105C276.203 92.9905 275.835 92.8305 275.323 92.8305C274.715 92.8305 274.043 93.2145 273.307 93.9825V102.022H269.779ZM295.685 102.31C294.837 102.31 294.045 102.174 293.309 101.902C292.573 101.614 291.933 101.206 291.389 100.678C290.845 100.134 290.421 99.4785 290.117 98.7105C289.813 97.9425 289.661 97.0625 289.661 96.0705C289.661 95.1105 289.821 94.2465 290.141 93.4785C290.461 92.6945 290.877 92.0385 291.389 91.5105C291.917 90.9665 292.517 90.5505 293.189 90.2625C293.861 89.9745 294.557 89.8305 295.277 89.8305C296.125 89.8305 296.861 89.9745 297.485 90.2625C298.125 90.5505 298.653 90.9505 299.069 91.4625C299.501 91.9745 299.821 92.5825 300.029 93.2865C300.237 93.9745 300.341 94.7265 300.341 95.5425C300.341 95.8625 300.325 96.1665 300.293 96.4545C300.261 96.7425 300.229 96.9585 300.197 97.1025H293.069C293.229 97.9665 293.581 98.6065 294.125 99.0225C294.685 99.4225 295.365 99.6225 296.165 99.6225C297.013 99.6225 297.869 99.3585 298.733 98.8305L299.909 100.966C299.301 101.382 298.621 101.71 297.869 101.95C297.133 102.19 296.405 102.31 295.685 102.31ZM293.045 94.7745H297.341C297.341 94.1025 297.189 93.5585 296.885 93.1425C296.581 92.7265 296.069 92.5185 295.349 92.5185C294.789 92.5185 294.293 92.7025 293.861 93.0705C293.445 93.4385 293.173 94.0065 293.045 94.7745ZM311.543 94.1025L311.159 95.5425H314.495L314.135 94.1025C313.911 93.3185 313.695 92.4865 313.487 91.6065C313.279 90.7265 313.071 89.8785 312.863 89.0625H312.767C312.575 89.8945 312.375 90.7505 312.167 91.6305C311.975 92.4945 311.767 93.3185 311.543 94.1025ZM305.879 102.022L310.775 86.3745H315.023L319.919 102.022H316.175L315.215 98.3025H310.439L309.479 102.022H305.879ZM321.629 102.022V86.3745H325.157V102.022H321.629Z" fill="#0000FF"/>
<path fill-rule="evenodd" clip-rule="evenodd" d="M184.688 82.3809C183.568 82.0321 182.752 80.9856 182.752 79.7523C182.752 78.2348 183.987 77 185.504 77C187.022 77 188.257 78.2348 188.257 79.7523C188.257 80.9864 187.44 82.0335 186.319 82.3816V84.2501H196.309C197.707 84.2501 198.87 85.3354 198.971 86.7262C198.987 86.8529 199 86.9829 199 87.1161L198.974 100.273C198.89 101.495 197.976 102.499 196.79 102.714L198.789 106.373C199.12 107.003 199.01 107.77 198.526 108.257C198.22 108.563 197.817 108.732 197.395 108.732V108.735C197.122 108.735 196.859 108.663 196.625 108.534L185.531 102.74L174.873 102.766L174.678 102.759H174.668C173.258 102.759 172.101 101.661 172.006 100.277L172 100.264V100.095H172.003L172.006 86.9926C172.003 85.4491 173.199 84.2501 174.671 84.2501H174.886H184.688V82.3809ZM184.383 79.7523C184.383 79.1349 184.887 78.6312 185.504 78.6312C186.122 78.6312 186.625 79.1349 186.625 79.7523C186.625 80.3697 186.122 80.8734 185.504 80.8734C184.887 80.8734 184.383 80.3697 184.383 79.7523ZM173.634 99.8801V100.075C173.634 100.666 174.102 101.134 174.674 101.134H174.873H185.518C185.918 101.134 186.051 101.167 186.405 101.355L197.408 107.1L195.052 102.941C194.844 102.551 194.857 102.103 195.078 101.736C195.299 101.368 195.686 101.151 196.114 101.151C196.167 101.151 196.213 101.145 196.262 101.139L196.27 101.138C196.898 101.105 197.333 100.663 197.349 100.121L197.369 99.8996V87.1194C197.369 87.0544 197.362 86.9894 197.353 86.9277L197.346 86.8594C197.314 86.3103 196.859 85.8813 196.309 85.8813H174.707C174.096 85.9366 173.634 86.346 173.634 86.9212V99.8801ZM179.318 93.9553C180.056 93.9553 180.654 93.3573 180.654 92.6197C180.654 91.8821 180.056 91.2842 179.318 91.2842C178.58 91.2842 177.982 91.8821 177.982 92.6197C177.982 93.3573 178.58 93.9553 179.318 93.9553ZM186.839 92.6197C186.839 93.3573 186.241 93.9553 185.504 93.9553C184.766 93.9553 184.168 93.3573 184.168 92.6197C184.168 91.8821 184.766 91.2842 185.504 91.2842C186.241 91.2842 186.839 91.8821 186.839 92.6197ZM191.683 93.9553C192.421 93.9553 193.019 93.3573 193.019 92.6197C193.019 91.8821 192.421 91.2842 191.683 91.2842C190.946 91.2842 190.348 91.8821 190.348 92.6197C190.348 93.3573 190.946 93.9553 191.683 93.9553ZM183.603 95.1543H187.392C187.825 95.1543 188.179 95.5702 188.042 95.9829C187.695 97.052 186.687 97.8286 185.498 97.8286C184.309 97.8286 183.305 97.0552 182.954 95.9829C182.817 95.5702 183.171 95.1543 183.603 95.1543Z" fill="#0000FF"/>
<path d="M1.54348 68V50.07H5.97098L8.85848 58.045C9.04181 58.5767 9.21598 59.1267 9.38098 59.695C9.54598 60.245 9.72015 60.795 9.90348 61.345H10.0135C10.1968 60.795 10.3618 60.245 10.5085 59.695C10.6735 59.1267 10.8476 58.5767 11.031 58.045L13.8635 50.07H18.2635V68H14.5785V61.4275C14.5785 60.9875 14.5968 60.5017 14.6335 59.97C14.6701 59.4383 14.716 58.9067 14.771 58.375C14.826 57.825 14.881 57.2933 14.936 56.78C14.991 56.2483 15.046 55.7625 15.101 55.3225H14.991L13.5335 59.585L10.976 66.4325H8.74848L6.19098 59.585L4.76098 55.3225H4.65098C4.70598 55.7625 4.76098 56.2483 4.81598 56.78C4.87098 57.2933 4.92598 57.825 4.98098 58.375C5.03598 58.9067 5.08181 59.4383 5.11848 59.97C5.15515 60.5017 5.17348 60.9875 5.17348 61.4275V68H1.54348ZM27.1657 68.33C26.1941 68.33 25.2866 68.1742 24.4432 67.8625C23.5999 67.5325 22.8666 67.065 22.2432 66.46C21.6199 65.8367 21.1341 65.085 20.7857 64.205C20.4374 63.325 20.2632 62.3167 20.2632 61.18C20.2632 60.08 20.4466 59.09 20.8132 58.21C21.1799 57.3117 21.6566 56.56 22.2432 55.955C22.8482 55.3317 23.5357 54.855 24.3057 54.525C25.0757 54.195 25.8732 54.03 26.6982 54.03C27.6699 54.03 28.5132 54.195 29.2282 54.525C29.9616 54.855 30.5666 55.3133 31.0432 55.9C31.5382 56.4867 31.9049 57.1833 32.1432 57.99C32.3816 58.7783 32.5007 59.64 32.5007 60.575C32.5007 60.9417 32.4824 61.29 32.4457 61.62C32.4091 61.95 32.3724 62.1975 32.3357 62.3625H24.1682C24.3516 63.3525 24.7549 64.0858 25.3782 64.5625C26.0199 65.0208 26.7991 65.25 27.7157 65.25C28.6874 65.25 29.6682 64.9475 30.6582 64.3425L32.0057 66.79C31.3091 67.2667 30.5299 67.6425 29.6682 67.9175C28.8249 68.1925 27.9907 68.33 27.1657 68.33ZM24.1407 59.695H29.0632C29.0632 58.925 28.8891 58.3017 28.5407 57.825C28.1924 57.3483 27.6057 57.11 26.7807 57.11C26.1391 57.11 25.5707 57.3208 25.0757 57.7425C24.5991 58.1642 24.2874 58.815 24.1407 59.695ZM37.3362 68.33C36.7129 68.33 36.1446 68.22 35.6312 68C35.1362 67.7983 34.7146 67.5142 34.3662 67.1475C34.0179 66.7625 33.7429 66.3225 33.5412 65.8275C33.3579 65.3325 33.2662 64.7917 33.2662 64.205C33.2662 62.775 33.8712 61.6567 35.0812 60.85C36.2912 60.0433 38.2437 59.5025 40.9387 59.2275C40.9021 58.6225 40.7187 58.1458 40.3887 57.7975C40.0771 57.4308 39.5454 57.2475 38.7937 57.2475C38.2071 57.2475 37.6204 57.3575 37.0337 57.5775C36.4654 57.7975 35.8512 58.1 35.1912 58.485L33.7337 55.8175C34.6137 55.2858 35.5304 54.855 36.4837 54.525C37.4554 54.195 38.4821 54.03 39.5637 54.03C41.3237 54.03 42.6621 54.5342 43.5787 55.5425C44.5137 56.5325 44.9812 58.0817 44.9812 60.19V68H41.6812L41.4062 66.5975H41.2962C40.7096 67.1108 40.0954 67.5325 39.4537 67.8625C38.8121 68.1742 38.1062 68.33 37.3362 68.33ZM38.7112 65.195C39.1696 65.195 39.5637 65.0942 39.8937 64.8925C40.2237 64.6908 40.5721 64.4067 40.9387 64.04V61.6475C39.5087 61.8492 38.5187 62.1425 37.9687 62.5275C37.4187 62.9125 37.1437 63.3708 37.1437 63.9025C37.1437 64.3425 37.2812 64.6725 37.5562 64.8925C37.8496 65.0942 38.2346 65.195 38.7112 65.195ZM51.3157 68.33C50.4174 68.33 49.4915 68.1558 48.5382 67.8075C47.6032 67.4592 46.7874 67.0008 46.0907 66.4325L47.9057 63.9025C48.529 64.3792 49.1249 64.7367 49.6932 64.975C50.2615 65.2133 50.839 65.3325 51.4257 65.3325C52.0307 65.3325 52.4707 65.2317 52.7457 65.03C53.0207 64.8283 53.1582 64.5442 53.1582 64.1775C53.1582 63.9575 53.0757 63.765 52.9107 63.6C52.764 63.4167 52.5532 63.2517 52.2782 63.105C52.0215 62.9583 51.7282 62.83 51.3982 62.72C51.0682 62.5917 50.729 62.4542 50.3807 62.3075C49.959 62.1425 49.5374 61.95 49.1157 61.73C48.694 61.51 48.309 61.2442 47.9607 60.9325C47.6124 60.6025 47.3282 60.2267 47.1082 59.805C46.8882 59.365 46.7782 58.8608 46.7782 58.2925C46.7782 57.6692 46.8974 57.0917 47.1357 56.56C47.3924 56.0283 47.7499 55.5792 48.2082 55.2125C48.6665 54.8458 49.2165 54.5617 49.8582 54.36C50.4999 54.14 51.2149 54.03 52.0032 54.03C53.0482 54.03 53.9649 54.2133 54.7532 54.58C55.5415 54.9283 56.229 55.3225 56.8157 55.7625L55.0007 58.1825C54.5057 57.8158 54.0199 57.5317 53.5432 57.33C53.0665 57.1283 52.5899 57.0275 52.1132 57.0275C51.0865 57.0275 50.5732 57.385 50.5732 58.1C50.5732 58.32 50.6465 58.5125 50.7932 58.6775C50.9399 58.8242 51.1324 58.9617 51.3707 59.09C51.6274 59.2183 51.9115 59.3467 52.2232 59.475C52.5532 59.585 52.8924 59.7042 53.2407 59.8325C53.6807 59.9975 54.1115 60.19 54.5332 60.41C54.9732 60.6117 55.3674 60.8683 55.7157 61.18C56.0824 61.4917 56.3757 61.8767 56.5957 62.335C56.8157 62.775 56.9257 63.3067 56.9257 63.93C56.9257 64.5533 56.8065 65.1308 56.5682 65.6625C56.3299 66.1942 55.9724 66.6617 55.4957 67.065C55.019 67.45 54.4324 67.7617 53.7357 68C53.039 68.22 52.2324 68.33 51.3157 68.33ZM62.4906 68.33C61.0056 68.33 59.9239 67.8442 59.2456 66.8725C58.5856 65.9008 58.2556 64.5533 58.2556 62.83V54.36H62.2981V62.3075C62.2981 63.2975 62.4356 63.9758 62.7106 64.3425C62.9856 64.7092 63.4164 64.8925 64.0031 64.8925C64.5164 64.8925 64.9472 64.7733 65.2956 64.535C65.6439 64.2967 66.0197 63.9117 66.4231 63.38V54.36H70.4656V68H67.1656L66.8631 66.1025H66.7806C66.1939 66.7992 65.5614 67.3492 64.8831 67.7525C64.2231 68.1375 63.4256 68.33 62.4906 68.33ZM72.923 68V54.36H76.223L76.498 56.7525H76.608C77.103 55.8175 77.6988 55.13 78.3955 54.69C79.0921 54.25 79.7888 54.03 80.4855 54.03C80.8705 54.03 81.1821 54.0575 81.4205 54.1125C81.6771 54.1492 81.9063 54.2133 82.108 54.305L81.448 57.7975C81.1913 57.7242 80.953 57.6692 80.733 57.6325C80.513 57.5958 80.2563 57.5775 79.963 57.5775C79.4496 57.5775 78.9088 57.7608 78.3405 58.1275C77.7905 58.4942 77.3321 59.145 76.9655 60.08V68H72.923ZM85.4387 68.33C84.8153 68.33 84.247 68.22 83.7337 68C83.2387 67.7983 82.817 67.5142 82.4687 67.1475C82.1203 66.7625 81.8453 66.3225 81.6437 65.8275C81.4603 65.3325 81.3687 64.7917 81.3687 64.205C81.3687 62.775 81.9737 61.6567 83.1837 60.85C84.3937 60.0433 86.3462 59.5025 89.0412 59.2275C89.0045 58.6225 88.8212 58.1458 88.4912 57.7975C88.1795 57.4308 87.6478 57.2475 86.8962 57.2475C86.3095 57.2475 85.7228 57.3575 85.1362 57.5775C84.5678 57.7975 83.9537 58.1 83.2937 58.485L81.8362 55.8175C82.7162 55.2858 83.6328 54.855 84.5862 54.525C85.5578 54.195 86.5845 54.03 87.6662 54.03C89.4262 54.03 90.7645 54.5342 91.6812 55.5425C92.6162 56.5325 93.0837 58.0817 93.0837 60.19V68H89.7837L89.5087 66.5975H89.3987C88.812 67.1108 88.1978 67.5325 87.5562 67.8625C86.9145 68.1742 86.2087 68.33 85.4387 68.33ZM86.8137 65.195C87.272 65.195 87.6662 65.0942 87.9962 64.8925C88.3262 64.6908 88.6745 64.4067 89.0412 64.04V61.6475C87.6112 61.8492 86.6212 62.1425 86.0712 62.5275C85.5212 62.9125 85.2462 63.3708 85.2462 63.9025C85.2462 64.3425 85.3837 64.6725 85.6587 64.8925C85.952 65.0942 86.337 65.195 86.8137 65.195ZM102.553 68.33C101.948 68.33 101.334 68.1833 100.711 67.89C100.106 67.5783 99.5373 67.1292 99.0056 66.5425H98.8956L98.5656 68H95.4031V48.7225H99.4456V53.4525L99.3356 55.5425C99.8673 55.0658 100.436 54.6992 101.041 54.4425C101.664 54.1675 102.296 54.03 102.938 54.03C103.763 54.03 104.506 54.195 105.166 54.525C105.826 54.855 106.385 55.3225 106.843 55.9275C107.32 56.5142 107.677 57.2383 107.916 58.1C108.172 58.9433 108.301 59.8875 108.301 60.9325C108.301 62.1058 108.136 63.1508 107.806 64.0675C107.494 64.9842 107.063 65.7633 106.513 66.405C105.981 67.0283 105.367 67.505 104.671 67.835C103.992 68.165 103.286 68.33 102.553 68.33ZM101.618 65.03C102.315 65.03 102.911 64.7183 103.406 64.095C103.901 63.4533 104.148 62.4267 104.148 61.015C104.148 58.5583 103.36 57.33 101.783 57.33C100.976 57.33 100.197 57.7425 99.4456 58.5675V64.15C99.8123 64.48 100.179 64.7092 100.546 64.8375C100.912 64.9658 101.27 65.03 101.618 65.03ZM113.78 68.33C113.083 68.33 112.496 68.22 112.02 68C111.543 67.78 111.158 67.4775 110.865 67.0925C110.59 66.6892 110.388 66.2125 110.26 65.6625C110.131 65.0942 110.067 64.4617 110.067 63.765V48.7225H114.11V63.93C114.11 64.3517 114.183 64.645 114.33 64.81C114.495 64.975 114.66 65.0575 114.825 65.0575C114.916 65.0575 114.99 65.0575 115.045 65.0575C115.118 65.0575 115.21 65.0392 115.32 65.0025L115.815 68C115.595 68.0917 115.311 68.165 114.962 68.22C114.632 68.2933 114.238 68.33 113.78 68.33ZM122.941 68.33C121.969 68.33 121.062 68.1742 120.218 67.8625C119.375 67.5325 118.642 67.065 118.018 66.46C117.395 65.8367 116.909 65.085 116.561 64.205C116.213 63.325 116.038 62.3167 116.038 61.18C116.038 60.08 116.222 59.09 116.588 58.21C116.955 57.3117 117.432 56.56 118.018 55.955C118.623 55.3317 119.311 54.855 120.081 54.525C120.851 54.195 121.648 54.03 122.473 54.03C123.445 54.03 124.288 54.195 125.003 54.525C125.737 54.855 126.342 55.3133 126.818 55.9C127.313 56.4867 127.68 57.1833 127.918 57.99C128.157 58.7783 128.276 59.64 128.276 60.575C128.276 60.9417 128.258 61.29 128.221 61.62C128.184 61.95 128.148 62.1975 128.111 62.3625H119.943C120.127 63.3525 120.53 64.0858 121.153 64.5625C121.795 65.0208 122.574 65.25 123.491 65.25C124.463 65.25 125.443 64.9475 126.433 64.3425L127.781 66.79C127.084 67.2667 126.305 67.6425 125.443 67.9175C124.6 68.1925 123.766 68.33 122.941 68.33ZM119.916 59.695H124.838C124.838 58.925 124.664 58.3017 124.316 57.825C123.968 57.3483 123.381 57.11 122.556 57.11C121.914 57.11 121.346 57.3208 120.851 57.7425C120.374 58.1642 120.063 58.815 119.916 59.695ZM134.705 68V50.07H139.765C141.14 50.07 142.377 50.2442 143.477 50.5925C144.577 50.9408 145.521 51.4817 146.31 52.215C147.098 52.93 147.703 53.8467 148.125 54.965C148.546 56.0833 148.757 57.4125 148.757 58.9525C148.757 60.4925 148.546 61.8308 148.125 62.9675C147.703 64.1042 147.107 65.0483 146.337 65.8C145.567 66.5333 144.641 67.0833 143.56 67.45C142.496 67.8167 141.305 68 139.985 68H134.705ZM138.747 64.7275H139.517C140.287 64.7275 140.984 64.6267 141.607 64.425C142.231 64.2233 142.762 63.9025 143.202 63.4625C143.642 63.0042 143.981 62.4083 144.22 61.675C144.476 60.9417 144.605 60.0342 144.605 58.9525C144.605 57.8892 144.476 57 144.22 56.285C143.981 55.5517 143.642 54.9742 143.202 54.5525C142.762 54.1125 142.231 53.8008 141.607 53.6175C140.984 53.4342 140.287 53.3425 139.517 53.3425H138.747V64.7275ZM154.168 68.33C153.545 68.33 152.977 68.22 152.463 68C151.968 67.7983 151.547 67.5142 151.198 67.1475C150.85 66.7625 150.575 66.3225 150.373 65.8275C150.19 65.3325 150.098 64.7917 150.098 64.205C150.098 62.775 150.703 61.6567 151.913 60.85C153.123 60.0433 155.076 59.5025 157.771 59.2275C157.734 58.6225 157.551 58.1458 157.221 57.7975C156.909 57.4308 156.377 57.2475 155.626 57.2475C155.039 57.2475 154.452 57.3575 153.866 57.5775C153.297 57.7975 152.683 58.1 152.023 58.485L150.566 55.8175C151.446 55.2858 152.362 54.855 153.316 54.525C154.287 54.195 155.314 54.03 156.396 54.03C158.156 54.03 159.494 54.5342 160.411 55.5425C161.346 56.5325 161.813 58.0817 161.813 60.19V68H158.513L158.238 66.5975H158.128C157.542 67.1108 156.927 67.5325 156.286 67.8625C155.644 68.1742 154.938 68.33 154.168 68.33ZM155.543 65.195C156.002 65.195 156.396 65.0942 156.726 64.8925C157.056 64.6908 157.404 64.4067 157.771 64.04V61.6475C156.341 61.8492 155.351 62.1425 154.801 62.5275C154.251 62.9125 153.976 63.3708 153.976 63.9025C153.976 64.3425 154.113 64.6725 154.388 64.8925C154.682 65.0942 155.067 65.195 155.543 65.195ZM168.902 68.33C168.058 68.33 167.334 68.2017 166.729 67.945C166.143 67.6883 165.657 67.3308 165.272 66.8725C164.905 66.4142 164.63 65.8642 164.447 65.2225C164.282 64.5625 164.199 63.8383 164.199 63.05V57.5225H162.329V54.525L164.419 54.36L164.887 50.73H168.242V54.36H171.514V57.5225H168.242V62.995C168.242 63.765 168.398 64.3242 168.709 64.6725C169.039 65.0025 169.47 65.1675 170.002 65.1675C170.222 65.1675 170.442 65.14 170.662 65.085C170.9 65.03 171.111 64.9658 171.294 64.8925L171.927 67.835C171.56 67.945 171.129 68.055 170.634 68.165C170.139 68.275 169.562 68.33 168.902 68.33ZM175.977 68.33C175.354 68.33 174.785 68.22 174.272 68C173.777 67.7983 173.355 67.5142 173.007 67.1475C172.659 66.7625 172.384 66.3225 172.182 65.8275C171.999 65.3325 171.907 64.7917 171.907 64.205C171.907 62.775 172.512 61.6567 173.722 60.85C174.932 60.0433 176.885 59.5025 179.58 59.2275C179.543 58.6225 179.36 58.1458 179.03 57.7975C178.718 57.4308 178.186 57.2475 177.435 57.2475C176.848 57.2475 176.261 57.3575 175.675 57.5775C175.106 57.7975 174.492 58.1 173.832 58.485L172.375 55.8175C173.255 55.2858 174.171 54.855 175.125 54.525C176.096 54.195 177.123 54.03 178.205 54.03C179.965 54.03 181.303 54.5342 182.22 55.5425C183.155 56.5325 183.622 58.0817 183.622 60.19V68H180.322L180.047 66.5975H179.937C179.35 67.1108 178.736 67.5325 178.095 67.8625C177.453 68.1742 176.747 68.33 175.977 68.33ZM177.352 65.195C177.81 65.195 178.205 65.0942 178.535 64.8925C178.865 64.6908 179.213 64.4067 179.58 64.04V61.6475C178.15 61.8492 177.16 62.1425 176.61 62.5275C176.06 62.9125 175.785 63.3708 175.785 63.9025C175.785 64.3425 175.922 64.6725 176.197 64.8925C176.49 65.0942 176.875 65.195 177.352 65.195ZM194.169 68V53.48H189.247V50.07H203.162V53.48H198.239V68H194.169ZM208.29 68.33C207.429 68.33 206.595 68.1742 205.788 67.8625C204.981 67.5325 204.266 67.065 203.643 66.46C203.038 65.855 202.552 65.1125 202.185 64.2325C201.819 63.3342 201.635 62.3167 201.635 61.18C201.635 60.0433 201.819 59.035 202.185 58.155C202.552 57.2567 203.038 56.505 203.643 55.9C204.266 55.295 204.981 54.8367 205.788 54.525C206.595 54.195 207.429 54.03 208.29 54.03C209.152 54.03 209.977 54.195 210.765 54.525C211.572 54.8367 212.278 55.295 212.883 55.9C213.506 56.505 214.001 57.2567 214.368 58.155C214.735 59.035 214.918 60.0433 214.918 61.18C214.918 62.3167 214.735 63.3342 214.368 64.2325C214.001 65.1125 213.506 65.855 212.883 66.46C212.278 67.065 211.572 67.5325 210.765 67.8625C209.977 68.1742 209.152 68.33 208.29 68.33ZM208.29 65.0575C209.115 65.0575 209.739 64.7092 210.16 64.0125C210.582 63.3158 210.793 62.3717 210.793 61.18C210.793 59.9883 210.582 59.0442 210.16 58.3475C209.739 57.6508 209.115 57.3025 208.29 57.3025C207.447 57.3025 206.815 57.6508 206.393 58.3475C205.99 59.0442 205.788 59.9883 205.788 61.18C205.788 62.3717 205.99 63.3158 206.393 64.0125C206.815 64.7092 207.447 65.0575 208.29 65.0575ZM216.587 68V48.7225H220.519V59.7775H220.629L224.947 54.36H229.347L224.562 59.97L229.704 68H225.332L222.252 62.6925L220.519 64.645V68H216.587ZM235.879 68.33C234.907 68.33 234 68.1742 233.156 67.8625C232.313 67.5325 231.58 67.065 230.956 66.46C230.333 65.8367 229.847 65.085 229.499 64.205C229.151 63.325 228.976 62.3167 228.976 61.18C228.976 60.08 229.16 59.09 229.526 58.21C229.893 57.3117 230.37 56.56 230.956 55.955C231.561 55.3317 232.249 54.855 233.019 54.525C233.789 54.195 234.586 54.03 235.411 54.03C236.383 54.03 237.226 54.195 237.941 54.525C238.675 54.855 239.28 55.3133 239.756 55.9C240.251 56.4867 240.618 57.1833 240.856 57.99C241.095 58.7783 241.214 59.64 241.214 60.575C241.214 60.9417 241.196 61.29 241.159 61.62C241.122 61.95 241.086 62.1975 241.049 62.3625H232.881C233.065 63.3525 233.468 64.0858 234.091 64.5625C234.733 65.0208 235.512 65.25 236.429 65.25C237.401 65.25 238.381 64.9475 239.371 64.3425L240.719 66.79C240.022 67.2667 239.243 67.6425 238.381 67.9175C237.538 68.1925 236.704 68.33 235.879 68.33ZM232.854 59.695H237.776C237.776 58.925 237.602 58.3017 237.254 57.825C236.906 57.3483 236.319 57.11 235.494 57.11C234.852 57.11 234.284 57.3208 233.789 57.7425C233.312 58.1642 233.001 58.815 232.854 59.695ZM242.907 68V54.36H246.207L246.482 56.0925H246.592C247.179 55.5425 247.821 55.0658 248.517 54.6625C249.214 54.2408 250.03 54.03 250.965 54.03C252.45 54.03 253.522 54.5158 254.182 55.4875C254.861 56.4592 255.2 57.8067 255.2 59.53V68H251.157V60.0525C251.157 59.0625 251.02 58.3842 250.745 58.0175C250.488 57.6508 250.066 57.4675 249.48 57.4675C248.966 57.4675 248.526 57.5867 248.16 57.825C247.793 58.045 247.39 58.3658 246.95 58.7875V68H242.907ZM265.772 72.9225C264.617 71.0342 263.719 69.0725 263.077 67.0375C262.454 65.0025 262.142 62.775 262.142 60.355C262.142 57.935 262.454 55.7075 263.077 53.6725C263.719 51.6375 264.617 49.6758 265.772 47.7875L268.302 48.8325C267.294 50.6292 266.561 52.5083 266.102 54.47C265.644 56.4317 265.415 58.3933 265.415 60.355C265.415 62.3167 265.644 64.2783 266.102 66.24C266.561 68.2017 267.294 70.0808 268.302 71.8775L265.772 72.9225ZM270.633 68V50.07H275.061L277.948 58.045C278.131 58.5767 278.306 59.1267 278.471 59.695C278.636 60.245 278.81 60.795 278.993 61.345H279.103C279.286 60.795 279.451 60.245 279.598 59.695C279.763 59.1267 279.937 58.5767 280.121 58.045L282.953 50.07H287.353V68H283.668V61.4275C283.668 60.9875 283.686 60.5017 283.723 59.97C283.76 59.4383 283.806 58.9067 283.861 58.375C283.916 57.825 283.971 57.2933 284.026 56.78C284.081 56.2483 284.136 55.7625 284.191 55.3225H284.081L282.623 59.585L280.066 66.4325H277.838L275.281 59.585L273.851 55.3225H273.741C273.796 55.7625 273.851 56.2483 273.906 56.78C273.961 57.2933 274.016 57.825 274.071 58.375C274.126 58.9067 274.171 59.4383 274.208 59.97C274.245 60.5017 274.263 60.9875 274.263 61.4275V68H270.633ZM290.48 68V50.07H295.54C296.915 50.07 298.153 50.2442 299.253 50.5925C300.353 50.9408 301.297 51.4817 302.085 52.215C302.874 52.93 303.479 53.8467 303.9 54.965C304.322 56.0833 304.533 57.4125 304.533 58.9525C304.533 60.4925 304.322 61.8308 303.9 62.9675C303.479 64.1042 302.883 65.0483 302.113 65.8C301.343 66.5333 300.417 67.0833 299.335 67.45C298.272 67.8167 297.08 68 295.76 68H290.48ZM294.523 64.7275H295.293C296.063 64.7275 296.76 64.6267 297.383 64.425C298.006 64.2233 298.538 63.9025 298.978 63.4625C299.418 63.0042 299.757 62.4083 299.995 61.675C300.252 60.9417 300.38 60.0342 300.38 58.9525C300.38 57.8892 300.252 57 299.995 56.285C299.757 55.5517 299.418 54.9742 298.978 54.5525C298.538 54.1125 298.006 53.8008 297.383 53.6175C296.76 53.4342 296.063 53.3425 295.293 53.3425H294.523V64.7275ZM309.55 68V53.48H304.628V50.07H318.543V53.48H313.62V68H309.55ZM321.971 72.9225L319.441 71.8775C320.468 70.0808 321.21 68.2017 321.668 66.24C322.127 64.2783 322.356 62.3167 322.356 60.355C322.356 58.3933 322.127 56.4317 321.668 54.47C321.21 52.5083 320.468 50.6292 319.441 48.8325L321.971 47.7875C323.126 49.6758 324.015 51.6375 324.638 53.6725C325.28 55.7075 325.601 57.935 325.601 60.355C325.601 62.775 325.28 65.0025 324.638 67.0375C324.015 69.0725 323.126 71.0342 321.971 72.9225Z" fill="#0000FF"/>
<path d="M1.848 102.355V86.7075H11.64V89.6835H5.376V92.8275H10.704V95.7795H5.376V99.3795H11.88V102.355H1.848ZM11.4463 102.355L15.0943 96.1635L11.6623 90.4515H15.4543L16.5103 92.3715C16.6703 92.7075 16.8303 93.0515 16.9903 93.4035C17.1663 93.7395 17.3423 94.0755 17.5183 94.4115H17.6143C17.7423 94.0755 17.8783 93.7395 18.0223 93.4035C18.1663 93.0515 18.3023 92.7075 18.4303 92.3715L19.2463 90.4515H22.8943L19.4383 96.5715L23.1103 102.355H19.3183L18.1663 100.387C17.9743 100.051 17.7823 99.7075 17.5903 99.3555C17.4143 99.0035 17.2303 98.6595 17.0383 98.3235H16.9423C16.7983 98.6595 16.6463 99.0035 16.4863 99.3555C16.3263 99.6915 16.1743 100.035 16.0303 100.387L15.0943 102.355H11.4463ZM28.5896 102.643C27.7576 102.643 26.9816 102.507 26.2616 102.235C25.5576 101.947 24.9416 101.539 24.4136 101.011C23.8856 100.483 23.4696 99.8355 23.1656 99.0675C22.8616 98.2835 22.7096 97.3955 22.7096 96.4035C22.7096 95.4115 22.8776 94.5315 23.2136 93.7635C23.5496 92.9795 23.9976 92.3235 24.5576 91.7955C25.1336 91.2675 25.7976 90.8675 26.5496 90.5955C27.3016 90.3075 28.0856 90.1635 28.9016 90.1635C29.6376 90.1635 30.2856 90.2835 30.8456 90.5235C31.4216 90.7635 31.9336 91.0675 32.3816 91.4355L30.7256 93.7155C30.1656 93.2515 29.6296 93.0195 29.1176 93.0195C28.2536 93.0195 27.5736 93.3235 27.0776 93.9315C26.5816 94.5395 26.3336 95.3635 26.3336 96.4035C26.3336 97.4435 26.5816 98.2675 27.0776 98.8755C27.5896 99.4835 28.2296 99.7875 28.9976 99.7875C29.3816 99.7875 29.7496 99.7075 30.1016 99.5475C30.4696 99.3715 30.8136 99.1635 31.1336 98.9235L32.5256 101.227C31.9336 101.739 31.2936 102.107 30.6056 102.331C29.9176 102.539 29.2456 102.643 28.5896 102.643ZM36.8887 102.643C36.2807 102.643 35.7687 102.547 35.3527 102.355C34.9367 102.163 34.6007 101.899 34.3447 101.563C34.1047 101.211 33.9287 100.795 33.8167 100.315C33.7047 99.8195 33.6487 99.2675 33.6487 98.6595V85.5315H37.1767V98.8035C37.1767 99.1715 37.2407 99.4275 37.3687 99.5715C37.5127 99.7155 37.6567 99.7875 37.8007 99.7875C37.8807 99.7875 37.9447 99.7875 37.9927 99.7875C38.0567 99.7875 38.1367 99.7715 38.2327 99.7395L38.6647 102.355C38.4727 102.435 38.2247 102.499 37.9207 102.547C37.6327 102.611 37.2887 102.643 36.8887 102.643ZM43.1319 102.643C41.8359 102.643 40.8919 102.219 40.2999 101.371C39.7239 100.523 39.4359 99.3475 39.4359 97.8435V90.4515H42.9639V97.3875C42.9639 98.2515 43.0839 98.8435 43.3239 99.1635C43.5639 99.4835 43.9399 99.6435 44.4519 99.6435C44.8999 99.6435 45.2759 99.5395 45.5799 99.3315C45.8839 99.1235 46.2119 98.7875 46.5639 98.3235V90.4515H50.0919V102.355H47.2119L46.9479 100.699H46.8759C46.3639 101.307 45.8119 101.787 45.2199 102.139C44.6439 102.475 43.9479 102.643 43.1319 102.643ZM55.7406 102.643C54.9566 102.643 54.1486 102.491 53.3166 102.187C52.5006 101.883 51.7886 101.483 51.1806 100.987L52.7646 98.7795C53.3086 99.1955 53.8286 99.5075 54.3246 99.7155C54.8206 99.9235 55.3246 100.027 55.8366 100.027C56.3646 100.027 56.7486 99.9395 56.9886 99.7635C57.2286 99.5875 57.3486 99.3395 57.3486 99.0195C57.3486 98.8275 57.2766 98.6595 57.1326 98.5155C57.0046 98.3555 56.8206 98.2115 56.5806 98.0835C56.3566 97.9555 56.1006 97.8435 55.8126 97.7475C55.5246 97.6355 55.2286 97.5155 54.9246 97.3875C54.5566 97.2435 54.1886 97.0755 53.8206 96.8835C53.4526 96.6915 53.1166 96.4595 52.8126 96.1875C52.5086 95.8995 52.2606 95.5715 52.0686 95.2035C51.8766 94.8195 51.7806 94.3795 51.7806 93.8835C51.7806 93.3395 51.8846 92.8355 52.0926 92.3715C52.3166 91.9075 52.6286 91.5155 53.0286 91.1955C53.4286 90.8755 53.9086 90.6275 54.4686 90.4515C55.0286 90.2595 55.6526 90.1635 56.3406 90.1635C57.2526 90.1635 58.0526 90.3235 58.7406 90.6435C59.4286 90.9475 60.0286 91.2915 60.5406 91.6755L58.9566 93.7875C58.5246 93.4675 58.1006 93.2195 57.6846 93.0435C57.2686 92.8675 56.8526 92.7795 56.4366 92.7795C55.5406 92.7795 55.0926 93.0915 55.0926 93.7155C55.0926 93.9075 55.1566 94.0755 55.2846 94.2195C55.4126 94.3475 55.5806 94.4675 55.7886 94.5795C56.0126 94.6915 56.2606 94.8035 56.5326 94.9155C56.8206 95.0115 57.1166 95.1155 57.4206 95.2275C57.8046 95.3715 58.1806 95.5395 58.5486 95.7315C58.9326 95.9075 59.2766 96.1315 59.5806 96.4035C59.9006 96.6755 60.1566 97.0115 60.3486 97.4115C60.5406 97.7955 60.6366 98.2595 60.6366 98.8035C60.6366 99.3475 60.5326 99.8515 60.3246 100.315C60.1166 100.779 59.8046 101.187 59.3886 101.539C58.9726 101.875 58.4606 102.147 57.8526 102.355C57.2446 102.547 56.5406 102.643 55.7406 102.643ZM61.9172 102.355V90.4515H65.4452V102.355H61.9172ZM63.6692 88.6995C63.0772 88.6995 62.5892 88.5315 62.2052 88.1955C61.8212 87.8435 61.6292 87.3955 61.6292 86.8515C61.6292 86.3075 61.8212 85.8675 62.2052 85.5315C62.5892 85.1955 63.0772 85.0275 63.6692 85.0275C64.2772 85.0275 64.7652 85.1955 65.1332 85.5315C65.5172 85.8675 65.7092 86.3075 65.7092 86.8515C65.7092 87.3955 65.5172 87.8435 65.1332 88.1955C64.7652 88.5315 64.2772 88.6995 63.6692 88.6995ZM70.326 102.355L66.318 90.4515H69.87L71.406 96.0675C71.566 96.6595 71.718 97.2675 71.862 97.8915C72.022 98.4995 72.182 99.1155 72.342 99.7395H72.438C72.582 99.1155 72.726 98.4995 72.87 97.8915C73.03 97.2675 73.19 96.6595 73.35 96.0675L74.91 90.4515H78.294L74.406 102.355H70.326ZM84.333 102.643C83.485 102.643 82.693 102.507 81.957 102.235C81.221 101.947 80.581 101.539 80.037 101.011C79.493 100.467 79.069 99.8115 78.765 99.0435C78.461 98.2755 78.309 97.3955 78.309 96.4035C78.309 95.4435 78.469 94.5795 78.789 93.8115C79.109 93.0275 79.525 92.3715 80.037 91.8435C80.565 91.2995 81.165 90.8835 81.837 90.5955C82.509 90.3075 83.205 90.1635 83.925 90.1635C84.773 90.1635 85.509 90.3075 86.133 90.5955C86.773 90.8835 87.301 91.2835 87.717 91.7955C88.149 92.3075 88.469 92.9155 88.677 93.6195C88.885 94.3075 88.989 95.0595 88.989 95.8755C88.989 96.1955 88.973 96.4995 88.941 96.7875C88.909 97.0755 88.877 97.2915 88.845 97.4355H81.717C81.877 98.2995 82.229 98.9395 82.773 99.3555C83.333 99.7555 84.013 99.9555 84.813 99.9555C85.661 99.9555 86.517 99.6915 87.381 99.1635L88.557 101.299C87.949 101.715 87.269 102.043 86.517 102.283C85.781 102.523 85.053 102.643 84.333 102.643ZM81.693 95.1075H85.989C85.989 94.4355 85.837 93.8915 85.533 93.4755C85.229 93.0595 84.717 92.8515 83.997 92.8515C83.437 92.8515 82.941 93.0355 82.509 93.4035C82.093 93.7715 81.821 94.3395 81.693 95.1075ZM100.768 102.643C98.7356 102.643 97.1836 102.043 96.1116 100.843C95.0396 99.6435 94.5036 97.7315 94.5036 95.1075V86.7075H98.0556V95.4675C98.0556 97.0035 98.2876 98.0755 98.7516 98.6835C99.2156 99.2915 99.8876 99.5955 100.768 99.5955C101.648 99.5955 102.328 99.2915 102.808 98.6835C103.288 98.0755 103.528 97.0035 103.528 95.4675V86.7075H106.936V95.1075C106.936 97.7315 106.408 99.6435 105.352 100.843C104.312 102.043 102.784 102.643 100.768 102.643ZM112.629 102.643C111.845 102.643 111.037 102.491 110.205 102.187C109.389 101.883 108.677 101.483 108.069 100.987L109.653 98.7795C110.197 99.1955 110.717 99.5075 111.213 99.7155C111.709 99.9235 112.213 100.027 112.725 100.027C113.253 100.027 113.637 99.9395 113.877 99.7635C114.117 99.5875 114.237 99.3395 114.237 99.0195C114.237 98.8275 114.165 98.6595 114.021 98.5155C113.893 98.3555 113.709 98.2115 113.469 98.0835C113.245 97.9555 112.989 97.8435 112.701 97.7475C112.413 97.6355 112.117 97.5155 111.813 97.3875C111.445 97.2435 111.077 97.0755 110.709 96.8835C110.341 96.6915 110.005 96.4595 109.701 96.1875C109.397 95.8995 109.149 95.5715 108.957 95.2035C108.765 94.8195 108.669 94.3795 108.669 93.8835C108.669 93.3395 108.773 92.8355 108.981 92.3715C109.205 91.9075 109.517 91.5155 109.917 91.1955C110.317 90.8755 110.797 90.6275 111.357 90.4515C111.917 90.2595 112.541 90.1635 113.229 90.1635C114.141 90.1635 114.941 90.3235 115.629 90.6435C116.317 90.9475 116.917 91.2915 117.429 91.6755L115.845 93.7875C115.413 93.4675 114.989 93.2195 114.573 93.0435C114.157 92.8675 113.741 92.7795 113.325 92.7795C112.429 92.7795 111.981 93.0915 111.981 93.7155C111.981 93.9075 112.045 94.0755 112.173 94.2195C112.301 94.3475 112.469 94.4675 112.677 94.5795C112.901 94.6915 113.149 94.8035 113.421 94.9155C113.709 95.0115 114.005 95.1155 114.309 95.2275C114.693 95.3715 115.069 95.5395 115.437 95.7315C115.821 95.9075 116.165 96.1315 116.469 96.4035C116.789 96.6755 117.045 97.0115 117.237 97.4115C117.429 97.7955 117.525 98.2595 117.525 98.8035C117.525 99.3475 117.421 99.8515 117.213 100.315C117.005 100.779 116.693 101.187 116.277 101.539C115.861 101.875 115.349 102.147 114.741 102.355C114.133 102.547 113.429 102.643 112.629 102.643ZM124.134 102.643C123.286 102.643 122.494 102.507 121.758 102.235C121.022 101.947 120.382 101.539 119.838 101.011C119.294 100.467 118.87 99.8115 118.566 99.0435C118.262 98.2755 118.11 97.3955 118.11 96.4035C118.11 95.4435 118.27 94.5795 118.59 93.8115C118.91 93.0275 119.326 92.3715 119.838 91.8435C120.366 91.2995 120.966 90.8835 121.638 90.5955C122.31 90.3075 123.006 90.1635 123.726 90.1635C124.574 90.1635 125.31 90.3075 125.934 90.5955C126.574 90.8835 127.102 91.2835 127.518 91.7955C127.95 92.3075 128.27 92.9155 128.478 93.6195C128.686 94.3075 128.79 95.0595 128.79 95.8755C128.79 96.1955 128.774 96.4995 128.742 96.7875C128.71 97.0755 128.678 97.2915 128.646 97.4355H121.518C121.678 98.2995 122.03 98.9395 122.574 99.3555C123.134 99.7555 123.814 99.9555 124.614 99.9555C125.462 99.9555 126.318 99.6915 127.182 99.1635L128.358 101.299C127.75 101.715 127.07 102.043 126.318 102.283C125.582 102.523 124.854 102.643 124.134 102.643ZM121.494 95.1075H125.79C125.79 94.4355 125.638 93.8915 125.334 93.4755C125.03 93.0595 124.518 92.8515 123.798 92.8515C123.238 92.8515 122.742 93.0355 122.31 93.4035C121.894 93.7715 121.622 94.3395 121.494 95.1075ZM134.712 102.355V93.2115H133.128V90.5955L134.712 90.4755V89.8275C134.712 89.2035 134.784 88.6115 134.928 88.0515C135.088 87.4915 135.344 87.0035 135.696 86.5875C136.048 86.1715 136.504 85.8435 137.064 85.6035C137.624 85.3635 138.304 85.2435 139.104 85.2435C139.6 85.2435 140.048 85.2915 140.448 85.3875C140.864 85.4835 141.208 85.5795 141.48 85.6755L140.832 88.2675C140.384 88.1075 139.976 88.0275 139.608 88.0275C139.176 88.0275 138.84 88.1635 138.6 88.4355C138.36 88.6915 138.24 89.1235 138.24 89.7315V90.4515H140.376V93.2115H138.24V102.355H134.712ZM146.21 102.643C145.458 102.643 144.73 102.507 144.026 102.235C143.322 101.947 142.698 101.539 142.154 101.011C141.626 100.483 141.202 99.8355 140.882 99.0675C140.562 98.2835 140.402 97.3955 140.402 96.4035C140.402 95.4115 140.562 94.5315 140.882 93.7635C141.202 92.9795 141.626 92.3235 142.154 91.7955C142.698 91.2675 143.322 90.8675 144.026 90.5955C144.73 90.3075 145.458 90.1635 146.21 90.1635C146.962 90.1635 147.682 90.3075 148.37 90.5955C149.074 90.8675 149.69 91.2675 150.218 91.7955C150.762 92.3235 151.194 92.9795 151.514 93.7635C151.834 94.5315 151.994 95.4115 151.994 96.4035C151.994 97.3955 151.834 98.2835 151.514 99.0675C151.194 99.8355 150.762 100.483 150.218 101.011C149.69 101.539 149.074 101.947 148.37 102.235C147.682 102.507 146.962 102.643 146.21 102.643ZM146.21 99.7875C146.93 99.7875 147.474 99.4835 147.842 98.8755C148.21 98.2675 148.394 97.4435 148.394 96.4035C148.394 95.3635 148.21 94.5395 147.842 93.9315C147.474 93.3235 146.93 93.0195 146.21 93.0195C145.474 93.0195 144.922 93.3235 144.554 93.9315C144.202 94.5395 144.026 95.3635 144.026 96.4035C144.026 97.4435 144.202 98.2675 144.554 98.8755C144.922 99.4835 145.474 99.7875 146.21 99.7875ZM153.45 102.355V90.4515H156.33L156.57 92.5395H156.666C157.098 91.7235 157.618 91.1235 158.226 90.7395C158.834 90.3555 159.442 90.1635 160.05 90.1635C160.386 90.1635 160.658 90.1875 160.866 90.2355C161.09 90.2675 161.29 90.3235 161.466 90.4035L160.89 93.4515C160.666 93.3875 160.458 93.3395 160.266 93.3075C160.074 93.2755 159.85 93.2595 159.594 93.2595C159.146 93.2595 158.674 93.4195 158.178 93.7395C157.698 94.0595 157.298 94.6275 156.978 95.4435V102.355H153.45Z" fill="#009CFF"/>
<path d="M181.577 14.7474C183.467 14.7474 185 13.2223 185 11.341C185 9.45967 183.467 7.93457 181.577 7.93457C179.686 7.93457 178.153 9.45967 178.153 11.341C178.153 13.2223 179.686 14.7474 181.577 14.7474Z" fill="#0000FF"/>
<path d="M181.577 34.137C183.467 34.137 185 32.6119 185 30.7306C185 28.8493 183.467 27.3242 181.577 27.3242C179.686 27.3242 178.153 28.8493 178.153 30.7306C178.153 32.6119 179.686 34.137 181.577 34.137Z" fill="#0000FF"/>
<path d="M146.423 14.7474C148.314 14.7474 149.847 13.2223 149.847 11.341C149.847 9.45967 148.314 7.93457 146.423 7.93457C144.533 7.93457 143 9.45967 143 11.341C143 13.2223 144.533 14.7474 146.423 14.7474Z" fill="#0000FF"/>
<path d="M146.423 34.137C148.314 34.137 149.847 32.6119 149.847 30.7306C149.847 28.8493 148.314 27.3242 146.423 27.3242C144.533 27.3242 143 28.8493 143 30.7306C143 32.6119 144.533 34.137 146.423 34.137Z" fill="#0000FF"/>
<path d="M146.428 26.5928C146.984 26.5928 147.517 26.7028 148.003 26.9027V15.1657C147.517 15.3655 146.987 15.4756 146.428 15.4756C145.869 15.4756 145.287 15.354 144.783 15.1367V26.9317C145.287 26.7144 145.843 26.5928 146.428 26.5928Z" fill="#0000FF"/>
<path d="M177.47 11.9941L163.992 19.7367L150.52 11.997C150.34 13.1151 149.708 14.0855 148.814 14.7169L163.87 23.3662L163.992 23.4357L164.114 23.3662L179.173 14.714C178.279 14.0855 177.65 13.1151 177.47 11.9941Z" fill="#0000FF"/>
<path d="M181.574 26.5928C182.156 26.5928 182.709 26.7145 183.216 26.9288V15.1396C182.712 15.3569 182.159 15.4757 181.574 15.4757C180.989 15.4757 180.482 15.3627 179.996 15.1628V26.9027C180.482 26.7029 181.015 26.5899 181.574 26.5899V26.5928Z" fill="#0000FF"/>
<path d="M164.38 0.101381L164.369 0.0955878H164.363C164.339 0.0811048 164.313 0.0666218 164.287 0.057932H164.281L164.272 0.0521388C164.255 0.0463456 164.229 0.0376558 164.203 0.028966L164.179 0.0231728C164.156 0.0173796 164.133 0.0115864 164.109 0.0086898H164.083C164.054 0.0028966 164.025 0 163.996 0H163.987C163.958 0 163.929 0 163.903 0.0057932H163.897L163.879 0.0086898C163.853 0.0115864 163.83 0.0173796 163.81 0.0231728L163.786 0.028966C163.76 0.0376558 163.731 0.0463456 163.705 0.0550354C163.673 0.0666218 163.647 0.0811048 163.623 0.0926912L163.612 0.101381L149.272 8.33641C149.651 8.69269 149.959 9.1156 150.184 9.58774L163.222 2.09714V11.8065C163.222 12.2294 163.568 12.5741 163.993 12.5741C164.418 12.5741 164.764 12.2294 164.764 11.8065V2.09714L177.805 9.59064C178.03 9.1156 178.338 8.69269 178.716 8.33641L164.38 0.101381Z" fill="#0000FF"/>
<path d="M163.996 24.4407C165.887 24.4407 167.42 22.9156 167.42 21.0343C167.42 19.153 165.887 17.6279 163.996 17.6279C162.106 17.6279 160.573 19.153 160.573 21.0343C160.573 22.9156 162.106 24.4407 163.996 24.4407Z" fill="#0000FF"/>
<path d="M177.781 32.4237L164.769 39.8998V30.1905C164.769 29.7675 164.422 29.4229 163.997 29.4229C163.572 29.4229 163.226 29.7675 163.226 30.1905V39.8998L150.217 32.4266C150.002 32.9046 149.699 33.3333 149.329 33.6924L163.613 41.8985L163.625 41.9043H163.63C163.657 41.9188 163.68 41.9333 163.706 41.942H163.712L163.721 41.9477C163.738 41.9535 163.764 41.9651 163.794 41.9709L163.817 41.9767C163.84 41.9825 163.863 41.9883 163.887 41.9912H163.91C163.939 41.997 163.971 41.9999 164.003 41.9999C164.035 41.9999 164.064 41.9999 164.096 41.9941H164.102L164.117 41.9912C164.143 41.9883 164.166 41.9825 164.189 41.9767L164.213 41.9709C164.242 41.9622 164.268 41.9535 164.294 41.9448C164.326 41.9333 164.352 41.9188 164.376 41.9072L164.387 41.8985L178.674 33.6895C178.304 33.3304 178.002 32.9017 177.786 32.4237H177.781Z" fill="#0000FF"/>
<path d="M214.889 115.022V108.502H217.129C217.489 108.502 217.826 108.539 218.139 108.612C218.452 108.679 218.726 108.796 218.959 108.962C219.192 109.122 219.376 109.339 219.509 109.612C219.649 109.879 219.719 110.209 219.719 110.602C219.719 110.982 219.649 111.312 219.509 111.592C219.376 111.872 219.192 112.102 218.959 112.282C218.726 112.462 218.456 112.596 218.149 112.682C217.842 112.769 217.516 112.812 217.169 112.812H216.359V115.022H214.889ZM216.359 111.642H217.079C217.879 111.642 218.279 111.296 218.279 110.602C218.279 110.262 218.172 110.022 217.959 109.882C217.746 109.742 217.439 109.672 217.039 109.672H216.359V111.642ZM222.641 115.142C222.328 115.142 222.025 115.086 221.731 114.972C221.438 114.852 221.178 114.682 220.951 114.462C220.731 114.242 220.555 113.972 220.421 113.652C220.288 113.326 220.221 112.956 220.221 112.542C220.221 112.129 220.288 111.762 220.421 111.442C220.555 111.116 220.731 110.842 220.951 110.622C221.178 110.402 221.438 110.236 221.731 110.122C222.025 110.002 222.328 109.942 222.641 109.942C222.955 109.942 223.255 110.002 223.541 110.122C223.835 110.236 224.091 110.402 224.311 110.622C224.538 110.842 224.718 111.116 224.851 111.442C224.985 111.762 225.051 112.129 225.051 112.542C225.051 112.956 224.985 113.326 224.851 113.652C224.718 113.972 224.538 114.242 224.311 114.462C224.091 114.682 223.835 114.852 223.541 114.972C223.255 115.086 222.955 115.142 222.641 115.142ZM222.641 113.952C222.941 113.952 223.168 113.826 223.321 113.572C223.475 113.319 223.551 112.976 223.551 112.542C223.551 112.109 223.475 111.766 223.321 111.512C223.168 111.259 222.941 111.132 222.641 111.132C222.335 111.132 222.105 111.259 221.951 111.512C221.805 111.766 221.731 112.109 221.731 112.542C221.731 112.976 221.805 113.319 221.951 113.572C222.105 113.826 222.335 113.952 222.641 113.952ZM226.81 115.022L225.57 110.062H227.03L227.51 112.362C227.55 112.609 227.587 112.852 227.62 113.092C227.653 113.332 227.69 113.579 227.73 113.832H227.77C227.817 113.579 227.86 113.329 227.9 113.082C227.947 112.836 228 112.596 228.06 112.362L228.61 110.062H229.88L230.44 112.362C230.5 112.609 230.553 112.852 230.6 113.092C230.647 113.332 230.697 113.579 230.75 113.832H230.79C230.837 113.579 230.873 113.332 230.9 113.092C230.933 112.852 230.973 112.609 231.02 112.362L231.49 110.062H232.85L231.66 115.022H229.94L229.49 113.042C229.437 112.809 229.39 112.576 229.35 112.342C229.31 112.109 229.267 111.859 229.22 111.592H229.18C229.133 111.859 229.09 112.109 229.05 112.342C229.017 112.576 228.977 112.809 228.93 113.042L228.49 115.022H226.81ZM235.886 115.142C235.532 115.142 235.202 115.086 234.896 114.972C234.589 114.852 234.322 114.682 234.096 114.462C233.869 114.236 233.692 113.962 233.566 113.642C233.439 113.322 233.376 112.956 233.376 112.542C233.376 112.142 233.442 111.782 233.576 111.462C233.709 111.136 233.882 110.862 234.096 110.642C234.316 110.416 234.566 110.242 234.846 110.122C235.126 110.002 235.416 109.942 235.716 109.942C236.069 109.942 236.376 110.002 236.636 110.122C236.902 110.242 237.122 110.409 237.296 110.622C237.476 110.836 237.609 111.089 237.696 111.382C237.782 111.669 237.826 111.982 237.826 112.322C237.826 112.456 237.819 112.582 237.806 112.702C237.792 112.822 237.779 112.912 237.766 112.972H234.796C234.862 113.332 235.009 113.599 235.236 113.772C235.469 113.939 235.752 114.022 236.086 114.022C236.439 114.022 236.796 113.912 237.156 113.692L237.646 114.582C237.392 114.756 237.109 114.892 236.796 114.992C236.489 115.092 236.186 115.142 235.886 115.142ZM234.786 112.002H236.576C236.576 111.722 236.512 111.496 236.386 111.322C236.259 111.149 236.046 111.062 235.746 111.062C235.512 111.062 235.306 111.139 235.126 111.292C234.952 111.446 234.839 111.682 234.786 112.002ZM238.841 115.022V110.062H240.041L240.141 110.932H240.181C240.361 110.592 240.578 110.342 240.831 110.182C241.085 110.022 241.338 109.942 241.591 109.942C241.731 109.942 241.845 109.952 241.931 109.972C242.025 109.986 242.108 110.009 242.181 110.042L241.941 111.312C241.848 111.286 241.761 111.266 241.681 111.252C241.601 111.239 241.508 111.232 241.401 111.232C241.215 111.232 241.018 111.299 240.811 111.432C240.611 111.566 240.445 111.802 240.311 112.142V115.022H238.841ZM244.948 115.142C244.595 115.142 244.265 115.086 243.958 114.972C243.651 114.852 243.385 114.682 243.158 114.462C242.931 114.236 242.755 113.962 242.628 113.642C242.501 113.322 242.438 112.956 242.438 112.542C242.438 112.142 242.505 111.782 242.638 111.462C242.771 111.136 242.945 110.862 243.158 110.642C243.378 110.416 243.628 110.242 243.908 110.122C244.188 110.002 244.478 109.942 244.778 109.942C245.131 109.942 245.438 110.002 245.698 110.122C245.965 110.242 246.185 110.409 246.358 110.622C246.538 110.836 246.671 111.089 246.758 111.382C246.845 111.669 246.888 111.982 246.888 112.322C246.888 112.456 246.881 112.582 246.868 112.702C246.855 112.822 246.841 112.912 246.828 112.972H243.858C243.925 113.332 244.071 113.599 244.298 113.772C244.531 113.939 244.815 114.022 245.148 114.022C245.501 114.022 245.858 113.912 246.218 113.692L246.708 114.582C246.455 114.756 246.171 114.892 245.858 114.992C245.551 115.092 245.248 115.142 244.948 115.142ZM243.848 112.002H245.638C245.638 111.722 245.575 111.496 245.448 111.322C245.321 111.149 245.108 111.062 244.808 111.062C244.575 111.062 244.368 111.139 244.188 111.292C244.015 111.446 243.901 111.682 243.848 112.002ZM249.674 115.142C249.367 115.142 249.087 115.082 248.834 114.962C248.587 114.842 248.374 114.672 248.194 114.452C248.021 114.226 247.884 113.952 247.784 113.632C247.691 113.312 247.644 112.949 247.644 112.542C247.644 112.136 247.701 111.772 247.814 111.452C247.934 111.132 248.087 110.862 248.274 110.642C248.467 110.416 248.687 110.242 248.934 110.122C249.187 110.002 249.444 109.942 249.704 109.942C249.984 109.942 250.214 109.989 250.394 110.082C250.574 110.176 250.751 110.302 250.924 110.462L250.864 109.702V108.012H252.334V115.022H251.134L251.034 114.532H250.994C250.821 114.706 250.617 114.852 250.384 114.972C250.151 115.086 249.914 115.142 249.674 115.142ZM250.054 113.942C250.214 113.942 250.357 113.909 250.484 113.842C250.617 113.776 250.744 113.659 250.864 113.492V111.462C250.731 111.342 250.594 111.259 250.454 111.212C250.314 111.166 250.177 111.142 250.044 111.142C249.811 111.142 249.604 111.256 249.424 111.482C249.244 111.702 249.154 112.049 249.154 112.522C249.154 113.016 249.231 113.376 249.384 113.602C249.544 113.829 249.767 113.942 250.054 113.942ZM255.758 115.022V108.502H257.988C258.328 108.502 258.642 108.529 258.928 108.582C259.222 108.629 259.475 108.716 259.688 108.842C259.908 108.969 260.078 109.136 260.198 109.342C260.325 109.549 260.388 109.809 260.388 110.122C260.388 110.269 260.368 110.416 260.328 110.562C260.288 110.709 260.232 110.846 260.158 110.972C260.085 111.099 259.995 111.212 259.888 111.312C259.788 111.412 259.672 111.486 259.538 111.532V111.572C259.705 111.612 259.858 111.676 259.998 111.762C260.138 111.842 260.262 111.946 260.368 112.072C260.475 112.199 260.558 112.349 260.618 112.522C260.678 112.689 260.708 112.882 260.708 113.102C260.708 113.436 260.642 113.722 260.508 113.962C260.382 114.202 260.202 114.402 259.968 114.562C259.742 114.716 259.475 114.832 259.168 114.912C258.862 114.986 258.532 115.022 258.178 115.022H255.758ZM257.228 111.112H257.918C258.278 111.112 258.538 111.042 258.698 110.902C258.865 110.762 258.948 110.576 258.948 110.342C258.948 110.089 258.865 109.909 258.698 109.802C258.532 109.696 258.275 109.642 257.928 109.642H257.228V111.112ZM257.228 113.882H258.058C258.865 113.882 259.268 113.589 259.268 113.002C259.268 112.716 259.168 112.512 258.968 112.392C258.768 112.266 258.465 112.202 258.058 112.202H257.228V113.882ZM262.067 116.962C261.914 116.962 261.784 116.952 261.677 116.932C261.571 116.919 261.467 116.896 261.367 116.862L261.627 115.742C261.674 115.756 261.727 115.769 261.787 115.782C261.847 115.796 261.904 115.802 261.957 115.802C262.204 115.802 262.394 115.742 262.527 115.622C262.661 115.502 262.761 115.346 262.827 115.152L262.897 114.892L260.987 110.062H262.467L263.177 112.192C263.251 112.419 263.317 112.649 263.377 112.882C263.437 113.116 263.501 113.356 263.567 113.602H263.607C263.661 113.369 263.714 113.136 263.767 112.902C263.827 112.662 263.887 112.426 263.947 112.192L264.547 110.062H265.957L264.237 115.072C264.117 115.386 263.991 115.659 263.857 115.892C263.731 116.132 263.581 116.329 263.407 116.482C263.241 116.642 263.047 116.762 262.827 116.842C262.614 116.922 262.361 116.962 262.067 116.962ZM271.734 115.142C271.287 115.142 270.867 115.072 270.474 114.932C270.087 114.786 269.751 114.572 269.464 114.292C269.177 114.012 268.951 113.666 268.784 113.252C268.624 112.832 268.544 112.349 268.544 111.802C268.544 111.262 268.627 110.782 268.794 110.362C268.961 109.936 269.187 109.576 269.474 109.282C269.767 108.989 270.107 108.766 270.494 108.612C270.881 108.459 271.291 108.382 271.724 108.382C272.197 108.382 272.604 108.469 272.944 108.642C273.284 108.816 273.561 109.012 273.774 109.232L273.004 110.172C272.837 110.026 272.661 109.902 272.474 109.802C272.287 109.702 272.054 109.652 271.774 109.652C271.521 109.652 271.287 109.702 271.074 109.802C270.867 109.896 270.687 110.032 270.534 110.212C270.381 110.392 270.261 110.612 270.174 110.872C270.094 111.132 270.054 111.426 270.054 111.752C270.054 112.426 270.204 112.949 270.504 113.322C270.811 113.689 271.271 113.872 271.884 113.872C272.017 113.872 272.147 113.856 272.274 113.822C272.401 113.789 272.504 113.739 272.584 113.672V112.552H271.504V111.352H273.884V114.352C273.657 114.572 273.357 114.759 272.984 114.912C272.611 115.066 272.194 115.142 271.734 115.142ZM277.331 115.142C276.978 115.142 276.648 115.086 276.341 114.972C276.034 114.852 275.768 114.682 275.541 114.462C275.314 114.236 275.138 113.962 275.011 113.642C274.884 113.322 274.821 112.956 274.821 112.542C274.821 112.142 274.888 111.782 275.021 111.462C275.154 111.136 275.328 110.862 275.541 110.642C275.761 110.416 276.011 110.242 276.291 110.122C276.571 110.002 276.861 109.942 277.161 109.942C277.514 109.942 277.821 110.002 278.081 110.122C278.348 110.242 278.568 110.409 278.741 110.622C278.921 110.836 279.054 111.089 279.141 111.382C279.228 111.669 279.271 111.982 279.271 112.322C279.271 112.456 279.264 112.582 279.251 112.702C279.238 112.822 279.224 112.912 279.211 112.972H276.241C276.308 113.332 276.454 113.599 276.681 113.772C276.914 113.939 277.198 114.022 277.531 114.022C277.884 114.022 278.241 113.912 278.601 113.692L279.091 114.582C278.838 114.756 278.554 114.892 278.241 114.992C277.934 115.092 277.631 115.142 277.331 115.142ZM276.231 112.002H278.021C278.021 111.722 277.958 111.496 277.831 111.322C277.704 111.149 277.491 111.062 277.191 111.062C276.958 111.062 276.751 111.139 276.571 111.292C276.398 111.446 276.284 111.682 276.231 112.002ZM280.287 115.022V110.062H281.487L281.587 110.692H281.627C281.84 110.492 282.073 110.319 282.327 110.172C282.58 110.019 282.877 109.942 283.217 109.942C283.757 109.942 284.147 110.119 284.387 110.472C284.633 110.826 284.757 111.316 284.757 111.942V115.022H283.287V112.132C283.287 111.772 283.237 111.526 283.137 111.392C283.043 111.259 282.89 111.192 282.677 111.192C282.49 111.192 282.33 111.236 282.197 111.322C282.063 111.402 281.917 111.519 281.757 111.672V115.022H280.287ZM288.229 115.142C287.876 115.142 287.546 115.086 287.239 114.972C286.933 114.852 286.666 114.682 286.439 114.462C286.213 114.236 286.036 113.962 285.909 113.642C285.783 113.322 285.719 112.956 285.719 112.542C285.719 112.142 285.786 111.782 285.919 111.462C286.053 111.136 286.226 110.862 286.439 110.642C286.659 110.416 286.909 110.242 287.189 110.122C287.469 110.002 287.759 109.942 288.059 109.942C288.413 109.942 288.719 110.002 288.979 110.122C289.246 110.242 289.466 110.409 289.639 110.622C289.819 110.836 289.953 111.089 290.039 111.382C290.126 111.669 290.169 111.982 290.169 112.322C290.169 112.456 290.163 112.582 290.149 112.702C290.136 112.822 290.123 112.912 290.109 112.972H287.139C287.206 113.332 287.353 113.599 287.579 113.772C287.813 113.939 288.096 114.022 288.429 114.022C288.783 114.022 289.139 113.912 289.499 113.692L289.989 114.582C289.736 114.756 289.453 114.892 289.139 114.992C288.833 115.092 288.529 115.142 288.229 115.142ZM287.129 112.002H288.919C288.919 111.722 288.856 111.496 288.729 111.322C288.603 111.149 288.389 111.062 288.089 111.062C287.856 111.062 287.649 111.139 287.469 111.292C287.296 111.446 287.183 111.682 287.129 112.002ZM291.185 115.022V110.062H292.385L292.485 110.932H292.525C292.705 110.592 292.922 110.342 293.175 110.182C293.428 110.022 293.682 109.942 293.935 109.942C294.075 109.942 294.188 109.952 294.275 109.972C294.368 109.986 294.452 110.009 294.525 110.042L294.285 111.312C294.192 111.286 294.105 111.266 294.025 111.252C293.945 111.239 293.852 111.232 293.745 111.232C293.558 111.232 293.362 111.299 293.155 111.432C292.955 111.566 292.788 111.802 292.655 112.142V115.022H291.185ZM296.136 115.142C295.91 115.142 295.703 115.102 295.516 115.022C295.336 114.949 295.183 114.846 295.056 114.712C294.93 114.572 294.83 114.412 294.756 114.232C294.69 114.052 294.656 113.856 294.656 113.642C294.656 113.122 294.876 112.716 295.316 112.422C295.756 112.129 296.466 111.932 297.446 111.832C297.433 111.612 297.366 111.439 297.246 111.312C297.133 111.179 296.94 111.112 296.666 111.112C296.453 111.112 296.24 111.152 296.026 111.232C295.82 111.312 295.596 111.422 295.356 111.562L294.826 110.592C295.146 110.399 295.48 110.242 295.826 110.122C296.18 110.002 296.553 109.942 296.946 109.942C297.586 109.942 298.073 110.126 298.406 110.492C298.746 110.852 298.916 111.416 298.916 112.182V115.022H297.716L297.616 114.512H297.576C297.363 114.699 297.14 114.852 296.906 114.972C296.673 115.086 296.416 115.142 296.136 115.142ZM296.636 114.002C296.803 114.002 296.946 113.966 297.066 113.892C297.186 113.819 297.313 113.716 297.446 113.582V112.712C296.926 112.786 296.566 112.892 296.366 113.032C296.166 113.172 296.066 113.339 296.066 113.532C296.066 113.692 296.116 113.812 296.216 113.892C296.323 113.966 296.463 114.002 296.636 114.002ZM301.894 115.142C301.587 115.142 301.324 115.096 301.104 115.002C300.891 114.909 300.714 114.779 300.574 114.612C300.441 114.446 300.341 114.246 300.274 114.012C300.214 113.772 300.184 113.509 300.184 113.222V111.212H299.504V110.122L300.264 110.062L300.434 108.742H301.654V110.062H302.844V111.212H301.654V113.202C301.654 113.482 301.711 113.686 301.824 113.812C301.944 113.932 302.101 113.992 302.294 113.992C302.374 113.992 302.454 113.982 302.534 113.962C302.621 113.942 302.697 113.919 302.764 113.892L302.994 114.962C302.861 115.002 302.704 115.042 302.524 115.082C302.344 115.122 302.134 115.142 301.894 115.142ZM303.812 115.022V110.062H305.282V115.022H303.812ZM304.542 109.332C304.295 109.332 304.092 109.262 303.932 109.122C303.772 108.976 303.692 108.789 303.692 108.562C303.692 108.336 303.772 108.152 303.932 108.012C304.092 107.872 304.295 107.802 304.542 107.802C304.795 107.802 304.999 107.872 305.152 108.012C305.312 108.152 305.392 108.336 305.392 108.562C305.392 108.789 305.312 108.976 305.152 109.122C304.999 109.262 304.795 109.332 304.542 109.332ZM307.716 115.022L306.046 110.062H307.526L308.166 112.402C308.232 112.649 308.296 112.902 308.356 113.162C308.422 113.416 308.489 113.672 308.556 113.932H308.596C308.656 113.672 308.716 113.416 308.776 113.162C308.842 112.902 308.909 112.649 308.976 112.402L309.626 110.062H311.036L309.416 115.022H307.716ZM313.952 115.142C313.599 115.142 313.269 115.086 312.962 114.972C312.655 114.852 312.389 114.682 312.162 114.462C311.935 114.236 311.759 113.962 311.632 113.642C311.505 113.322 311.442 112.956 311.442 112.542C311.442 112.142 311.509 111.782 311.642 111.462C311.775 111.136 311.949 110.862 312.162 110.642C312.382 110.416 312.632 110.242 312.912 110.122C313.192 110.002 313.482 109.942 313.782 109.942C314.135 109.942 314.442 110.002 314.702 110.122C314.969 110.242 315.189 110.409 315.362 110.622C315.542 110.836 315.675 111.089 315.762 111.382C315.849 111.669 315.892 111.982 315.892 112.322C315.892 112.456 315.885 112.582 315.872 112.702C315.859 112.822 315.845 112.912 315.832 112.972H312.862C312.929 113.332 313.075 113.599 313.302 113.772C313.535 113.939 313.819 114.022 314.152 114.022C314.505 114.022 314.862 113.912 315.222 113.692L315.712 114.582C315.459 114.756 315.175 114.892 314.862 114.992C314.555 115.092 314.252 115.142 313.952 115.142ZM312.852 112.002H314.642C314.642 111.722 314.579 111.496 314.452 111.322C314.325 111.149 314.112 111.062 313.812 111.062C313.579 111.062 313.372 111.139 313.192 111.292C313.019 111.446 312.905 111.682 312.852 112.002ZM320.56 111.722L320.4 112.322H321.79L321.64 111.722C321.546 111.396 321.456 111.049 321.37 110.682C321.283 110.316 321.196 109.962 321.11 109.622H321.07C320.99 109.969 320.906 110.326 320.82 110.692C320.74 111.052 320.653 111.396 320.56 111.722ZM318.2 115.022L320.24 108.502H322.01L324.05 115.022H322.49L322.09 113.472H320.1L319.7 115.022H318.2ZM324.762 115.022V108.502H326.232V115.022H324.762Z" fill="#0000FF"/>
</svg>
