<svg width="310" height="199" viewBox="0 0 310 199" fill="none" xmlns="http://www.w3.org/2000/svg">
<path d="M61.321 180V148.704H69.049L74.089 162.624C74.409 163.552 74.713 164.512 75.001 165.504C75.289 166.464 75.593 167.424 75.913 168.384H76.105C76.425 167.424 76.713 166.464 76.969 165.504C77.257 164.512 77.561 163.552 77.881 162.624L82.825 148.704H90.505V180H84.073V168.528C84.073 167.76 84.105 166.912 84.169 165.984C84.233 165.056 84.313 164.128 84.409 163.2C84.505 162.24 84.601 161.312 84.697 160.416C84.793 159.488 84.889 158.64 84.985 157.872H84.793L82.249 165.312L77.785 177.264H73.897L69.433 165.312L66.937 157.872H66.745C66.841 158.64 66.937 159.488 67.033 160.416C67.129 161.312 67.225 162.24 67.321 163.2C67.417 164.128 67.497 165.056 67.561 165.984C67.625 166.912 67.657 167.76 67.657 168.528V180H61.321ZM103.308 180.576C102.22 180.576 101.228 180.384 100.332 180C99.4675 179.648 98.7315 179.152 98.1235 178.512C97.5155 177.84 97.0355 177.072 96.6835 176.208C96.3635 175.344 96.2035 174.4 96.2035 173.376C96.2035 170.88 97.2595 168.928 99.3715 167.52C101.484 166.112 104.892 165.168 109.596 164.688C109.532 163.632 109.212 162.8 108.636 162.192C108.092 161.552 107.164 161.232 105.852 161.232C104.828 161.232 103.804 161.424 102.78 161.808C101.788 162.192 100.716 162.72 99.5635 163.392L97.0195 158.736C98.5555 157.808 100.156 157.056 101.82 156.48C103.516 155.904 105.308 155.616 107.196 155.616C110.268 155.616 112.604 156.496 114.204 158.256C115.836 159.984 116.652 162.688 116.652 166.368V180H110.892L110.412 177.552H110.22C109.196 178.448 108.124 179.184 107.004 179.76C105.884 180.304 104.652 180.576 103.308 180.576ZM105.708 175.104C106.508 175.104 107.196 174.928 107.772 174.576C108.348 174.224 108.956 173.728 109.596 173.088V168.912C107.1 169.264 105.372 169.776 104.412 170.448C103.452 171.12 102.972 171.92 102.972 172.848C102.972 173.616 103.212 174.192 103.692 174.576C104.204 174.928 104.876 175.104 105.708 175.104ZM122.62 180V156.192H129.676V180H122.62ZM126.124 152.688C124.94 152.688 123.964 152.352 123.196 151.68C122.428 150.976 122.044 150.08 122.044 148.992C122.044 147.904 122.428 147.024 123.196 146.352C123.964 145.68 124.94 145.344 126.124 145.344C127.34 145.344 128.316 145.68 129.052 146.352C129.82 147.024 130.204 147.904 130.204 148.992C130.204 150.08 129.82 150.976 129.052 151.68C128.316 152.352 127.34 152.688 126.124 152.688ZM142.366 180.576C141.15 180.576 140.126 180.384 139.294 180C138.462 179.616 137.79 179.088 137.278 178.416C136.798 177.712 136.446 176.88 136.222 175.92C135.998 174.928 135.886 173.824 135.886 172.608V146.352H142.942V172.896C142.942 173.632 143.07 174.144 143.326 174.432C143.614 174.72 143.902 174.864 144.19 174.864C144.35 174.864 144.478 174.864 144.574 174.864C144.702 174.864 144.862 174.832 145.054 174.768L145.918 180C145.534 180.16 145.038 180.288 144.43 180.384C143.854 180.512 143.166 180.576 142.366 180.576ZM156.292 180V154.656H147.7V148.704H171.988V154.656H163.396V180H156.292ZM176.292 180V156.192H183.348V180H176.292ZM179.796 152.688C178.612 152.688 177.636 152.352 176.868 151.68C176.1 150.976 175.716 150.08 175.716 148.992C175.716 147.904 176.1 147.024 176.868 146.352C177.636 145.68 178.612 145.344 179.796 145.344C181.012 145.344 181.988 145.68 182.724 146.352C183.492 147.024 183.876 147.904 183.876 148.992C183.876 150.08 183.492 150.976 182.724 151.68C181.988 152.352 181.012 152.688 179.796 152.688ZM189.558 180V156.192H195.318L195.798 159.264H195.99C196.982 158.272 198.038 157.424 199.158 156.72C200.278 155.984 201.622 155.616 203.19 155.616C204.886 155.616 206.246 155.968 207.27 156.672C208.326 157.344 209.158 158.32 209.766 159.6C210.822 158.512 211.926 157.584 213.078 156.816C214.262 156.016 215.654 155.616 217.254 155.616C219.814 155.616 221.686 156.48 222.87 158.208C224.086 159.904 224.694 162.24 224.694 165.216V180H217.638V166.128C217.638 164.4 217.398 163.216 216.918 162.576C216.47 161.936 215.734 161.616 214.71 161.616C213.526 161.616 212.166 162.384 210.63 163.92V180H203.574V166.128C203.574 164.4 203.334 163.216 202.854 162.576C202.406 161.936 201.67 161.616 200.646 161.616C199.43 161.616 198.086 162.384 196.614 163.92V180H189.558ZM241.37 180.576C239.674 180.576 238.09 180.304 236.618 179.76C235.146 179.184 233.866 178.368 232.778 177.312C231.69 176.224 230.842 174.912 230.234 173.376C229.626 171.84 229.322 170.08 229.322 168.096C229.322 166.176 229.642 164.448 230.282 162.912C230.922 161.344 231.754 160.032 232.778 158.976C233.834 157.888 235.034 157.056 236.378 156.48C237.722 155.904 239.114 155.616 240.554 155.616C242.25 155.616 243.722 155.904 244.97 156.48C246.25 157.056 247.306 157.856 248.138 158.88C249.002 159.904 249.642 161.12 250.058 162.528C250.474 163.904 250.682 165.408 250.682 167.04C250.682 167.68 250.65 168.288 250.586 168.864C250.522 169.44 250.458 169.872 250.394 170.16H236.138C236.458 171.888 237.162 173.168 238.25 174C239.37 174.8 240.73 175.2 242.33 175.2C244.026 175.2 245.738 174.672 247.466 173.616L249.818 177.888C248.602 178.72 247.242 179.376 245.738 179.856C244.266 180.336 242.81 180.576 241.37 180.576ZM236.09 165.504H244.682C244.682 164.16 244.378 163.072 243.77 162.24C243.162 161.408 242.138 160.992 240.698 160.992C239.578 160.992 238.586 161.36 237.722 162.096C236.89 162.832 236.346 163.968 236.09 165.504ZM273.087 164.16L272.319 167.04H278.991L278.271 164.16C277.823 162.592 277.391 160.928 276.975 159.168C276.559 157.408 276.143 155.712 275.727 154.08H275.535C275.151 155.744 274.751 157.456 274.335 159.216C273.951 160.944 273.535 162.592 273.087 164.16ZM261.759 180L271.551 148.704H280.047L289.839 180H282.351L280.431 172.56H270.879L268.959 180H261.759ZM293.259 180V148.704H300.315V180H293.259Z" fill="#0000FF"/>
<path fill-rule="evenodd" clip-rule="evenodd" d="M26.0156 147.28C24.291 146.744 23.035 145.133 23.035 143.235C23.035 140.9 24.935 139 27.27 139C29.605 139 31.505 140.9 31.505 143.235C31.505 145.133 30.2496 146.744 28.5256 147.28V150.155H43.8991C46.0491 150.155 47.8391 151.825 47.9941 153.965C48.0191 154.16 48.0391 154.36 48.0391 154.565L47.9991 174.81C47.8691 176.69 46.4641 178.235 44.6391 178.565L47.7141 184.195C48.2241 185.165 48.0541 186.345 47.3091 187.095C46.8391 187.565 46.2191 187.825 45.5691 187.825V187.83C45.1491 187.83 44.7441 187.72 44.3841 187.52L27.3141 178.605L10.9141 178.645L10.6141 178.635H10.5991C8.42914 178.635 6.64914 176.945 6.50414 174.815L6.49414 174.795V174.535H6.49914L6.50414 154.375C6.49914 152 8.33914 150.155 10.6041 150.155H10.9341H26.0156V147.28ZM25.545 143.235C25.545 142.285 26.32 141.51 27.27 141.51C28.22 141.51 28.995 142.285 28.995 143.235C28.995 144.185 28.22 144.96 27.27 144.96C26.32 144.96 25.545 144.185 25.545 143.235ZM9.00914 174.205V174.505C9.00914 175.415 9.72914 176.135 10.6091 176.135H10.9141H27.2941C27.9091 176.135 28.1141 176.185 28.6591 176.475L45.5891 185.315L41.9641 178.915C41.6441 178.315 41.6641 177.625 42.0041 177.06C42.3441 176.495 42.9391 176.16 43.5991 176.16C43.6797 176.16 43.7512 176.151 43.8266 176.142L43.8391 176.14C44.8041 176.09 45.4741 175.41 45.4991 174.575L45.5291 174.235V154.57C45.5291 154.47 45.5191 154.37 45.5041 154.275L45.4941 154.17C45.4441 153.325 44.7441 152.665 43.8991 152.665H10.6591C9.71914 152.75 9.00914 153.38 9.00914 154.265V174.205ZM17.7503 165.09C18.8853 165.09 19.8053 164.17 19.8053 163.035C19.8053 161.901 18.8853 160.98 17.7503 160.98C16.6154 160.98 15.6953 161.901 15.6953 163.035C15.6953 164.17 16.6154 165.09 17.7503 165.09ZM29.3209 163.035C29.3209 164.17 28.4009 165.09 27.2659 165.09C26.131 165.09 25.2109 164.17 25.2109 163.035C25.2109 161.901 26.131 160.98 27.2659 160.98C28.4009 160.98 29.3209 161.901 29.3209 163.035ZM36.7796 165.09C37.9146 165.09 38.8346 164.17 38.8346 163.035C38.8346 161.901 37.9146 160.98 36.7796 160.98C35.6447 160.98 34.7246 161.901 34.7246 163.035C34.7246 164.17 35.6447 165.09 36.7796 165.09ZM24.3445 166.936H30.1745C30.8395 166.936 31.3845 167.576 31.1745 168.211C30.6395 169.856 29.0895 171.051 27.2595 171.051C25.4295 171.051 23.8845 169.861 23.3445 168.211C23.1345 167.576 23.6795 166.936 24.3445 166.936Z" fill="#0000FF"/>
<path d="M0.919389 23V5.54545H12.6808V8.58807H4.60973V12.7472H12.0756V15.7898H4.60973V19.9574H12.7148V23H0.919389ZM19.2795 23.2472C18.4442 23.2472 17.6999 23.1023 17.0465 22.8125C16.3931 22.517 15.8761 22.0824 15.4954 21.5085C15.1204 20.929 14.9329 20.2074 14.9329 19.3438C14.9329 18.6165 15.0664 18.0057 15.3335 17.5114C15.6005 17.017 15.9641 16.6193 16.4244 16.3182C16.8846 16.017 17.4073 15.7898 17.9925 15.6364C18.5835 15.483 19.2028 15.375 19.8505 15.3125C20.6119 15.233 21.2255 15.1591 21.6914 15.0909C22.1573 15.017 22.4954 14.9091 22.7056 14.767C22.9158 14.625 23.021 14.4148 23.021 14.1364V14.0852C23.021 13.5455 22.8505 13.1278 22.5096 12.8324C22.1744 12.5369 21.6971 12.3892 21.0778 12.3892C20.4244 12.3892 19.9045 12.5341 19.5181 12.8239C19.1317 13.108 18.8761 13.4659 18.7511 13.8977L15.3931 13.625C15.5636 12.8295 15.8988 12.142 16.3988 11.5625C16.8988 10.9773 17.5437 10.5284 18.3335 10.2159C19.1289 9.89773 20.0494 9.73864 21.0948 9.73864C21.8221 9.73864 22.5181 9.82386 23.1829 9.99432C23.8533 10.1648 24.4471 10.429 24.9641 10.7869C25.4869 11.1449 25.8988 11.6051 26.1999 12.1676C26.5011 12.7244 26.6516 13.392 26.6516 14.1705V23H23.2085V21.1847H23.1062C22.896 21.5938 22.6147 21.9545 22.2624 22.267C21.9102 22.5739 21.4869 22.8153 20.9925 22.9915C20.4982 23.1619 19.9272 23.2472 19.2795 23.2472ZM20.3192 20.7415C20.8533 20.7415 21.3249 20.6364 21.734 20.4261C22.1431 20.2102 22.4641 19.9205 22.6971 19.5568C22.93 19.1932 23.0465 18.7812 23.0465 18.321V16.9318C22.9329 17.0057 22.7766 17.0739 22.5778 17.1364C22.3846 17.1932 22.1658 17.2472 21.9215 17.2983C21.6772 17.3437 21.4329 17.3864 21.1886 17.4261C20.9442 17.4602 20.7227 17.4915 20.5238 17.5199C20.0977 17.5824 19.7255 17.6818 19.4073 17.8182C19.0891 17.9545 18.842 18.1392 18.6658 18.3722C18.4897 18.5994 18.4016 18.8835 18.4016 19.2244C18.4016 19.7188 18.5806 20.0966 18.9386 20.358C19.3022 20.6136 19.7624 20.7415 20.3192 20.7415ZM29.4684 23V9.90909H32.9883V12.1932H33.1246C33.3633 11.3807 33.7638 10.767 34.3263 10.3523C34.8888 9.93182 35.5366 9.72159 36.2695 9.72159C36.4513 9.72159 36.6474 9.73295 36.8576 9.75568C37.0678 9.77841 37.2525 9.80966 37.4116 9.84943V13.071C37.2411 13.0199 37.0053 12.9744 36.7042 12.9347C36.4031 12.8949 36.1275 12.875 35.8775 12.875C35.3434 12.875 34.8661 12.9915 34.4457 13.2244C34.0309 13.4517 33.7013 13.7699 33.457 14.179C33.2184 14.5881 33.0991 15.0597 33.0991 15.5938V23H29.4684ZM42.9194 5.54545V23H39.2887V5.54545H42.9194ZM48.0692 27.9091C47.609 27.9091 47.1772 27.8722 46.7738 27.7983C46.3761 27.7301 46.0465 27.642 45.7852 27.5341L46.6033 24.8239C47.0295 24.9545 47.413 25.0256 47.7539 25.0369C48.1005 25.0483 48.3988 24.9688 48.6488 24.7983C48.9045 24.6278 49.1119 24.3381 49.271 23.929L49.484 23.375L44.788 9.90909H48.6062L51.3164 19.5227H51.4528L54.1886 9.90909H58.0323L52.9442 24.4148C52.6999 25.1193 52.3675 25.733 51.9471 26.2557C51.5323 26.7841 51.0067 27.1903 50.3704 27.4744C49.734 27.7642 48.967 27.9091 48.0692 27.9091ZM69.1779 23.2472C68.3427 23.2472 67.5984 23.1023 66.945 22.8125C66.2915 22.517 65.7745 22.0824 65.3938 21.5085C65.0188 20.929 64.8313 20.2074 64.8313 19.3438C64.8313 18.6165 64.9648 18.0057 65.2319 17.5114C65.4989 17.017 65.8626 16.6193 66.3228 16.3182C66.783 16.017 67.3058 15.7898 67.891 15.6364C68.4819 15.483 69.1012 15.375 69.7489 15.3125C70.5103 15.233 71.1239 15.1591 71.5898 15.0909C72.0558 15.017 72.3938 14.9091 72.604 14.767C72.8143 14.625 72.9194 14.4148 72.9194 14.1364V14.0852C72.9194 13.5455 72.7489 13.1278 72.408 12.8324C72.0728 12.5369 71.5955 12.3892 70.9762 12.3892C70.3228 12.3892 69.8029 12.5341 69.4165 12.8239C69.0302 13.108 68.7745 13.4659 68.6495 13.8977L65.2915 13.625C65.462 12.8295 65.7972 12.142 66.2972 11.5625C66.7972 10.9773 67.4421 10.5284 68.2319 10.2159C69.0273 9.89773 69.9478 9.73864 70.9933 9.73864C71.7205 9.73864 72.4165 9.82386 73.0813 9.99432C73.7518 10.1648 74.3455 10.429 74.8626 10.7869C75.3853 11.1449 75.7972 11.6051 76.0984 12.1676C76.3995 12.7244 76.5501 13.392 76.5501 14.1705V23H73.1069V21.1847H73.0046C72.7944 21.5938 72.5131 21.9545 72.1609 22.267C71.8086 22.5739 71.3853 22.8153 70.891 22.9915C70.3967 23.1619 69.8256 23.2472 69.1779 23.2472ZM70.2177 20.7415C70.7518 20.7415 71.2234 20.6364 71.6325 20.4261C72.0415 20.2102 72.3626 19.9205 72.5955 19.5568C72.8285 19.1932 72.945 18.7812 72.945 18.321V16.9318C72.8313 17.0057 72.6751 17.0739 72.4762 17.1364C72.283 17.1932 72.0643 17.2472 71.82 17.2983C71.5756 17.3437 71.3313 17.3864 71.087 17.4261C70.8427 17.4602 70.6211 17.4915 70.4222 17.5199C69.9961 17.5824 69.6239 17.6818 69.3058 17.8182C68.9876 17.9545 68.7404 18.1392 68.5643 18.3722C68.3881 18.5994 68.3001 18.8835 68.3001 19.2244C68.3001 19.7188 68.479 20.0966 68.837 20.358C69.2006 20.6136 69.6609 20.7415 70.2177 20.7415ZM85.2816 23.2557C83.9407 23.2557 82.7873 22.9716 81.8214 22.4034C80.8612 21.8295 80.1225 21.0341 79.6055 20.017C79.0941 19 78.8384 17.8295 78.8384 16.5057C78.8384 15.1648 79.0969 13.9886 79.614 12.9773C80.1367 11.9602 80.8782 11.1676 81.8384 10.5994C82.7987 10.0256 83.9407 9.73864 85.2646 9.73864C86.4066 9.73864 87.4066 9.94602 88.2646 10.3608C89.1225 10.7756 89.8015 11.358 90.3015 12.108C90.8015 12.858 91.0771 13.7386 91.1282 14.75H87.7021C87.6055 14.0966 87.3498 13.571 86.935 13.1733C86.5259 12.7699 85.989 12.5682 85.3242 12.5682C84.7617 12.5682 84.2702 12.7216 83.8498 13.0284C83.435 13.3295 83.1112 13.7699 82.8782 14.3494C82.6452 14.929 82.5288 15.6307 82.5288 16.4545C82.5288 17.2898 82.6424 18 82.8697 18.5852C83.1026 19.1705 83.4293 19.6165 83.8498 19.9233C84.2702 20.2301 84.7617 20.3835 85.3242 20.3835C85.739 20.3835 86.1112 20.2983 86.4407 20.1278C86.7759 19.9574 87.0515 19.7102 87.2674 19.3864C87.489 19.0568 87.6339 18.6619 87.7021 18.2017H91.1282C91.0714 19.2017 90.7987 20.0824 90.31 20.8438C89.8271 21.5994 89.1594 22.1903 88.3072 22.6165C87.4549 23.0426 86.4464 23.2557 85.2816 23.2557ZM99.3675 23.2557C98.0266 23.2557 96.8732 22.9716 95.9073 22.4034C94.9471 21.8295 94.2085 21.0341 93.6914 20.017C93.18 19 92.9244 17.8295 92.9244 16.5057C92.9244 15.1648 93.1829 13.9886 93.6999 12.9773C94.2227 11.9602 94.9641 11.1676 95.9244 10.5994C96.8846 10.0256 98.0266 9.73864 99.3505 9.73864C100.493 9.73864 101.493 9.94602 102.35 10.3608C103.208 10.7756 103.887 11.358 104.387 12.108C104.887 12.858 105.163 13.7386 105.214 14.75H101.788C101.691 14.0966 101.436 13.571 101.021 13.1733C100.612 12.7699 100.075 12.5682 99.4102 12.5682C98.8477 12.5682 98.3562 12.7216 97.9357 13.0284C97.521 13.3295 97.1971 13.7699 96.9641 14.3494C96.7312 14.929 96.6147 15.6307 96.6147 16.4545C96.6147 17.2898 96.7283 18 96.9556 18.5852C97.1886 19.1705 97.5153 19.6165 97.9357 19.9233C98.3562 20.2301 98.8477 20.3835 99.4102 20.3835C99.8249 20.3835 100.197 20.2983 100.527 20.1278C100.862 19.9574 101.137 19.7102 101.353 19.3864C101.575 19.0568 101.72 18.6619 101.788 18.2017H105.214C105.157 19.2017 104.885 20.0824 104.396 20.8438C103.913 21.5994 103.245 22.1903 102.393 22.6165C101.541 23.0426 100.532 23.2557 99.3675 23.2557ZM113.505 23.2557C112.158 23.2557 110.999 22.983 110.027 22.4375C109.061 21.8864 108.317 21.108 107.794 20.1023C107.272 19.0909 107.01 17.8949 107.01 16.5142C107.01 15.1676 107.272 13.9858 107.794 12.9688C108.317 11.9517 109.053 11.1591 110.002 10.5909C110.956 10.0227 112.076 9.73864 113.36 9.73864C114.223 9.73864 115.027 9.87784 115.772 10.1562C116.522 10.429 117.175 10.8409 117.732 11.392C118.294 11.9432 118.732 12.6364 119.044 13.4716C119.357 14.3011 119.513 15.2727 119.513 16.3864V17.3835H108.459V15.1335H116.096C116.096 14.6108 115.982 14.1477 115.755 13.7443C115.527 13.3409 115.212 13.0256 114.809 12.7983C114.411 12.5653 113.948 12.4489 113.419 12.4489C112.868 12.4489 112.38 12.5767 111.953 12.8324C111.533 13.0824 111.203 13.4205 110.965 13.8466C110.726 14.267 110.604 14.7358 110.598 15.2528V17.392C110.598 18.0398 110.718 18.5994 110.956 19.071C111.201 19.5426 111.544 19.9062 111.988 20.1619C112.431 20.4176 112.956 20.5455 113.564 20.5455C113.968 20.5455 114.337 20.4886 114.672 20.375C115.007 20.2614 115.294 20.0909 115.533 19.8636C115.772 19.6364 115.953 19.358 116.078 19.0284L119.436 19.25C119.266 20.0568 118.917 20.7614 118.388 21.3636C117.865 21.9602 117.189 22.4261 116.36 22.7614C115.536 23.0909 114.584 23.2557 113.505 23.2557ZM132.775 13.642L129.451 13.8466C129.394 13.5625 129.272 13.3068 129.084 13.0795C128.897 12.8466 128.65 12.6619 128.343 12.5256C128.042 12.3835 127.681 12.3125 127.26 12.3125C126.698 12.3125 126.223 12.4318 125.837 12.6705C125.451 12.9034 125.257 13.2159 125.257 13.608C125.257 13.9205 125.382 14.1847 125.632 14.4006C125.882 14.6165 126.311 14.7898 126.919 14.9205L129.289 15.3977C130.561 15.6591 131.51 16.0795 132.135 16.6591C132.76 17.2386 133.073 18 133.073 18.9432C133.073 19.8011 132.82 20.554 132.314 21.2017C131.814 21.8494 131.127 22.3551 130.252 22.7188C129.382 23.0767 128.38 23.2557 127.243 23.2557C125.51 23.2557 124.13 22.8949 123.101 22.1733C122.078 21.446 121.479 20.4574 121.303 19.2074L124.874 19.0199C124.982 19.5483 125.243 19.9517 125.658 20.2301C126.073 20.5028 126.604 20.6392 127.252 20.6392C127.888 20.6392 128.4 20.517 128.786 20.2727C129.178 20.0227 129.377 19.7017 129.382 19.3097C129.377 18.9801 129.238 18.7102 128.965 18.5C128.692 18.2841 128.272 18.1193 127.703 18.0057L125.436 17.554C124.158 17.2983 123.206 16.8551 122.581 16.2244C121.962 15.5937 121.652 14.7898 121.652 13.8125C121.652 12.9716 121.88 12.2472 122.334 11.6392C122.794 11.0312 123.439 10.5625 124.269 10.233C125.104 9.90341 126.081 9.73864 127.201 9.73864C128.854 9.73864 130.155 10.0881 131.104 10.7869C132.059 11.4858 132.615 12.4375 132.775 13.642ZM146.251 13.642L142.927 13.8466C142.87 13.5625 142.748 13.3068 142.561 13.0795C142.373 12.8466 142.126 12.6619 141.819 12.5256C141.518 12.3835 141.157 12.3125 140.737 12.3125C140.174 12.3125 139.7 12.4318 139.314 12.6705C138.927 12.9034 138.734 13.2159 138.734 13.608C138.734 13.9205 138.859 14.1847 139.109 14.4006C139.359 14.6165 139.788 14.7898 140.396 14.9205L142.765 15.3977C144.038 15.6591 144.987 16.0795 145.612 16.6591C146.237 17.2386 146.549 18 146.549 18.9432C146.549 19.8011 146.297 20.554 145.791 21.2017C145.291 21.8494 144.603 22.3551 143.728 22.7188C142.859 23.0767 141.856 23.2557 140.72 23.2557C138.987 23.2557 137.606 22.8949 136.578 22.1733C135.555 21.446 134.956 20.4574 134.779 19.2074L138.35 19.0199C138.458 19.5483 138.72 19.9517 139.135 20.2301C139.549 20.5028 140.081 20.6392 140.728 20.6392C141.365 20.6392 141.876 20.517 142.262 20.2727C142.654 20.0227 142.853 19.7017 142.859 19.3097C142.853 18.9801 142.714 18.7102 142.441 18.5C142.169 18.2841 141.748 18.1193 141.18 18.0057L138.913 17.554C137.635 17.2983 136.683 16.8551 136.058 16.2244C135.439 15.5937 135.129 14.7898 135.129 13.8125C135.129 12.9716 135.356 12.2472 135.811 11.6392C136.271 11.0312 136.916 10.5625 137.745 10.233C138.581 9.90341 139.558 9.73864 140.677 9.73864C142.331 9.73864 143.632 10.0881 144.581 10.7869C145.535 11.4858 146.092 12.4375 146.251 13.642Z" fill="#0000FF"/>
<path d="M165.282 13.642L161.958 13.8466C161.902 13.5625 161.779 13.3068 161.592 13.0795C161.404 12.8466 161.157 12.6619 160.85 12.5256C160.549 12.3835 160.189 12.3125 159.768 12.3125C159.206 12.3125 158.731 12.4318 158.345 12.6705C157.958 12.9034 157.765 13.2159 157.765 13.608C157.765 13.9205 157.89 14.1847 158.14 14.4006C158.39 14.6165 158.819 14.7898 159.427 14.9205L161.797 15.3977C163.069 15.6591 164.018 16.0795 164.643 16.6591C165.268 17.2386 165.581 18 165.581 18.9432C165.581 19.8011 165.328 20.554 164.822 21.2017C164.322 21.8494 163.635 22.3551 162.76 22.7188C161.89 23.0767 160.887 23.2557 159.751 23.2557C158.018 23.2557 156.637 22.8949 155.609 22.1733C154.586 21.446 153.987 20.4574 153.811 19.2074L157.382 19.0199C157.49 19.5483 157.751 19.9517 158.166 20.2301C158.581 20.5028 159.112 20.6392 159.76 20.6392C160.396 20.6392 160.907 20.517 161.294 20.2727C161.686 20.0227 161.885 19.7017 161.89 19.3097C161.885 18.9801 161.745 18.7102 161.473 18.5C161.2 18.2841 160.779 18.1193 160.211 18.0057L157.944 17.554C156.666 17.2983 155.714 16.8551 155.089 16.2244C154.47 15.5937 154.16 14.7898 154.16 13.8125C154.16 12.9716 154.387 12.2472 154.842 11.6392C155.302 11.0312 155.947 10.5625 156.777 10.233C157.612 9.90341 158.589 9.73864 159.708 9.73864C161.362 9.73864 162.663 10.0881 163.612 10.7869C164.566 11.4858 165.123 12.4375 165.282 13.642ZM174.83 9.90909V12.6364H166.946V9.90909H174.83ZM168.736 6.77273H172.367V18.9773C172.367 19.3125 172.418 19.5739 172.52 19.7614C172.623 19.9432 172.765 20.071 172.946 20.1449C173.134 20.2187 173.35 20.2557 173.594 20.2557C173.765 20.2557 173.935 20.2415 174.105 20.2131C174.276 20.179 174.407 20.1534 174.498 20.1364L175.069 22.8381C174.887 22.8949 174.631 22.9602 174.301 23.0341C173.972 23.1136 173.571 23.1619 173.1 23.179C172.225 23.2131 171.458 23.0966 170.799 22.8295C170.145 22.5625 169.637 22.1477 169.273 21.5852C168.909 21.0227 168.73 20.3125 168.736 19.4545V6.77273ZM180.928 23.2472C180.093 23.2472 179.348 23.1023 178.695 22.8125C178.042 22.517 177.525 22.0824 177.144 21.5085C176.769 20.929 176.581 20.2074 176.581 19.3438C176.581 18.6165 176.715 18.0057 176.982 17.5114C177.249 17.017 177.613 16.6193 178.073 16.3182C178.533 16.017 179.056 15.7898 179.641 15.6364C180.232 15.483 180.851 15.375 181.499 15.3125C182.26 15.233 182.874 15.1591 183.34 15.0909C183.806 15.017 184.144 14.9091 184.354 14.767C184.564 14.625 184.669 14.4148 184.669 14.1364V14.0852C184.669 13.5455 184.499 13.1278 184.158 12.8324C183.823 12.5369 183.346 12.3892 182.726 12.3892C182.073 12.3892 181.553 12.5341 181.167 12.8239C180.78 13.108 180.525 13.4659 180.4 13.8977L177.042 13.625C177.212 12.8295 177.547 12.142 178.047 11.5625C178.547 10.9773 179.192 10.5284 179.982 10.2159C180.777 9.89773 181.698 9.73864 182.743 9.73864C183.471 9.73864 184.167 9.82386 184.831 9.99432C185.502 10.1648 186.096 10.429 186.613 10.7869C187.135 11.1449 187.547 11.6051 187.848 12.1676C188.15 12.7244 188.3 13.392 188.3 14.1705V23H184.857V21.1847H184.755C184.544 21.5938 184.263 21.9545 183.911 22.267C183.559 22.5739 183.135 22.8153 182.641 22.9915C182.147 23.1619 181.576 23.2472 180.928 23.2472ZM181.968 20.7415C182.502 20.7415 182.973 20.6364 183.382 20.4261C183.792 20.2102 184.113 19.9205 184.346 19.5568C184.578 19.1932 184.695 18.7812 184.695 18.321V16.9318C184.581 17.0057 184.425 17.0739 184.226 17.1364C184.033 17.1932 183.814 17.2472 183.57 17.2983C183.326 17.3437 183.081 17.3864 182.837 17.4261C182.593 17.4602 182.371 17.4915 182.172 17.5199C181.746 17.5824 181.374 17.6818 181.056 17.8182C180.738 17.9545 180.49 18.1392 180.314 18.3722C180.138 18.5994 180.05 18.8835 180.05 19.2244C180.05 19.7188 180.229 20.0966 180.587 20.358C180.951 20.6136 181.411 20.7415 181.968 20.7415ZM191.117 23V9.90909H194.637V12.1932H194.773C195.012 11.3807 195.412 10.767 195.975 10.3523C196.537 9.93182 197.185 9.72159 197.918 9.72159C198.1 9.72159 198.296 9.73295 198.506 9.75568C198.716 9.77841 198.901 9.80966 199.06 9.84943V13.071C198.89 13.0199 198.654 12.9744 198.353 12.9347C198.051 12.8949 197.776 12.875 197.526 12.875C196.992 12.875 196.515 12.9915 196.094 13.2244C195.679 13.4517 195.35 13.7699 195.105 14.179C194.867 14.5881 194.748 15.0597 194.748 15.5938V23H191.117ZM208.556 9.90909V12.6364H200.673V9.90909H208.556ZM202.463 6.77273H206.093V18.9773C206.093 19.3125 206.145 19.5739 206.247 19.7614C206.349 19.9432 206.491 20.071 206.673 20.1449C206.86 20.2187 207.076 20.2557 207.321 20.2557C207.491 20.2557 207.662 20.2415 207.832 20.2131C208.002 20.179 208.133 20.1534 208.224 20.1364L208.795 22.8381C208.613 22.8949 208.358 22.9602 208.028 23.0341C207.699 23.1136 207.298 23.1619 206.826 23.179C205.951 23.2131 205.184 23.0966 204.525 22.8295C203.872 22.5625 203.363 22.1477 203 21.5852C202.636 21.0227 202.457 20.3125 202.463 19.4545V6.77273ZM221.65 13.642L218.326 13.8466C218.269 13.5625 218.147 13.3068 217.959 13.0795C217.772 12.8466 217.525 12.6619 217.218 12.5256C216.917 12.3835 216.556 12.3125 216.135 12.3125C215.573 12.3125 215.098 12.4318 214.712 12.6705C214.326 12.9034 214.132 13.2159 214.132 13.608C214.132 13.9205 214.257 14.1847 214.507 14.4006C214.757 14.6165 215.186 14.7898 215.794 14.9205L218.164 15.3977C219.436 15.6591 220.385 16.0795 221.01 16.6591C221.635 17.2386 221.948 18 221.948 18.9432C221.948 19.8011 221.695 20.554 221.189 21.2017C220.689 21.8494 220.002 22.3551 219.127 22.7188C218.257 23.0767 217.255 23.2557 216.118 23.2557C214.385 23.2557 213.005 22.8949 211.976 22.1733C210.953 21.446 210.354 20.4574 210.178 19.2074L213.749 19.0199C213.857 19.5483 214.118 19.9517 214.533 20.2301C214.948 20.5028 215.479 20.6392 216.127 20.6392C216.763 20.6392 217.275 20.517 217.661 20.2727C218.053 20.0227 218.252 19.7017 218.257 19.3097C218.252 18.9801 218.113 18.7102 217.84 18.5C217.567 18.2841 217.147 18.1193 216.578 18.0057L214.311 17.554C213.033 17.2983 212.081 16.8551 211.456 16.2244C210.837 15.5937 210.527 14.7898 210.527 13.8125C210.527 12.9716 210.755 12.2472 211.209 11.6392C211.669 11.0312 212.314 10.5625 213.144 10.233C213.979 9.90341 214.956 9.73864 216.076 9.73864C217.729 9.73864 219.03 10.0881 219.979 10.7869C220.934 11.4858 221.49 12.4375 221.65 13.642ZM226.356 23.2216C225.794 23.2216 225.311 23.0227 224.907 22.625C224.51 22.2216 224.311 21.7386 224.311 21.1761C224.311 20.6193 224.51 20.142 224.907 19.7443C225.311 19.3466 225.794 19.1477 226.356 19.1477C226.902 19.1477 227.379 19.3466 227.788 19.7443C228.197 20.142 228.402 20.6193 228.402 21.1761C228.402 21.5511 228.305 21.8949 228.112 22.2074C227.924 22.5142 227.677 22.7614 227.37 22.9489C227.064 23.1307 226.725 23.2216 226.356 23.2216ZM233.505 23.2216C232.942 23.2216 232.459 23.0227 232.056 22.625C231.658 22.2216 231.459 21.7386 231.459 21.1761C231.459 20.6193 231.658 20.142 232.056 19.7443C232.459 19.3466 232.942 19.1477 233.505 19.1477C234.05 19.1477 234.527 19.3466 234.936 19.7443C235.346 20.142 235.55 20.6193 235.55 21.1761C235.55 21.5511 235.453 21.8949 235.26 22.2074C235.073 22.5142 234.826 22.7614 234.519 22.9489C234.212 23.1307 233.874 23.2216 233.505 23.2216ZM240.653 23.2216C240.091 23.2216 239.608 23.0227 239.204 22.625C238.806 22.2216 238.608 21.7386 238.608 21.1761C238.608 20.6193 238.806 20.142 239.204 19.7443C239.608 19.3466 240.091 19.1477 240.653 19.1477C241.199 19.1477 241.676 19.3466 242.085 19.7443C242.494 20.142 242.699 20.6193 242.699 21.1761C242.699 21.5511 242.602 21.8949 242.409 22.2074C242.221 22.5142 241.974 22.7614 241.667 22.9489C241.36 23.1307 241.022 23.2216 240.653 23.2216ZM265.081 5.54545V23H261.894L254.3 12.0142H254.172V23H250.482V5.54545H253.721L261.255 16.5227H261.408V5.54545H265.081ZM284.17 14.2727C284.17 16.1761 283.809 17.7955 283.088 19.1307C282.372 20.4659 281.395 21.4858 280.156 22.1903C278.923 22.8892 277.537 23.2386 275.997 23.2386C274.446 23.2386 273.054 22.8864 271.821 22.1818C270.588 21.4773 269.613 20.4574 268.897 19.1222C268.181 17.7869 267.824 16.1705 267.824 14.2727C267.824 12.3693 268.181 10.75 268.897 9.41477C269.613 8.07955 270.588 7.0625 271.821 6.36364C273.054 5.65909 274.446 5.30682 275.997 5.30682C277.537 5.30682 278.923 5.65909 280.156 6.36364C281.395 7.0625 282.372 8.07955 283.088 9.41477C283.809 10.75 284.17 12.3693 284.17 14.2727ZM280.429 14.2727C280.429 13.0398 280.244 12 279.875 11.1534C279.511 10.3068 278.997 9.66477 278.332 9.22727C277.667 8.78977 276.889 8.57102 275.997 8.57102C275.105 8.57102 274.326 8.78977 273.662 9.22727C272.997 9.66477 272.48 10.3068 272.11 11.1534C271.747 12 271.565 13.0398 271.565 14.2727C271.565 15.5057 271.747 16.5455 272.11 17.392C272.48 18.2386 272.997 18.8807 273.662 19.3182C274.326 19.7557 275.105 19.9744 275.997 19.9744C276.889 19.9744 277.667 19.7557 278.332 19.3182C278.997 18.8807 279.511 18.2386 279.875 17.392C280.244 16.5455 280.429 15.5057 280.429 14.2727ZM290.176 23L285.182 5.54545H289.213L292.103 17.6733H292.248L295.435 5.54545H298.887L302.066 17.6989H302.219L305.108 5.54545H309.14L304.145 23H300.549L297.225 11.5881H297.088L293.773 23H290.176Z" fill="#009CFF"/>
<path d="M44.1537 78V42.792H56.2497C58.1937 42.792 60.0117 42.99 61.7037 43.386C63.3957 43.746 64.8717 44.376 66.1317 45.276C67.3917 46.14 68.3817 47.31 69.1017 48.786C69.8577 50.226 70.2357 52.008 70.2357 54.132C70.2357 56.184 69.8577 57.966 69.1017 59.478C68.3817 60.99 67.3917 62.232 66.1317 63.204C64.8717 64.176 63.4137 64.896 61.7577 65.364C60.1017 65.832 58.3377 66.066 56.4657 66.066H52.0917V78H44.1537ZM52.0917 59.748H55.9797C60.2997 59.748 62.4597 57.876 62.4597 54.132C62.4597 52.296 61.8837 51 60.7317 50.244C59.5797 49.488 57.9237 49.11 55.7637 49.11H52.0917V59.748ZM76.8617 78V42.792H89.5517C91.4237 42.792 93.1697 42.972 94.7897 43.332C96.4457 43.692 97.8857 44.304 99.1097 45.168C100.334 45.996 101.306 47.112 102.026 48.516C102.746 49.92 103.106 51.666 103.106 53.754C103.106 56.346 102.53 58.488 101.378 60.18C100.262 61.836 98.7497 63.078 96.8417 63.906L104.834 78H95.9237L89.1737 65.31H84.7997V78H76.8617ZM84.7997 58.992H88.9037C90.9917 58.992 92.5757 58.56 93.6557 57.696C94.7717 56.796 95.3297 55.482 95.3297 53.754C95.3297 52.026 94.7717 50.82 93.6557 50.136C92.5757 49.452 90.9917 49.11 88.9037 49.11H84.7997V58.992ZM110.519 78V42.792H118.457V78H110.519ZM141.611 78.648C139.235 78.648 137.057 78.234 135.077 77.406C133.133 76.542 131.459 75.318 130.055 73.734C128.651 72.15 127.553 70.224 126.761 67.956C126.005 65.688 125.627 63.114 125.627 60.234C125.627 57.354 126.005 54.798 126.761 52.566C127.553 50.298 128.651 48.408 130.055 46.896C131.459 45.348 133.133 44.178 135.077 43.386C137.057 42.558 139.235 42.144 141.611 42.144C143.987 42.144 146.147 42.558 148.091 43.386C150.071 44.178 151.763 45.348 153.167 46.896C154.571 48.444 155.651 50.352 156.407 52.62C157.199 54.852 157.595 57.39 157.595 60.234C157.595 63.114 157.199 65.688 156.407 67.956C155.651 70.224 154.571 72.15 153.167 73.734C151.763 75.318 150.071 76.542 148.091 77.406C146.147 78.234 143.987 78.648 141.611 78.648ZM141.611 71.79C144.023 71.79 145.931 70.764 147.335 68.712C148.739 66.624 149.441 63.798 149.441 60.234C149.441 56.706 148.739 53.952 147.335 51.972C145.931 49.992 144.023 49.002 141.611 49.002C139.199 49.002 137.291 49.992 135.887 51.972C134.483 53.952 133.781 56.706 133.781 60.234C133.781 63.798 134.483 66.624 135.887 68.712C137.291 70.764 139.199 71.79 141.611 71.79ZM164.755 78V42.792H177.445C179.317 42.792 181.063 42.972 182.683 43.332C184.339 43.692 185.779 44.304 187.003 45.168C188.227 45.996 189.199 47.112 189.919 48.516C190.639 49.92 190.999 51.666 190.999 53.754C190.999 56.346 190.423 58.488 189.271 60.18C188.155 61.836 186.643 63.078 184.735 63.906L192.727 78H183.817L177.067 65.31H172.693V78H164.755ZM172.693 58.992H176.797C178.885 58.992 180.469 58.56 181.549 57.696C182.665 56.796 183.223 55.482 183.223 53.754C183.223 52.026 182.665 50.82 181.549 50.136C180.469 49.452 178.885 49.11 176.797 49.11H172.693V58.992ZM198.412 78V42.792H206.35V78H198.412ZM222.053 78V49.488H212.387V42.792H239.711V49.488H230.045V78H222.053ZM250.839 78V65.472L240.201 42.792H248.733L251.865 50.892C252.369 52.224 252.837 53.52 253.269 54.78C253.737 56.004 254.223 57.3 254.727 58.668H254.943C255.447 57.3 255.933 56.004 256.401 54.78C256.905 53.52 257.409 52.224 257.913 50.892L261.099 42.792H269.415L258.777 65.472V78H250.839ZM44.552 110.18L43.688 113.42H51.194L50.384 110.18C49.88 108.416 49.394 106.544 48.926 104.564C48.458 102.584 47.99 100.676 47.522 98.84H47.306C46.874 100.712 46.424 102.638 45.956 104.618C45.524 106.562 45.056 108.416 44.552 110.18ZM31.808 128L42.824 92.792H52.382L63.398 128H54.974L52.814 119.63H42.068L39.908 128H31.808ZM81.9457 128.648C79.7137 128.648 77.6077 128.27 75.6277 127.514C73.6477 126.722 71.9017 125.57 70.3897 124.058C68.9137 122.546 67.7437 120.674 66.8797 118.442C66.0157 116.174 65.5837 113.564 65.5837 110.612C65.5837 107.696 66.0337 105.104 66.9337 102.836C67.8337 100.532 69.0397 98.588 70.5517 97.004C72.0637 95.42 73.8277 94.214 75.8437 93.386C77.8597 92.558 79.9837 92.144 82.2157 92.144C84.4837 92.144 86.5177 92.612 88.3177 93.548C90.1177 94.448 91.6117 95.51 92.7997 96.734L88.5877 101.81C87.6877 100.982 86.7337 100.316 85.7257 99.812C84.7537 99.272 83.6377 99.002 82.3777 99.002C81.1897 99.002 80.0557 99.272 78.9757 99.812C77.9317 100.316 77.0137 101.054 76.2217 102.026C75.4657 102.998 74.8537 104.186 74.3857 105.59C73.9537 106.994 73.7377 108.578 73.7377 110.342C73.7377 113.978 74.5117 116.804 76.0597 118.82C77.6077 120.8 79.6777 121.79 82.2697 121.79C83.7097 121.79 84.9877 121.484 86.1037 120.872C87.2557 120.224 88.2637 119.432 89.1277 118.496L93.3397 123.464C90.3877 126.92 86.5897 128.648 81.9457 128.648ZM111.912 128.648C109.68 128.648 107.574 128.27 105.594 127.514C103.614 126.722 101.868 125.57 100.356 124.058C98.8795 122.546 97.7095 120.674 96.8455 118.442C95.9815 116.174 95.5495 113.564 95.5495 110.612C95.5495 107.696 95.9995 105.104 96.8995 102.836C97.7995 100.532 99.0055 98.588 100.518 97.004C102.03 95.42 103.794 94.214 105.81 93.386C107.826 92.558 109.95 92.144 112.182 92.144C114.45 92.144 116.484 92.612 118.284 93.548C120.084 94.448 121.578 95.51 122.766 96.734L118.554 101.81C117.654 100.982 116.7 100.316 115.692 99.812C114.72 99.272 113.604 99.002 112.344 99.002C111.156 99.002 110.022 99.272 108.942 99.812C107.898 100.316 106.98 101.054 106.188 102.026C105.432 102.998 104.82 104.186 104.352 105.59C103.92 106.994 103.704 108.578 103.704 110.342C103.704 113.978 104.478 116.804 106.026 118.82C107.574 120.8 109.644 121.79 112.236 121.79C113.676 121.79 114.954 121.484 116.07 120.872C117.222 120.224 118.23 119.432 119.094 118.496L123.306 123.464C120.354 126.92 116.556 128.648 111.912 128.648ZM129.193 128V92.792H151.225V99.488H137.131V106.562H149.119V113.204H137.131V121.304H151.765V128H129.193ZM170.063 128.648C167.759 128.648 165.455 128.234 163.151 127.406C160.883 126.542 158.849 125.264 157.049 123.572L161.585 118.118C162.845 119.198 164.231 120.08 165.743 120.764C167.291 121.448 168.803 121.79 170.279 121.79C171.935 121.79 173.159 121.484 173.951 120.872C174.779 120.26 175.193 119.432 175.193 118.388C175.193 117.848 175.067 117.38 174.815 116.984C174.599 116.588 174.257 116.246 173.789 115.958C173.357 115.634 172.817 115.346 172.169 115.094C171.557 114.806 170.873 114.5 170.117 114.176L165.527 112.232C164.627 111.872 163.745 111.404 162.881 110.828C162.053 110.252 161.297 109.586 160.613 108.83C159.965 108.038 159.443 107.138 159.047 106.13C158.651 105.086 158.453 103.916 158.453 102.62C158.453 101.18 158.759 99.83 159.371 98.57C159.983 97.274 160.847 96.158 161.963 95.222C163.079 94.25 164.393 93.494 165.905 92.954C167.453 92.414 169.145 92.144 170.981 92.144C173.033 92.144 175.049 92.54 177.029 93.332C179.045 94.124 180.809 95.276 182.321 96.788L178.271 101.81C177.119 100.91 175.967 100.226 174.815 99.758C173.663 99.254 172.385 99.002 170.981 99.002C169.613 99.002 168.515 99.29 167.687 99.866C166.895 100.406 166.499 101.18 166.499 102.188C166.499 102.728 166.625 103.196 166.877 103.592C167.165 103.952 167.543 104.294 168.011 104.618C168.515 104.906 169.091 105.194 169.739 105.482C170.387 105.734 171.089 106.022 171.845 106.346L176.381 108.182C178.541 109.046 180.233 110.234 181.457 111.746C182.717 113.258 183.347 115.256 183.347 117.74C183.347 119.216 183.041 120.62 182.429 121.952C181.853 123.248 180.989 124.4 179.837 125.408C178.721 126.38 177.335 127.172 175.679 127.784C174.023 128.36 172.151 128.648 170.063 128.648ZM199.66 128.648C197.356 128.648 195.052 128.234 192.748 127.406C190.48 126.542 188.446 125.264 186.646 123.572L191.182 118.118C192.442 119.198 193.828 120.08 195.34 120.764C196.888 121.448 198.4 121.79 199.876 121.79C201.532 121.79 202.756 121.484 203.548 120.872C204.376 120.26 204.79 119.432 204.79 118.388C204.79 117.848 204.664 117.38 204.412 116.984C204.196 116.588 203.854 116.246 203.386 115.958C202.954 115.634 202.414 115.346 201.766 115.094C201.154 114.806 200.47 114.5 199.714 114.176L195.124 112.232C194.224 111.872 193.342 111.404 192.478 110.828C191.65 110.252 190.894 109.586 190.21 108.83C189.562 108.038 189.04 107.138 188.644 106.13C188.248 105.086 188.05 103.916 188.05 102.62C188.05 101.18 188.356 99.83 188.968 98.57C189.58 97.274 190.444 96.158 191.56 95.222C192.676 94.25 193.99 93.494 195.502 92.954C197.05 92.414 198.742 92.144 200.578 92.144C202.63 92.144 204.646 92.54 206.626 93.332C208.642 94.124 210.406 95.276 211.918 96.788L207.868 101.81C206.716 100.91 205.564 100.226 204.412 99.758C203.26 99.254 201.982 99.002 200.578 99.002C199.21 99.002 198.112 99.29 197.284 99.866C196.492 100.406 196.096 101.18 196.096 102.188C196.096 102.728 196.222 103.196 196.474 103.592C196.762 103.952 197.14 104.294 197.608 104.618C198.112 104.906 198.688 105.194 199.336 105.482C199.984 105.734 200.686 106.022 201.442 106.346L205.978 108.182C208.138 109.046 209.83 110.234 211.054 111.746C212.314 113.258 212.944 115.256 212.944 117.74C212.944 119.216 212.638 120.62 212.026 121.952C211.45 123.248 210.586 124.4 209.434 125.408C208.318 126.38 206.932 127.172 205.276 127.784C203.62 128.36 201.748 128.648 199.66 128.648ZM240.476 128.648C238.82 128.648 237.398 128.396 236.21 127.892C235.058 127.388 234.104 126.686 233.348 125.786C232.628 124.886 232.088 123.806 231.728 122.546C231.404 121.25 231.242 119.828 231.242 118.28V107.426H227.57V101.54L231.674 101.216L232.592 94.088H239.18V101.216H245.606V107.426H239.18V118.172C239.18 119.684 239.486 120.782 240.098 121.466C240.746 122.114 241.592 122.438 242.636 122.438C243.068 122.438 243.5 122.384 243.932 122.276C244.4 122.168 244.814 122.042 245.174 121.898L246.416 127.676C245.696 127.892 244.85 128.108 243.878 128.324C242.906 128.54 241.772 128.648 240.476 128.648ZM261.927 128.648C260.235 128.648 258.597 128.342 257.013 127.73C255.429 127.082 254.025 126.164 252.801 124.976C251.613 123.788 250.659 122.33 249.939 120.602C249.219 118.838 248.859 116.84 248.859 114.608C248.859 112.376 249.219 110.396 249.939 108.668C250.659 106.904 251.613 105.428 252.801 104.24C254.025 103.052 255.429 102.152 257.013 101.54C258.597 100.892 260.235 100.568 261.927 100.568C263.619 100.568 265.239 100.892 266.787 101.54C268.371 102.152 269.757 103.052 270.945 104.24C272.169 105.428 273.141 106.904 273.861 108.668C274.581 110.396 274.941 112.376 274.941 114.608C274.941 116.84 274.581 118.838 273.861 120.602C273.141 122.33 272.169 123.788 270.945 124.976C269.757 126.164 268.371 127.082 266.787 127.73C265.239 128.342 263.619 128.648 261.927 128.648ZM261.927 122.222C263.547 122.222 264.771 121.538 265.599 120.17C266.427 118.802 266.841 116.948 266.841 114.608C266.841 112.268 266.427 110.414 265.599 109.046C264.771 107.678 263.547 106.994 261.927 106.994C260.271 106.994 259.029 107.678 258.201 109.046C257.409 110.414 257.013 112.268 257.013 114.608C257.013 116.948 257.409 118.802 258.201 120.17C259.029 121.538 260.271 122.222 261.927 122.222Z" fill="#009CFF"/>
<path d="M195.311 196V188.176H197.999C198.431 188.176 198.835 188.22 199.211 188.308C199.587 188.388 199.915 188.528 200.195 188.728C200.475 188.92 200.695 189.18 200.855 189.508C201.023 189.828 201.107 190.224 201.107 190.696C201.107 191.152 201.023 191.548 200.855 191.884C200.695 192.22 200.475 192.496 200.195 192.712C199.915 192.928 199.591 193.088 199.223 193.192C198.855 193.296 198.463 193.348 198.047 193.348H197.075V196H195.311ZM197.075 191.944H197.939C198.899 191.944 199.379 191.528 199.379 190.696C199.379 190.288 199.251 190 198.995 189.832C198.739 189.664 198.371 189.58 197.891 189.58H197.075V191.944ZM204.613 196.144C204.237 196.144 203.873 196.076 203.521 195.94C203.169 195.796 202.857 195.592 202.585 195.328C202.321 195.064 202.109 194.74 201.949 194.356C201.789 193.964 201.709 193.52 201.709 193.024C201.709 192.528 201.789 192.088 201.949 191.704C202.109 191.312 202.321 190.984 202.585 190.72C202.857 190.456 203.169 190.256 203.521 190.12C203.873 189.976 204.237 189.904 204.613 189.904C204.989 189.904 205.349 189.976 205.693 190.12C206.045 190.256 206.353 190.456 206.617 190.72C206.889 190.984 207.105 191.312 207.265 191.704C207.425 192.088 207.505 192.528 207.505 193.024C207.505 193.52 207.425 193.964 207.265 194.356C207.105 194.74 206.889 195.064 206.617 195.328C206.353 195.592 206.045 195.796 205.693 195.94C205.349 196.076 204.989 196.144 204.613 196.144ZM204.613 194.716C204.973 194.716 205.245 194.564 205.429 194.26C205.613 193.956 205.705 193.544 205.705 193.024C205.705 192.504 205.613 192.092 205.429 191.788C205.245 191.484 204.973 191.332 204.613 191.332C204.245 191.332 203.969 191.484 203.785 191.788C203.609 192.092 203.521 192.504 203.521 193.024C203.521 193.544 203.609 193.956 203.785 194.26C203.969 194.564 204.245 194.716 204.613 194.716ZM209.616 196L208.128 190.048H209.88L210.456 192.808C210.504 193.104 210.548 193.396 210.588 193.684C210.628 193.972 210.672 194.268 210.72 194.572H210.768C210.824 194.268 210.876 193.968 210.924 193.672C210.98 193.376 211.044 193.088 211.116 192.808L211.776 190.048H213.3L213.972 192.808C214.044 193.104 214.108 193.396 214.164 193.684C214.22 193.972 214.28 194.268 214.344 194.572H214.392C214.448 194.268 214.492 193.972 214.524 193.684C214.564 193.396 214.612 193.104 214.668 192.808L215.232 190.048H216.864L215.436 196H213.372L212.832 193.624C212.768 193.344 212.712 193.064 212.664 192.784C212.616 192.504 212.564 192.204 212.508 191.884H212.46C212.404 192.204 212.352 192.504 212.304 192.784C212.264 193.064 212.216 193.344 212.16 193.624L211.632 196H209.616ZM220.507 196.144C220.083 196.144 219.687 196.076 219.319 195.94C218.951 195.796 218.631 195.592 218.359 195.328C218.087 195.056 217.875 194.728 217.723 194.344C217.571 193.96 217.495 193.52 217.495 193.024C217.495 192.544 217.575 192.112 217.735 191.728C217.895 191.336 218.103 191.008 218.359 190.744C218.623 190.472 218.923 190.264 219.259 190.12C219.595 189.976 219.943 189.904 220.303 189.904C220.727 189.904 221.095 189.976 221.407 190.12C221.727 190.264 221.991 190.464 222.199 190.72C222.415 190.976 222.575 191.28 222.679 191.632C222.783 191.976 222.835 192.352 222.835 192.76C222.835 192.92 222.827 193.072 222.811 193.216C222.795 193.36 222.779 193.468 222.763 193.54H219.199C219.279 193.972 219.455 194.292 219.727 194.5C220.007 194.7 220.347 194.8 220.747 194.8C221.171 194.8 221.599 194.668 222.031 194.404L222.619 195.472C222.315 195.68 221.975 195.844 221.599 195.964C221.231 196.084 220.867 196.144 220.507 196.144ZM219.187 192.376H221.335C221.335 192.04 221.259 191.768 221.107 191.56C220.955 191.352 220.699 191.248 220.339 191.248C220.059 191.248 219.811 191.34 219.595 191.524C219.387 191.708 219.251 191.992 219.187 192.376ZM224.053 196V190.048H225.493L225.613 191.092H225.661C225.877 190.684 226.137 190.384 226.441 190.192C226.745 190 227.049 189.904 227.353 189.904C227.521 189.904 227.657 189.916 227.761 189.94C227.873 189.956 227.973 189.984 228.061 190.024L227.773 191.548C227.661 191.516 227.557 191.492 227.461 191.476C227.365 191.46 227.253 191.452 227.125 191.452C226.901 191.452 226.665 191.532 226.417 191.692C226.177 191.852 225.977 192.136 225.817 192.544V196H224.053ZM231.382 196.144C230.958 196.144 230.562 196.076 230.194 195.94C229.826 195.796 229.506 195.592 229.234 195.328C228.962 195.056 228.75 194.728 228.598 194.344C228.446 193.96 228.37 193.52 228.37 193.024C228.37 192.544 228.45 192.112 228.61 191.728C228.77 191.336 228.978 191.008 229.234 190.744C229.498 190.472 229.798 190.264 230.134 190.12C230.47 189.976 230.818 189.904 231.178 189.904C231.602 189.904 231.97 189.976 232.282 190.12C232.602 190.264 232.866 190.464 233.074 190.72C233.29 190.976 233.45 191.28 233.554 191.632C233.658 191.976 233.71 192.352 233.71 192.76C233.71 192.92 233.702 193.072 233.686 193.216C233.67 193.36 233.654 193.468 233.638 193.54H230.074C230.154 193.972 230.33 194.292 230.602 194.5C230.882 194.7 231.222 194.8 231.622 194.8C232.046 194.8 232.474 194.668 232.906 194.404L233.494 195.472C233.19 195.68 232.85 195.844 232.474 195.964C232.106 196.084 231.742 196.144 231.382 196.144ZM230.062 192.376H232.21C232.21 192.04 232.134 191.768 231.982 191.56C231.83 191.352 231.574 191.248 231.214 191.248C230.934 191.248 230.686 191.34 230.47 191.524C230.262 191.708 230.126 191.992 230.062 192.376ZM237.052 196.144C236.684 196.144 236.348 196.072 236.044 195.928C235.748 195.784 235.492 195.58 235.276 195.316C235.068 195.044 234.904 194.716 234.784 194.332C234.672 193.948 234.616 193.512 234.616 193.024C234.616 192.536 234.684 192.1 234.82 191.716C234.964 191.332 235.148 191.008 235.372 190.744C235.604 190.472 235.868 190.264 236.164 190.12C236.468 189.976 236.776 189.904 237.088 189.904C237.424 189.904 237.7 189.96 237.916 190.072C238.132 190.184 238.344 190.336 238.552 190.528L238.48 189.616V187.588H240.244V196H238.804L238.684 195.412H238.636C238.428 195.62 238.184 195.796 237.904 195.94C237.624 196.076 237.34 196.144 237.052 196.144ZM237.508 194.704C237.7 194.704 237.872 194.664 238.024 194.584C238.184 194.504 238.336 194.364 238.48 194.164V191.728C238.32 191.584 238.156 191.484 237.988 191.428C237.82 191.372 237.656 191.344 237.496 191.344C237.216 191.344 236.968 191.48 236.752 191.752C236.536 192.016 236.428 192.432 236.428 193C236.428 193.592 236.52 194.024 236.704 194.296C236.896 194.568 237.164 194.704 237.508 194.704ZM244.354 196V188.176H247.03C247.438 188.176 247.814 188.208 248.158 188.272C248.51 188.328 248.814 188.432 249.07 188.584C249.334 188.736 249.538 188.936 249.682 189.184C249.834 189.432 249.91 189.744 249.91 190.12C249.91 190.296 249.886 190.472 249.838 190.648C249.79 190.824 249.722 190.988 249.634 191.14C249.546 191.292 249.438 191.428 249.31 191.548C249.19 191.668 249.05 191.756 248.89 191.812V191.86C249.09 191.908 249.274 191.984 249.442 192.088C249.61 192.184 249.758 192.308 249.886 192.46C250.014 192.612 250.114 192.792 250.186 193C250.258 193.2 250.294 193.432 250.294 193.696C250.294 194.096 250.214 194.44 250.054 194.728C249.902 195.016 249.686 195.256 249.406 195.448C249.134 195.632 248.814 195.772 248.446 195.868C248.078 195.956 247.682 196 247.258 196H244.354ZM246.118 191.308H246.946C247.378 191.308 247.69 191.224 247.882 191.056C248.082 190.888 248.182 190.664 248.182 190.384C248.182 190.08 248.082 189.864 247.882 189.736C247.682 189.608 247.374 189.544 246.958 189.544H246.118V191.308ZM246.118 194.632H247.114C248.082 194.632 248.566 194.28 248.566 193.576C248.566 193.232 248.446 192.988 248.206 192.844C247.966 192.692 247.602 192.616 247.114 192.616H246.118V194.632ZM251.924 198.328C251.74 198.328 251.584 198.316 251.456 198.292C251.328 198.276 251.204 198.248 251.084 198.208L251.396 196.864C251.452 196.88 251.516 196.896 251.588 196.912C251.66 196.928 251.728 196.936 251.792 196.936C252.088 196.936 252.316 196.864 252.476 196.72C252.636 196.576 252.756 196.388 252.836 196.156L252.92 195.844L250.628 190.048H252.404L253.256 192.604C253.344 192.876 253.424 193.152 253.496 193.432C253.568 193.712 253.644 194 253.724 194.296H253.772C253.836 194.016 253.9 193.736 253.964 193.456C254.036 193.168 254.108 192.884 254.18 192.604L254.9 190.048H256.592L254.528 196.06C254.384 196.436 254.232 196.764 254.072 197.044C253.92 197.332 253.74 197.568 253.532 197.752C253.332 197.944 253.1 198.088 252.836 198.184C252.58 198.28 252.276 198.328 251.924 198.328ZM263.333 196.144C262.837 196.144 262.369 196.06 261.929 195.892C261.489 195.716 261.101 195.46 260.765 195.124C260.437 194.788 260.177 194.372 259.985 193.876C259.793 193.372 259.697 192.792 259.697 192.136C259.697 191.488 259.797 190.912 259.997 190.408C260.197 189.896 260.465 189.464 260.801 189.112C261.137 188.76 261.529 188.492 261.977 188.308C262.425 188.124 262.897 188.032 263.393 188.032C263.897 188.032 264.349 188.136 264.749 188.344C265.149 188.544 265.481 188.78 265.745 189.052L264.809 190.18C264.609 189.996 264.397 189.848 264.173 189.736C263.957 189.616 263.709 189.556 263.429 189.556C263.165 189.556 262.913 189.616 262.673 189.736C262.441 189.848 262.237 190.012 262.061 190.228C261.893 190.444 261.757 190.708 261.653 191.02C261.557 191.332 261.509 191.684 261.509 192.076C261.509 192.884 261.681 193.512 262.025 193.96C262.369 194.4 262.829 194.62 263.405 194.62C263.725 194.62 264.009 194.552 264.257 194.416C264.513 194.272 264.737 194.096 264.929 193.888L265.865 194.992C265.209 195.76 264.365 196.144 263.333 196.144ZM266.909 196V187.588H268.673V189.652L268.589 190.72C268.813 190.52 269.073 190.336 269.369 190.168C269.665 189.992 270.017 189.904 270.425 189.904C271.073 189.904 271.541 190.116 271.829 190.54C272.125 190.964 272.273 191.552 272.273 192.304V196H270.509V192.532C270.509 192.1 270.449 191.804 270.329 191.644C270.217 191.484 270.033 191.404 269.777 191.404C269.553 191.404 269.361 191.456 269.201 191.56C269.041 191.656 268.865 191.796 268.673 191.98V196H266.909ZM275.264 196.144C274.992 196.144 274.744 196.096 274.52 196C274.304 195.912 274.12 195.788 273.968 195.628C273.816 195.46 273.696 195.268 273.608 195.052C273.528 194.836 273.488 194.6 273.488 194.344C273.488 193.72 273.752 193.232 274.28 192.88C274.808 192.528 275.66 192.292 276.836 192.172C276.82 191.908 276.74 191.7 276.596 191.548C276.46 191.388 276.228 191.308 275.9 191.308C275.644 191.308 275.388 191.356 275.132 191.452C274.884 191.548 274.616 191.68 274.328 191.848L273.692 190.684C274.076 190.452 274.476 190.264 274.892 190.12C275.316 189.976 275.764 189.904 276.236 189.904C277.004 189.904 277.588 190.124 277.988 190.564C278.396 190.996 278.6 191.672 278.6 192.592V196H277.16L277.04 195.388H276.992C276.736 195.612 276.468 195.796 276.188 195.94C275.908 196.076 275.6 196.144 275.264 196.144ZM275.864 194.776C276.064 194.776 276.236 194.732 276.38 194.644C276.524 194.556 276.676 194.432 276.836 194.272V193.228C276.212 193.316 275.78 193.444 275.54 193.612C275.3 193.78 275.18 193.98 275.18 194.212C275.18 194.404 275.24 194.548 275.36 194.644C275.488 194.732 275.656 194.776 275.864 194.776ZM282.174 196.144C281.806 196.144 281.49 196.088 281.226 195.976C280.97 195.864 280.758 195.708 280.59 195.508C280.43 195.308 280.31 195.068 280.23 194.788C280.158 194.5 280.122 194.184 280.122 193.84V191.428H279.306V190.12L280.218 190.048L280.422 188.464H281.886V190.048H283.314V191.428H281.886V193.816C281.886 194.152 281.954 194.396 282.09 194.548C282.234 194.692 282.422 194.764 282.654 194.764C282.75 194.764 282.846 194.752 282.942 194.728C283.046 194.704 283.138 194.676 283.218 194.644L283.494 195.928C283.334 195.976 283.146 196.024 282.93 196.072C282.714 196.12 282.462 196.144 282.174 196.144ZM288.075 196.144C287.539 196.144 287.035 196.06 286.563 195.892C286.099 195.716 285.695 195.46 285.351 195.124C285.007 194.788 284.735 194.372 284.535 193.876C284.343 193.372 284.247 192.792 284.247 192.136C284.247 191.488 284.347 190.912 284.547 190.408C284.747 189.896 285.019 189.464 285.363 189.112C285.715 188.76 286.123 188.492 286.587 188.308C287.051 188.124 287.543 188.032 288.063 188.032C288.631 188.032 289.119 188.136 289.527 188.344C289.935 188.552 290.267 188.788 290.523 189.052L289.599 190.18C289.399 190.004 289.187 189.856 288.963 189.736C288.739 189.616 288.459 189.556 288.123 189.556C287.819 189.556 287.539 189.616 287.283 189.736C287.035 189.848 286.819 190.012 286.635 190.228C286.451 190.444 286.307 190.708 286.203 191.02C286.107 191.332 286.059 191.684 286.059 192.076C286.059 192.884 286.239 193.512 286.599 193.96C286.967 194.4 287.519 194.62 288.255 194.62C288.415 194.62 288.571 194.6 288.723 194.56C288.875 194.52 288.999 194.46 289.095 194.38V193.036H287.799V191.596H290.655V195.196C290.383 195.46 290.023 195.684 289.575 195.868C289.127 196.052 288.627 196.144 288.075 196.144ZM292.272 196V188.176H294.96C295.392 188.176 295.796 188.22 296.172 188.308C296.548 188.388 296.876 188.528 297.156 188.728C297.436 188.92 297.656 189.18 297.816 189.508C297.984 189.828 298.068 190.224 298.068 190.696C298.068 191.152 297.984 191.548 297.816 191.884C297.656 192.22 297.436 192.496 297.156 192.712C296.876 192.928 296.552 193.088 296.184 193.192C295.816 193.296 295.424 193.348 295.008 193.348H294.036V196H292.272ZM294.036 191.944H294.9C295.86 191.944 296.34 191.528 296.34 190.696C296.34 190.288 296.212 190 295.956 189.832C295.7 189.664 295.332 189.58 294.852 189.58H294.036V191.944ZM300.78 196V189.664H298.632V188.176H304.704V189.664H302.556V196H300.78Z" fill="#0000FF"/>
</svg>
