<svg width="864" height="321" viewBox="0 0 864 321" fill="none" xmlns="http://www.w3.org/2000/svg">
<path d="M6.1645 65V15.448H37.1725V24.872H17.3365V34.828H34.2085V44.176H17.3365V55.576H37.9325V65H6.1645ZM56.3892 65.912C54.6666 65.912 53.0959 65.608 51.6772 65C50.3092 64.4427 49.1439 63.6573 48.1812 62.644C47.2186 61.58 46.4586 60.364 45.9012 58.996C45.3946 57.628 45.1412 56.1333 45.1412 54.512C45.1412 50.56 46.8132 47.4693 50.1572 45.24C53.5012 43.0107 58.8972 41.516 66.3452 40.756C66.2439 39.084 65.7372 37.7667 64.8252 36.804C63.9639 35.7907 62.4946 35.284 60.4172 35.284C58.7959 35.284 57.1746 35.588 55.5532 36.196C53.9826 36.804 52.2852 37.64 50.4612 38.704L46.4332 31.332C48.8652 29.8627 51.3986 28.672 54.0332 27.76C56.7186 26.848 59.5559 26.392 62.5452 26.392C67.4092 26.392 71.1079 27.7853 73.6412 30.572C76.2252 33.308 77.5172 37.5893 77.5172 43.416V65H68.3972L67.6372 61.124H67.3332C65.7119 62.5427 64.0146 63.708 62.2412 64.62C60.4679 65.4813 58.5172 65.912 56.3892 65.912ZM60.1892 57.248C61.4559 57.248 62.5452 56.9693 63.4572 56.412C64.3692 55.8547 65.3319 55.0693 66.3452 54.056V47.444C62.3932 48.0013 59.6572 48.812 58.1372 49.876C56.6172 50.94 55.8572 52.2067 55.8572 53.676C55.8572 54.892 56.2372 55.804 56.9972 56.412C57.8079 56.9693 58.8719 57.248 60.1892 57.248ZM86.9673 65V27.304H96.0873L96.8473 33.916H97.1513C98.5193 31.332 100.166 29.432 102.091 28.216C104.017 27 105.942 26.392 107.867 26.392C108.931 26.392 109.793 26.468 110.451 26.62C111.161 26.7213 111.794 26.8987 112.351 27.152L110.527 36.804C109.818 36.6013 109.159 36.4493 108.551 36.348C107.943 36.2467 107.234 36.196 106.423 36.196C105.005 36.196 103.51 36.7027 101.939 37.716C100.419 38.7293 99.1527 40.528 98.1393 43.112V65H86.9673ZM127.509 65.912C125.583 65.912 123.962 65.608 122.645 65C121.327 64.392 120.263 63.556 119.453 62.492C118.693 61.3773 118.135 60.06 117.781 58.54C117.426 56.9693 117.249 55.2213 117.249 53.296V11.724H128.421V53.752C128.421 54.9173 128.623 55.728 129.029 56.184C129.485 56.64 129.941 56.868 130.397 56.868C130.65 56.868 130.853 56.868 131.005 56.868C131.207 56.868 131.461 56.8173 131.765 56.716L133.133 65C132.525 65.2533 131.739 65.456 130.777 65.608C129.865 65.8107 128.775 65.912 127.509 65.912ZM143.175 79.744C142.009 79.744 141.021 79.668 140.211 79.516C139.4 79.4147 138.615 79.2373 137.855 78.984L139.831 70.472C140.185 70.5733 140.591 70.6747 141.047 70.776C141.503 70.8773 141.933 70.928 142.339 70.928C144.213 70.928 145.657 70.472 146.671 69.56C147.684 68.648 148.444 67.4573 148.951 65.988L149.483 64.012L134.967 27.304H146.215L151.611 43.492C152.168 45.2147 152.675 46.9627 153.131 48.736C153.587 50.5093 154.068 52.3333 154.575 54.208H154.879C155.284 52.4347 155.689 50.6613 156.095 48.888C156.551 47.064 157.007 45.2653 157.463 43.492L162.023 27.304H172.739L159.667 65.38C158.755 67.7613 157.792 69.8387 156.779 71.612C155.816 73.436 154.676 74.9307 153.359 76.096C152.092 77.312 150.623 78.224 148.951 78.832C147.329 79.44 145.404 79.744 143.175 79.744ZM203.342 65.912C201.62 65.912 200.049 65.608 198.63 65C197.262 64.4427 196.097 63.6573 195.134 62.644C194.172 61.58 193.412 60.364 192.854 58.996C192.348 57.628 192.094 56.1333 192.094 54.512C192.094 50.56 193.766 47.4693 197.11 45.24C200.454 43.0107 205.85 41.516 213.298 40.756C213.197 39.084 212.69 37.7667 211.778 36.804C210.917 35.7907 209.448 35.284 207.37 35.284C205.749 35.284 204.128 35.588 202.506 36.196C200.936 36.804 199.238 37.64 197.414 38.704L193.386 31.332C195.818 29.8627 198.352 28.672 200.986 27.76C203.672 26.848 206.509 26.392 209.498 26.392C214.362 26.392 218.061 27.7853 220.594 30.572C223.178 33.308 224.47 37.5893 224.47 43.416V65H215.35L214.59 61.124H214.286C212.665 62.5427 210.968 63.708 209.194 64.62C207.421 65.4813 205.47 65.912 203.342 65.912ZM207.142 57.248C208.409 57.248 209.498 56.9693 210.41 56.412C211.322 55.8547 212.285 55.0693 213.298 54.056V47.444C209.346 48.0013 206.61 48.812 205.09 49.876C203.57 50.94 202.81 52.2067 202.81 53.676C202.81 54.892 203.19 55.804 203.95 56.412C204.761 56.9693 205.825 57.248 207.142 57.248ZM250.336 65.912C247.702 65.912 245.244 65.4813 242.964 64.62C240.735 63.708 238.784 62.416 237.112 60.744C235.44 59.072 234.123 57.02 233.16 54.588C232.198 52.1053 231.716 49.2933 231.716 46.152C231.716 43.0107 232.248 40.224 233.312 37.792C234.376 35.3093 235.795 33.232 237.568 31.56C239.392 29.888 241.495 28.6213 243.876 27.76C246.258 26.848 248.74 26.392 251.324 26.392C253.655 26.392 255.707 26.772 257.48 27.532C259.304 28.292 260.926 29.2547 262.344 30.42L257.1 37.64C255.327 36.1707 253.63 35.436 252.008 35.436C249.272 35.436 247.119 36.3987 245.548 38.324C243.978 40.2493 243.192 42.8587 243.192 46.152C243.192 49.4453 243.978 52.0547 245.548 53.98C247.17 55.9053 249.196 56.868 251.628 56.868C252.844 56.868 254.01 56.6147 255.124 56.108C256.29 55.5507 257.379 54.892 258.392 54.132L262.8 61.428C260.926 63.0493 258.899 64.2147 256.72 64.924C254.542 65.5827 252.414 65.912 250.336 65.912ZM283.661 65.912C281.026 65.912 278.569 65.4813 276.289 64.62C274.059 63.708 272.109 62.416 270.437 60.744C268.765 59.072 267.447 57.02 266.485 54.588C265.522 52.1053 265.041 49.2933 265.041 46.152C265.041 43.0107 265.573 40.224 266.637 37.792C267.701 35.3093 269.119 33.232 270.893 31.56C272.717 29.888 274.819 28.6213 277.201 27.76C279.582 26.848 282.065 26.392 284.649 26.392C286.979 26.392 289.031 26.772 290.805 27.532C292.629 28.292 294.25 29.2547 295.669 30.42L290.425 37.64C288.651 36.1707 286.954 35.436 285.333 35.436C282.597 35.436 280.443 36.3987 278.873 38.324C277.302 40.2493 276.517 42.8587 276.517 46.152C276.517 49.4453 277.302 52.0547 278.873 53.98C280.494 55.9053 282.521 56.868 284.953 56.868C286.169 56.868 287.334 56.6147 288.449 56.108C289.614 55.5507 290.703 54.892 291.717 54.132L296.125 61.428C294.25 63.0493 292.223 64.2147 290.045 64.924C287.866 65.5827 285.738 65.912 283.661 65.912ZM317.441 65.912C314.756 65.912 312.248 65.4813 309.917 64.62C307.586 63.708 305.56 62.416 303.837 60.744C302.114 59.0213 300.772 56.944 299.809 54.512C298.846 52.08 298.365 49.2933 298.365 46.152C298.365 43.112 298.872 40.376 299.885 37.944C300.898 35.4613 302.216 33.384 303.837 31.712C305.509 29.9893 307.409 28.672 309.537 27.76C311.665 26.848 313.869 26.392 316.149 26.392C318.834 26.392 321.165 26.848 323.141 27.76C325.168 28.672 326.84 29.9387 328.157 31.56C329.525 33.1813 330.538 35.1067 331.197 37.336C331.856 39.5147 332.185 41.896 332.185 44.48C332.185 45.4933 332.134 46.456 332.033 47.368C331.932 48.28 331.83 48.964 331.729 49.42H309.157C309.664 52.156 310.778 54.1827 312.501 55.5C314.274 56.7667 316.428 57.4 318.961 57.4C321.646 57.4 324.357 56.564 327.093 54.892L330.817 61.656C328.892 62.9733 326.738 64.012 324.357 64.772C322.026 65.532 319.721 65.912 317.441 65.912ZM309.081 42.048H322.685C322.685 39.92 322.204 38.1973 321.241 36.88C320.278 35.5627 318.657 34.904 316.377 34.904C314.604 34.904 313.033 35.4867 311.665 36.652C310.348 37.8173 309.486 39.616 309.081 42.048ZM351.001 65.912C348.518 65.912 345.96 65.4307 343.325 64.468C340.741 63.5053 338.486 62.2387 336.561 60.668L341.577 53.676C343.3 54.9933 344.946 55.9813 346.517 56.64C348.088 57.2987 349.684 57.628 351.305 57.628C352.977 57.628 354.193 57.3493 354.953 56.792C355.713 56.2347 356.093 55.4493 356.093 54.436C356.093 53.828 355.865 53.296 355.409 52.84C355.004 52.3333 354.421 51.8773 353.661 51.472C352.952 51.0667 352.141 50.712 351.229 50.408C350.317 50.0533 349.38 49.6733 348.417 49.268C347.252 48.812 346.086 48.28 344.921 47.672C343.756 47.064 342.692 46.3293 341.729 45.468C340.766 44.556 339.981 43.5173 339.373 42.352C338.765 41.136 338.461 39.7427 338.461 38.172C338.461 36.4493 338.79 34.8533 339.449 33.384C340.158 31.9147 341.146 30.6733 342.413 29.66C343.68 28.6467 345.2 27.8613 346.973 27.304C348.746 26.696 350.722 26.392 352.901 26.392C355.789 26.392 358.322 26.8987 360.501 27.912C362.68 28.8747 364.58 29.964 366.201 31.18L361.185 37.868C359.817 36.8547 358.474 36.0693 357.157 35.512C355.84 34.9547 354.522 34.676 353.205 34.676C350.368 34.676 348.949 35.664 348.949 37.64C348.949 38.248 349.152 38.78 349.557 39.236C349.962 39.6413 350.494 40.0213 351.153 40.376C351.862 40.7307 352.648 41.0853 353.509 41.44C354.421 41.744 355.358 42.0733 356.321 42.428C357.537 42.884 358.728 43.416 359.893 44.024C361.109 44.5813 362.198 45.2907 363.161 46.152C364.174 47.0133 364.985 48.0773 365.593 49.344C366.201 50.56 366.505 52.0293 366.505 53.752C366.505 55.4747 366.176 57.0707 365.517 58.54C364.858 60.0093 363.87 61.3013 362.553 62.416C361.236 63.48 359.614 64.3413 357.689 65C355.764 65.608 353.534 65.912 351.001 65.912ZM384.696 65.912C382.213 65.912 379.655 65.4307 377.02 64.468C374.436 63.5053 372.181 62.2387 370.256 60.668L375.272 53.676C376.995 54.9933 378.641 55.9813 380.212 56.64C381.783 57.2987 383.379 57.628 385 57.628C386.672 57.628 387.888 57.3493 388.648 56.792C389.408 56.2347 389.788 55.4493 389.788 54.436C389.788 53.828 389.56 53.296 389.104 52.84C388.699 52.3333 388.116 51.8773 387.356 51.472C386.647 51.0667 385.836 50.712 384.924 50.408C384.012 50.0533 383.075 49.6733 382.112 49.268C380.947 48.812 379.781 48.28 378.616 47.672C377.451 47.064 376.387 46.3293 375.424 45.468C374.461 44.556 373.676 43.5173 373.068 42.352C372.46 41.136 372.156 39.7427 372.156 38.172C372.156 36.4493 372.485 34.8533 373.144 33.384C373.853 31.9147 374.841 30.6733 376.108 29.66C377.375 28.6467 378.895 27.8613 380.668 27.304C382.441 26.696 384.417 26.392 386.596 26.392C389.484 26.392 392.017 26.8987 394.196 27.912C396.375 28.8747 398.275 29.964 399.896 31.18L394.88 37.868C393.512 36.8547 392.169 36.0693 390.852 35.512C389.535 34.9547 388.217 34.676 386.9 34.676C384.063 34.676 382.644 35.664 382.644 37.64C382.644 38.248 382.847 38.78 383.252 39.236C383.657 39.6413 384.189 40.0213 384.848 40.376C385.557 40.7307 386.343 41.0853 387.204 41.44C388.116 41.744 389.053 42.0733 390.016 42.428C391.232 42.884 392.423 43.416 393.588 44.024C394.804 44.5813 395.893 45.2907 396.856 46.152C397.869 47.0133 398.68 48.0773 399.288 49.344C399.896 50.56 400.2 52.0293 400.2 53.752C400.2 55.4747 399.871 57.0707 399.212 58.54C398.553 60.0093 397.565 61.3013 396.248 62.416C394.931 63.48 393.309 64.3413 391.384 65C389.459 65.608 387.229 65.912 384.696 65.912Z" fill="#0000FF"/>
<path d="M433.606 65.912C431.124 65.912 428.565 65.4307 425.93 64.468C423.346 63.5053 421.092 62.2387 419.166 60.668L424.182 53.676C425.905 54.9933 427.552 55.9813 429.122 56.64C430.693 57.2987 432.289 57.628 433.91 57.628C435.582 57.628 436.798 57.3493 437.558 56.792C438.318 56.2347 438.698 55.4493 438.698 54.436C438.698 53.828 438.47 53.296 438.014 52.84C437.609 52.3333 437.026 51.8773 436.266 51.472C435.557 51.0667 434.746 50.712 433.834 50.408C432.922 50.0533 431.985 49.6733 431.022 49.268C429.857 48.812 428.692 48.28 427.526 47.672C426.361 47.064 425.297 46.3293 424.334 45.468C423.372 44.556 422.586 43.5173 421.978 42.352C421.37 41.136 421.066 39.7427 421.066 38.172C421.066 36.4493 421.396 34.8533 422.054 33.384C422.764 31.9147 423.752 30.6733 425.018 29.66C426.285 28.6467 427.805 27.8613 429.578 27.304C431.352 26.696 433.328 26.392 435.506 26.392C438.394 26.392 440.928 26.8987 443.106 27.912C445.285 28.8747 447.185 29.964 448.806 31.18L443.79 37.868C442.422 36.8547 441.08 36.0693 439.762 35.512C438.445 34.9547 437.128 34.676 435.81 34.676C432.973 34.676 431.554 35.664 431.554 37.64C431.554 38.248 431.757 38.78 432.162 39.236C432.568 39.6413 433.1 40.0213 433.758 40.376C434.468 40.7307 435.253 41.0853 436.114 41.44C437.026 41.744 437.964 42.0733 438.926 42.428C440.142 42.884 441.333 43.416 442.498 44.024C443.714 44.5813 444.804 45.2907 445.766 46.152C446.78 47.0133 447.59 48.0773 448.198 49.344C448.806 50.56 449.11 52.0293 449.11 53.752C449.11 55.4747 448.781 57.0707 448.122 58.54C447.464 60.0093 446.476 61.3013 445.158 62.416C443.841 63.48 442.22 64.3413 440.294 65C438.369 65.608 436.14 65.912 433.606 65.912ZM469.237 65.912C466.907 65.912 464.905 65.5573 463.233 64.848C461.612 64.1387 460.269 63.1507 459.205 61.884C458.192 60.6173 457.432 59.0973 456.925 57.324C456.469 55.5 456.241 53.4987 456.241 51.32V36.044H451.073V27.76L456.849 27.304L458.141 17.272H467.413V27.304H476.457V36.044H467.413V51.168C467.413 53.296 467.844 54.8413 468.705 55.804C469.617 56.716 470.808 57.172 472.277 57.172C472.885 57.172 473.493 57.096 474.101 56.944C474.76 56.792 475.343 56.6147 475.849 56.412L477.597 64.544C476.584 64.848 475.393 65.152 474.025 65.456C472.657 65.76 471.061 65.912 469.237 65.912ZM491.831 65.912C490.108 65.912 488.537 65.608 487.119 65C485.751 64.4427 484.585 63.6573 483.623 62.644C482.66 61.58 481.9 60.364 481.343 58.996C480.836 57.628 480.583 56.1333 480.583 54.512C480.583 50.56 482.255 47.4693 485.599 45.24C488.943 43.0107 494.339 41.516 501.787 40.756C501.685 39.084 501.179 37.7667 500.267 36.804C499.405 35.7907 497.936 35.284 495.859 35.284C494.237 35.284 492.616 35.588 490.995 36.196C489.424 36.804 487.727 37.64 485.903 38.704L481.875 31.332C484.307 29.8627 486.84 28.672 489.475 27.76C492.16 26.848 494.997 26.392 497.987 26.392C502.851 26.392 506.549 27.7853 509.083 30.572C511.667 33.308 512.959 37.5893 512.959 43.416V65H503.839L503.079 61.124H502.775C501.153 62.5427 499.456 63.708 497.683 64.62C495.909 65.4813 493.959 65.912 491.831 65.912ZM495.631 57.248C496.897 57.248 497.987 56.9693 498.899 56.412C499.811 55.8547 500.773 55.0693 501.787 54.056V47.444C497.835 48.0013 495.099 48.812 493.579 49.876C492.059 50.94 491.299 52.2067 491.299 53.676C491.299 54.892 491.679 55.804 492.439 56.412C493.249 56.9693 494.313 57.248 495.631 57.248ZM522.409 65V27.304H531.529L532.289 33.916H532.593C533.961 31.332 535.607 29.432 537.533 28.216C539.458 27 541.383 26.392 543.309 26.392C544.373 26.392 545.234 26.468 545.893 26.62C546.602 26.7213 547.235 26.8987 547.793 27.152L545.969 36.804C545.259 36.6013 544.601 36.4493 543.993 36.348C543.385 36.2467 542.675 36.196 541.865 36.196C540.446 36.196 538.951 36.7027 537.381 37.716C535.861 38.7293 534.594 40.528 533.581 43.112V65H522.409ZM567.206 65.912C564.875 65.912 562.874 65.5573 561.202 64.848C559.581 64.1387 558.238 63.1507 557.174 61.884C556.161 60.6173 555.401 59.0973 554.894 57.324C554.438 55.5 554.21 53.4987 554.21 51.32V36.044H549.042V27.76L554.818 27.304L556.11 17.272H565.382V27.304H574.426V36.044H565.382V51.168C565.382 53.296 565.813 54.8413 566.674 55.804C567.586 56.716 568.777 57.172 570.246 57.172C570.854 57.172 571.462 57.096 572.07 56.944C572.729 56.792 573.311 56.6147 573.818 56.412L575.566 64.544C574.553 64.848 573.362 65.152 571.994 65.456C570.626 65.76 569.03 65.912 567.206 65.912ZM592.138 65.912C589.655 65.912 587.096 65.4307 584.462 64.468C581.878 63.5053 579.623 62.2387 577.698 60.668L582.714 53.676C584.436 54.9933 586.083 55.9813 587.654 56.64C589.224 57.2987 590.82 57.628 592.442 57.628C594.114 57.628 595.33 57.3493 596.09 56.792C596.85 56.2347 597.23 55.4493 597.23 54.436C597.23 53.828 597.002 53.296 596.546 52.84C596.14 52.3333 595.558 51.8773 594.798 51.472C594.088 51.0667 593.278 50.712 592.366 50.408C591.454 50.0533 590.516 49.6733 589.554 49.268C588.388 48.812 587.223 48.28 586.058 47.672C584.892 47.064 583.828 46.3293 582.866 45.468C581.903 44.556 581.118 43.5173 580.51 42.352C579.902 41.136 579.598 39.7427 579.598 38.172C579.598 36.4493 579.927 34.8533 580.586 33.384C581.295 31.9147 582.283 30.6733 583.55 29.66C584.816 28.6467 586.336 27.8613 588.11 27.304C589.883 26.696 591.859 26.392 594.038 26.392C596.926 26.392 599.459 26.8987 601.638 27.912C603.816 28.8747 605.716 29.964 607.338 31.18L602.322 37.868C600.954 36.8547 599.611 36.0693 598.294 35.512C596.976 34.9547 595.659 34.676 594.342 34.676C591.504 34.676 590.086 35.664 590.086 37.64C590.086 38.248 590.288 38.78 590.694 39.236C591.099 39.6413 591.631 40.0213 592.29 40.376C592.999 40.7307 593.784 41.0853 594.646 41.44C595.558 41.744 596.495 42.0733 597.458 42.428C598.674 42.884 599.864 43.416 601.03 44.024C602.246 44.5813 603.335 45.2907 604.298 46.152C605.311 47.0133 606.122 48.0773 606.73 49.344C607.338 50.56 607.642 52.0293 607.642 53.752C607.642 55.4747 607.312 57.0707 606.654 58.54C605.995 60.0093 605.007 61.3013 603.69 62.416C602.372 63.48 600.751 64.3413 598.826 65C596.9 65.608 594.671 65.912 592.138 65.912ZM621.197 65.912C619.272 65.912 617.65 65.2533 616.333 63.936C615.066 62.568 614.433 60.896 614.433 58.92C614.433 56.8933 615.066 55.2213 616.333 53.904C617.65 52.536 619.272 51.852 621.197 51.852C623.122 51.852 624.718 52.536 625.985 53.904C627.302 55.2213 627.961 56.8933 627.961 58.92C627.961 60.896 627.302 62.568 625.985 63.936C624.718 65.2533 623.122 65.912 621.197 65.912ZM643.982 65.912C642.057 65.912 640.435 65.2533 639.118 63.936C637.851 62.568 637.218 60.896 637.218 58.92C637.218 56.8933 637.851 55.2213 639.118 53.904C640.435 52.536 642.057 51.852 643.982 51.852C645.907 51.852 647.503 52.536 648.77 53.904C650.087 55.2213 650.746 56.8933 650.746 58.92C650.746 60.896 650.087 62.568 648.77 63.936C647.503 65.2533 645.907 65.912 643.982 65.912ZM666.767 65.912C664.842 65.912 663.221 65.2533 661.903 63.936C660.637 62.568 660.003 60.896 660.003 58.92C660.003 56.8933 660.637 55.2213 661.903 53.904C663.221 52.536 664.842 51.852 666.767 51.852C668.693 51.852 670.289 52.536 671.555 53.904C672.873 55.2213 673.531 56.8933 673.531 58.92C673.531 60.896 672.873 62.568 671.555 63.936C670.289 65.2533 668.693 65.912 666.767 65.912ZM699.219 65V15.448H710.695L723.615 40.072L728.479 51.016H728.783C728.53 48.3813 728.226 45.4427 727.871 42.2C727.567 38.9573 727.415 35.8667 727.415 32.928V15.448H738.055V65H726.579L713.659 40.3L708.795 29.508H708.491C708.745 32.244 709.023 35.1827 709.327 38.324C709.682 41.4653 709.859 44.5053 709.859 47.444V65H699.219ZM769.902 65.912C766.558 65.912 763.493 65.3293 760.706 64.164C757.97 62.948 755.614 61.2253 753.638 58.996C751.662 56.7667 750.117 54.056 749.002 50.864C747.938 47.672 747.406 44.0493 747.406 39.996C747.406 35.9427 747.938 32.3453 749.002 29.204C750.117 26.012 751.662 23.352 753.638 21.224C755.614 19.0453 757.97 17.3987 760.706 16.284C763.493 15.1187 766.558 14.536 769.902 14.536C773.246 14.536 776.286 15.1187 779.022 16.284C781.809 17.3987 784.19 19.0453 786.166 21.224C788.142 23.4027 789.662 26.088 790.726 29.28C791.841 32.4213 792.398 35.9933 792.398 39.996C792.398 44.0493 791.841 47.672 790.726 50.864C789.662 54.056 788.142 56.7667 786.166 58.996C784.19 61.2253 781.809 62.948 779.022 64.164C776.286 65.3293 773.246 65.912 769.902 65.912ZM769.902 56.26C773.297 56.26 775.982 54.816 777.958 51.928C779.934 48.9893 780.922 45.012 780.922 39.996C780.922 35.0307 779.934 31.1547 777.958 28.368C775.982 25.5813 773.297 24.188 769.902 24.188C766.507 24.188 763.822 25.5813 761.846 28.368C759.87 31.1547 758.882 35.0307 758.882 39.996C758.882 45.012 759.87 48.9893 761.846 51.928C763.822 54.816 766.507 56.26 769.902 56.26ZM806.123 65L796.927 15.448H808.403L811.823 38.628C812.127 41.212 812.457 43.8213 812.811 46.456C813.166 49.04 813.495 51.6493 813.799 54.284H814.103C814.61 51.6493 815.091 49.04 815.547 46.456C816.054 43.8213 816.561 41.212 817.067 38.628L822.387 15.448H831.887L837.207 38.628C837.714 41.1613 838.195 43.7453 838.651 46.38C839.158 48.964 839.665 51.5987 840.171 54.284H840.475C840.83 51.5987 841.159 48.964 841.463 46.38C841.818 43.796 842.173 41.212 842.527 38.628L845.947 15.448H856.663L847.847 65H833.787L828.923 42.504C828.518 40.5787 828.138 38.6533 827.783 36.728C827.479 34.752 827.201 32.852 826.947 31.028H826.643C826.339 32.852 826.01 34.752 825.655 36.728C825.351 38.6533 824.997 40.5787 824.591 42.504L819.955 65H806.123Z" fill="#009CFF"/>
<g clip-path="url(#clip0_1284_4596)">
<path d="M225.14 298.66C224.3 298.66 223.49 298.44 222.77 298.04L188.63 280.21L155.83 280.29L155.23 280.27H155.2C150.86 280.27 147.3 276.89 147.01 272.63L146.99 272.59V272.07H147L147.01 231.75C147 227 150.68 223.31 155.21 223.31H155.87H221.8C226.1 223.31 229.68 226.65 229.99 230.93C230.04 231.32 230.08 231.72 230.08 232.13L230 272.62C229.74 276.38 226.93 279.47 223.28 280.13L229.43 291.39C230.45 293.33 230.11 295.69 228.62 297.19C227.68 298.13 226.44 298.65 225.14 298.65V298.66ZM152.02 271.41V272.01C152.02 273.83 153.46 275.27 155.22 275.27H155.83H188.59C189.82 275.27 190.23 275.37 191.32 275.95L225.18 293.63L217.93 280.83C217.29 279.63 217.33 278.25 218.01 277.12C218.69 275.99 219.88 275.32 221.2 275.32C221.37 275.32 221.52 275.3 221.68 275.28C223.61 275.18 224.95 273.82 225 272.15L225.06 271.47V232.14C225.06 231.94 225.04 231.74 225.01 231.55L224.99 231.34C224.89 229.65 223.49 228.33 221.8 228.33H155.32C153.44 228.5 152.02 229.76 152.02 231.53V271.41Z" fill="#0000FF"/>
<path d="M169.501 253.18C171.771 253.18 173.611 251.34 173.611 249.07C173.611 246.8 171.771 244.96 169.501 244.96C167.231 244.96 165.391 246.8 165.391 249.07C165.391 251.34 167.231 253.18 169.501 253.18Z" fill="#0000FF"/>
<path d="M188.53 253.18C190.8 253.18 192.64 251.34 192.64 249.07C192.64 246.8 190.8 244.96 188.53 244.96C186.26 244.96 184.42 246.8 184.42 249.07C184.42 251.34 186.26 253.18 188.53 253.18Z" fill="#0000FF"/>
<path d="M207.561 253.18C209.831 253.18 211.671 251.34 211.671 249.07C211.671 246.8 209.831 244.96 207.561 244.96C205.291 244.96 203.451 246.8 203.451 249.07C203.451 251.34 205.291 253.18 207.561 253.18Z" fill="#0000FF"/>
<path d="M194.361 256.87H182.691C181.361 256.87 180.271 258.15 180.691 259.42C181.771 262.72 184.861 265.1 188.521 265.1C192.181 265.1 195.281 262.71 196.351 259.42C196.771 258.15 195.681 256.87 194.351 256.87H194.361Z" fill="#0000FF"/>
<path d="M191.049 215.43H186.029V225.82H191.049V215.43Z" fill="#0000FF"/>
<path d="M188.54 217.94C183.87 217.94 180.07 214.14 180.07 209.47C180.07 204.8 183.87 201 188.54 201C193.21 201 197.01 204.8 197.01 209.47C197.01 214.14 193.21 217.94 188.54 217.94ZM188.54 206.02C186.64 206.02 185.09 207.57 185.09 209.47C185.09 211.37 186.64 212.92 188.54 212.92C190.44 212.92 191.99 211.37 191.99 209.47C191.99 207.57 190.44 206.02 188.54 206.02Z" fill="#0000FF"/>
</g>
<path d="M254.902 291V212.76H274.222L286.822 247.56C287.622 249.88 288.382 252.28 289.102 254.76C289.822 257.16 290.582 259.56 291.382 261.96H291.862C292.662 259.56 293.382 257.16 294.022 254.76C294.742 252.28 295.502 249.88 296.302 247.56L308.662 212.76H327.862V291H311.782V262.32C311.782 260.4 311.862 258.28 312.022 255.96C312.182 253.64 312.382 251.32 312.622 249C312.862 246.6 313.102 244.28 313.342 242.04C313.582 239.72 313.822 237.6 314.062 235.68H313.582L307.222 254.28L296.062 284.16H286.342L275.182 254.28L268.942 235.68H268.462C268.702 237.6 268.942 239.72 269.182 242.04C269.422 244.28 269.662 246.6 269.902 249C270.142 251.32 270.342 253.64 270.502 255.96C270.662 258.28 270.742 260.4 270.742 262.32V291H254.902ZM360.109 292.44C357.389 292.44 354.909 291.96 352.669 291C350.509 290.12 348.669 288.88 347.149 287.28C345.629 285.6 344.429 283.68 343.549 281.52C342.749 279.36 342.349 277 342.349 274.44C342.349 268.2 344.989 263.32 350.269 259.8C355.549 256.28 364.069 253.92 375.829 252.72C375.669 250.08 374.869 248 373.429 246.48C372.069 244.88 369.749 244.08 366.469 244.08C363.909 244.08 361.349 244.56 358.789 245.52C356.309 246.48 353.629 247.8 350.749 249.48L344.389 237.84C348.229 235.52 352.229 233.64 356.389 232.2C360.629 230.76 365.109 230.04 369.829 230.04C377.509 230.04 383.349 232.24 387.349 236.64C391.429 240.96 393.469 247.72 393.469 256.92V291H379.069L377.869 284.88H377.389C374.829 287.12 372.149 288.96 369.349 290.4C366.549 291.76 363.469 292.44 360.109 292.44ZM366.109 278.76C368.109 278.76 369.829 278.32 371.269 277.44C372.709 276.56 374.229 275.32 375.829 273.72V263.28C369.589 264.16 365.269 265.44 362.869 267.12C360.469 268.8 359.269 270.8 359.269 273.12C359.269 275.04 359.869 276.48 361.069 277.44C362.349 278.32 364.029 278.76 366.109 278.76ZM408.63 291V231.48H426.27V291H408.63ZM417.39 222.72C414.43 222.72 411.99 221.88 410.07 220.2C408.15 218.44 407.19 216.2 407.19 213.48C407.19 210.76 408.15 208.56 410.07 206.88C411.99 205.2 414.43 204.36 417.39 204.36C420.43 204.36 422.87 205.2 424.71 206.88C426.63 208.56 427.59 210.76 427.59 213.48C427.59 216.2 426.63 218.44 424.71 220.2C422.87 221.88 420.43 222.72 417.39 222.72ZM458.234 292.44C455.194 292.44 452.634 291.96 450.554 291C448.474 290.04 446.794 288.72 445.514 287.04C444.314 285.28 443.434 283.2 442.874 280.8C442.314 278.32 442.034 275.56 442.034 272.52V206.88H459.674V273.24C459.674 275.08 459.994 276.36 460.634 277.08C461.354 277.8 462.074 278.16 462.794 278.16C463.194 278.16 463.514 278.16 463.754 278.16C464.074 278.16 464.474 278.08 464.954 277.92L467.114 291C466.154 291.4 464.914 291.72 463.394 291.96C461.954 292.28 460.234 292.44 458.234 292.44ZM493.29 291V227.64H471.81V212.76H532.53V227.64H511.05V291H493.29ZM543.53 291V231.48H561.17V291H543.53ZM552.29 222.72C549.33 222.72 546.89 221.88 544.97 220.2C543.05 218.44 542.09 216.2 542.09 213.48C542.09 210.76 543.05 208.56 544.97 206.88C546.89 205.2 549.33 204.36 552.29 204.36C555.33 204.36 557.77 205.2 559.61 206.88C561.53 208.56 562.49 210.76 562.49 213.48C562.49 216.2 561.53 218.44 559.61 220.2C557.77 221.88 555.33 222.72 552.29 222.72ZM576.934 291V231.48H591.334L592.534 239.16H593.014C595.494 236.68 598.134 234.56 600.934 232.8C603.734 230.96 607.094 230.04 611.014 230.04C615.254 230.04 618.654 230.92 621.214 232.68C623.854 234.36 625.934 236.8 627.454 240C630.094 237.28 632.854 234.96 635.734 233.04C638.694 231.04 642.174 230.04 646.174 230.04C652.574 230.04 657.254 232.2 660.214 236.52C663.254 240.76 664.774 246.6 664.774 254.04V291H647.134V256.32C647.134 252 646.534 249.04 645.334 247.44C644.214 245.84 642.374 245.04 639.814 245.04C636.854 245.04 633.454 246.96 629.614 250.8V291H611.974V256.32C611.974 252 611.374 249.04 610.174 247.44C609.054 245.84 607.214 245.04 604.654 245.04C601.614 245.04 598.254 246.96 594.574 250.8V291H576.934ZM706.704 292.44C702.464 292.44 698.504 291.76 694.824 290.4C691.144 288.96 687.944 286.92 685.224 284.28C682.504 281.56 680.384 278.28 678.864 274.44C677.344 270.6 676.584 266.2 676.584 261.24C676.584 256.44 677.384 252.12 678.984 248.28C680.584 244.36 682.664 241.08 685.224 238.44C687.864 235.72 690.864 233.64 694.224 232.2C697.584 230.76 701.064 230.04 704.664 230.04C708.904 230.04 712.584 230.76 715.704 232.2C718.904 233.64 721.544 235.64 723.624 238.2C725.784 240.76 727.384 243.8 728.424 247.32C729.464 250.76 729.984 254.52 729.984 258.6C729.984 260.2 729.904 261.72 729.744 263.16C729.584 264.6 729.424 265.68 729.264 266.4H693.624C694.424 270.72 696.184 273.92 698.904 276C701.704 278 705.104 279 709.104 279C713.344 279 717.624 277.68 721.944 275.04L727.824 285.72C724.784 287.8 721.384 289.44 717.624 290.64C713.944 291.84 710.304 292.44 706.704 292.44ZM693.504 254.76H714.984C714.984 251.4 714.224 248.68 712.704 246.6C711.184 244.52 708.624 243.48 705.024 243.48C702.224 243.48 699.744 244.4 697.584 246.24C695.504 248.08 694.144 250.92 693.504 254.76ZM786.477 251.4L784.557 258.6H801.237L799.437 251.4C798.317 247.48 797.237 243.32 796.197 238.92C795.157 234.52 794.117 230.28 793.077 226.2H792.597C791.637 230.36 790.637 234.64 789.597 239.04C788.637 243.36 787.597 247.48 786.477 251.4ZM758.157 291L782.637 212.76H803.877L828.357 291H809.637L804.837 272.4H780.957L776.157 291H758.157ZM837.146 291V212.76H854.786V291H837.146Z" fill="#0000FF"/>
<path d="M29.72 280.44C26.04 280.44 22.88 279.88 20.24 278.76C17.68 277.64 15.56 276.08 13.88 274.08C12.28 272.08 11.08 269.68 10.28 266.88C9.56 264 9.2 260.84 9.2 257.4V233.28H1.04V220.2L10.16 219.48L12.2 203.64H26.84V219.48H41.12V233.28H26.84V257.16C26.84 260.52 27.52 262.96 28.88 264.48C30.32 265.92 32.2 266.64 34.52 266.64C35.48 266.64 36.44 266.52 37.4 266.28C38.44 266.04 39.36 265.76 40.16 265.44L42.92 278.28C41.32 278.76 39.44 279.24 37.28 279.72C35.12 280.2 32.6 280.44 29.72 280.44ZM76.4281 280.44C72.6681 280.44 69.0281 279.76 65.5081 278.4C61.9881 276.96 58.8681 274.92 56.1481 272.28C53.5081 269.64 51.3881 266.4 49.7881 262.56C48.1881 258.64 47.3881 254.2 47.3881 249.24C47.3881 244.28 48.1881 239.88 49.7881 236.04C51.3881 232.12 53.5081 228.84 56.1481 226.2C58.8681 223.56 61.9881 221.56 65.5081 220.2C69.0281 218.76 72.6681 218.04 76.4281 218.04C80.1881 218.04 83.7881 218.76 87.2281 220.2C90.7481 221.56 93.8281 223.56 96.4681 226.2C99.1881 228.84 101.348 232.12 102.948 236.04C104.548 239.88 105.348 244.28 105.348 249.24C105.348 254.2 104.548 258.64 102.948 262.56C101.348 266.4 99.1881 269.64 96.4681 272.28C93.8281 274.92 90.7481 276.96 87.2281 278.4C83.7881 279.76 80.1881 280.44 76.4281 280.44ZM76.4281 266.16C80.0281 266.16 82.7481 264.64 84.5881 261.6C86.4281 258.56 87.3481 254.44 87.3481 249.24C87.3481 244.04 86.4281 239.92 84.5881 236.88C82.7481 233.84 80.0281 232.32 76.4281 232.32C72.7481 232.32 69.9881 233.84 68.1481 236.88C66.3881 239.92 65.5081 244.04 65.5081 249.24C65.5081 254.44 66.3881 258.56 68.1481 261.6C69.9881 264.64 72.7481 266.16 76.4281 266.16Z" fill="#009CFF"/>
<path d="M2.89701 177V103.976H27.985C32.017 103.976 35.7877 104.387 39.297 105.208C42.8063 105.955 45.8677 107.261 48.481 109.128C51.0943 110.92 53.1477 113.347 54.641 116.408C56.209 119.395 56.993 123.091 56.993 127.496C56.993 131.752 56.209 135.448 54.641 138.584C53.1477 141.72 51.0943 144.296 48.481 146.312C45.8677 148.328 42.8437 149.821 39.409 150.792C35.9743 151.763 32.3157 152.248 28.433 152.248H19.361V177H2.89701ZM19.361 139.144H27.425C36.385 139.144 40.865 135.261 40.865 127.496C40.865 123.688 39.6703 121 37.281 119.432C34.8917 117.864 31.457 117.08 26.977 117.08H19.361V139.144ZM69.9518 177V103.976H96.2718C100.154 103.976 103.776 104.349 107.136 105.096C110.57 105.843 113.557 107.112 116.096 108.904C118.634 110.621 120.65 112.936 122.144 115.848C123.637 118.76 124.384 122.381 124.384 126.712C124.384 132.088 123.189 136.531 120.8 140.04C118.485 143.475 115.349 146.051 111.392 147.768L127.968 177H109.488L95.4878 150.68H86.4158V177H69.9518ZM86.4158 137.576H94.9278C99.2584 137.576 102.544 136.68 104.784 134.888C107.098 133.021 108.256 130.296 108.256 126.712C108.256 123.128 107.098 120.627 104.784 119.208C102.544 117.789 99.2584 117.08 94.9278 117.08H86.4158V137.576ZM138.975 177V103.976H155.439V177H138.975ZM202.679 178.344C197.751 178.344 193.233 177.485 189.127 175.768C185.095 173.976 181.623 171.437 178.711 168.152C175.799 164.867 173.521 160.872 171.879 156.168C170.311 151.464 169.527 146.125 169.527 140.152C169.527 134.179 170.311 128.877 171.879 124.248C173.521 119.544 175.799 115.624 178.711 112.488C181.623 109.277 185.095 106.851 189.127 105.208C193.233 103.491 197.751 102.632 202.679 102.632C207.607 102.632 212.087 103.491 216.119 105.208C220.225 106.851 223.735 109.277 226.647 112.488C229.559 115.699 231.799 119.656 233.367 124.36C235.009 128.989 235.831 134.253 235.831 140.152C235.831 146.125 235.009 151.464 233.367 156.168C231.799 160.872 229.559 164.867 226.647 168.152C223.735 171.437 220.225 173.976 216.119 175.768C212.087 177.485 207.607 178.344 202.679 178.344ZM202.679 164.12C207.681 164.12 211.639 161.992 214.551 157.736C217.463 153.405 218.919 147.544 218.919 140.152C218.919 132.835 217.463 127.123 214.551 123.016C211.639 118.909 207.681 116.856 202.679 116.856C197.676 116.856 193.719 118.909 190.807 123.016C187.895 127.123 186.439 132.835 186.439 140.152C186.439 147.544 187.895 153.405 190.807 157.736C193.719 161.992 197.676 164.12 202.679 164.12ZM249.897 177V103.976H276.217C280.1 103.976 283.721 104.349 287.081 105.096C290.516 105.843 293.503 107.112 296.041 108.904C298.58 110.621 300.596 112.936 302.089 115.848C303.583 118.76 304.329 122.381 304.329 126.712C304.329 132.088 303.135 136.531 300.745 140.04C298.431 143.475 295.295 146.051 291.337 147.768L307.913 177H289.433L275.433 150.68H266.361V177H249.897ZM266.361 137.576H274.873C279.204 137.576 282.489 136.68 284.729 134.888C287.044 133.021 288.201 130.296 288.201 126.712C288.201 123.128 287.044 120.627 284.729 119.208C282.489 117.789 279.204 117.08 274.873 117.08H266.361V137.576ZM318.921 177V103.976H335.385V177H318.921ZM367.168 177V117.864H347.12V103.976H403.792V117.864H383.744V177H367.168ZM426.09 177V151.016L404.026 103.976H421.722L428.218 120.776C429.263 123.539 430.234 126.227 431.13 128.84C432.101 131.379 433.109 134.067 434.154 136.904H434.602C435.647 134.067 436.655 131.379 437.626 128.84C438.671 126.227 439.717 123.539 440.762 120.776L447.37 103.976H464.618L442.554 151.016V177H426.09ZM512.619 140.04L510.827 146.76H526.395L524.716 140.04C523.67 136.381 522.662 132.499 521.691 128.392C520.721 124.285 519.75 120.328 518.78 116.52H518.331C517.435 120.403 516.502 124.397 515.531 128.504C514.635 132.536 513.665 136.381 512.619 140.04ZM486.187 177L509.035 103.976H528.86L551.708 177H534.235L529.755 159.64H507.467L502.987 177H486.187ZM589.393 178.344C584.764 178.344 580.396 177.56 576.289 175.992C572.182 174.349 568.561 171.96 565.425 168.824C562.364 165.688 559.937 161.805 558.145 157.176C556.353 152.472 555.457 147.059 555.457 140.936C555.457 134.888 556.39 129.512 558.257 124.808C560.124 120.029 562.625 115.997 565.761 112.712C568.897 109.427 572.556 106.925 576.737 105.208C580.918 103.491 585.324 102.632 589.953 102.632C594.657 102.632 598.876 103.603 602.609 105.544C606.342 107.411 609.441 109.613 611.905 112.152L603.169 122.68C601.302 120.963 599.324 119.581 597.233 118.536C595.217 117.416 592.902 116.856 590.289 116.856C587.825 116.856 585.473 117.416 583.233 118.536C581.068 119.581 579.164 121.112 577.521 123.128C575.953 125.144 574.684 127.608 573.713 130.52C572.817 133.432 572.369 136.717 572.369 140.376C572.369 147.917 573.974 153.779 577.185 157.96C580.396 162.067 584.689 164.12 590.065 164.12C593.052 164.12 595.702 163.485 598.017 162.216C600.406 160.872 602.497 159.229 604.289 157.288L613.025 167.592C606.902 174.76 599.025 178.344 589.393 178.344ZM650.76 178.344C646.131 178.344 641.763 177.56 637.656 175.992C633.549 174.349 629.928 171.96 626.792 168.824C623.731 165.688 621.304 161.805 619.512 157.176C617.72 152.472 616.824 147.059 616.824 140.936C616.824 134.888 617.757 129.512 619.624 124.808C621.491 120.029 623.992 115.997 627.128 112.712C630.264 109.427 633.923 106.925 638.104 105.208C642.285 103.491 646.691 102.632 651.32 102.632C656.024 102.632 660.243 103.603 663.976 105.544C667.709 107.411 670.808 109.613 673.272 112.152L664.536 122.68C662.669 120.963 660.691 119.581 658.6 118.536C656.584 117.416 654.269 116.856 651.656 116.856C649.192 116.856 646.84 117.416 644.6 118.536C642.435 119.581 640.531 121.112 638.888 123.128C637.32 125.144 636.051 127.608 635.08 130.52C634.184 133.432 633.736 136.717 633.736 140.376C633.736 147.917 635.341 153.779 638.552 157.96C641.763 162.067 646.056 164.12 651.432 164.12C654.419 164.12 657.069 163.485 659.384 162.216C661.773 160.872 663.864 159.229 665.656 157.288L674.392 167.592C668.269 174.76 660.392 178.344 650.76 178.344ZM685.82 177V103.976H731.516V117.864H702.284V132.536H727.148V146.312H702.284V163.112H732.636V177H685.82ZM769.803 178.344C765.024 178.344 760.246 177.485 755.467 175.768C750.763 173.976 746.544 171.325 742.811 167.816L752.219 156.504C754.832 158.744 757.707 160.573 760.843 161.992C764.054 163.411 767.19 164.12 770.251 164.12C773.686 164.12 776.224 163.485 777.867 162.216C779.584 160.947 780.443 159.229 780.443 157.064C780.443 155.944 780.182 154.973 779.659 154.152C779.211 153.331 778.502 152.621 777.531 152.024C776.635 151.352 775.515 150.755 774.171 150.232C772.902 149.635 771.483 149 769.915 148.328L760.395 144.296C758.528 143.549 756.699 142.579 754.907 141.384C753.19 140.189 751.622 138.808 750.203 137.24C748.859 135.597 747.776 133.731 746.955 131.64C746.134 129.475 745.723 127.048 745.723 124.36C745.723 121.373 746.358 118.573 747.627 115.96C748.896 113.272 750.688 110.957 753.003 109.016C755.318 107 758.043 105.432 761.179 104.312C764.39 103.192 767.899 102.632 771.707 102.632C775.963 102.632 780.144 103.453 784.251 105.096C788.432 106.739 792.091 109.128 795.227 112.264L786.827 122.68C784.438 120.813 782.048 119.395 779.659 118.424C777.27 117.379 774.619 116.856 771.707 116.856C768.87 116.856 766.592 117.453 764.875 118.648C763.232 119.768 762.411 121.373 762.411 123.464C762.411 124.584 762.672 125.555 763.195 126.376C763.792 127.123 764.576 127.832 765.547 128.504C766.592 129.101 767.787 129.699 769.131 130.296C770.475 130.819 771.931 131.416 773.499 132.088L782.907 135.896C787.387 137.688 790.896 140.152 793.435 143.288C796.048 146.424 797.355 150.568 797.355 155.72C797.355 158.781 796.72 161.693 795.451 164.456C794.256 167.144 792.464 169.533 790.075 171.624C787.76 173.64 784.886 175.283 781.451 176.552C778.016 177.747 774.134 178.344 769.803 178.344ZM830.405 178.344C825.626 178.344 820.847 177.485 816.069 175.768C811.365 173.976 807.146 171.325 803.413 167.816L812.821 156.504C815.434 158.744 818.309 160.573 821.445 161.992C824.655 163.411 827.791 164.12 830.853 164.12C834.287 164.12 836.826 163.485 838.469 162.216C840.186 160.947 841.045 159.229 841.045 157.064C841.045 155.944 840.783 154.973 840.261 154.152C839.813 153.331 839.103 152.621 838.133 152.024C837.237 151.352 836.117 150.755 834.773 150.232C833.503 149.635 832.085 149 830.517 148.328L820.997 144.296C819.13 143.549 817.301 142.579 815.509 141.384C813.791 140.189 812.223 138.808 810.805 137.24C809.461 135.597 808.378 133.731 807.557 131.64C806.735 129.475 806.325 127.048 806.325 124.36C806.325 121.373 806.959 118.573 808.229 115.96C809.498 113.272 811.29 110.957 813.605 109.016C815.919 107 818.645 105.432 821.781 104.312C824.991 103.192 828.501 102.632 832.309 102.632C836.565 102.632 840.746 103.453 844.853 105.096C849.034 106.739 852.693 109.128 855.829 112.264L847.429 122.68C845.039 120.813 842.65 119.395 840.261 118.424C837.871 117.379 835.221 116.856 832.309 116.856C829.471 116.856 827.194 117.453 825.477 118.648C823.834 119.768 823.013 121.373 823.013 123.464C823.013 124.584 823.274 125.555 823.797 126.376C824.394 127.123 825.178 127.832 826.149 128.504C827.194 129.101 828.389 129.699 829.733 130.296C831.077 130.819 832.533 131.416 834.101 132.088L843.509 135.896C847.989 137.688 851.498 140.152 854.037 143.288C856.65 146.424 857.957 150.568 857.957 155.72C857.957 158.781 857.322 161.693 856.053 164.456C854.858 167.144 853.066 169.533 850.677 171.624C848.362 173.64 845.487 175.283 842.053 176.552C838.618 177.747 834.735 178.344 830.405 178.344Z" fill="#009CFF"/>
<path d="M657.2 316V304.264H661.232C661.88 304.264 662.486 304.33 663.05 304.462C663.614 304.582 664.106 304.792 664.526 305.092C664.946 305.38 665.276 305.77 665.516 306.262C665.768 306.742 665.894 307.336 665.894 308.044C665.894 308.728 665.768 309.322 665.516 309.826C665.276 310.33 664.946 310.744 664.526 311.068C664.106 311.392 663.62 311.632 663.068 311.788C662.516 311.944 661.928 312.022 661.304 312.022H659.846V316H657.2ZM659.846 309.916H661.142C662.582 309.916 663.302 309.292 663.302 308.044C663.302 307.432 663.11 307 662.726 306.748C662.342 306.496 661.79 306.37 661.07 306.37H659.846V309.916ZM671.154 316.216C670.59 316.216 670.044 316.114 669.516 315.91C668.988 315.694 668.52 315.388 668.112 314.992C667.716 314.596 667.398 314.11 667.158 313.534C666.918 312.946 666.798 312.28 666.798 311.536C666.798 310.792 666.918 310.132 667.158 309.556C667.398 308.968 667.716 308.476 668.112 308.08C668.52 307.684 668.988 307.384 669.516 307.18C670.044 306.964 670.59 306.856 671.154 306.856C671.718 306.856 672.258 306.964 672.774 307.18C673.302 307.384 673.764 307.684 674.16 308.08C674.568 308.476 674.892 308.968 675.132 309.556C675.372 310.132 675.492 310.792 675.492 311.536C675.492 312.28 675.372 312.946 675.132 313.534C674.892 314.11 674.568 314.596 674.16 314.992C673.764 315.388 673.302 315.694 672.774 315.91C672.258 316.114 671.718 316.216 671.154 316.216ZM671.154 314.074C671.694 314.074 672.102 313.846 672.378 313.39C672.654 312.934 672.792 312.316 672.792 311.536C672.792 310.756 672.654 310.138 672.378 309.682C672.102 309.226 671.694 308.998 671.154 308.998C670.602 308.998 670.188 309.226 669.912 309.682C669.648 310.138 669.516 310.756 669.516 311.536C669.516 312.316 669.648 312.934 669.912 313.39C670.188 313.846 670.602 314.074 671.154 314.074ZM678.658 316L676.426 307.072H679.054L679.918 311.212C679.99 311.656 680.056 312.094 680.116 312.526C680.176 312.958 680.242 313.402 680.314 313.858H680.386C680.47 313.402 680.548 312.952 680.62 312.508C680.704 312.064 680.8 311.632 680.908 311.212L681.898 307.072H684.184L685.192 311.212C685.3 311.656 685.396 312.094 685.48 312.526C685.564 312.958 685.654 313.402 685.75 313.858H685.822C685.906 313.402 685.972 312.958 686.02 312.526C686.08 312.094 686.152 311.656 686.236 311.212L687.082 307.072H689.53L687.388 316H684.292L683.482 312.436C683.386 312.016 683.302 311.596 683.23 311.176C683.158 310.756 683.08 310.306 682.996 309.826H682.924C682.84 310.306 682.762 310.756 682.69 311.176C682.63 311.596 682.558 312.016 682.474 312.436L681.682 316H678.658ZM694.994 316.216C694.358 316.216 693.764 316.114 693.212 315.91C692.66 315.694 692.18 315.388 691.772 314.992C691.364 314.584 691.046 314.092 690.818 313.516C690.59 312.94 690.476 312.28 690.476 311.536C690.476 310.816 690.596 310.168 690.836 309.592C691.076 309.004 691.388 308.512 691.772 308.116C692.168 307.708 692.618 307.396 693.122 307.18C693.626 306.964 694.148 306.856 694.688 306.856C695.324 306.856 695.876 306.964 696.344 307.18C696.824 307.396 697.22 307.696 697.532 308.08C697.856 308.464 698.096 308.92 698.252 309.448C698.408 309.964 698.486 310.528 698.486 311.14C698.486 311.38 698.474 311.608 698.45 311.824C698.426 312.04 698.402 312.202 698.378 312.31H693.032C693.152 312.958 693.416 313.438 693.824 313.75C694.244 314.05 694.754 314.2 695.354 314.2C695.99 314.2 696.632 314.002 697.28 313.606L698.162 315.208C697.706 315.52 697.196 315.766 696.632 315.946C696.08 316.126 695.534 316.216 694.994 316.216ZM693.014 310.564H696.236C696.236 310.06 696.122 309.652 695.894 309.34C695.666 309.028 695.282 308.872 694.742 308.872C694.322 308.872 693.95 309.01 693.626 309.286C693.314 309.562 693.11 309.988 693.014 310.564ZM700.315 316V307.072H702.475L702.655 308.638H702.727C703.051 308.026 703.441 307.576 703.897 307.288C704.353 307 704.809 306.856 705.265 306.856C705.517 306.856 705.721 306.874 705.877 306.91C706.045 306.934 706.195 306.976 706.327 307.036L705.895 309.322C705.727 309.274 705.571 309.238 705.427 309.214C705.283 309.19 705.115 309.178 704.923 309.178C704.587 309.178 704.233 309.298 703.861 309.538C703.501 309.778 703.201 310.204 702.961 310.816V316H700.315ZM711.307 316.216C710.671 316.216 710.077 316.114 709.525 315.91C708.973 315.694 708.493 315.388 708.085 314.992C707.677 314.584 707.359 314.092 707.131 313.516C706.903 312.94 706.789 312.28 706.789 311.536C706.789 310.816 706.909 310.168 707.149 309.592C707.389 309.004 707.701 308.512 708.085 308.116C708.481 307.708 708.931 307.396 709.435 307.18C709.939 306.964 710.461 306.856 711.001 306.856C711.637 306.856 712.189 306.964 712.657 307.18C713.137 307.396 713.533 307.696 713.845 308.08C714.169 308.464 714.409 308.92 714.565 309.448C714.721 309.964 714.799 310.528 714.799 311.14C714.799 311.38 714.787 311.608 714.763 311.824C714.739 312.04 714.715 312.202 714.691 312.31H709.345C709.465 312.958 709.729 313.438 710.137 313.75C710.557 314.05 711.067 314.2 711.667 314.2C712.303 314.2 712.945 314.002 713.593 313.606L714.475 315.208C714.019 315.52 713.509 315.766 712.945 315.946C712.393 316.126 711.847 316.216 711.307 316.216ZM709.327 310.564H712.549C712.549 310.06 712.435 309.652 712.207 309.34C711.979 309.028 711.595 308.872 711.055 308.872C710.635 308.872 710.263 309.01 709.939 309.286C709.627 309.562 709.423 309.988 709.327 310.564ZM719.813 316.216C719.261 316.216 718.757 316.108 718.301 315.892C717.857 315.676 717.473 315.37 717.149 314.974C716.837 314.566 716.591 314.074 716.411 313.498C716.243 312.922 716.159 312.268 716.159 311.536C716.159 310.804 716.261 310.15 716.465 309.574C716.681 308.998 716.957 308.512 717.293 308.116C717.641 307.708 718.037 307.396 718.481 307.18C718.937 306.964 719.399 306.856 719.867 306.856C720.371 306.856 720.785 306.94 721.109 307.108C721.433 307.276 721.751 307.504 722.063 307.792L721.955 306.424V303.382H724.601V316H722.441L722.261 315.118H722.189C721.877 315.43 721.511 315.694 721.091 315.91C720.671 316.114 720.245 316.216 719.813 316.216ZM720.497 314.056C720.785 314.056 721.043 313.996 721.271 313.876C721.511 313.756 721.739 313.546 721.955 313.246V309.592C721.715 309.376 721.469 309.226 721.217 309.142C720.965 309.058 720.719 309.016 720.479 309.016C720.059 309.016 719.687 309.22 719.363 309.628C719.039 310.024 718.877 310.648 718.877 311.5C718.877 312.388 719.015 313.036 719.291 313.444C719.579 313.852 719.981 314.056 720.497 314.056ZM730.765 316V304.264H734.779C735.391 304.264 735.955 304.312 736.471 304.408C736.999 304.492 737.455 304.648 737.839 304.876C738.235 305.104 738.541 305.404 738.757 305.776C738.985 306.148 739.099 306.616 739.099 307.18C739.099 307.444 739.063 307.708 738.991 307.972C738.919 308.236 738.817 308.482 738.685 308.71C738.553 308.938 738.391 309.142 738.199 309.322C738.019 309.502 737.809 309.634 737.569 309.718V309.79C737.869 309.862 738.145 309.976 738.397 310.132C738.649 310.276 738.871 310.462 739.063 310.69C739.255 310.918 739.405 311.188 739.513 311.5C739.621 311.8 739.675 312.148 739.675 312.544C739.675 313.144 739.555 313.66 739.315 314.092C739.087 314.524 738.763 314.884 738.343 315.172C737.935 315.448 737.455 315.658 736.903 315.802C736.351 315.934 735.757 316 735.121 316H730.765ZM733.411 308.962H734.653C735.301 308.962 735.769 308.836 736.057 308.584C736.357 308.332 736.507 307.996 736.507 307.576C736.507 307.12 736.357 306.796 736.057 306.604C735.757 306.412 735.295 306.316 734.671 306.316H733.411V308.962ZM733.411 313.948H734.905C736.357 313.948 737.083 313.42 737.083 312.364C737.083 311.848 736.903 311.482 736.543 311.266C736.183 311.038 735.637 310.924 734.905 310.924H733.411V313.948ZM742.121 319.492C741.845 319.492 741.611 319.474 741.419 319.438C741.227 319.414 741.041 319.372 740.861 319.312L741.329 317.296C741.413 317.32 741.509 317.344 741.617 317.368C741.725 317.392 741.827 317.404 741.923 317.404C742.367 317.404 742.709 317.296 742.949 317.08C743.189 316.864 743.369 316.582 743.489 316.234L743.615 315.766L740.177 307.072H742.841L744.119 310.906C744.251 311.314 744.371 311.728 744.479 312.148C744.587 312.568 744.701 313 744.821 313.444H744.893C744.989 313.024 745.085 312.604 745.181 312.184C745.289 311.752 745.397 311.326 745.505 310.906L746.585 307.072H749.123L746.027 316.09C745.811 316.654 745.583 317.146 745.343 317.566C745.115 317.998 744.845 318.352 744.533 318.628C744.233 318.916 743.885 319.132 743.489 319.276C743.105 319.42 742.649 319.492 742.121 319.492ZM759.521 316.216C758.717 316.216 757.961 316.09 757.253 315.838C756.557 315.574 755.951 315.19 755.435 314.686C754.919 314.182 754.511 313.558 754.211 312.814C753.923 312.058 753.779 311.188 753.779 310.204C753.779 309.232 753.929 308.368 754.229 307.612C754.529 306.844 754.937 306.196 755.453 305.668C755.981 305.14 756.593 304.738 757.289 304.462C757.985 304.186 758.723 304.048 759.503 304.048C760.355 304.048 761.087 304.204 761.699 304.516C762.311 304.828 762.809 305.182 763.193 305.578L761.807 307.27C761.507 307.006 761.189 306.784 760.853 306.604C760.517 306.424 760.097 306.334 759.593 306.334C759.137 306.334 758.717 306.424 758.333 306.604C757.961 306.772 757.637 307.018 757.361 307.342C757.085 307.666 756.869 308.062 756.713 308.53C756.569 308.998 756.497 309.526 756.497 310.114C756.497 311.326 756.767 312.268 757.307 312.94C757.859 313.6 758.687 313.93 759.791 313.93C760.031 313.93 760.265 313.9 760.493 313.84C760.721 313.78 760.907 313.69 761.051 313.57V311.554H759.107V309.394H763.391V314.794C762.983 315.19 762.443 315.526 761.771 315.802C761.099 316.078 760.349 316.216 759.521 316.216ZM769.596 316.216C768.96 316.216 768.366 316.114 767.814 315.91C767.262 315.694 766.782 315.388 766.374 314.992C765.966 314.584 765.648 314.092 765.42 313.516C765.192 312.94 765.078 312.28 765.078 311.536C765.078 310.816 765.198 310.168 765.438 309.592C765.678 309.004 765.99 308.512 766.374 308.116C766.77 307.708 767.22 307.396 767.724 307.18C768.228 306.964 768.75 306.856 769.29 306.856C769.926 306.856 770.478 306.964 770.946 307.18C771.426 307.396 771.822 307.696 772.134 308.08C772.458 308.464 772.698 308.92 772.854 309.448C773.01 309.964 773.088 310.528 773.088 311.14C773.088 311.38 773.076 311.608 773.052 311.824C773.028 312.04 773.004 312.202 772.98 312.31H767.634C767.754 312.958 768.018 313.438 768.426 313.75C768.846 314.05 769.356 314.2 769.956 314.2C770.592 314.2 771.234 314.002 771.882 313.606L772.764 315.208C772.308 315.52 771.798 315.766 771.234 315.946C770.682 316.126 770.136 316.216 769.596 316.216ZM767.616 310.564H770.838C770.838 310.06 770.724 309.652 770.496 309.34C770.268 309.028 769.884 308.872 769.344 308.872C768.924 308.872 768.552 309.01 768.228 309.286C767.916 309.562 767.712 309.988 767.616 310.564ZM774.916 316V307.072H777.076L777.256 308.206H777.328C777.712 307.846 778.132 307.534 778.588 307.27C779.044 306.994 779.578 306.856 780.19 306.856C781.162 306.856 781.864 307.174 782.296 307.81C782.74 308.446 782.962 309.328 782.962 310.456V316H780.316V310.798C780.316 310.15 780.226 309.706 780.046 309.466C779.878 309.226 779.602 309.106 779.218 309.106C778.882 309.106 778.594 309.184 778.354 309.34C778.114 309.484 777.85 309.694 777.562 309.97V316H774.916ZM789.213 316.216C788.577 316.216 787.983 316.114 787.431 315.91C786.879 315.694 786.399 315.388 785.991 314.992C785.583 314.584 785.265 314.092 785.037 313.516C784.809 312.94 784.695 312.28 784.695 311.536C784.695 310.816 784.815 310.168 785.055 309.592C785.295 309.004 785.607 308.512 785.991 308.116C786.387 307.708 786.837 307.396 787.341 307.18C787.845 306.964 788.367 306.856 788.907 306.856C789.543 306.856 790.095 306.964 790.563 307.18C791.043 307.396 791.439 307.696 791.751 308.08C792.075 308.464 792.315 308.92 792.471 309.448C792.627 309.964 792.705 310.528 792.705 311.14C792.705 311.38 792.693 311.608 792.669 311.824C792.645 312.04 792.621 312.202 792.597 312.31H787.251C787.371 312.958 787.635 313.438 788.043 313.75C788.463 314.05 788.973 314.2 789.573 314.2C790.209 314.2 790.851 314.002 791.499 313.606L792.381 315.208C791.925 315.52 791.415 315.766 790.851 315.946C790.299 316.126 789.753 316.216 789.213 316.216ZM787.233 310.564H790.455C790.455 310.06 790.341 309.652 790.113 309.34C789.885 309.028 789.501 308.872 788.961 308.872C788.541 308.872 788.169 309.01 787.845 309.286C787.533 309.562 787.329 309.988 787.233 310.564ZM794.533 316V307.072H796.693L796.873 308.638H796.945C797.269 308.026 797.659 307.576 798.115 307.288C798.571 307 799.027 306.856 799.483 306.856C799.735 306.856 799.939 306.874 800.095 306.91C800.263 306.934 800.413 306.976 800.545 307.036L800.113 309.322C799.945 309.274 799.789 309.238 799.645 309.214C799.501 309.19 799.333 309.178 799.141 309.178C798.805 309.178 798.451 309.298 798.079 309.538C797.719 309.778 797.419 310.204 797.179 310.816V316H794.533ZM803.445 316.216C803.037 316.216 802.665 316.144 802.329 316C802.005 315.868 801.729 315.682 801.501 315.442C801.273 315.19 801.093 314.902 800.961 314.578C800.841 314.254 800.781 313.9 800.781 313.516C800.781 312.58 801.177 311.848 801.969 311.32C802.761 310.792 804.039 310.438 805.803 310.258C805.779 309.862 805.659 309.55 805.443 309.322C805.239 309.082 804.891 308.962 804.399 308.962C804.015 308.962 803.631 309.034 803.247 309.178C802.875 309.322 802.473 309.52 802.041 309.772L801.087 308.026C801.663 307.678 802.263 307.396 802.887 307.18C803.523 306.964 804.195 306.856 804.903 306.856C806.055 306.856 806.931 307.186 807.531 307.846C808.143 308.494 808.449 309.508 808.449 310.888V316H806.289L806.109 315.082H806.037C805.653 315.418 805.251 315.694 804.831 315.91C804.411 316.114 803.949 316.216 803.445 316.216ZM804.345 314.164C804.645 314.164 804.903 314.098 805.119 313.966C805.335 313.834 805.563 313.648 805.803 313.408V311.842C804.867 311.974 804.219 312.166 803.859 312.418C803.499 312.67 803.319 312.97 803.319 313.318C803.319 313.606 803.409 313.822 803.589 313.966C803.781 314.098 804.033 314.164 804.345 314.164ZM813.809 316.216C813.257 316.216 812.783 316.132 812.387 315.964C812.003 315.796 811.685 315.562 811.433 315.262C811.193 314.962 811.013 314.602 810.893 314.182C810.785 313.75 810.731 313.276 810.731 312.76V309.142H809.507V307.18L810.875 307.072L811.181 304.696H813.377V307.072H815.519V309.142H813.377V312.724C813.377 313.228 813.479 313.594 813.683 313.822C813.899 314.038 814.181 314.146 814.529 314.146C814.673 314.146 814.817 314.128 814.961 314.092C815.117 314.056 815.255 314.014 815.375 313.966L815.789 315.892C815.549 315.964 815.267 316.036 814.943 316.108C814.619 316.18 814.241 316.216 813.809 316.216ZM817.262 316V307.072H819.908V316H817.262ZM818.576 305.758C818.132 305.758 817.766 305.632 817.478 305.38C817.19 305.116 817.046 304.78 817.046 304.372C817.046 303.964 817.19 303.634 817.478 303.382C817.766 303.13 818.132 303.004 818.576 303.004C819.032 303.004 819.398 303.13 819.674 303.382C819.962 303.634 820.106 303.964 820.106 304.372C820.106 304.78 819.962 305.116 819.674 305.38C819.398 305.632 819.032 305.758 818.576 305.758ZM824.288 316L821.282 307.072H823.946L825.098 311.284C825.218 311.728 825.332 312.184 825.44 312.652C825.56 313.108 825.68 313.57 825.8 314.038H825.872C825.98 313.57 826.088 313.108 826.196 312.652C826.316 312.184 826.436 311.728 826.556 311.284L827.726 307.072H830.264L827.348 316H824.288ZM835.514 316.216C834.878 316.216 834.284 316.114 833.732 315.91C833.18 315.694 832.7 315.388 832.292 314.992C831.884 314.584 831.566 314.092 831.338 313.516C831.11 312.94 830.996 312.28 830.996 311.536C830.996 310.816 831.116 310.168 831.356 309.592C831.596 309.004 831.908 308.512 832.292 308.116C832.688 307.708 833.138 307.396 833.642 307.18C834.146 306.964 834.668 306.856 835.208 306.856C835.844 306.856 836.396 306.964 836.864 307.18C837.344 307.396 837.74 307.696 838.052 308.08C838.376 308.464 838.616 308.92 838.772 309.448C838.928 309.964 839.006 310.528 839.006 311.14C839.006 311.38 838.994 311.608 838.97 311.824C838.946 312.04 838.922 312.202 838.898 312.31H833.552C833.672 312.958 833.936 313.438 834.344 313.75C834.764 314.05 835.274 314.2 835.874 314.2C836.51 314.2 837.152 314.002 837.8 313.606L838.682 315.208C838.226 315.52 837.716 315.766 837.152 315.946C836.6 316.126 836.054 316.216 835.514 316.216ZM833.534 310.564H836.756C836.756 310.06 836.642 309.652 836.414 309.34C836.186 309.028 835.802 308.872 835.262 308.872C834.842 308.872 834.47 309.01 834.146 309.286C833.834 309.562 833.63 309.988 833.534 310.564ZM847.408 310.06L847.12 311.14H849.622L849.352 310.06C849.184 309.472 849.022 308.848 848.866 308.188C848.71 307.528 848.554 306.892 848.398 306.28H848.326C848.182 306.904 848.032 307.546 847.876 308.206C847.732 308.854 847.576 309.472 847.408 310.06ZM843.16 316L846.832 304.264H850.018L853.69 316H850.882L850.162 313.21H846.58L845.86 316H843.16ZM854.972 316V304.264H857.618V316H854.972Z" fill="#0000FF"/>
<defs>
<clipPath id="clip0_1284_4596">
<rect width="83.08" height="97.66" fill="white" transform="translate(147 201)"/>
</clipPath>
</defs>
</svg>
