<svg width="870" height="320" viewBox="0 0 870 320" fill="none" xmlns="http://www.w3.org/2000/svg">
<path d="M9.23108 65H41.0751V55.576H20.4791V44.176H37.3511V34.828H20.4791V24.872H40.3151V15.448H9.23108V65ZM48.5154 54.512C48.5154 60.896 52.8474 65.912 59.6874 65.912C63.9434 65.912 67.5154 63.936 70.7074 61.124H70.9354L71.7714 65H80.8914V43.416C80.8914 31.864 75.5714 26.392 65.9194 26.392C59.9914 26.392 54.5954 28.444 49.8074 31.332L53.7594 38.704C57.4074 36.576 60.5994 35.284 63.7914 35.284C67.8194 35.284 69.4914 37.412 69.7194 40.756C54.8234 42.276 48.5154 46.608 48.5154 54.512ZM59.1554 53.676C59.1554 50.788 61.7394 48.508 69.7194 47.444V54.056C67.7434 56.032 66.0714 57.248 63.4874 57.248C60.8274 57.248 59.1554 56.108 59.1554 53.676ZM90.481 65H101.653V43.112C103.629 38.02 107.125 36.196 109.937 36.196C111.533 36.196 112.673 36.424 114.041 36.804L115.865 27.152C114.801 26.696 113.509 26.392 111.381 26.392C107.505 26.392 103.401 28.824 100.665 33.916H100.361L99.601 27.304H90.481V65ZM120.762 53.296C120.762 60.896 123.346 65.912 131.022 65.912C133.53 65.912 135.43 65.532 136.646 65L135.278 56.716C134.67 56.868 134.366 56.868 133.91 56.868C132.998 56.868 131.934 56.108 131.934 53.752V11.724H120.762V53.296ZM143.344 70.472L141.368 78.984C142.888 79.44 144.408 79.744 146.688 79.744C155.58 79.744 159.608 74.88 163.18 65.38L176.252 27.304H165.536L160.976 43.492C160.064 47.064 159.228 50.636 158.392 54.208H158.088C157.1 50.484 156.188 46.912 155.124 43.492L149.728 27.304H138.48L152.996 64.012L152.464 65.988C151.476 68.952 149.576 70.928 145.852 70.928C145.016 70.928 144.028 70.624 143.344 70.472ZM196.582 54.512C196.582 60.896 200.914 65.912 207.754 65.912C212.01 65.912 215.582 63.936 218.774 61.124H219.002L219.838 65H228.958V43.416C228.958 31.864 223.638 26.392 213.986 26.392C208.058 26.392 202.662 28.444 197.874 31.332L201.826 38.704C205.474 36.576 208.666 35.284 211.858 35.284C215.886 35.284 217.558 37.412 217.786 40.756C202.89 42.276 196.582 46.608 196.582 54.512ZM207.222 53.676C207.222 50.788 209.806 48.508 217.786 47.444V54.056C215.81 56.032 214.138 57.248 211.554 57.248C208.894 57.248 207.222 56.108 207.222 53.676ZM236.343 46.152C236.343 58.692 244.475 65.912 254.963 65.912C259.067 65.912 263.855 64.392 267.503 61.2L263.019 54.132C261.195 55.576 258.991 56.868 256.255 56.868C251.391 56.868 247.819 52.688 247.819 46.152C247.819 39.616 251.239 35.436 256.635 35.436C258.383 35.436 260.055 36.12 261.879 37.64L266.971 30.724C264.463 28.14 260.587 26.392 255.951 26.392C245.539 26.392 236.343 33.612 236.343 46.152ZM269.668 46.152C269.668 58.692 277.8 65.912 288.288 65.912C292.392 65.912 297.18 64.392 300.828 61.2L296.344 54.132C294.52 55.576 292.316 56.868 289.58 56.868C284.716 56.868 281.144 52.688 281.144 46.152C281.144 39.616 284.564 35.436 289.96 35.436C291.708 35.436 293.38 36.12 295.204 37.64L300.296 30.724C297.788 28.14 293.912 26.392 289.276 26.392C278.864 26.392 269.668 33.612 269.668 46.152ZM302.992 46.152C302.992 58.616 311.276 65.912 322.068 65.912C326.552 65.912 331.568 64.316 335.444 61.656L331.72 54.892C328.984 56.564 326.4 57.4 323.588 57.4C318.572 57.4 314.772 54.892 313.784 49.192H336.356C336.584 48.28 336.812 46.456 336.812 44.48C336.812 34.22 331.492 26.392 320.776 26.392C311.732 26.392 302.992 33.916 302.992 46.152ZM313.708 42.276C314.468 37.26 317.508 34.904 321.004 34.904C325.488 34.904 327.312 37.944 327.312 42.276H313.708ZM341.188 60.668C344.988 63.784 350.688 65.912 355.628 65.912C365.736 65.912 371.132 60.592 371.132 53.752C371.132 46.836 365.736 44.176 360.948 42.428C357.072 40.984 353.576 40.072 353.576 37.64C353.576 35.74 354.944 34.676 357.832 34.676C360.492 34.676 363.076 35.892 365.812 37.868L370.828 31.18C367.56 28.748 363.304 26.392 357.528 26.392C348.788 26.392 343.088 31.18 343.088 38.172C343.088 44.404 348.484 47.52 353.044 49.268C356.92 50.788 360.72 51.928 360.72 54.436C360.72 56.412 359.276 57.628 355.932 57.628C352.74 57.628 349.624 56.26 346.204 53.676L341.188 60.668ZM374.883 60.668C378.683 63.784 384.383 65.912 389.323 65.912C399.431 65.912 404.827 60.592 404.827 53.752C404.827 46.836 399.431 44.176 394.643 42.428C390.767 40.984 387.271 40.072 387.271 37.64C387.271 35.74 388.639 34.676 391.527 34.676C394.187 34.676 396.771 35.892 399.507 37.868L404.523 31.18C401.255 28.748 396.999 26.392 391.223 26.392C382.483 26.392 376.783 31.18 376.783 38.172C376.783 44.404 382.179 47.52 386.739 49.268C390.615 50.788 394.415 51.928 394.415 54.436C394.415 56.412 392.971 57.628 389.627 57.628C386.435 57.628 383.319 56.26 379.899 53.676L374.883 60.668Z" fill="#0000FF"/>
<path d="M424.387 60.668C428.187 63.784 433.887 65.912 438.827 65.912C448.935 65.912 454.331 60.592 454.331 53.752C454.331 46.836 448.935 44.176 444.147 42.428C440.271 40.984 436.775 40.072 436.775 37.64C436.775 35.74 438.143 34.676 441.031 34.676C443.691 34.676 446.275 35.892 449.011 37.868L454.027 31.18C450.759 28.748 446.503 26.392 440.727 26.392C431.987 26.392 426.287 31.18 426.287 38.172C426.287 44.404 431.683 47.52 436.243 49.268C440.119 50.788 443.919 51.928 443.919 54.436C443.919 56.412 442.475 57.628 439.131 57.628C435.939 57.628 432.823 56.26 429.403 53.676L424.387 60.668ZM462.946 51.32C462.946 60.06 466.594 65.912 475.942 65.912C479.59 65.912 482.326 65.152 484.302 64.544L482.554 56.412C481.566 56.792 480.198 57.172 478.982 57.172C476.018 57.172 474.118 55.424 474.118 51.168V36.044H483.162V27.304H474.118V17.272H464.846L463.554 27.304L457.778 27.76V36.044H462.946V51.32ZM488.261 54.512C488.261 60.896 492.593 65.912 499.433 65.912C503.689 65.912 507.261 63.936 510.453 61.124H510.681L511.517 65H520.637V43.416C520.637 31.864 515.317 26.392 505.665 26.392C499.737 26.392 494.341 28.444 489.553 31.332L493.505 38.704C497.153 36.576 500.345 35.284 503.537 35.284C507.565 35.284 509.237 37.412 509.465 40.756C494.569 42.276 488.261 46.608 488.261 54.512ZM498.901 53.676C498.901 50.788 501.485 48.508 509.465 47.444V54.056C507.489 56.032 505.817 57.248 503.233 57.248C500.573 57.248 498.901 56.108 498.901 53.676ZM530.227 65H541.399V43.112C543.375 38.02 546.871 36.196 549.683 36.196C551.279 36.196 552.419 36.424 553.787 36.804L555.611 27.152C554.547 26.696 553.255 26.392 551.127 26.392C547.251 26.392 543.147 28.824 540.411 33.916H540.107L539.347 27.304H530.227V65ZM562.028 51.32C562.028 60.06 565.676 65.912 575.024 65.912C578.672 65.912 581.408 65.152 583.384 64.544L581.636 56.412C580.648 56.792 579.28 57.172 578.064 57.172C575.1 57.172 573.2 55.424 573.2 51.168V36.044H582.244V27.304H573.2V17.272H563.928L562.636 27.304L556.86 27.76V36.044H562.028V51.32ZM586.258 60.668C590.058 63.784 595.758 65.912 600.698 65.912C610.806 65.912 616.202 60.592 616.202 53.752C616.202 46.836 610.806 44.176 606.018 42.428C602.142 40.984 598.646 40.072 598.646 37.64C598.646 35.74 600.014 34.676 602.902 34.676C605.562 34.676 608.146 35.892 610.882 37.868L615.898 31.18C612.63 28.748 608.374 26.392 602.598 26.392C593.858 26.392 588.158 31.18 588.158 38.172C588.158 44.404 593.554 47.52 598.114 49.268C601.99 50.788 605.79 51.928 605.79 54.436C605.79 56.412 604.346 57.628 601.002 57.628C597.81 57.628 594.694 56.26 591.274 53.676L586.258 60.668ZM622.993 58.92C622.993 62.872 625.881 65.912 629.757 65.912C633.633 65.912 636.521 62.872 636.521 58.92C636.521 54.892 633.633 51.852 629.757 51.852C625.881 51.852 622.993 54.892 622.993 58.92ZM645.779 58.92C645.779 62.872 648.667 65.912 652.543 65.912C656.419 65.912 659.307 62.872 659.307 58.92C659.307 54.892 656.419 51.852 652.543 51.852C648.667 51.852 645.779 54.892 645.779 58.92ZM668.564 58.92C668.564 62.872 671.452 65.912 675.328 65.912C679.204 65.912 682.092 62.872 682.092 58.92C682.092 54.892 679.204 51.852 675.328 51.852C671.452 51.852 668.564 54.892 668.564 58.92ZM708.297 65H719.013V47.444C719.013 41.592 718.101 34.98 717.569 29.508H717.873L722.737 40.3L735.657 65H747.133V15.448H736.493V32.928C736.493 38.78 737.405 45.772 737.937 51.016H737.633L732.693 40.072L719.773 15.448H708.297V65ZM778.906 65.912C792.282 65.912 801.402 56.184 801.402 39.996C801.402 23.884 792.282 14.536 778.906 14.536C765.606 14.536 756.41 23.808 756.41 39.996C756.41 56.184 765.606 65.912 778.906 65.912ZM778.906 56.26C772.218 56.26 767.886 49.952 767.886 39.996C767.886 30.116 772.218 24.188 778.906 24.188C785.67 24.188 789.926 30.116 789.926 39.996C789.926 49.952 785.67 56.26 778.906 56.26ZM815.053 65H828.885L833.597 42.504C834.357 38.704 834.965 34.676 835.573 31.028H835.877C836.409 34.676 837.093 38.704 837.853 42.504L842.717 65H856.777L865.593 15.448H854.877L851.457 38.628C850.773 43.72 850.089 48.964 849.481 54.284H849.177C848.189 48.964 847.201 43.644 846.213 38.628L840.817 15.448H831.317L825.997 38.628C825.009 43.796 824.021 49.04 823.109 54.284H822.805C822.121 49.04 821.437 43.796 820.753 38.628L817.333 15.448H805.857L815.053 65Z" fill="#009CFF"/>
<g clip-path="url(#clip0_753_4371)">
<path d="M231.14 298.66C230.3 298.66 229.49 298.44 228.77 298.04L194.63 280.21L161.83 280.29L161.23 280.27H161.2C156.86 280.27 153.3 276.89 153.01 272.63L152.99 272.59V272.07H153L153.01 231.75C153 227 156.68 223.31 161.21 223.31H161.87H227.8C232.1 223.31 235.68 226.65 235.99 230.93C236.04 231.32 236.08 231.72 236.08 232.13L236 272.62C235.74 276.38 232.93 279.47 229.28 280.13L235.43 291.39C236.45 293.33 236.11 295.69 234.62 297.19C233.68 298.13 232.44 298.65 231.14 298.65V298.66ZM158.02 271.41V272.01C158.02 273.83 159.46 275.27 161.22 275.27H161.83H194.59C195.82 275.27 196.23 275.37 197.32 275.95L231.18 293.63L223.93 280.83C223.29 279.63 223.33 278.25 224.01 277.12C224.69 275.99 225.88 275.32 227.2 275.32C227.37 275.32 227.52 275.3 227.68 275.28C229.61 275.18 230.95 273.82 231 272.15L231.06 271.47V232.14C231.06 231.94 231.04 231.74 231.01 231.55L230.99 231.34C230.89 229.65 229.49 228.33 227.8 228.33H161.32C159.44 228.5 158.02 229.76 158.02 231.53V271.41Z" fill="#0000FF"/>
<path d="M175.501 253.18C177.771 253.18 179.611 251.34 179.611 249.07C179.611 246.8 177.771 244.96 175.501 244.96C173.231 244.96 171.391 246.8 171.391 249.07C171.391 251.34 173.231 253.18 175.501 253.18Z" fill="#0000FF"/>
<path d="M194.53 253.18C196.8 253.18 198.64 251.34 198.64 249.07C198.64 246.8 196.8 244.96 194.53 244.96C192.26 244.96 190.42 246.8 190.42 249.07C190.42 251.34 192.26 253.18 194.53 253.18Z" fill="#0000FF"/>
<path d="M213.561 253.18C215.831 253.18 217.671 251.34 217.671 249.07C217.671 246.8 215.831 244.96 213.561 244.96C211.291 244.96 209.451 246.8 209.451 249.07C209.451 251.34 211.291 253.18 213.561 253.18Z" fill="#0000FF"/>
<path d="M200.361 256.87H188.691C187.361 256.87 186.271 258.15 186.691 259.42C187.771 262.72 190.861 265.1 194.521 265.1C198.181 265.1 201.281 262.71 202.351 259.42C202.771 258.15 201.681 256.87 200.351 256.87H200.361Z" fill="#0000FF"/>
<path d="M197.049 215.43H192.029V225.82H197.049V215.43Z" fill="#0000FF"/>
<path d="M194.54 217.94C189.87 217.94 186.07 214.14 186.07 209.47C186.07 204.8 189.87 201 194.54 201C199.21 201 203.01 204.8 203.01 209.47C203.01 214.14 199.21 217.94 194.54 217.94ZM194.54 206.02C192.64 206.02 191.09 207.57 191.09 209.47C191.09 211.37 192.64 212.92 194.54 212.92C196.44 212.92 197.99 211.37 197.99 209.47C197.99 207.57 196.44 206.02 194.54 206.02Z" fill="#0000FF"/>
</g>
<path d="M9.01157 177H25.5876V152.248H35.6676C51.1236 152.248 64.2276 144.632 64.2276 127.496C64.2276 109.8 51.5716 103.976 35.6676 103.976H9.01157V177ZM25.5876 139.144V117.08H34.6596C43.3956 117.08 48.0996 119.88 48.0996 127.496C48.0996 135.112 43.7316 139.144 34.6596 139.144H25.5876ZM93.7361 117.08H102.136C110.76 117.08 115.464 119.544 115.464 126.712C115.464 133.88 110.76 137.576 102.136 137.576H93.7361V117.08ZM135.176 177L118.712 147.768C126.44 144.296 131.704 137.464 131.704 126.712C131.704 109.352 118.936 103.976 103.48 103.976H77.1601V177H93.7361V150.68H102.696L116.696 177H135.176ZM146.402 177H162.978V103.976H146.402V177ZM209.996 178.344C229.708 178.344 243.148 164.008 243.148 140.152C243.148 116.408 229.708 102.632 209.996 102.632C190.396 102.632 176.844 116.296 176.844 140.152C176.844 164.008 190.396 178.344 209.996 178.344ZM209.996 164.12C200.14 164.12 193.756 154.824 193.756 140.152C193.756 125.592 200.14 116.856 209.996 116.856C219.964 116.856 226.236 125.592 226.236 140.152C226.236 154.824 219.964 164.12 209.996 164.12ZM273.682 117.08H282.082C290.706 117.08 295.41 119.544 295.41 126.712C295.41 133.88 290.706 137.576 282.082 137.576H273.682V117.08ZM315.122 177L298.658 147.768C306.386 144.296 311.65 137.464 311.65 126.712C311.65 109.352 298.882 103.976 283.426 103.976H257.106V177H273.682V150.68H282.642L296.642 177H315.122ZM326.348 177H342.924V103.976H326.348V177ZM374.598 177H391.062V117.864H411.11V103.976H354.438V117.864H374.598V177ZM433.298 177H449.762V151.016L471.826 103.976H454.578L448.082 120.776C446.066 126.264 443.938 131.304 441.922 136.904H441.474C439.346 131.304 437.442 126.264 435.538 120.776L428.93 103.976H411.346L433.298 151.016V177ZM518.801 146.76L520.593 140.04C522.609 132.76 524.625 124.248 526.305 116.52H526.753C528.769 124.136 530.673 132.76 532.689 140.04L534.481 146.76H518.801ZM542.321 177H559.793L536.833 103.976H517.121L494.161 177H510.961L515.441 159.64H537.841L542.321 177ZM563.212 140.936C563.212 165.464 578.668 178.344 597.596 178.344C606.668 178.344 614.732 174.648 620.78 167.592L611.708 157.624C608.124 161.544 603.868 164.12 597.82 164.12C587.18 164.12 580.124 155.384 580.124 140.376C580.124 125.704 588.076 116.856 598.268 116.856C603.42 116.856 606.892 118.984 610.588 122.344L619.66 112.152C614.732 107.112 607.116 102.632 598.044 102.632C579.228 102.632 563.212 116.744 563.212 140.936ZM624.361 140.936C624.361 165.464 639.817 178.344 658.745 178.344C667.817 178.344 675.881 174.648 681.929 167.592L672.857 157.624C669.273 161.544 665.017 164.12 658.969 164.12C648.329 164.12 641.273 155.384 641.273 140.376C641.273 125.704 649.225 116.856 659.417 116.856C664.569 116.856 668.041 118.984 671.737 122.344L680.809 112.152C675.881 107.112 668.265 102.632 659.193 102.632C640.377 102.632 624.361 116.744 624.361 140.936ZM693.137 177H740.065V163.112H709.713V146.312H734.577V132.536H709.713V117.864H738.945V103.976H693.137V177ZM749.91 167.816C757.414 174.76 767.494 178.344 777.014 178.344C794.374 178.344 804.454 167.816 804.454 155.72C804.454 145.416 798.854 139.48 790.006 135.896L780.71 132.088C774.326 129.512 769.51 127.944 769.51 123.464C769.51 119.32 773.206 116.856 778.806 116.856C784.63 116.856 789.222 118.984 794.038 122.68L802.326 112.264C796.054 105.992 787.206 102.632 778.806 102.632C763.686 102.632 752.822 112.264 752.822 124.36C752.822 135 759.99 141.272 767.606 144.296L777.014 148.328C783.398 151.016 787.542 152.472 787.542 157.064C787.542 161.432 784.182 164.12 777.35 164.12C771.302 164.12 764.582 160.984 759.43 156.504L749.91 167.816ZM810.293 167.816C817.797 174.76 827.877 178.344 837.397 178.344C854.757 178.344 864.837 167.816 864.837 155.72C864.837 145.416 859.237 139.48 850.389 135.896L841.093 132.088C834.709 129.512 829.893 127.944 829.893 123.464C829.893 119.32 833.589 116.856 839.189 116.856C845.013 116.856 849.605 118.984 854.421 122.68L862.709 112.264C856.437 105.992 847.589 102.632 839.189 102.632C824.069 102.632 813.205 112.264 813.205 124.36C813.205 135 820.373 141.272 827.989 144.296L837.397 148.328C843.781 151.016 847.925 152.472 847.925 157.064C847.925 161.432 844.565 164.12 837.733 164.12C831.685 164.12 824.965 160.984 819.813 156.504L810.293 167.816Z" fill="#009CFF"/>
<path d="M35.72 280.44C32.04 280.44 28.88 279.88 26.24 278.76C23.68 277.64 21.56 276.08 19.88 274.08C18.28 272.08 17.08 269.68 16.28 266.88C15.56 264 15.2 260.84 15.2 257.4V233.28H7.04V220.2L16.16 219.48L18.2 203.64H32.84V219.48H47.12V233.28H32.84V257.16C32.84 260.52 33.52 262.96 34.88 264.48C36.32 265.92 38.2 266.64 40.52 266.64C41.48 266.64 42.44 266.52 43.4 266.28C44.44 266.04 45.36 265.76 46.16 265.44L48.92 278.28C47.32 278.76 45.44 279.24 43.28 279.72C41.12 280.2 38.6 280.44 35.72 280.44ZM82.4281 280.44C78.6681 280.44 75.0281 279.76 71.5081 278.4C67.9881 276.96 64.8681 274.92 62.1481 272.28C59.5081 269.64 57.3881 266.4 55.7881 262.56C54.1881 258.64 53.3881 254.2 53.3881 249.24C53.3881 244.28 54.1881 239.88 55.7881 236.04C57.3881 232.12 59.5081 228.84 62.1481 226.2C64.8681 223.56 67.9881 221.56 71.5081 220.2C75.0281 218.76 78.6681 218.04 82.4281 218.04C86.1881 218.04 89.7881 218.76 93.2281 220.2C96.7481 221.56 99.8281 223.56 102.468 226.2C105.188 228.84 107.348 232.12 108.948 236.04C110.548 239.88 111.348 244.28 111.348 249.24C111.348 254.2 110.548 258.64 108.948 262.56C107.348 266.4 105.188 269.64 102.468 272.28C99.8281 274.92 96.7481 276.96 93.2281 278.4C89.7881 279.76 86.1881 280.44 82.4281 280.44ZM82.4281 266.16C86.0281 266.16 88.7481 264.64 90.5881 261.6C92.4281 258.56 93.3481 254.44 93.3481 249.24C93.3481 244.04 92.4281 239.92 90.5881 236.88C88.7481 233.84 86.0281 232.32 82.4281 232.32C78.7481 232.32 75.9881 233.84 74.1481 236.88C72.3881 239.92 71.5081 244.04 71.5081 249.24C71.5081 254.44 72.3881 258.56 74.1481 261.6C75.9881 264.64 78.7481 266.16 82.4281 266.16Z" fill="#009CFF"/>
<path d="M260.902 291V212.76H280.222L292.822 247.56C293.622 249.88 294.382 252.28 295.102 254.76C295.822 257.16 296.582 259.56 297.382 261.96H297.862C298.662 259.56 299.382 257.16 300.022 254.76C300.742 252.28 301.502 249.88 302.302 247.56L314.662 212.76H333.862V291H317.782V262.32C317.782 260.4 317.862 258.28 318.022 255.96C318.182 253.64 318.382 251.32 318.622 249C318.862 246.6 319.102 244.28 319.342 242.04C319.582 239.72 319.822 237.6 320.062 235.68H319.582L313.222 254.28L302.062 284.16H292.342L281.182 254.28L274.942 235.68H274.462C274.702 237.6 274.942 239.72 275.182 242.04C275.422 244.28 275.662 246.6 275.902 249C276.142 251.32 276.342 253.64 276.502 255.96C276.662 258.28 276.742 260.4 276.742 262.32V291H260.902ZM366.109 292.44C363.389 292.44 360.909 291.96 358.669 291C356.509 290.12 354.669 288.88 353.149 287.28C351.629 285.6 350.429 283.68 349.549 281.52C348.749 279.36 348.349 277 348.349 274.44C348.349 268.2 350.989 263.32 356.269 259.8C361.549 256.28 370.069 253.92 381.829 252.72C381.669 250.08 380.869 248 379.429 246.48C378.069 244.88 375.749 244.08 372.469 244.08C369.909 244.08 367.349 244.56 364.789 245.52C362.309 246.48 359.629 247.8 356.749 249.48L350.389 237.84C354.229 235.52 358.229 233.64 362.389 232.2C366.629 230.76 371.109 230.04 375.829 230.04C383.509 230.04 389.349 232.24 393.349 236.64C397.429 240.96 399.469 247.72 399.469 256.92V291H385.069L383.869 284.88H383.389C380.829 287.12 378.149 288.96 375.349 290.4C372.549 291.76 369.469 292.44 366.109 292.44ZM372.109 278.76C374.109 278.76 375.829 278.32 377.269 277.44C378.709 276.56 380.229 275.32 381.829 273.72V263.28C375.589 264.16 371.269 265.44 368.869 267.12C366.469 268.8 365.269 270.8 365.269 273.12C365.269 275.04 365.869 276.48 367.069 277.44C368.349 278.32 370.029 278.76 372.109 278.76ZM414.63 291V231.48H432.27V291H414.63ZM423.39 222.72C420.43 222.72 417.99 221.88 416.07 220.2C414.15 218.44 413.19 216.2 413.19 213.48C413.19 210.76 414.15 208.56 416.07 206.88C417.99 205.2 420.43 204.36 423.39 204.36C426.43 204.36 428.87 205.2 430.71 206.88C432.63 208.56 433.59 210.76 433.59 213.48C433.59 216.2 432.63 218.44 430.71 220.2C428.87 221.88 426.43 222.72 423.39 222.72ZM464.234 292.44C461.194 292.44 458.634 291.96 456.554 291C454.474 290.04 452.794 288.72 451.514 287.04C450.314 285.28 449.434 283.2 448.874 280.8C448.314 278.32 448.034 275.56 448.034 272.52V206.88H465.674V273.24C465.674 275.08 465.994 276.36 466.634 277.08C467.354 277.8 468.074 278.16 468.794 278.16C469.194 278.16 469.514 278.16 469.754 278.16C470.074 278.16 470.474 278.08 470.954 277.92L473.114 291C472.154 291.4 470.914 291.72 469.394 291.96C467.954 292.28 466.234 292.44 464.234 292.44ZM499.29 291V227.64H477.81V212.76H538.53V227.64H517.05V291H499.29ZM549.53 291V231.48H567.17V291H549.53ZM558.29 222.72C555.33 222.72 552.89 221.88 550.97 220.2C549.05 218.44 548.09 216.2 548.09 213.48C548.09 210.76 549.05 208.56 550.97 206.88C552.89 205.2 555.33 204.36 558.29 204.36C561.33 204.36 563.77 205.2 565.61 206.88C567.53 208.56 568.49 210.76 568.49 213.48C568.49 216.2 567.53 218.44 565.61 220.2C563.77 221.88 561.33 222.72 558.29 222.72ZM582.934 291V231.48H597.334L598.534 239.16H599.014C601.494 236.68 604.134 234.56 606.934 232.8C609.734 230.96 613.094 230.04 617.014 230.04C621.254 230.04 624.654 230.92 627.214 232.68C629.854 234.36 631.934 236.8 633.454 240C636.094 237.28 638.854 234.96 641.734 233.04C644.694 231.04 648.174 230.04 652.174 230.04C658.574 230.04 663.254 232.2 666.214 236.52C669.254 240.76 670.774 246.6 670.774 254.04V291H653.134V256.32C653.134 252 652.534 249.04 651.334 247.44C650.214 245.84 648.374 245.04 645.814 245.04C642.854 245.04 639.454 246.96 635.614 250.8V291H617.974V256.32C617.974 252 617.374 249.04 616.174 247.44C615.054 245.84 613.214 245.04 610.654 245.04C607.614 245.04 604.254 246.96 600.574 250.8V291H582.934ZM712.704 292.44C708.464 292.44 704.504 291.76 700.824 290.4C697.144 288.96 693.944 286.92 691.224 284.28C688.504 281.56 686.384 278.28 684.864 274.44C683.344 270.6 682.584 266.2 682.584 261.24C682.584 256.44 683.384 252.12 684.984 248.28C686.584 244.36 688.664 241.08 691.224 238.44C693.864 235.72 696.864 233.64 700.224 232.2C703.584 230.76 707.064 230.04 710.664 230.04C714.904 230.04 718.584 230.76 721.704 232.2C724.904 233.64 727.544 235.64 729.624 238.2C731.784 240.76 733.384 243.8 734.424 247.32C735.464 250.76 735.984 254.52 735.984 258.6C735.984 260.2 735.904 261.72 735.744 263.16C735.584 264.6 735.424 265.68 735.264 266.4H699.624C700.424 270.72 702.184 273.92 704.904 276C707.704 278 711.104 279 715.104 279C719.344 279 723.624 277.68 727.944 275.04L733.824 285.72C730.784 287.8 727.384 289.44 723.624 290.64C719.944 291.84 716.304 292.44 712.704 292.44ZM699.504 254.76H720.984C720.984 251.4 720.224 248.68 718.704 246.6C717.184 244.52 714.624 243.48 711.024 243.48C708.224 243.48 705.744 244.4 703.584 246.24C701.504 248.08 700.144 250.92 699.504 254.76ZM792.477 251.4L790.557 258.6H807.237L805.437 251.4C804.317 247.48 803.237 243.32 802.197 238.92C801.157 234.52 800.117 230.28 799.077 226.2H798.597C797.637 230.36 796.637 234.64 795.597 239.04C794.637 243.36 793.597 247.48 792.477 251.4ZM764.157 291L788.637 212.76H809.877L834.357 291H815.637L810.837 272.4H786.957L782.157 291H764.157ZM843.146 291V212.76H860.786V291H843.146Z" fill="#0000FF"/>
<path d="M699.499 316H702.163V312.022H703.783C706.267 312.022 708.373 310.798 708.373 308.044C708.373 305.2 706.339 304.264 703.783 304.264H699.499V316ZM702.163 309.916V306.37H703.621C705.025 306.37 705.781 306.82 705.781 308.044C705.781 309.268 705.079 309.916 703.621 309.916H702.163ZM709.291 311.536C709.291 314.506 711.379 316.216 713.647 316.216C715.897 316.216 717.985 314.506 717.985 311.536C717.985 308.566 715.897 306.856 713.647 306.856C711.379 306.856 709.291 308.566 709.291 311.536ZM712.009 311.536C712.009 309.988 712.549 308.998 713.647 308.998C714.727 308.998 715.285 309.988 715.285 311.536C715.285 313.084 714.727 314.074 713.647 314.074C712.549 314.074 712.009 313.084 712.009 311.536ZM721.15 316H724.174L724.966 312.436C725.128 311.608 725.254 310.78 725.416 309.826H725.488C725.65 310.78 725.794 311.608 725.974 312.436L726.784 316H729.88L732.022 307.072H729.574L728.728 311.212C728.566 312.094 728.476 312.958 728.314 313.858H728.242C728.062 312.958 727.9 312.094 727.684 311.212L726.676 307.072H724.39L723.4 311.212C723.184 312.058 723.04 312.958 722.878 313.858H722.806C722.662 312.958 722.554 312.094 722.41 311.212L721.546 307.072H718.918L721.15 316ZM732.968 311.536C732.968 314.488 734.93 316.216 737.486 316.216C738.548 316.216 739.736 315.838 740.654 315.208L739.772 313.606C739.124 314.002 738.512 314.2 737.846 314.2C736.658 314.2 735.758 313.606 735.524 312.256H740.87C740.924 312.04 740.978 311.608 740.978 311.14C740.978 308.71 739.718 306.856 737.18 306.856C735.038 306.856 732.968 308.638 732.968 311.536ZM735.506 310.618C735.686 309.43 736.406 308.872 737.234 308.872C738.296 308.872 738.728 309.592 738.728 310.618H735.506ZM742.807 316H745.453V310.816C745.921 309.61 746.749 309.178 747.415 309.178C747.793 309.178 748.063 309.232 748.387 309.322L748.819 307.036C748.567 306.928 748.261 306.856 747.757 306.856C746.839 306.856 745.867 307.432 745.219 308.638H745.147L744.967 307.072H742.807V316ZM749.281 311.536C749.281 314.488 751.243 316.216 753.799 316.216C754.861 316.216 756.049 315.838 756.967 315.208L756.085 313.606C755.437 314.002 754.825 314.2 754.159 314.2C752.971 314.2 752.071 313.606 751.837 312.256H757.183C757.237 312.04 757.291 311.608 757.291 311.14C757.291 308.71 756.031 306.856 753.493 306.856C751.351 306.856 749.281 308.638 749.281 311.536ZM751.819 310.618C751.999 309.43 752.719 308.872 753.547 308.872C754.609 308.872 755.041 309.592 755.041 310.618H751.819ZM758.651 311.536C758.651 314.452 760.091 316.216 762.305 316.216C763.169 316.216 764.051 315.748 764.681 315.118H764.753L764.933 316H767.093V303.382H764.447V306.424L764.555 307.792C763.943 307.216 763.349 306.856 762.359 306.856C760.469 306.856 758.651 308.62 758.651 311.536ZM761.369 311.5C761.369 309.808 762.125 309.016 762.971 309.016C763.457 309.016 763.979 309.16 764.447 309.592V313.246C764.015 313.84 763.565 314.056 762.989 314.056C761.963 314.056 761.369 313.264 761.369 311.5ZM773.38 316H777.736C780.292 316 782.308 314.938 782.308 312.544C782.308 310.978 781.426 310.096 779.752 309.79V309.718C781.12 309.358 781.732 308.224 781.732 307.18C781.732 304.93 779.842 304.264 777.394 304.264H773.38V316ZM776.044 308.998V306.316H777.304C778.528 306.316 779.14 306.676 779.14 307.558C779.14 308.44 778.564 308.998 777.268 308.998H776.044ZM776.044 313.948V310.87H777.52C778.978 310.87 779.716 311.32 779.716 312.346C779.716 313.408 778.96 313.948 777.52 313.948H776.044ZM783.927 317.296L783.459 319.312C783.819 319.42 784.179 319.492 784.719 319.492C786.825 319.492 787.779 318.34 788.625 316.09L791.721 307.072H789.183L788.103 310.906C787.887 311.752 787.689 312.598 787.491 313.444H787.419C787.185 312.562 786.969 311.716 786.717 310.906L785.439 307.072H782.775L786.213 315.766L786.087 316.234C785.853 316.936 785.403 317.404 784.521 317.404C784.323 317.404 784.089 317.332 783.927 317.296ZM796.499 310.204C796.499 314.146 798.983 316.216 802.025 316.216C803.483 316.216 804.779 315.622 805.751 314.488L804.293 312.886C803.717 313.516 803.033 313.93 802.061 313.93C800.351 313.93 799.217 312.526 799.217 310.114C799.217 307.756 800.495 306.334 802.133 306.334C802.961 306.334 803.519 306.676 804.113 307.216L805.571 305.578C804.779 304.768 803.555 304.048 802.097 304.048C799.073 304.048 796.499 306.316 796.499 310.204ZM807.301 316H809.947V309.97C810.523 309.412 810.937 309.106 811.603 309.106C812.359 309.106 812.701 309.502 812.701 310.798V316H815.347V310.456C815.347 308.224 814.519 306.856 812.575 306.856C811.369 306.856 810.487 307.486 809.821 308.08L809.947 306.478V303.382H807.301V316ZM817.26 313.516C817.26 315.028 818.286 316.216 819.906 316.216C820.914 316.216 821.76 315.748 822.516 315.082H822.57L822.768 316H824.928V310.888C824.928 308.152 823.668 306.856 821.382 306.856C819.978 306.856 818.7 307.342 817.566 308.026L818.502 309.772C819.366 309.268 820.122 308.962 820.878 308.962C821.832 308.962 822.228 309.466 822.282 310.258C818.754 310.618 817.26 311.644 817.26 313.516ZM819.78 313.318C819.78 312.634 820.392 312.094 822.282 311.842V313.408C821.814 313.876 821.418 314.164 820.806 314.164C820.176 314.164 819.78 313.894 819.78 313.318ZM827.559 312.76C827.559 314.83 828.423 316.216 830.637 316.216C831.501 316.216 832.149 316.036 832.617 315.892L832.203 313.966C831.969 314.056 831.645 314.146 831.357 314.146C830.655 314.146 830.205 313.732 830.205 312.724V309.142H832.347V307.072H830.205V304.696H828.009L827.703 307.072L826.335 307.18V309.142H827.559V312.76ZM833.73 310.204C833.73 314.146 836.25 316.216 839.418 316.216C841.056 316.216 842.514 315.532 843.36 314.794V309.394H839.058V311.554H841.002V313.57C840.714 313.804 840.228 313.93 839.76 313.93C837.546 313.93 836.448 312.526 836.448 310.114C836.448 307.756 837.744 306.334 839.544 306.334C840.552 306.334 841.11 306.676 841.704 307.216L843.162 305.578C842.37 304.786 841.164 304.048 839.508 304.048C836.322 304.048 833.73 306.316 833.73 310.204ZM845.731 316H848.395V312.022H850.015C852.499 312.022 854.605 310.798 854.605 308.044C854.605 305.2 852.571 304.264 850.015 304.264H845.731V316ZM848.395 309.916V306.37H849.853C851.257 306.37 852.013 306.82 852.013 308.044C852.013 309.268 851.311 309.916 849.853 309.916H848.395ZM858.688 316H861.334V306.496H864.556V304.264H855.448V306.496H858.688V316Z" fill="#0000FF"/>
<defs>
<clipPath id="clip0_753_4371">
<rect width="83.08" height="97.66" fill="white" transform="translate(153 201)"/>
</clipPath>
</defs>
</svg>
