<svg width="310" height="199" viewBox="0 0 310 199" fill="none" xmlns="http://www.w3.org/2000/svg">
<path d="M60.8043 180V148.704H68.2923L73.5243 162.768L75.3963 168.24H75.5883L77.4603 162.768L82.5483 148.704H90.0363V180H83.4123V168.528C83.4123 165.456 83.9883 160.896 84.3243 157.872H84.1323L81.5883 165.12L76.7403 177.264H73.9083L69.1083 165.12L66.6123 157.872H66.4203C66.7563 160.896 67.3323 165.456 67.3323 168.528V180H60.8043ZM95.9279 173.376C95.9279 168.384 99.9119 165.648 109.32 164.688C109.176 162.576 108.12 161.232 105.576 161.232C103.56 161.232 101.544 162.048 99.2399 163.392L96.7439 158.736C99.7679 156.912 103.176 155.616 106.92 155.616C113.016 155.616 116.376 159.072 116.376 166.368V180H110.616L110.088 177.552H109.944C107.928 179.328 105.672 180.576 102.984 180.576C98.6639 180.576 95.9279 177.408 95.9279 173.376ZM102.648 172.848C102.648 174.384 103.704 175.104 105.384 175.104C107.016 175.104 108.072 174.336 109.32 173.088V168.912C104.28 169.584 102.648 171.024 102.648 172.848ZM125.937 152.688C123.585 152.688 121.857 151.152 121.857 148.992C121.857 146.832 123.585 145.344 125.937 145.344C128.337 145.344 130.017 146.832 130.017 148.992C130.017 151.152 128.337 152.688 125.937 152.688ZM122.433 180V156.192H129.489V180H122.433ZM135.698 172.608V146.352H142.754V172.896C142.754 174.384 143.426 174.864 144.002 174.864C144.29 174.864 144.482 174.864 144.866 174.768L145.73 180C144.962 180.336 143.762 180.576 142.178 180.576C137.33 180.576 135.698 177.408 135.698 172.608ZM156.105 180V154.656H147.465V148.704H171.753V154.656H163.161V180H156.105ZM179.562 152.688C177.21 152.688 175.482 151.152 175.482 148.992C175.482 146.832 177.21 145.344 179.562 145.344C181.962 145.344 183.642 146.832 183.642 148.992C183.642 151.152 181.962 152.688 179.562 152.688ZM176.058 180V156.192H183.114V180H176.058ZM189.323 180V156.192H195.083L195.563 159.264H195.755C197.723 157.296 199.835 155.616 202.955 155.616C206.315 155.616 208.331 157.056 209.531 159.6C211.643 157.44 213.851 155.616 217.019 155.616C222.155 155.616 224.459 159.264 224.459 165.216V180H217.403V166.128C217.403 162.672 216.491 161.616 214.475 161.616C213.275 161.616 211.931 162.384 210.395 163.92V180H203.339V166.128C203.339 162.672 202.427 161.616 200.411 161.616C199.259 161.616 197.867 162.384 196.379 163.92V180H189.323ZM229.087 168.096C229.087 160.368 234.607 155.616 240.319 155.616C247.087 155.616 250.447 160.56 250.447 167.04C250.447 168.288 250.303 169.44 250.159 170.016H235.903C236.527 173.616 238.927 175.2 242.095 175.2C243.871 175.2 245.503 174.672 247.231 173.616L249.583 177.888C247.135 179.568 243.967 180.576 241.135 180.576C234.319 180.576 229.087 175.968 229.087 168.096ZM235.855 165.648H244.447C244.447 162.912 243.295 160.992 240.463 160.992C238.255 160.992 236.335 162.48 235.855 165.648ZM272.412 167.04H279.132L278.364 164.16C277.5 161.04 276.684 157.344 275.82 154.08H275.628C274.908 157.392 274.044 161.04 273.18 164.16L272.412 167.04ZM282.492 180L280.572 172.56H270.972L269.052 180H261.851L271.692 148.704H280.14L289.98 180H282.492ZM293.257 180V148.704H300.361V180H293.257Z" fill="#0000FF"/>
<path fill-rule="evenodd" clip-rule="evenodd" d="M26.0156 147.28C24.291 146.744 23.035 145.133 23.035 143.235C23.035 140.9 24.935 139 27.27 139C29.605 139 31.505 140.9 31.505 143.235C31.505 145.133 30.2496 146.744 28.5256 147.28V150.155H43.8991C46.0491 150.155 47.8391 151.825 47.9941 153.965C48.0191 154.16 48.0391 154.36 48.0391 154.565L47.9991 174.81C47.8691 176.69 46.4641 178.235 44.6391 178.565L47.7141 184.195C48.2241 185.165 48.0541 186.345 47.3091 187.095C46.8391 187.565 46.2191 187.825 45.5691 187.825V187.83C45.1491 187.83 44.7441 187.72 44.3841 187.52L27.3141 178.605L10.9141 178.645L10.6141 178.635H10.5991C8.42914 178.635 6.64914 176.945 6.50414 174.815L6.49414 174.795V174.535H6.49914L6.50414 154.375C6.49914 152 8.33914 150.155 10.6041 150.155H10.9341H26.0156V147.28ZM25.545 143.235C25.545 142.285 26.32 141.51 27.27 141.51C28.22 141.51 28.995 142.285 28.995 143.235C28.995 144.185 28.22 144.96 27.27 144.96C26.32 144.96 25.545 144.185 25.545 143.235ZM9.00914 174.205V174.505C9.00914 175.415 9.72914 176.135 10.6091 176.135H10.9141H27.2941C27.9091 176.135 28.1141 176.185 28.6591 176.475L45.5891 185.315L41.9641 178.915C41.6441 178.315 41.6641 177.625 42.0041 177.06C42.3441 176.495 42.9391 176.16 43.5991 176.16C43.6796 176.16 43.7511 176.151 43.8264 176.142L43.8391 176.14C44.8041 176.09 45.4741 175.41 45.4991 174.575L45.5291 174.235V154.57C45.5291 154.47 45.5191 154.37 45.5041 154.275L45.4941 154.17C45.4441 153.325 44.7441 152.665 43.8991 152.665H10.6591C9.71914 152.75 9.00914 153.38 9.00914 154.265V174.205ZM17.7503 165.09C18.8853 165.09 19.8053 164.17 19.8053 163.035C19.8053 161.901 18.8853 160.98 17.7503 160.98C16.6154 160.98 15.6953 161.901 15.6953 163.035C15.6953 164.17 16.6154 165.09 17.7503 165.09ZM29.3209 163.035C29.3209 164.17 28.4009 165.09 27.2659 165.09C26.131 165.09 25.2109 164.17 25.2109 163.035C25.2109 161.901 26.131 160.98 27.2659 160.98C28.4009 160.98 29.3209 161.901 29.3209 163.035ZM36.7796 165.09C37.9146 165.09 38.8346 164.17 38.8346 163.035C38.8346 161.901 37.9146 160.98 36.7796 160.98C35.6447 160.98 34.7246 161.901 34.7246 163.035C34.7246 164.17 35.6447 165.09 36.7796 165.09ZM24.3445 166.936H30.1745C30.8395 166.936 31.3845 167.576 31.1745 168.211C30.6395 169.856 29.0895 171.051 27.2595 171.051C25.4295 171.051 23.8845 169.861 23.3445 168.211C23.1345 167.576 23.6795 166.936 24.3445 166.936Z" fill="#0000FF"/>
<path d="M170.467 196V188.176H173.155C173.587 188.176 173.991 188.22 174.367 188.308C174.743 188.388 175.071 188.528 175.351 188.728C175.631 188.92 175.851 189.18 176.011 189.508C176.179 189.828 176.263 190.224 176.263 190.696C176.263 191.152 176.179 191.548 176.011 191.884C175.851 192.22 175.631 192.496 175.351 192.712C175.071 192.928 174.747 193.088 174.379 193.192C174.011 193.296 173.619 193.348 173.203 193.348H172.231V196H170.467ZM172.231 191.944H173.095C174.055 191.944 174.535 191.528 174.535 190.696C174.535 190.288 174.407 190 174.151 189.832C173.895 189.664 173.527 189.58 173.047 189.58H172.231V191.944ZM179.77 196.144C179.394 196.144 179.03 196.076 178.678 195.94C178.326 195.796 178.014 195.592 177.742 195.328C177.478 195.064 177.266 194.74 177.106 194.356C176.946 193.964 176.866 193.52 176.866 193.024C176.866 192.528 176.946 192.088 177.106 191.704C177.266 191.312 177.478 190.984 177.742 190.72C178.014 190.456 178.326 190.256 178.678 190.12C179.03 189.976 179.394 189.904 179.77 189.904C180.146 189.904 180.506 189.976 180.85 190.12C181.202 190.256 181.51 190.456 181.774 190.72C182.046 190.984 182.262 191.312 182.422 191.704C182.582 192.088 182.662 192.528 182.662 193.024C182.662 193.52 182.582 193.964 182.422 194.356C182.262 194.74 182.046 195.064 181.774 195.328C181.51 195.592 181.202 195.796 180.85 195.94C180.506 196.076 180.146 196.144 179.77 196.144ZM179.77 194.716C180.13 194.716 180.402 194.564 180.586 194.26C180.77 193.956 180.862 193.544 180.862 193.024C180.862 192.504 180.77 192.092 180.586 191.788C180.402 191.484 180.13 191.332 179.77 191.332C179.402 191.332 179.126 191.484 178.942 191.788C178.766 192.092 178.678 192.504 178.678 193.024C178.678 193.544 178.766 193.956 178.942 194.26C179.126 194.564 179.402 194.716 179.77 194.716ZM184.772 196L183.284 190.048H185.036L185.612 192.808C185.66 193.104 185.704 193.396 185.744 193.684C185.784 193.972 185.828 194.268 185.876 194.572H185.924C185.98 194.268 186.032 193.968 186.08 193.672C186.136 193.376 186.2 193.088 186.272 192.808L186.932 190.048H188.456L189.128 192.808C189.2 193.104 189.264 193.396 189.32 193.684C189.376 193.972 189.436 194.268 189.5 194.572H189.548C189.604 194.268 189.648 193.972 189.68 193.684C189.72 193.396 189.768 193.104 189.824 192.808L190.388 190.048H192.02L190.592 196H188.528L187.988 193.624C187.924 193.344 187.868 193.064 187.82 192.784C187.772 192.504 187.72 192.204 187.664 191.884H187.616C187.56 192.204 187.508 192.504 187.46 192.784C187.42 193.064 187.372 193.344 187.316 193.624L186.788 196H184.772ZM195.663 196.144C195.239 196.144 194.843 196.076 194.475 195.94C194.107 195.796 193.787 195.592 193.515 195.328C193.243 195.056 193.031 194.728 192.879 194.344C192.727 193.96 192.651 193.52 192.651 193.024C192.651 192.544 192.731 192.112 192.891 191.728C193.051 191.336 193.259 191.008 193.515 190.744C193.779 190.472 194.079 190.264 194.415 190.12C194.751 189.976 195.099 189.904 195.459 189.904C195.883 189.904 196.251 189.976 196.563 190.12C196.883 190.264 197.147 190.464 197.355 190.72C197.571 190.976 197.731 191.28 197.835 191.632C197.939 191.976 197.991 192.352 197.991 192.76C197.991 192.92 197.983 193.072 197.967 193.216C197.951 193.36 197.935 193.468 197.919 193.54H194.355C194.435 193.972 194.611 194.292 194.883 194.5C195.163 194.7 195.503 194.8 195.903 194.8C196.327 194.8 196.755 194.668 197.187 194.404L197.775 195.472C197.471 195.68 197.131 195.844 196.755 195.964C196.387 196.084 196.023 196.144 195.663 196.144ZM194.343 192.376H196.491C196.491 192.04 196.415 191.768 196.263 191.56C196.111 191.352 195.855 191.248 195.495 191.248C195.215 191.248 194.967 191.34 194.751 191.524C194.543 191.708 194.407 191.992 194.343 192.376ZM199.21 196V190.048H200.65L200.77 191.092H200.818C201.034 190.684 201.294 190.384 201.598 190.192C201.902 190 202.206 189.904 202.51 189.904C202.678 189.904 202.814 189.916 202.918 189.94C203.03 189.956 203.13 189.984 203.218 190.024L202.93 191.548C202.818 191.516 202.714 191.492 202.618 191.476C202.522 191.46 202.41 191.452 202.282 191.452C202.058 191.452 201.822 191.532 201.574 191.692C201.334 191.852 201.134 192.136 200.974 192.544V196H199.21ZM206.538 196.144C206.114 196.144 205.718 196.076 205.35 195.94C204.982 195.796 204.662 195.592 204.39 195.328C204.118 195.056 203.906 194.728 203.754 194.344C203.602 193.96 203.526 193.52 203.526 193.024C203.526 192.544 203.606 192.112 203.766 191.728C203.926 191.336 204.134 191.008 204.39 190.744C204.654 190.472 204.954 190.264 205.29 190.12C205.626 189.976 205.974 189.904 206.334 189.904C206.758 189.904 207.126 189.976 207.438 190.12C207.758 190.264 208.022 190.464 208.23 190.72C208.446 190.976 208.606 191.28 208.71 191.632C208.814 191.976 208.866 192.352 208.866 192.76C208.866 192.92 208.858 193.072 208.842 193.216C208.826 193.36 208.81 193.468 208.794 193.54H205.23C205.31 193.972 205.486 194.292 205.758 194.5C206.038 194.7 206.378 194.8 206.778 194.8C207.202 194.8 207.63 194.668 208.062 194.404L208.65 195.472C208.346 195.68 208.006 195.844 207.63 195.964C207.262 196.084 206.898 196.144 206.538 196.144ZM205.218 192.376H207.366C207.366 192.04 207.29 191.768 207.138 191.56C206.986 191.352 206.73 191.248 206.37 191.248C206.09 191.248 205.842 191.34 205.626 191.524C205.418 191.708 205.282 191.992 205.218 192.376ZM212.209 196.144C211.841 196.144 211.505 196.072 211.201 195.928C210.905 195.784 210.649 195.58 210.433 195.316C210.225 195.044 210.061 194.716 209.941 194.332C209.829 193.948 209.773 193.512 209.773 193.024C209.773 192.536 209.841 192.1 209.977 191.716C210.121 191.332 210.305 191.008 210.529 190.744C210.761 190.472 211.025 190.264 211.321 190.12C211.625 189.976 211.933 189.904 212.245 189.904C212.581 189.904 212.857 189.96 213.073 190.072C213.289 190.184 213.501 190.336 213.709 190.528L213.637 189.616V187.588H215.401V196H213.961L213.841 195.412H213.793C213.585 195.62 213.341 195.796 213.061 195.94C212.781 196.076 212.497 196.144 212.209 196.144ZM212.665 194.704C212.857 194.704 213.029 194.664 213.181 194.584C213.341 194.504 213.493 194.364 213.637 194.164V191.728C213.477 191.584 213.313 191.484 213.145 191.428C212.977 191.372 212.813 191.344 212.653 191.344C212.373 191.344 212.125 191.48 211.909 191.752C211.693 192.016 211.585 192.432 211.585 193C211.585 193.592 211.677 194.024 211.861 194.296C212.053 194.568 212.321 194.704 212.665 194.704ZM219.51 196V188.176H222.186C222.594 188.176 222.97 188.208 223.314 188.272C223.666 188.328 223.97 188.432 224.226 188.584C224.49 188.736 224.694 188.936 224.838 189.184C224.99 189.432 225.066 189.744 225.066 190.12C225.066 190.296 225.042 190.472 224.994 190.648C224.946 190.824 224.878 190.988 224.79 191.14C224.702 191.292 224.594 191.428 224.466 191.548C224.346 191.668 224.206 191.756 224.046 191.812V191.86C224.246 191.908 224.43 191.984 224.598 192.088C224.766 192.184 224.914 192.308 225.042 192.46C225.17 192.612 225.27 192.792 225.342 193C225.414 193.2 225.45 193.432 225.45 193.696C225.45 194.096 225.37 194.44 225.21 194.728C225.058 195.016 224.842 195.256 224.562 195.448C224.29 195.632 223.97 195.772 223.602 195.868C223.234 195.956 222.838 196 222.414 196H219.51ZM221.274 191.308H222.102C222.534 191.308 222.846 191.224 223.038 191.056C223.238 190.888 223.338 190.664 223.338 190.384C223.338 190.08 223.238 189.864 223.038 189.736C222.838 189.608 222.53 189.544 222.114 189.544H221.274V191.308ZM221.274 194.632H222.27C223.238 194.632 223.722 194.28 223.722 193.576C223.722 193.232 223.602 192.988 223.362 192.844C223.122 192.692 222.758 192.616 222.27 192.616H221.274V194.632ZM227.081 198.328C226.897 198.328 226.741 198.316 226.613 198.292C226.485 198.276 226.361 198.248 226.241 198.208L226.553 196.864C226.609 196.88 226.673 196.896 226.745 196.912C226.817 196.928 226.885 196.936 226.949 196.936C227.245 196.936 227.473 196.864 227.633 196.72C227.793 196.576 227.913 196.388 227.993 196.156L228.077 195.844L225.785 190.048H227.561L228.413 192.604C228.501 192.876 228.581 193.152 228.653 193.432C228.725 193.712 228.801 194 228.881 194.296H228.929C228.993 194.016 229.057 193.736 229.121 193.456C229.193 193.168 229.265 192.884 229.337 192.604L230.057 190.048H231.749L229.685 196.06C229.541 196.436 229.389 196.764 229.229 197.044C229.077 197.332 228.897 197.568 228.689 197.752C228.489 197.944 228.257 198.088 227.993 198.184C227.737 198.28 227.433 198.328 227.081 198.328ZM238.681 196.144C238.145 196.144 237.641 196.06 237.169 195.892C236.705 195.716 236.301 195.46 235.957 195.124C235.613 194.788 235.341 194.372 235.141 193.876C234.949 193.372 234.853 192.792 234.853 192.136C234.853 191.488 234.953 190.912 235.153 190.408C235.353 189.896 235.625 189.464 235.969 189.112C236.321 188.76 236.729 188.492 237.193 188.308C237.657 188.124 238.149 188.032 238.669 188.032C239.237 188.032 239.725 188.136 240.133 188.344C240.541 188.552 240.873 188.788 241.129 189.052L240.205 190.18C240.005 190.004 239.793 189.856 239.569 189.736C239.345 189.616 239.065 189.556 238.729 189.556C238.425 189.556 238.145 189.616 237.889 189.736C237.641 189.848 237.425 190.012 237.241 190.228C237.057 190.444 236.913 190.708 236.809 191.02C236.713 191.332 236.665 191.684 236.665 192.076C236.665 192.884 236.845 193.512 237.205 193.96C237.573 194.4 238.125 194.62 238.861 194.62C239.021 194.62 239.177 194.6 239.329 194.56C239.481 194.52 239.605 194.46 239.701 194.38V193.036H238.405V191.596H241.261V195.196C240.989 195.46 240.629 195.684 240.181 195.868C239.733 196.052 239.233 196.144 238.681 196.144ZM245.397 196.144C244.973 196.144 244.577 196.076 244.209 195.94C243.841 195.796 243.521 195.592 243.249 195.328C242.977 195.056 242.765 194.728 242.613 194.344C242.461 193.96 242.385 193.52 242.385 193.024C242.385 192.544 242.465 192.112 242.625 191.728C242.785 191.336 242.993 191.008 243.249 190.744C243.513 190.472 243.813 190.264 244.149 190.12C244.485 189.976 244.833 189.904 245.193 189.904C245.617 189.904 245.985 189.976 246.297 190.12C246.617 190.264 246.881 190.464 247.089 190.72C247.305 190.976 247.465 191.28 247.569 191.632C247.673 191.976 247.725 192.352 247.725 192.76C247.725 192.92 247.717 193.072 247.701 193.216C247.685 193.36 247.669 193.468 247.653 193.54H244.089C244.169 193.972 244.345 194.292 244.617 194.5C244.897 194.7 245.237 194.8 245.637 194.8C246.061 194.8 246.489 194.668 246.921 194.404L247.509 195.472C247.205 195.68 246.865 195.844 246.489 195.964C246.121 196.084 245.757 196.144 245.397 196.144ZM244.077 192.376H246.225C246.225 192.04 246.149 191.768 245.997 191.56C245.845 191.352 245.589 191.248 245.229 191.248C244.949 191.248 244.701 191.34 244.485 191.524C244.277 191.708 244.141 191.992 244.077 192.376ZM248.944 196V190.048H250.384L250.504 190.804H250.552C250.808 190.564 251.088 190.356 251.392 190.18C251.696 189.996 252.052 189.904 252.46 189.904C253.108 189.904 253.576 190.116 253.864 190.54C254.16 190.964 254.308 191.552 254.308 192.304V196H252.544V192.532C252.544 192.1 252.484 191.804 252.364 191.644C252.252 191.484 252.068 191.404 251.812 191.404C251.588 191.404 251.396 191.456 251.236 191.56C251.076 191.656 250.9 191.796 250.708 191.98V196H248.944ZM258.475 196.144C258.051 196.144 257.655 196.076 257.287 195.94C256.919 195.796 256.599 195.592 256.327 195.328C256.055 195.056 255.843 194.728 255.691 194.344C255.539 193.96 255.463 193.52 255.463 193.024C255.463 192.544 255.543 192.112 255.703 191.728C255.863 191.336 256.071 191.008 256.327 190.744C256.591 190.472 256.891 190.264 257.227 190.12C257.563 189.976 257.911 189.904 258.271 189.904C258.695 189.904 259.063 189.976 259.375 190.12C259.695 190.264 259.959 190.464 260.167 190.72C260.383 190.976 260.543 191.28 260.647 191.632C260.751 191.976 260.803 192.352 260.803 192.76C260.803 192.92 260.795 193.072 260.779 193.216C260.763 193.36 260.747 193.468 260.731 193.54H257.167C257.247 193.972 257.423 194.292 257.695 194.5C257.975 194.7 258.315 194.8 258.715 194.8C259.139 194.8 259.567 194.668 259.999 194.404L260.587 195.472C260.283 195.68 259.943 195.844 259.567 195.964C259.199 196.084 258.835 196.144 258.475 196.144ZM257.155 192.376H259.303C259.303 192.04 259.227 191.768 259.075 191.56C258.923 191.352 258.667 191.248 258.307 191.248C258.027 191.248 257.779 191.34 257.563 191.524C257.355 191.708 257.219 191.992 257.155 192.376ZM262.022 196V190.048H263.462L263.582 191.092H263.63C263.846 190.684 264.106 190.384 264.41 190.192C264.714 190 265.018 189.904 265.322 189.904C265.49 189.904 265.626 189.916 265.73 189.94C265.842 189.956 265.942 189.984 266.03 190.024L265.742 191.548C265.63 191.516 265.526 191.492 265.43 191.476C265.334 191.46 265.222 191.452 265.094 191.452C264.87 191.452 264.634 191.532 264.386 191.692C264.146 191.852 263.946 192.136 263.786 192.544V196H262.022ZM267.964 196.144C267.692 196.144 267.444 196.096 267.22 196C267.004 195.912 266.82 195.788 266.668 195.628C266.516 195.46 266.396 195.268 266.308 195.052C266.228 194.836 266.188 194.6 266.188 194.344C266.188 193.72 266.452 193.232 266.98 192.88C267.508 192.528 268.36 192.292 269.536 192.172C269.52 191.908 269.44 191.7 269.296 191.548C269.16 191.388 268.928 191.308 268.6 191.308C268.344 191.308 268.088 191.356 267.832 191.452C267.584 191.548 267.316 191.68 267.028 191.848L266.392 190.684C266.776 190.452 267.176 190.264 267.592 190.12C268.016 189.976 268.464 189.904 268.936 189.904C269.704 189.904 270.288 190.124 270.688 190.564C271.096 190.996 271.3 191.672 271.3 192.592V196H269.86L269.74 195.388H269.692C269.436 195.612 269.168 195.796 268.888 195.94C268.608 196.076 268.3 196.144 267.964 196.144ZM268.564 194.776C268.764 194.776 268.936 194.732 269.08 194.644C269.224 194.556 269.376 194.432 269.536 194.272V193.228C268.912 193.316 268.48 193.444 268.24 193.612C268 193.78 267.88 193.98 267.88 194.212C267.88 194.404 267.94 194.548 268.06 194.644C268.188 194.732 268.356 194.776 268.564 194.776ZM274.873 196.144C274.505 196.144 274.189 196.088 273.925 195.976C273.669 195.864 273.457 195.708 273.289 195.508C273.129 195.308 273.009 195.068 272.929 194.788C272.857 194.5 272.821 194.184 272.821 193.84V191.428H272.005V190.12L272.917 190.048L273.121 188.464H274.585V190.048H276.013V191.428H274.585V193.816C274.585 194.152 274.653 194.396 274.789 194.548C274.933 194.692 275.121 194.764 275.353 194.764C275.449 194.764 275.545 194.752 275.641 194.728C275.745 194.704 275.837 194.676 275.917 194.644L276.193 195.928C276.033 195.976 275.845 196.024 275.629 196.072C275.413 196.12 275.161 196.144 274.873 196.144ZM277.175 196V190.048H278.939V196H277.175ZM278.051 189.172C277.755 189.172 277.511 189.088 277.319 188.92C277.127 188.744 277.031 188.52 277.031 188.248C277.031 187.976 277.127 187.756 277.319 187.588C277.511 187.42 277.755 187.336 278.051 187.336C278.355 187.336 278.599 187.42 278.783 187.588C278.975 187.756 279.071 187.976 279.071 188.248C279.071 188.52 278.975 188.744 278.783 188.92C278.599 189.088 278.355 189.172 278.051 189.172ZM281.859 196L279.855 190.048H281.631L282.399 192.856C282.479 193.152 282.555 193.456 282.627 193.768C282.707 194.072 282.787 194.38 282.867 194.692H282.915C282.987 194.38 283.059 194.072 283.131 193.768C283.211 193.456 283.291 193.152 283.371 192.856L284.151 190.048H285.843L283.899 196H281.859ZM289.342 196.144C288.918 196.144 288.522 196.076 288.154 195.94C287.786 195.796 287.466 195.592 287.194 195.328C286.922 195.056 286.71 194.728 286.558 194.344C286.406 193.96 286.33 193.52 286.33 193.024C286.33 192.544 286.41 192.112 286.57 191.728C286.73 191.336 286.938 191.008 287.194 190.744C287.458 190.472 287.758 190.264 288.094 190.12C288.43 189.976 288.778 189.904 289.138 189.904C289.562 189.904 289.93 189.976 290.242 190.12C290.562 190.264 290.826 190.464 291.034 190.72C291.25 190.976 291.41 191.28 291.514 191.632C291.618 191.976 291.67 192.352 291.67 192.76C291.67 192.92 291.662 193.072 291.646 193.216C291.63 193.36 291.614 193.468 291.598 193.54H288.034C288.114 193.972 288.29 194.292 288.562 194.5C288.842 194.7 289.182 194.8 289.582 194.8C290.006 194.8 290.434 194.668 290.866 194.404L291.454 195.472C291.15 195.68 290.81 195.844 290.434 195.964C290.066 196.084 289.702 196.144 289.342 196.144ZM288.022 192.376H290.17C290.17 192.04 290.094 191.768 289.942 191.56C289.79 191.352 289.534 191.248 289.174 191.248C288.894 191.248 288.646 191.34 288.43 191.524C288.222 191.708 288.086 191.992 288.022 192.376ZM297.272 192.04L297.08 192.76H298.748L298.568 192.04C298.456 191.648 298.348 191.232 298.244 190.792C298.14 190.352 298.036 189.928 297.932 189.52H297.884C297.788 189.936 297.688 190.364 297.584 190.804C297.488 191.236 297.384 191.648 297.272 192.04ZM294.44 196L296.888 188.176H299.012L301.46 196H299.588L299.108 194.14H296.72L296.24 196H294.44ZM302.315 196V188.176H304.079V196H302.315Z" fill="#0000FF"/>
<path d="M0.919389 23V5.54545H12.6808V8.58807H4.60973V12.7472H12.0756V15.7898H4.60973V19.9574H12.7148V23H0.919389ZM19.2795 23.2472C18.4442 23.2472 17.6999 23.1023 17.0465 22.8125C16.3931 22.517 15.8761 22.0824 15.4954 21.5085C15.1204 20.929 14.9329 20.2074 14.9329 19.3438C14.9329 18.6165 15.0664 18.0057 15.3335 17.5114C15.6005 17.017 15.9641 16.6193 16.4244 16.3182C16.8846 16.017 17.4073 15.7898 17.9925 15.6364C18.5835 15.483 19.2028 15.375 19.8505 15.3125C20.6119 15.233 21.2255 15.1591 21.6914 15.0909C22.1573 15.017 22.4954 14.9091 22.7056 14.767C22.9158 14.625 23.021 14.4148 23.021 14.1364V14.0852C23.021 13.5455 22.8505 13.1278 22.5096 12.8324C22.1744 12.5369 21.6971 12.3892 21.0778 12.3892C20.4244 12.3892 19.9045 12.5341 19.5181 12.8239C19.1317 13.108 18.8761 13.4659 18.7511 13.8977L15.3931 13.625C15.5636 12.8295 15.8988 12.142 16.3988 11.5625C16.8988 10.9773 17.5437 10.5284 18.3335 10.2159C19.1289 9.89773 20.0494 9.73864 21.0948 9.73864C21.8221 9.73864 22.5181 9.82386 23.1829 9.99432C23.8533 10.1648 24.4471 10.429 24.9641 10.7869C25.4869 11.1449 25.8988 11.6051 26.1999 12.1676C26.5011 12.7244 26.6516 13.392 26.6516 14.1705V23H23.2085V21.1847H23.1062C22.896 21.5938 22.6147 21.9545 22.2624 22.267C21.9102 22.5739 21.4869 22.8153 20.9925 22.9915C20.4982 23.1619 19.9272 23.2472 19.2795 23.2472ZM20.3192 20.7415C20.8533 20.7415 21.3249 20.6364 21.734 20.4261C22.1431 20.2102 22.4641 19.9205 22.6971 19.5568C22.93 19.1932 23.0465 18.7812 23.0465 18.321V16.9318C22.9329 17.0057 22.7766 17.0739 22.5778 17.1364C22.3846 17.1932 22.1658 17.2472 21.9215 17.2983C21.6772 17.3437 21.4329 17.3864 21.1886 17.4261C20.9442 17.4602 20.7227 17.4915 20.5238 17.5199C20.0977 17.5824 19.7255 17.6818 19.4073 17.8182C19.0891 17.9545 18.842 18.1392 18.6658 18.3722C18.4897 18.5994 18.4016 18.8835 18.4016 19.2244C18.4016 19.7188 18.5806 20.0966 18.9386 20.358C19.3022 20.6136 19.7624 20.7415 20.3192 20.7415ZM29.4684 23V9.90909H32.9883V12.1932H33.1246C33.3633 11.3807 33.7638 10.767 34.3263 10.3523C34.8888 9.93182 35.5366 9.72159 36.2695 9.72159C36.4513 9.72159 36.6474 9.73295 36.8576 9.75568C37.0678 9.77841 37.2525 9.80966 37.4116 9.84943V13.071C37.2411 13.0199 37.0053 12.9744 36.7042 12.9347C36.4031 12.8949 36.1275 12.875 35.8775 12.875C35.3434 12.875 34.8661 12.9915 34.4457 13.2244C34.0309 13.4517 33.7013 13.7699 33.457 14.179C33.2184 14.5881 33.0991 15.0597 33.0991 15.5938V23H29.4684ZM42.9194 5.54545V23H39.2887V5.54545H42.9194ZM48.0692 27.9091C47.609 27.9091 47.1772 27.8722 46.7738 27.7983C46.3761 27.7301 46.0465 27.642 45.7852 27.5341L46.6033 24.8239C47.0295 24.9545 47.413 25.0256 47.7539 25.0369C48.1005 25.0483 48.3988 24.9688 48.6488 24.7983C48.9045 24.6278 49.1119 24.3381 49.271 23.929L49.484 23.375L44.788 9.90909H48.6062L51.3164 19.5227H51.4528L54.1886 9.90909H58.0323L52.9442 24.4148C52.6999 25.1193 52.3675 25.733 51.9471 26.2557C51.5323 26.7841 51.0067 27.1903 50.3704 27.4744C49.734 27.7642 48.967 27.9091 48.0692 27.9091ZM69.1779 23.2472C68.3427 23.2472 67.5984 23.1023 66.945 22.8125C66.2915 22.517 65.7745 22.0824 65.3938 21.5085C65.0188 20.929 64.8313 20.2074 64.8313 19.3438C64.8313 18.6165 64.9648 18.0057 65.2319 17.5114C65.4989 17.017 65.8626 16.6193 66.3228 16.3182C66.783 16.017 67.3058 15.7898 67.891 15.6364C68.4819 15.483 69.1012 15.375 69.7489 15.3125C70.5103 15.233 71.1239 15.1591 71.5898 15.0909C72.0558 15.017 72.3938 14.9091 72.604 14.767C72.8143 14.625 72.9194 14.4148 72.9194 14.1364V14.0852C72.9194 13.5455 72.7489 13.1278 72.408 12.8324C72.0728 12.5369 71.5955 12.3892 70.9762 12.3892C70.3228 12.3892 69.8029 12.5341 69.4165 12.8239C69.0302 13.108 68.7745 13.4659 68.6495 13.8977L65.2915 13.625C65.462 12.8295 65.7972 12.142 66.2972 11.5625C66.7972 10.9773 67.4421 10.5284 68.2319 10.2159C69.0273 9.89773 69.9478 9.73864 70.9933 9.73864C71.7205 9.73864 72.4165 9.82386 73.0813 9.99432C73.7518 10.1648 74.3455 10.429 74.8626 10.7869C75.3853 11.1449 75.7972 11.6051 76.0984 12.1676C76.3995 12.7244 76.5501 13.392 76.5501 14.1705V23H73.1069V21.1847H73.0046C72.7944 21.5938 72.5131 21.9545 72.1609 22.267C71.8086 22.5739 71.3853 22.8153 70.891 22.9915C70.3967 23.1619 69.8256 23.2472 69.1779 23.2472ZM70.2177 20.7415C70.7518 20.7415 71.2234 20.6364 71.6325 20.4261C72.0415 20.2102 72.3626 19.9205 72.5955 19.5568C72.8285 19.1932 72.945 18.7812 72.945 18.321V16.9318C72.8313 17.0057 72.6751 17.0739 72.4762 17.1364C72.283 17.1932 72.0643 17.2472 71.82 17.2983C71.5756 17.3437 71.3313 17.3864 71.087 17.4261C70.8427 17.4602 70.6211 17.4915 70.4222 17.5199C69.9961 17.5824 69.6239 17.6818 69.3058 17.8182C68.9876 17.9545 68.7404 18.1392 68.5643 18.3722C68.3881 18.5994 68.3001 18.8835 68.3001 19.2244C68.3001 19.7188 68.479 20.0966 68.837 20.358C69.2006 20.6136 69.6609 20.7415 70.2177 20.7415ZM85.2816 23.2557C83.9407 23.2557 82.7873 22.9716 81.8214 22.4034C80.8612 21.8295 80.1225 21.0341 79.6055 20.017C79.0941 19 78.8384 17.8295 78.8384 16.5057C78.8384 15.1648 79.0969 13.9886 79.614 12.9773C80.1367 11.9602 80.8782 11.1676 81.8384 10.5994C82.7987 10.0256 83.9407 9.73864 85.2646 9.73864C86.4066 9.73864 87.4066 9.94602 88.2646 10.3608C89.1225 10.7756 89.8015 11.358 90.3015 12.108C90.8015 12.858 91.0771 13.7386 91.1282 14.75H87.7021C87.6055 14.0966 87.3498 13.571 86.935 13.1733C86.5259 12.7699 85.989 12.5682 85.3242 12.5682C84.7617 12.5682 84.2702 12.7216 83.8498 13.0284C83.435 13.3295 83.1112 13.7699 82.8782 14.3494C82.6452 14.929 82.5288 15.6307 82.5288 16.4545C82.5288 17.2898 82.6424 18 82.8697 18.5852C83.1026 19.1705 83.4293 19.6165 83.8498 19.9233C84.2702 20.2301 84.7617 20.3835 85.3242 20.3835C85.739 20.3835 86.1112 20.2983 86.4407 20.1278C86.7759 19.9574 87.0515 19.7102 87.2674 19.3864C87.489 19.0568 87.6339 18.6619 87.7021 18.2017H91.1282C91.0714 19.2017 90.7987 20.0824 90.31 20.8438C89.8271 21.5994 89.1594 22.1903 88.3072 22.6165C87.4549 23.0426 86.4464 23.2557 85.2816 23.2557ZM99.3675 23.2557C98.0266 23.2557 96.8732 22.9716 95.9073 22.4034C94.9471 21.8295 94.2085 21.0341 93.6914 20.017C93.18 19 92.9244 17.8295 92.9244 16.5057C92.9244 15.1648 93.1829 13.9886 93.6999 12.9773C94.2227 11.9602 94.9641 11.1676 95.9244 10.5994C96.8846 10.0256 98.0266 9.73864 99.3505 9.73864C100.493 9.73864 101.493 9.94602 102.35 10.3608C103.208 10.7756 103.887 11.358 104.387 12.108C104.887 12.858 105.163 13.7386 105.214 14.75H101.788C101.691 14.0966 101.436 13.571 101.021 13.1733C100.612 12.7699 100.075 12.5682 99.4102 12.5682C98.8477 12.5682 98.3562 12.7216 97.9357 13.0284C97.521 13.3295 97.1971 13.7699 96.9641 14.3494C96.7312 14.929 96.6147 15.6307 96.6147 16.4545C96.6147 17.2898 96.7283 18 96.9556 18.5852C97.1886 19.1705 97.5153 19.6165 97.9357 19.9233C98.3562 20.2301 98.8477 20.3835 99.4102 20.3835C99.8249 20.3835 100.197 20.2983 100.527 20.1278C100.862 19.9574 101.137 19.7102 101.353 19.3864C101.575 19.0568 101.72 18.6619 101.788 18.2017H105.214C105.157 19.2017 104.885 20.0824 104.396 20.8438C103.913 21.5994 103.245 22.1903 102.393 22.6165C101.541 23.0426 100.532 23.2557 99.3675 23.2557ZM113.505 23.2557C112.158 23.2557 110.999 22.983 110.027 22.4375C109.061 21.8864 108.317 21.108 107.794 20.1023C107.272 19.0909 107.01 17.8949 107.01 16.5142C107.01 15.1676 107.272 13.9858 107.794 12.9688C108.317 11.9517 109.053 11.1591 110.002 10.5909C110.956 10.0227 112.076 9.73864 113.36 9.73864C114.223 9.73864 115.027 9.87784 115.772 10.1562C116.522 10.429 117.175 10.8409 117.732 11.392C118.294 11.9432 118.732 12.6364 119.044 13.4716C119.357 14.3011 119.513 15.2727 119.513 16.3864V17.3835H108.459V15.1335H116.096C116.096 14.6108 115.982 14.1477 115.755 13.7443C115.527 13.3409 115.212 13.0256 114.809 12.7983C114.411 12.5653 113.948 12.4489 113.419 12.4489C112.868 12.4489 112.38 12.5767 111.953 12.8324C111.533 13.0824 111.203 13.4205 110.965 13.8466C110.726 14.267 110.604 14.7358 110.598 15.2528V17.392C110.598 18.0398 110.718 18.5994 110.956 19.071C111.201 19.5426 111.544 19.9062 111.988 20.1619C112.431 20.4176 112.956 20.5455 113.564 20.5455C113.968 20.5455 114.337 20.4886 114.672 20.375C115.007 20.2614 115.294 20.0909 115.533 19.8636C115.772 19.6364 115.953 19.358 116.078 19.0284L119.436 19.25C119.266 20.0568 118.917 20.7614 118.388 21.3636C117.865 21.9602 117.189 22.4261 116.36 22.7614C115.536 23.0909 114.584 23.2557 113.505 23.2557ZM132.775 13.642L129.451 13.8466C129.394 13.5625 129.272 13.3068 129.084 13.0795C128.897 12.8466 128.65 12.6619 128.343 12.5256C128.042 12.3835 127.681 12.3125 127.26 12.3125C126.698 12.3125 126.223 12.4318 125.837 12.6705C125.451 12.9034 125.257 13.2159 125.257 13.608C125.257 13.9205 125.382 14.1847 125.632 14.4006C125.882 14.6165 126.311 14.7898 126.919 14.9205L129.289 15.3977C130.561 15.6591 131.51 16.0795 132.135 16.6591C132.76 17.2386 133.073 18 133.073 18.9432C133.073 19.8011 132.82 20.554 132.314 21.2017C131.814 21.8494 131.127 22.3551 130.252 22.7188C129.382 23.0767 128.38 23.2557 127.243 23.2557C125.51 23.2557 124.13 22.8949 123.101 22.1733C122.078 21.446 121.479 20.4574 121.303 19.2074L124.874 19.0199C124.982 19.5483 125.243 19.9517 125.658 20.2301C126.073 20.5028 126.604 20.6392 127.252 20.6392C127.888 20.6392 128.4 20.517 128.786 20.2727C129.178 20.0227 129.377 19.7017 129.382 19.3097C129.377 18.9801 129.238 18.7102 128.965 18.5C128.692 18.2841 128.272 18.1193 127.703 18.0057L125.436 17.554C124.158 17.2983 123.206 16.8551 122.581 16.2244C121.962 15.5937 121.652 14.7898 121.652 13.8125C121.652 12.9716 121.88 12.2472 122.334 11.6392C122.794 11.0312 123.439 10.5625 124.269 10.233C125.104 9.90341 126.081 9.73864 127.201 9.73864C128.854 9.73864 130.155 10.0881 131.104 10.7869C132.059 11.4858 132.615 12.4375 132.775 13.642ZM146.251 13.642L142.927 13.8466C142.87 13.5625 142.748 13.3068 142.561 13.0795C142.373 12.8466 142.126 12.6619 141.819 12.5256C141.518 12.3835 141.157 12.3125 140.737 12.3125C140.174 12.3125 139.7 12.4318 139.314 12.6705C138.927 12.9034 138.734 13.2159 138.734 13.608C138.734 13.9205 138.859 14.1847 139.109 14.4006C139.359 14.6165 139.788 14.7898 140.396 14.9205L142.765 15.3977C144.038 15.6591 144.987 16.0795 145.612 16.6591C146.237 17.2386 146.549 18 146.549 18.9432C146.549 19.8011 146.297 20.554 145.791 21.2017C145.291 21.8494 144.603 22.3551 143.728 22.7188C142.859 23.0767 141.856 23.2557 140.72 23.2557C138.987 23.2557 137.606 22.8949 136.578 22.1733C135.555 21.446 134.956 20.4574 134.779 19.2074L138.35 19.0199C138.458 19.5483 138.72 19.9517 139.135 20.2301C139.549 20.5028 140.081 20.6392 140.728 20.6392C141.365 20.6392 141.876 20.517 142.262 20.2727C142.654 20.0227 142.853 19.7017 142.859 19.3097C142.853 18.9801 142.714 18.7102 142.441 18.5C142.169 18.2841 141.748 18.1193 141.18 18.0057L138.913 17.554C137.635 17.2983 136.683 16.8551 136.058 16.2244C135.439 15.5937 135.129 14.7898 135.129 13.8125C135.129 12.9716 135.356 12.2472 135.811 11.6392C136.271 11.0312 136.916 10.5625 137.745 10.233C138.581 9.90341 139.558 9.73864 140.677 9.73864C142.331 9.73864 143.632 10.0881 144.581 10.7869C145.535 11.4858 146.092 12.4375 146.251 13.642Z" fill="#0000FF"/>
<path d="M165.282 13.642L161.958 13.8466C161.902 13.5625 161.779 13.3068 161.592 13.0795C161.404 12.8466 161.157 12.6619 160.85 12.5256C160.549 12.3835 160.189 12.3125 159.768 12.3125C159.206 12.3125 158.731 12.4318 158.345 12.6705C157.958 12.9034 157.765 13.2159 157.765 13.608C157.765 13.9205 157.89 14.1847 158.14 14.4006C158.39 14.6165 158.819 14.7898 159.427 14.9205L161.797 15.3977C163.069 15.6591 164.018 16.0795 164.643 16.6591C165.268 17.2386 165.581 18 165.581 18.9432C165.581 19.8011 165.328 20.554 164.822 21.2017C164.322 21.8494 163.635 22.3551 162.76 22.7188C161.89 23.0767 160.887 23.2557 159.751 23.2557C158.018 23.2557 156.637 22.8949 155.609 22.1733C154.586 21.446 153.987 20.4574 153.811 19.2074L157.382 19.0199C157.49 19.5483 157.751 19.9517 158.166 20.2301C158.581 20.5028 159.112 20.6392 159.76 20.6392C160.396 20.6392 160.907 20.517 161.294 20.2727C161.686 20.0227 161.885 19.7017 161.89 19.3097C161.885 18.9801 161.745 18.7102 161.473 18.5C161.2 18.2841 160.779 18.1193 160.211 18.0057L157.944 17.554C156.666 17.2983 155.714 16.8551 155.089 16.2244C154.47 15.5937 154.16 14.7898 154.16 13.8125C154.16 12.9716 154.387 12.2472 154.842 11.6392C155.302 11.0312 155.947 10.5625 156.777 10.233C157.612 9.90341 158.589 9.73864 159.708 9.73864C161.362 9.73864 162.663 10.0881 163.612 10.7869C164.566 11.4858 165.123 12.4375 165.282 13.642ZM174.83 9.90909V12.6364H166.946V9.90909H174.83ZM168.736 6.77273H172.367V18.9773C172.367 19.3125 172.418 19.5739 172.52 19.7614C172.623 19.9432 172.765 20.071 172.946 20.1449C173.134 20.2187 173.35 20.2557 173.594 20.2557C173.765 20.2557 173.935 20.2415 174.105 20.2131C174.276 20.179 174.407 20.1534 174.498 20.1364L175.069 22.8381C174.887 22.8949 174.631 22.9602 174.301 23.0341C173.972 23.1136 173.571 23.1619 173.1 23.179C172.225 23.2131 171.458 23.0966 170.799 22.8295C170.145 22.5625 169.637 22.1477 169.273 21.5852C168.909 21.0227 168.73 20.3125 168.736 19.4545V6.77273ZM180.928 23.2472C180.093 23.2472 179.348 23.1023 178.695 22.8125C178.042 22.517 177.525 22.0824 177.144 21.5085C176.769 20.929 176.581 20.2074 176.581 19.3438C176.581 18.6165 176.715 18.0057 176.982 17.5114C177.249 17.017 177.613 16.6193 178.073 16.3182C178.533 16.017 179.056 15.7898 179.641 15.6364C180.232 15.483 180.851 15.375 181.499 15.3125C182.26 15.233 182.874 15.1591 183.34 15.0909C183.806 15.017 184.144 14.9091 184.354 14.767C184.564 14.625 184.669 14.4148 184.669 14.1364V14.0852C184.669 13.5455 184.499 13.1278 184.158 12.8324C183.823 12.5369 183.346 12.3892 182.726 12.3892C182.073 12.3892 181.553 12.5341 181.167 12.8239C180.78 13.108 180.525 13.4659 180.4 13.8977L177.042 13.625C177.212 12.8295 177.547 12.142 178.047 11.5625C178.547 10.9773 179.192 10.5284 179.982 10.2159C180.777 9.89773 181.698 9.73864 182.743 9.73864C183.471 9.73864 184.167 9.82386 184.831 9.99432C185.502 10.1648 186.096 10.429 186.613 10.7869C187.135 11.1449 187.547 11.6051 187.848 12.1676C188.15 12.7244 188.3 13.392 188.3 14.1705V23H184.857V21.1847H184.755C184.544 21.5938 184.263 21.9545 183.911 22.267C183.559 22.5739 183.135 22.8153 182.641 22.9915C182.147 23.1619 181.576 23.2472 180.928 23.2472ZM181.968 20.7415C182.502 20.7415 182.973 20.6364 183.382 20.4261C183.792 20.2102 184.113 19.9205 184.346 19.5568C184.578 19.1932 184.695 18.7812 184.695 18.321V16.9318C184.581 17.0057 184.425 17.0739 184.226 17.1364C184.033 17.1932 183.814 17.2472 183.57 17.2983C183.326 17.3437 183.081 17.3864 182.837 17.4261C182.593 17.4602 182.371 17.4915 182.172 17.5199C181.746 17.5824 181.374 17.6818 181.056 17.8182C180.738 17.9545 180.49 18.1392 180.314 18.3722C180.138 18.5994 180.05 18.8835 180.05 19.2244C180.05 19.7188 180.229 20.0966 180.587 20.358C180.951 20.6136 181.411 20.7415 181.968 20.7415ZM191.117 23V9.90909H194.637V12.1932H194.773C195.012 11.3807 195.412 10.767 195.975 10.3523C196.537 9.93182 197.185 9.72159 197.918 9.72159C198.1 9.72159 198.296 9.73295 198.506 9.75568C198.716 9.77841 198.901 9.80966 199.06 9.84943V13.071C198.89 13.0199 198.654 12.9744 198.353 12.9347C198.051 12.8949 197.776 12.875 197.526 12.875C196.992 12.875 196.515 12.9915 196.094 13.2244C195.679 13.4517 195.35 13.7699 195.105 14.179C194.867 14.5881 194.748 15.0597 194.748 15.5938V23H191.117ZM208.556 9.90909V12.6364H200.673V9.90909H208.556ZM202.463 6.77273H206.093V18.9773C206.093 19.3125 206.145 19.5739 206.247 19.7614C206.349 19.9432 206.491 20.071 206.673 20.1449C206.86 20.2187 207.076 20.2557 207.321 20.2557C207.491 20.2557 207.662 20.2415 207.832 20.2131C208.002 20.179 208.133 20.1534 208.224 20.1364L208.795 22.8381C208.613 22.8949 208.358 22.9602 208.028 23.0341C207.699 23.1136 207.298 23.1619 206.826 23.179C205.951 23.2131 205.184 23.0966 204.525 22.8295C203.872 22.5625 203.363 22.1477 203 21.5852C202.636 21.0227 202.457 20.3125 202.463 19.4545V6.77273ZM221.65 13.642L218.326 13.8466C218.269 13.5625 218.147 13.3068 217.959 13.0795C217.772 12.8466 217.525 12.6619 217.218 12.5256C216.917 12.3835 216.556 12.3125 216.135 12.3125C215.573 12.3125 215.098 12.4318 214.712 12.6705C214.326 12.9034 214.132 13.2159 214.132 13.608C214.132 13.9205 214.257 14.1847 214.507 14.4006C214.757 14.6165 215.186 14.7898 215.794 14.9205L218.164 15.3977C219.436 15.6591 220.385 16.0795 221.01 16.6591C221.635 17.2386 221.948 18 221.948 18.9432C221.948 19.8011 221.695 20.554 221.189 21.2017C220.689 21.8494 220.002 22.3551 219.127 22.7188C218.257 23.0767 217.255 23.2557 216.118 23.2557C214.385 23.2557 213.005 22.8949 211.976 22.1733C210.953 21.446 210.354 20.4574 210.178 19.2074L213.749 19.0199C213.857 19.5483 214.118 19.9517 214.533 20.2301C214.948 20.5028 215.479 20.6392 216.127 20.6392C216.763 20.6392 217.275 20.517 217.661 20.2727C218.053 20.0227 218.252 19.7017 218.257 19.3097C218.252 18.9801 218.113 18.7102 217.84 18.5C217.567 18.2841 217.147 18.1193 216.578 18.0057L214.311 17.554C213.033 17.2983 212.081 16.8551 211.456 16.2244C210.837 15.5937 210.527 14.7898 210.527 13.8125C210.527 12.9716 210.755 12.2472 211.209 11.6392C211.669 11.0312 212.314 10.5625 213.144 10.233C213.979 9.90341 214.956 9.73864 216.076 9.73864C217.729 9.73864 219.03 10.0881 219.979 10.7869C220.934 11.4858 221.49 12.4375 221.65 13.642ZM226.356 23.2216C225.794 23.2216 225.311 23.0227 224.907 22.625C224.51 22.2216 224.311 21.7386 224.311 21.1761C224.311 20.6193 224.51 20.142 224.907 19.7443C225.311 19.3466 225.794 19.1477 226.356 19.1477C226.902 19.1477 227.379 19.3466 227.788 19.7443C228.197 20.142 228.402 20.6193 228.402 21.1761C228.402 21.5511 228.305 21.8949 228.112 22.2074C227.924 22.5142 227.677 22.7614 227.37 22.9489C227.064 23.1307 226.725 23.2216 226.356 23.2216ZM233.505 23.2216C232.942 23.2216 232.459 23.0227 232.056 22.625C231.658 22.2216 231.459 21.7386 231.459 21.1761C231.459 20.6193 231.658 20.142 232.056 19.7443C232.459 19.3466 232.942 19.1477 233.505 19.1477C234.05 19.1477 234.527 19.3466 234.936 19.7443C235.346 20.142 235.55 20.6193 235.55 21.1761C235.55 21.5511 235.453 21.8949 235.26 22.2074C235.073 22.5142 234.826 22.7614 234.519 22.9489C234.212 23.1307 233.874 23.2216 233.505 23.2216ZM240.653 23.2216C240.091 23.2216 239.608 23.0227 239.204 22.625C238.806 22.2216 238.608 21.7386 238.608 21.1761C238.608 20.6193 238.806 20.142 239.204 19.7443C239.608 19.3466 240.091 19.1477 240.653 19.1477C241.199 19.1477 241.676 19.3466 242.085 19.7443C242.494 20.142 242.699 20.6193 242.699 21.1761C242.699 21.5511 242.602 21.8949 242.409 22.2074C242.221 22.5142 241.974 22.7614 241.667 22.9489C241.36 23.1307 241.022 23.2216 240.653 23.2216ZM265.081 5.54545V23H261.894L254.3 12.0142H254.172V23H250.482V5.54545H253.721L261.255 16.5227H261.408V5.54545H265.081ZM284.17 14.2727C284.17 16.1761 283.809 17.7955 283.088 19.1307C282.372 20.4659 281.395 21.4858 280.156 22.1903C278.923 22.8892 277.537 23.2386 275.997 23.2386C274.446 23.2386 273.054 22.8864 271.821 22.1818C270.588 21.4773 269.613 20.4574 268.897 19.1222C268.181 17.7869 267.824 16.1705 267.824 14.2727C267.824 12.3693 268.181 10.75 268.897 9.41477C269.613 8.07955 270.588 7.0625 271.821 6.36364C273.054 5.65909 274.446 5.30682 275.997 5.30682C277.537 5.30682 278.923 5.65909 280.156 6.36364C281.395 7.0625 282.372 8.07955 283.088 9.41477C283.809 10.75 284.17 12.3693 284.17 14.2727ZM280.429 14.2727C280.429 13.0398 280.244 12 279.875 11.1534C279.511 10.3068 278.997 9.66477 278.332 9.22727C277.667 8.78977 276.889 8.57102 275.997 8.57102C275.105 8.57102 274.326 8.78977 273.662 9.22727C272.997 9.66477 272.48 10.3068 272.11 11.1534C271.747 12 271.565 13.0398 271.565 14.2727C271.565 15.5057 271.747 16.5455 272.11 17.392C272.48 18.2386 272.997 18.8807 273.662 19.3182C274.326 19.7557 275.105 19.9744 275.997 19.9744C276.889 19.9744 277.667 19.7557 278.332 19.3182C278.997 18.8807 279.511 18.2386 279.875 17.392C280.244 16.5455 280.429 15.5057 280.429 14.2727ZM290.176 23L285.182 5.54545H289.213L292.103 17.6733H292.248L295.435 5.54545H298.887L302.066 17.6989H302.219L305.108 5.54545H309.14L304.145 23H300.549L297.225 11.5881H297.088L293.773 23H290.176Z" fill="#009CFF"/>
<path d="M44.1537 78V42.792H56.2497C58.1937 42.792 60.0117 42.99 61.7037 43.386C63.3957 43.746 64.8717 44.376 66.1317 45.276C67.3917 46.14 68.3817 47.31 69.1017 48.786C69.8577 50.226 70.2357 52.008 70.2357 54.132C70.2357 56.184 69.8577 57.966 69.1017 59.478C68.3817 60.99 67.3917 62.232 66.1317 63.204C64.8717 64.176 63.4137 64.896 61.7577 65.364C60.1017 65.832 58.3377 66.066 56.4657 66.066H52.0917V78H44.1537ZM52.0917 59.748H55.9797C60.2997 59.748 62.4597 57.876 62.4597 54.132C62.4597 52.296 61.8837 51 60.7317 50.244C59.5797 49.488 57.9237 49.11 55.7637 49.11H52.0917V59.748ZM76.8617 78V42.792H89.5517C91.4237 42.792 93.1697 42.972 94.7897 43.332C96.4457 43.692 97.8857 44.304 99.1097 45.168C100.334 45.996 101.306 47.112 102.026 48.516C102.746 49.92 103.106 51.666 103.106 53.754C103.106 56.346 102.53 58.488 101.378 60.18C100.262 61.836 98.7497 63.078 96.8417 63.906L104.834 78H95.9237L89.1737 65.31H84.7997V78H76.8617ZM84.7997 58.992H88.9037C90.9917 58.992 92.5757 58.56 93.6557 57.696C94.7717 56.796 95.3297 55.482 95.3297 53.754C95.3297 52.026 94.7717 50.82 93.6557 50.136C92.5757 49.452 90.9917 49.11 88.9037 49.11H84.7997V58.992ZM110.519 78V42.792H118.457V78H110.519ZM141.611 78.648C139.235 78.648 137.057 78.234 135.077 77.406C133.133 76.542 131.459 75.318 130.055 73.734C128.651 72.15 127.553 70.224 126.761 67.956C126.005 65.688 125.627 63.114 125.627 60.234C125.627 57.354 126.005 54.798 126.761 52.566C127.553 50.298 128.651 48.408 130.055 46.896C131.459 45.348 133.133 44.178 135.077 43.386C137.057 42.558 139.235 42.144 141.611 42.144C143.987 42.144 146.147 42.558 148.091 43.386C150.071 44.178 151.763 45.348 153.167 46.896C154.571 48.444 155.651 50.352 156.407 52.62C157.199 54.852 157.595 57.39 157.595 60.234C157.595 63.114 157.199 65.688 156.407 67.956C155.651 70.224 154.571 72.15 153.167 73.734C151.763 75.318 150.071 76.542 148.091 77.406C146.147 78.234 143.987 78.648 141.611 78.648ZM141.611 71.79C144.023 71.79 145.931 70.764 147.335 68.712C148.739 66.624 149.441 63.798 149.441 60.234C149.441 56.706 148.739 53.952 147.335 51.972C145.931 49.992 144.023 49.002 141.611 49.002C139.199 49.002 137.291 49.992 135.887 51.972C134.483 53.952 133.781 56.706 133.781 60.234C133.781 63.798 134.483 66.624 135.887 68.712C137.291 70.764 139.199 71.79 141.611 71.79ZM164.755 78V42.792H177.445C179.317 42.792 181.063 42.972 182.683 43.332C184.339 43.692 185.779 44.304 187.003 45.168C188.227 45.996 189.199 47.112 189.919 48.516C190.639 49.92 190.999 51.666 190.999 53.754C190.999 56.346 190.423 58.488 189.271 60.18C188.155 61.836 186.643 63.078 184.735 63.906L192.727 78H183.817L177.067 65.31H172.693V78H164.755ZM172.693 58.992H176.797C178.885 58.992 180.469 58.56 181.549 57.696C182.665 56.796 183.223 55.482 183.223 53.754C183.223 52.026 182.665 50.82 181.549 50.136C180.469 49.452 178.885 49.11 176.797 49.11H172.693V58.992ZM198.412 78V42.792H206.35V78H198.412ZM222.053 78V49.488H212.387V42.792H239.711V49.488H230.045V78H222.053ZM250.839 78V65.472L240.201 42.792H248.733L251.865 50.892C252.369 52.224 252.837 53.52 253.269 54.78C253.737 56.004 254.223 57.3 254.727 58.668H254.943C255.447 57.3 255.933 56.004 256.401 54.78C256.905 53.52 257.409 52.224 257.913 50.892L261.099 42.792H269.415L258.777 65.472V78H250.839ZM44.552 110.18L43.688 113.42H51.194L50.384 110.18C49.88 108.416 49.394 106.544 48.926 104.564C48.458 102.584 47.99 100.676 47.522 98.84H47.306C46.874 100.712 46.424 102.638 45.956 104.618C45.524 106.562 45.056 108.416 44.552 110.18ZM31.808 128L42.824 92.792H52.382L63.398 128H54.974L52.814 119.63H42.068L39.908 128H31.808ZM81.9457 128.648C79.7137 128.648 77.6077 128.27 75.6277 127.514C73.6477 126.722 71.9017 125.57 70.3897 124.058C68.9137 122.546 67.7437 120.674 66.8797 118.442C66.0157 116.174 65.5837 113.564 65.5837 110.612C65.5837 107.696 66.0337 105.104 66.9337 102.836C67.8337 100.532 69.0397 98.588 70.5517 97.004C72.0637 95.42 73.8277 94.214 75.8437 93.386C77.8597 92.558 79.9837 92.144 82.2157 92.144C84.4837 92.144 86.5177 92.612 88.3177 93.548C90.1177 94.448 91.6117 95.51 92.7997 96.734L88.5877 101.81C87.6877 100.982 86.7337 100.316 85.7257 99.812C84.7537 99.272 83.6377 99.002 82.3777 99.002C81.1897 99.002 80.0557 99.272 78.9757 99.812C77.9317 100.316 77.0137 101.054 76.2217 102.026C75.4657 102.998 74.8537 104.186 74.3857 105.59C73.9537 106.994 73.7377 108.578 73.7377 110.342C73.7377 113.978 74.5117 116.804 76.0597 118.82C77.6077 120.8 79.6777 121.79 82.2697 121.79C83.7097 121.79 84.9877 121.484 86.1037 120.872C87.2557 120.224 88.2637 119.432 89.1277 118.496L93.3397 123.464C90.3877 126.92 86.5897 128.648 81.9457 128.648ZM111.912 128.648C109.68 128.648 107.574 128.27 105.594 127.514C103.614 126.722 101.868 125.57 100.356 124.058C98.8795 122.546 97.7095 120.674 96.8455 118.442C95.9815 116.174 95.5495 113.564 95.5495 110.612C95.5495 107.696 95.9995 105.104 96.8995 102.836C97.7995 100.532 99.0055 98.588 100.518 97.004C102.03 95.42 103.794 94.214 105.81 93.386C107.826 92.558 109.95 92.144 112.182 92.144C114.45 92.144 116.484 92.612 118.284 93.548C120.084 94.448 121.578 95.51 122.766 96.734L118.554 101.81C117.654 100.982 116.7 100.316 115.692 99.812C114.72 99.272 113.604 99.002 112.344 99.002C111.156 99.002 110.022 99.272 108.942 99.812C107.898 100.316 106.98 101.054 106.188 102.026C105.432 102.998 104.82 104.186 104.352 105.59C103.92 106.994 103.704 108.578 103.704 110.342C103.704 113.978 104.478 116.804 106.026 118.82C107.574 120.8 109.644 121.79 112.236 121.79C113.676 121.79 114.954 121.484 116.07 120.872C117.222 120.224 118.23 119.432 119.094 118.496L123.306 123.464C120.354 126.92 116.556 128.648 111.912 128.648ZM129.193 128V92.792H151.225V99.488H137.131V106.562H149.119V113.204H137.131V121.304H151.765V128H129.193ZM170.063 128.648C167.759 128.648 165.455 128.234 163.151 127.406C160.883 126.542 158.849 125.264 157.049 123.572L161.585 118.118C162.845 119.198 164.231 120.08 165.743 120.764C167.291 121.448 168.803 121.79 170.279 121.79C171.935 121.79 173.159 121.484 173.951 120.872C174.779 120.26 175.193 119.432 175.193 118.388C175.193 117.848 175.067 117.38 174.815 116.984C174.599 116.588 174.257 116.246 173.789 115.958C173.357 115.634 172.817 115.346 172.169 115.094C171.557 114.806 170.873 114.5 170.117 114.176L165.527 112.232C164.627 111.872 163.745 111.404 162.881 110.828C162.053 110.252 161.297 109.586 160.613 108.83C159.965 108.038 159.443 107.138 159.047 106.13C158.651 105.086 158.453 103.916 158.453 102.62C158.453 101.18 158.759 99.83 159.371 98.57C159.983 97.274 160.847 96.158 161.963 95.222C163.079 94.25 164.393 93.494 165.905 92.954C167.453 92.414 169.145 92.144 170.981 92.144C173.033 92.144 175.049 92.54 177.029 93.332C179.045 94.124 180.809 95.276 182.321 96.788L178.271 101.81C177.119 100.91 175.967 100.226 174.815 99.758C173.663 99.254 172.385 99.002 170.981 99.002C169.613 99.002 168.515 99.29 167.687 99.866C166.895 100.406 166.499 101.18 166.499 102.188C166.499 102.728 166.625 103.196 166.877 103.592C167.165 103.952 167.543 104.294 168.011 104.618C168.515 104.906 169.091 105.194 169.739 105.482C170.387 105.734 171.089 106.022 171.845 106.346L176.381 108.182C178.541 109.046 180.233 110.234 181.457 111.746C182.717 113.258 183.347 115.256 183.347 117.74C183.347 119.216 183.041 120.62 182.429 121.952C181.853 123.248 180.989 124.4 179.837 125.408C178.721 126.38 177.335 127.172 175.679 127.784C174.023 128.36 172.151 128.648 170.063 128.648ZM199.66 128.648C197.356 128.648 195.052 128.234 192.748 127.406C190.48 126.542 188.446 125.264 186.646 123.572L191.182 118.118C192.442 119.198 193.828 120.08 195.34 120.764C196.888 121.448 198.4 121.79 199.876 121.79C201.532 121.79 202.756 121.484 203.548 120.872C204.376 120.26 204.79 119.432 204.79 118.388C204.79 117.848 204.664 117.38 204.412 116.984C204.196 116.588 203.854 116.246 203.386 115.958C202.954 115.634 202.414 115.346 201.766 115.094C201.154 114.806 200.47 114.5 199.714 114.176L195.124 112.232C194.224 111.872 193.342 111.404 192.478 110.828C191.65 110.252 190.894 109.586 190.21 108.83C189.562 108.038 189.04 107.138 188.644 106.13C188.248 105.086 188.05 103.916 188.05 102.62C188.05 101.18 188.356 99.83 188.968 98.57C189.58 97.274 190.444 96.158 191.56 95.222C192.676 94.25 193.99 93.494 195.502 92.954C197.05 92.414 198.742 92.144 200.578 92.144C202.63 92.144 204.646 92.54 206.626 93.332C208.642 94.124 210.406 95.276 211.918 96.788L207.868 101.81C206.716 100.91 205.564 100.226 204.412 99.758C203.26 99.254 201.982 99.002 200.578 99.002C199.21 99.002 198.112 99.29 197.284 99.866C196.492 100.406 196.096 101.18 196.096 102.188C196.096 102.728 196.222 103.196 196.474 103.592C196.762 103.952 197.14 104.294 197.608 104.618C198.112 104.906 198.688 105.194 199.336 105.482C199.984 105.734 200.686 106.022 201.442 106.346L205.978 108.182C208.138 109.046 209.83 110.234 211.054 111.746C212.314 113.258 212.944 115.256 212.944 117.74C212.944 119.216 212.638 120.62 212.026 121.952C211.45 123.248 210.586 124.4 209.434 125.408C208.318 126.38 206.932 127.172 205.276 127.784C203.62 128.36 201.748 128.648 199.66 128.648ZM240.476 128.648C238.82 128.648 237.398 128.396 236.21 127.892C235.058 127.388 234.104 126.686 233.348 125.786C232.628 124.886 232.088 123.806 231.728 122.546C231.404 121.25 231.242 119.828 231.242 118.28V107.426H227.57V101.54L231.674 101.216L232.592 94.088H239.18V101.216H245.606V107.426H239.18V118.172C239.18 119.684 239.486 120.782 240.098 121.466C240.746 122.114 241.592 122.438 242.636 122.438C243.068 122.438 243.5 122.384 243.932 122.276C244.4 122.168 244.814 122.042 245.174 121.898L246.416 127.676C245.696 127.892 244.85 128.108 243.878 128.324C242.906 128.54 241.772 128.648 240.476 128.648ZM261.927 128.648C260.235 128.648 258.597 128.342 257.013 127.73C255.429 127.082 254.025 126.164 252.801 124.976C251.613 123.788 250.659 122.33 249.939 120.602C249.219 118.838 248.859 116.84 248.859 114.608C248.859 112.376 249.219 110.396 249.939 108.668C250.659 106.904 251.613 105.428 252.801 104.24C254.025 103.052 255.429 102.152 257.013 101.54C258.597 100.892 260.235 100.568 261.927 100.568C263.619 100.568 265.239 100.892 266.787 101.54C268.371 102.152 269.757 103.052 270.945 104.24C272.169 105.428 273.141 106.904 273.861 108.668C274.581 110.396 274.941 112.376 274.941 114.608C274.941 116.84 274.581 118.838 273.861 120.602C273.141 122.33 272.169 123.788 270.945 124.976C269.757 126.164 268.371 127.082 266.787 127.73C265.239 128.342 263.619 128.648 261.927 128.648ZM261.927 122.222C263.547 122.222 264.771 121.538 265.599 120.17C266.427 118.802 266.841 116.948 266.841 114.608C266.841 112.268 266.427 110.414 265.599 109.046C264.771 107.678 263.547 106.994 261.927 106.994C260.271 106.994 259.029 107.678 258.201 109.046C257.409 110.414 257.013 112.268 257.013 114.608C257.013 116.948 257.409 118.802 258.201 120.17C259.029 121.538 260.271 122.222 261.927 122.222Z" fill="#009CFF"/>
</svg>
