<svg width="130" height="130" viewBox="0 0 130 130" fill="none" xmlns="http://www.w3.org/2000/svg">
<circle opacity="0.02" cx="65" cy="65" r="65" fill="#00FEFE"/>
<circle cx="95.5" cy="95.5" r="34.5" fill="url(#paint0_radial_753_4399)"/>
<path d="M89.2695 66.9697H64.0695C61.5124 66.9697 59.4395 69.0427 59.4395 71.5997V78.7097C59.4395 81.2668 61.5124 83.3397 64.0695 83.3397H89.2695C91.8265 83.3397 93.8995 81.2668 93.8995 78.7097V71.5997C93.8995 69.0427 91.8265 66.9697 89.2695 66.9697Z" stroke="#0000FF" stroke-width="3.26" stroke-linecap="round" stroke-linejoin="round"/>
<path d="M70.0689 77.59C71.4165 77.59 72.5089 76.4975 72.5089 75.15C72.5089 73.8024 71.4165 72.71 70.0689 72.71C68.7213 72.71 67.6289 73.8024 67.6289 75.15C67.6289 76.4975 68.7213 77.59 70.0689 77.59Z" fill="#0000FF"/>
<path d="M83.2798 77.59C84.6274 77.59 85.7198 76.4975 85.7198 75.15C85.7198 73.8024 84.6274 72.71 83.2798 72.71C81.9323 72.71 80.8398 73.8024 80.8398 75.15C80.8398 76.4975 81.9323 77.59 83.2798 77.59Z" fill="#0000FF"/>
<path d="M70.0689 77.59C71.4165 77.59 72.5089 76.4975 72.5089 75.15C72.5089 73.8024 71.4165 72.71 70.0689 72.71C68.7213 72.71 67.6289 73.8024 67.6289 75.15C67.6289 76.4975 68.7213 77.59 70.0689 77.59Z" stroke="#0000FF" stroke-width="0.65" stroke-miterlimit="10"/>
<path d="M70.0689 73.71C70.8689 73.71 71.5089 74.36 71.5089 75.15C71.5089 75.94 70.8589 76.59 70.0689 76.59C69.2789 76.59 68.6289 75.94 68.6289 75.15C68.6289 74.36 69.2789 73.71 70.0689 73.71ZM70.0689 72.71C68.7189 72.71 67.6289 73.8 67.6289 75.15C67.6289 76.5 68.7189 77.59 70.0689 77.59C71.4189 77.59 72.5089 76.5 72.5089 75.15C72.5089 73.8 71.4189 72.71 70.0689 72.71Z" stroke="#0000FF" stroke-width="0.65" stroke-miterlimit="10"/>
<path d="M83.2798 77.59C84.6274 77.59 85.7198 76.4975 85.7198 75.15C85.7198 73.8024 84.6274 72.71 83.2798 72.71C81.9323 72.71 80.8398 73.8024 80.8398 75.15C80.8398 76.4975 81.9323 77.59 83.2798 77.59Z" stroke="#0000FF" stroke-width="0.65" stroke-miterlimit="10"/>
<path d="M83.2798 73.71C84.0798 73.71 84.7198 74.36 84.7198 75.15C84.7198 75.94 84.0698 76.59 83.2798 76.59C82.4898 76.59 81.8398 75.94 81.8398 75.15C81.8398 74.36 82.4898 73.71 83.2798 73.71ZM83.2798 72.71C81.9298 72.71 80.8398 73.8 80.8398 75.15C80.8398 76.5 81.9298 77.59 83.2798 77.59C84.6298 77.59 85.7198 76.5 85.7198 75.15C85.7198 73.8 84.6298 72.71 83.2798 72.71Z" stroke="#0000FF" stroke-width="0.65" stroke-miterlimit="10"/>
<path d="M76.7198 53.1798C78.4926 53.1798 79.9298 51.7426 79.9298 49.9698C79.9298 48.1969 78.4926 46.7598 76.7198 46.7598C74.9469 46.7598 73.5098 48.1969 73.5098 49.9698C73.5098 51.7426 74.9469 53.1798 76.7198 53.1798Z" stroke="#0000FF" stroke-width="3.26" stroke-linecap="round" stroke-linejoin="round"/>
<path d="M76.7188 53.1797V58.6597" stroke="#0000FF" stroke-width="3.26" stroke-linecap="round" stroke-linejoin="round"/>
<path d="M53.2207 69.36V80.33C53.2207 85.33 57.2807 89.39 62.2907 89.39H78.3507L88.0007 98.53V89.39H91.0607C96.0707 89.39 100.131 85.33 100.131 80.33V69.36C100.131 64.35 96.0707 60.29 91.0607 60.29H62.2907C57.2807 60.29 53.2207 64.35 53.2207 69.36Z" stroke="#0000FF" stroke-width="3.02" stroke-linecap="round" stroke-linejoin="round"/>
<path d="M46.68 65.8998H42.78L33.13 75.0398V65.8998H30.07C25.06 65.8998 21 61.8398 21 56.8398V45.8698C21 40.8598 25.06 36.7998 30.07 36.7998H58.84C63.85 36.7998 67.91 40.8598 67.91 45.8698V53.6298" stroke="#0000FF" stroke-width="3.02" stroke-linecap="round" stroke-linejoin="round"/>
<path d="M29.5 46.3994H59.41" stroke="#0000FF" stroke-width="3.02" stroke-linecap="round" stroke-linejoin="round"/>
<path d="M29.5 54.1299H38.21" stroke="#0000FF" stroke-width="3.02" stroke-linecap="round" stroke-linejoin="round"/>
<path d="M47.2109 57.3694L44.4609 54.6194L47.2109 51.8594" stroke="#0000FF" stroke-width="3.02" stroke-linecap="round" stroke-linejoin="round"/>
<path d="M55.4492 51.8594L58.2092 54.6194L55.4492 57.3694" stroke="#0000FF" stroke-width="3.02" stroke-linecap="round" stroke-linejoin="round"/>
<path d="M86.0508 31V39.66" stroke="#0000FF" stroke-width="3.35" stroke-linecap="round" stroke-linejoin="round"/>
<path d="M90.3907 35.3301H81.7207" stroke="#0000FF" stroke-width="3.35" stroke-linecap="round" stroke-linejoin="round"/>
<path d="M41.5 84.7695V93.4395" stroke="#0000FF" stroke-width="3.35" stroke-linecap="round" stroke-linejoin="round"/>
<path d="M45.8399 89.0996H37.1699" stroke="#0000FF" stroke-width="3.35" stroke-linecap="round" stroke-linejoin="round"/>
<path d="M104.461 49.1904V57.8504" stroke="#0000FF" stroke-width="3.35" stroke-linecap="round" stroke-linejoin="round"/>
<path d="M108.791 53.5205H100.131" stroke="#0000FF" stroke-width="3.35" stroke-linecap="round" stroke-linejoin="round"/>
<defs>
<radialGradient id="paint0_radial_753_4399" cx="0" cy="0" r="1" gradientUnits="userSpaceOnUse" gradientTransform="translate(95.5 95.5) rotate(90) scale(34.5)">
<stop offset="0.512152" stop-color="#00FFFF" stop-opacity="0.1"/>
<stop offset="0.829861" stop-color="white" stop-opacity="0"/>
</radialGradient>
</defs>
</svg>
