<?xml version="1.0" encoding="UTF-8"?><svg id="logo" xmlns="http://www.w3.org/2000/svg" viewBox="0 0 215.48 40"><path d="m18.62,18.62c.93,1.05,2.22,1.64,3.54,1.64s2.61-.58,3.54-1.67L41.21,1.17c.39-.43.08-1.13-.51-1.17H3.27c-.55.04-.82.74-.43,1.17l15.77,17.45Z" fill="#5d9bec"/><path d="m1.36,2.18c-.35-.39-.97-.27-1.17.23-.16.39-.19.78-.19,1.21v22.63c.04.58.74.82,1.17.43l11.41-11.06c.27-.27.27-.7.04-.97L1.36,2.18Z" fill="#5d9bec"/><path d="m40.04,30.57c-.23-.47.08-1.01.62-1.01.43,0,.82-.08,1.17-.19.47-.16.62-.78.23-1.17l-11.53-11.18c-.27-.27-.74-.27-1.01.04l-2.45,2.77c-1.29,1.44-3.04,2.26-4.91,2.26h-.04c-1.87,0-3.58-.78-4.87-2.22l-2.57-2.84c-.27-.27-.7-.31-1.01-.04L2.14,28.2c-.35.35-.23.97.23,1.17.35.12.78.19,1.17.19h18.62q.47,0,.9.23l19.24,10.05c.19.12.43.16.62.16.35,0,.7-.16.97-.39.43-.43.51-1.05.23-1.6l-4.09-7.44Z" fill="#5d9bec"/><path d="m44.25,3.58c0-.47-.08-.9-.23-1.32-.19-.47-.82-.58-1.17-.19l-11.18,12.58c-.23.27-.23.7.04.97l11.37,11.02c.43.39,1.13.16,1.17-.43V3.58Z" fill="#5d9bec"/><path d="m18.71,18.63c.97,1.05,2.21,1.63,3.57,1.63h.03c1.35,0,2.6-.61,3.57-1.66L41.41,1.16c.39-.44.08-1.13-.5-1.16H3.37c-.55.03-.83.75-.44,1.16l15.78,17.47Z" fill="#5a98ee"/><path d="m1.38,2.16c-.36-.39-1-.28-1.16.22-.14.39-.22.77-.22,1.22v22.67c.06.58.77.83,1.19.44l11.42-11.09c.28-.25.28-.69.03-.97L1.38,2.16Z" fill="#5a98ee"/><path d="m40.17,30.6c-.25-.47.08-1.02.61-1.02h0c.41,0,.8-.08,1.16-.19.5-.17.61-.8.25-1.16l-11.55-11.22c-.28-.28-.75-.25-1,.03l-2.46,2.76c-1.3,1.47-3.04,2.27-4.89,2.27h-.03c-1.85,0-3.59-.8-4.89-2.24l-2.57-2.85c-.28-.3-.72-.3-1-.03L2.18,28.2c-.36.36-.25,1,.25,1.16.36.14.77.19,1.16.19h18.63q.47,0,.88.22l19.27,10.06c.19.11.41.17.64.17.36,0,.69-.14.97-.41.41-.41.5-1.08.22-1.6l-4.04-7.38Z" fill="#5a98ee"/><path d="m44.4,3.59c0-.47-.08-.91-.25-1.33-.19-.47-.83-.58-1.16-.19l-11.2,12.58c-.25.28-.22.69.03.97l11.39,11.06c.41.41,1.13.14,1.19-.44V3.59Z" fill="#5a98ee"/><path d="m59.24,2.43l8.15,21.76,8.18-21.76h4.7v25.87h-3.26V6.77h-.08l-8.04,21.53h-2.93l-8.07-21.53h-.08v21.53h-3.26V2.43h4.7Z" fill="#5a98ee"/><path d="m96.86,2.43l10.12,25.87h-3.81l-2.82-7.8h-10.95l-2.9,7.8h-3.51l10.09-25.87h3.79Zm2.38,15.18l-4.31-12.08h-.08l-4.4,12.08h8.79Z" fill="#5a98ee"/><path d="m113.09,2.43v25.87h-3.46V2.43h3.46Z" fill="#5a98ee"/><path d="m122.35,2.43v22.97h13.71v2.9h-17.14V2.43h3.43Z" fill="#5a98ee"/><path d="m132.96,5.34v-2.9h20.7v2.9h-8.62v22.97h-3.46V5.34h-8.62Z" fill="#5a98ee"/><path d="m160.11,2.43v25.87h-3.43V2.43h3.43Z" fill="#5a98ee"/><path d="m170.7,2.43l8.15,21.76,8.18-21.76h4.7v25.87h-3.26V6.77h-.08l-8.07,21.53h-2.9l-8.07-21.53h-.08v21.53h-3.26V2.43h4.7Z" fill="#5a98ee"/><path d="m215.37,2.43v2.9h-14.43v8.24h13.46v2.9h-13.46v8.96h14.54v2.87h-17.97V2.43h17.86Z" fill="#5a98ee"/></svg>