<svg width="228" height="40" viewBox="0 0 228 40" fill="none" xmlns="http://www.w3.org/2000/svg">
<path d="M18.6176 18.6173C19.5523 19.6689 20.8376 20.2532 22.1619 20.2532C23.5251 20.2532 24.7714 19.6689 25.7062 18.5784L41.2076 1.16845C41.5971 0.74002 41.2855 0.0389484 40.7013 0C40.6624 0 40.6234 0 40.6234 0H3.54453C3.46664 0 3.38874 0 3.2719 0C2.72662 0.0389484 2.45398 0.74002 2.84346 1.16845L18.6176 18.6173Z" fill="#5D9BEC"/>
<path d="M1.36319 2.18106C1.01266 1.79157 0.389484 1.90842 0.194742 2.41475C0.0389484 2.80423 0 3.19371 0 3.62215V25.9785C0 26.0564 0 26.1733 0 26.2512C0.0389484 26.8354 0.74002 27.0691 1.16845 26.6796L12.5803 15.6183C12.853 15.3456 12.853 14.9172 12.6193 14.6445L1.36319 2.18106Z" fill="#5D9BEC"/>
<path d="M40.0391 30.5749C39.8054 30.1075 40.117 29.5623 40.6623 29.5623C41.0907 29.5623 41.4802 29.4844 41.8307 29.3675C42.2981 29.2117 42.4539 28.5886 42.0644 28.1991L30.5357 17.0209C30.263 16.7483 29.7957 16.7483 29.523 17.0598L27.0693 19.8252C25.784 21.2663 24.0313 22.0842 22.1618 22.0842C22.1618 22.0842 22.1618 22.0842 22.1228 22.0842C20.2533 22.0842 18.5396 21.3052 17.2543 19.8641L14.6837 17.0209C14.411 16.7483 13.9826 16.7093 13.671 16.9819L2.14229 28.1991C1.79176 28.5496 1.9086 29.1728 2.37598 29.3675C2.72652 29.4844 3.15495 29.5623 3.54444 29.5623H22.1618C22.6291 29.5623 22.6292 29.5623 23.0576 29.796L42.2981 39.8446C42.4928 39.9615 42.7265 40.0004 42.9213 40.0004C43.2718 40.0004 43.6223 39.8446 43.895 39.611C44.3234 39.1825 44.4013 38.5594 44.1287 38.0141L40.0391 30.5749Z" fill="#5D9BEC"/>
<path d="M44.2452 3.58353C44.2452 3.11615 44.1673 2.68771 44.0115 2.25928C43.8167 1.7919 43.1935 1.67506 42.843 2.06454L31.6648 14.6449C31.4311 14.9175 31.4311 15.3459 31.7038 15.6186L43.0767 26.641C43.5051 27.0305 44.2062 26.7968 44.2452 26.2125C44.2452 26.1347 44.2452 26.0178 44.2452 25.9399V3.58353Z" fill="#5D9BEC"/>
<path d="M61.8886 0.895508L70.5351 23.914L79.2206 0.895508H84.206V28.2762H80.7396V5.49142H80.6617L72.0931 28.2762H68.9772L60.4086 5.49142H60.3307V28.2762H56.8643V0.895508H61.8886Z" fill="#5D9BEC"/>
<path d="M101.732 0.895508L112.443 28.2762H108.431L105.432 20.0192H93.8648L90.7879 28.2762H87.0488L97.7207 0.895508H101.732ZM104.264 16.9812L99.7071 4.20612H99.6292L94.9943 16.9812H104.264Z" fill="#5D9BEC"/>
<path d="M118.909 0.895508V28.2762H115.248V0.895508H118.909Z" fill="#5D9BEC"/>
<path d="M128.685 0.895508V25.2383H143.173V28.3152H125.023V0.895508H128.685Z" fill="#5D9BEC"/>
<path d="M139.941 3.97243V0.895508H161.83V3.97243H152.716V28.3152H149.055V3.97243H139.941Z" fill="#5D9BEC"/>
<path d="M168.686 0.895508V28.2762H165.024V0.895508H168.686Z" fill="#5D9BEC"/>
<path d="M179.863 0.895508L188.51 23.914L197.195 0.895508H202.181V28.2762H198.714V5.49142H198.636L190.068 28.2762H186.952L178.383 5.49142H178.305V28.2762H174.839V0.895508H179.863Z" fill="#5D9BEC"/>
<path d="M227.147 0.895508V3.97243H211.879V12.6969H226.095V15.7738H211.879V25.2383H227.264V28.3152H208.218V0.895508H227.147Z" fill="#5D9BEC"/>
</svg>
