<svg width="298" height="64" viewBox="0 0 298 64" fill="none" xmlns="http://www.w3.org/2000/svg">
<g clip-path="url(#clip0_1144_4901)">
<path d="M39.5691 54.8293C39.1491 54.8293 38.7441 54.7193 38.3841 54.5193L21.3141 45.6043L4.91414 45.6443L4.61414 45.6343H4.59914C2.42914 45.6343 0.649141 43.9443 0.504141 41.8143L0.494141 41.7943V41.5343H0.499141L0.504141 21.3743C0.499141 18.9993 2.33914 17.1543 4.60414 17.1543H4.93414H37.8991C40.0491 17.1543 41.8391 18.8243 41.9941 20.9643C42.0191 21.1593 42.0391 21.3593 42.0391 21.5643L41.9991 41.8093C41.8691 43.6893 40.4641 45.2343 38.6391 45.5643L41.7141 51.1943C42.2241 52.1643 42.0541 53.3443 41.3091 54.0943C40.8391 54.5643 40.2191 54.8243 39.5691 54.8243V54.8293ZM3.00914 41.2043V41.5043C3.00914 42.4143 3.72914 43.1343 4.60914 43.1343H4.91414H21.2941C21.9091 43.1343 22.1141 43.1843 22.6591 43.4743L39.5891 52.3143L35.9641 45.9143C35.6441 45.3143 35.6641 44.6243 36.0041 44.0593C36.3441 43.4943 36.9391 43.1593 37.5991 43.1593C37.6841 43.1593 37.7591 43.1493 37.8391 43.1393C38.8041 43.0893 39.4741 42.4093 39.4991 41.5743L39.5291 41.2343V21.5693C39.5291 21.4693 39.5191 21.3693 39.5041 21.2743L39.4941 21.1693C39.4441 20.3243 38.7441 19.6643 37.8991 19.6643H4.65914C3.71914 19.7493 3.00914 20.3793 3.00914 21.2643V41.2043Z" fill="#0000FF"/>
<path d="M11.7503 32.0905C12.8853 32.0905 13.8053 31.1704 13.8053 30.0355C13.8053 28.9005 12.8853 27.9805 11.7503 27.9805C10.6154 27.9805 9.69531 28.9005 9.69531 30.0355C9.69531 31.1704 10.6154 32.0905 11.7503 32.0905Z" fill="#0000FF"/>
<path d="M21.2659 32.0905C22.4009 32.0905 23.3209 31.1704 23.3209 30.0355C23.3209 28.9005 22.4009 27.9805 21.2659 27.9805C20.131 27.9805 19.2109 28.9005 19.2109 30.0355C19.2109 31.1704 20.131 32.0905 21.2659 32.0905Z" fill="#0000FF"/>
<path d="M30.7796 32.0905C31.9146 32.0905 32.8346 31.1704 32.8346 30.0355C32.8346 28.9005 31.9146 27.9805 30.7796 27.9805C29.6447 27.9805 28.7246 28.9005 28.7246 30.0355C28.7246 31.1704 29.6447 32.0905 30.7796 32.0905Z" fill="#0000FF"/>
<path d="M24.1795 33.9355H18.3445C17.6795 33.9355 17.1345 34.5755 17.3445 35.2105C17.8845 36.8605 19.4295 38.0505 21.2595 38.0505C23.0895 38.0505 24.6395 36.8555 25.1745 35.2105C25.3845 34.5755 24.8395 33.9355 24.1745 33.9355H24.1795Z" fill="#0000FF"/>
<path d="M22.5256 13.2148H20.0156V18.4098H22.5256V13.2148Z" fill="#0000FF"/>
<path d="M21.2702 14.47C18.9352 14.47 17.0352 12.57 17.0352 10.235C17.0352 7.9 18.9352 6 21.2702 6C23.6052 6 25.5052 7.9 25.5052 10.235C25.5052 12.57 23.6052 14.47 21.2702 14.47ZM21.2702 8.51C20.3202 8.51 19.5452 9.285 19.5452 10.235C19.5452 11.185 20.3202 11.96 21.2702 11.96C22.2202 11.96 22.9952 11.185 22.9952 10.235C22.9952 9.285 22.2202 8.51 21.2702 8.51Z" fill="#0000FF"/>
</g>
<path d="M55.321 47V15.704H63.049L68.089 29.624C68.409 30.552 68.713 31.512 69.001 32.504C69.289 33.464 69.593 34.424 69.913 35.384H70.105C70.425 34.424 70.713 33.464 70.969 32.504C71.257 31.512 71.561 30.552 71.881 29.624L76.825 15.704H84.505V47H78.073V35.528C78.073 34.76 78.105 33.912 78.169 32.984C78.233 32.056 78.313 31.128 78.409 30.2C78.505 29.24 78.601 28.312 78.697 27.416C78.793 26.488 78.889 25.64 78.985 24.872H78.793L76.249 32.312L71.785 44.264H67.897L63.433 32.312L60.937 24.872H60.745C60.841 25.64 60.937 26.488 61.033 27.416C61.129 28.312 61.225 29.24 61.321 30.2C61.417 31.128 61.497 32.056 61.561 32.984C61.625 33.912 61.657 34.76 61.657 35.528V47H55.321ZM97.3075 47.576C96.2195 47.576 95.2275 47.384 94.3315 47C93.4675 46.648 92.7315 46.152 92.1235 45.512C91.5155 44.84 91.0355 44.072 90.6835 43.208C90.3635 42.344 90.2035 41.4 90.2035 40.376C90.2035 37.88 91.2595 35.928 93.3715 34.52C95.4835 33.112 98.8915 32.168 103.596 31.688C103.532 30.632 103.212 29.8 102.636 29.192C102.092 28.552 101.164 28.232 99.8515 28.232C98.8275 28.232 97.8035 28.424 96.7795 28.808C95.7875 29.192 94.7155 29.72 93.5635 30.392L91.0195 25.736C92.5555 24.808 94.1555 24.056 95.8195 23.48C97.5155 22.904 99.3075 22.616 101.196 22.616C104.268 22.616 106.604 23.496 108.204 25.256C109.836 26.984 110.652 29.688 110.652 33.368V47H104.892L104.412 44.552H104.22C103.196 45.448 102.124 46.184 101.004 46.76C99.8835 47.304 98.6515 47.576 97.3075 47.576ZM99.7075 42.104C100.508 42.104 101.196 41.928 101.772 41.576C102.348 41.224 102.956 40.728 103.596 40.088V35.912C101.1 36.264 99.3715 36.776 98.4115 37.448C97.4515 38.12 96.9715 38.92 96.9715 39.848C96.9715 40.616 97.2115 41.192 97.6915 41.576C98.2035 41.928 98.8755 42.104 99.7075 42.104ZM116.62 47V23.192H123.676V47H116.62ZM120.124 19.688C118.94 19.688 117.964 19.352 117.196 18.68C116.428 17.976 116.044 17.08 116.044 15.992C116.044 14.904 116.428 14.024 117.196 13.352C117.964 12.68 118.94 12.344 120.124 12.344C121.34 12.344 122.316 12.68 123.052 13.352C123.82 14.024 124.204 14.904 124.204 15.992C124.204 17.08 123.82 17.976 123.052 18.68C122.316 19.352 121.34 19.688 120.124 19.688ZM136.366 47.576C135.15 47.576 134.126 47.384 133.294 47C132.462 46.616 131.79 46.088 131.278 45.416C130.798 44.712 130.446 43.88 130.222 42.92C129.998 41.928 129.886 40.824 129.886 39.608V13.352H136.942V39.896C136.942 40.632 137.07 41.144 137.326 41.432C137.614 41.72 137.902 41.864 138.19 41.864C138.35 41.864 138.478 41.864 138.574 41.864C138.702 41.864 138.862 41.832 139.054 41.768L139.918 47C139.534 47.16 139.038 47.288 138.43 47.384C137.854 47.512 137.166 47.576 136.366 47.576ZM150.292 47V21.656H141.7V15.704H165.988V21.656H157.396V47H150.292ZM170.292 47V23.192H177.348V47H170.292ZM173.796 19.688C172.612 19.688 171.636 19.352 170.868 18.68C170.1 17.976 169.716 17.08 169.716 15.992C169.716 14.904 170.1 14.024 170.868 13.352C171.636 12.68 172.612 12.344 173.796 12.344C175.012 12.344 175.988 12.68 176.724 13.352C177.492 14.024 177.876 14.904 177.876 15.992C177.876 17.08 177.492 17.976 176.724 18.68C175.988 19.352 175.012 19.688 173.796 19.688ZM183.558 47V23.192H189.318L189.798 26.264H189.99C190.982 25.272 192.038 24.424 193.158 23.72C194.278 22.984 195.622 22.616 197.19 22.616C198.886 22.616 200.246 22.968 201.27 23.672C202.326 24.344 203.158 25.32 203.766 26.6C204.822 25.512 205.926 24.584 207.078 23.816C208.262 23.016 209.654 22.616 211.254 22.616C213.814 22.616 215.686 23.48 216.87 25.208C218.086 26.904 218.694 29.24 218.694 32.216V47H211.638V33.128C211.638 31.4 211.398 30.216 210.918 29.576C210.47 28.936 209.734 28.616 208.71 28.616C207.526 28.616 206.166 29.384 204.63 30.92V47H197.574V33.128C197.574 31.4 197.334 30.216 196.854 29.576C196.406 28.936 195.67 28.616 194.646 28.616C193.43 28.616 192.086 29.384 190.614 30.92V47H183.558ZM235.37 47.576C233.674 47.576 232.09 47.304 230.618 46.76C229.146 46.184 227.866 45.368 226.778 44.312C225.69 43.224 224.842 41.912 224.234 40.376C223.626 38.84 223.322 37.08 223.322 35.096C223.322 33.176 223.642 31.448 224.282 29.912C224.922 28.344 225.754 27.032 226.778 25.976C227.834 24.888 229.034 24.056 230.378 23.48C231.722 22.904 233.114 22.616 234.554 22.616C236.25 22.616 237.722 22.904 238.97 23.48C240.25 24.056 241.306 24.856 242.138 25.88C243.002 26.904 243.642 28.12 244.058 29.528C244.474 30.904 244.682 32.408 244.682 34.04C244.682 34.68 244.65 35.288 244.586 35.864C244.522 36.44 244.458 36.872 244.394 37.16H230.138C230.458 38.888 231.162 40.168 232.25 41C233.37 41.8 234.73 42.2 236.33 42.2C238.026 42.2 239.738 41.672 241.466 40.616L243.818 44.888C242.602 45.72 241.242 46.376 239.738 46.856C238.266 47.336 236.81 47.576 235.37 47.576ZM230.09 32.504H238.682C238.682 31.16 238.378 30.072 237.77 29.24C237.162 28.408 236.138 27.992 234.698 27.992C233.578 27.992 232.586 28.36 231.722 29.096C230.89 29.832 230.346 30.968 230.09 32.504ZM267.087 31.16L266.319 34.04H272.991L272.271 31.16C271.823 29.592 271.391 27.928 270.975 26.168C270.559 24.408 270.143 22.712 269.727 21.08H269.535C269.151 22.744 268.751 24.456 268.335 26.216C267.951 27.944 267.535 29.592 267.087 31.16ZM255.759 47L265.551 15.704H274.047L283.839 47H276.351L274.431 39.56H264.879L262.959 47H255.759ZM287.259 47V15.704H294.315V47H287.259Z" fill="#0000FF"/>
<path d="M161.467 61V53.176H164.155C164.587 53.176 164.991 53.22 165.367 53.308C165.743 53.388 166.071 53.528 166.351 53.728C166.631 53.92 166.851 54.18 167.011 54.508C167.179 54.828 167.263 55.224 167.263 55.696C167.263 56.152 167.179 56.548 167.011 56.884C166.851 57.22 166.631 57.496 166.351 57.712C166.071 57.928 165.747 58.088 165.379 58.192C165.011 58.296 164.619 58.348 164.203 58.348H163.231V61H161.467ZM163.231 56.944H164.095C165.055 56.944 165.535 56.528 165.535 55.696C165.535 55.288 165.407 55 165.151 54.832C164.895 54.664 164.527 54.58 164.047 54.58H163.231V56.944ZM170.77 61.144C170.394 61.144 170.03 61.076 169.678 60.94C169.326 60.796 169.014 60.592 168.742 60.328C168.478 60.064 168.266 59.74 168.106 59.356C167.946 58.964 167.866 58.52 167.866 58.024C167.866 57.528 167.946 57.088 168.106 56.704C168.266 56.312 168.478 55.984 168.742 55.72C169.014 55.456 169.326 55.256 169.678 55.12C170.03 54.976 170.394 54.904 170.77 54.904C171.146 54.904 171.506 54.976 171.85 55.12C172.202 55.256 172.51 55.456 172.774 55.72C173.046 55.984 173.262 56.312 173.422 56.704C173.582 57.088 173.662 57.528 173.662 58.024C173.662 58.52 173.582 58.964 173.422 59.356C173.262 59.74 173.046 60.064 172.774 60.328C172.51 60.592 172.202 60.796 171.85 60.94C171.506 61.076 171.146 61.144 170.77 61.144ZM170.77 59.716C171.13 59.716 171.402 59.564 171.586 59.26C171.77 58.956 171.862 58.544 171.862 58.024C171.862 57.504 171.77 57.092 171.586 56.788C171.402 56.484 171.13 56.332 170.77 56.332C170.402 56.332 170.126 56.484 169.942 56.788C169.766 57.092 169.678 57.504 169.678 58.024C169.678 58.544 169.766 58.956 169.942 59.26C170.126 59.564 170.402 59.716 170.77 59.716ZM175.772 61L174.284 55.048H176.036L176.612 57.808C176.66 58.104 176.704 58.396 176.744 58.684C176.784 58.972 176.828 59.268 176.876 59.572H176.924C176.98 59.268 177.032 58.968 177.08 58.672C177.136 58.376 177.2 58.088 177.272 57.808L177.932 55.048H179.456L180.128 57.808C180.2 58.104 180.264 58.396 180.32 58.684C180.376 58.972 180.436 59.268 180.5 59.572H180.548C180.604 59.268 180.648 58.972 180.68 58.684C180.72 58.396 180.768 58.104 180.824 57.808L181.388 55.048H183.02L181.592 61H179.528L178.988 58.624C178.924 58.344 178.868 58.064 178.82 57.784C178.772 57.504 178.72 57.204 178.664 56.884H178.616C178.56 57.204 178.508 57.504 178.46 57.784C178.42 58.064 178.372 58.344 178.316 58.624L177.788 61H175.772ZM186.663 61.144C186.239 61.144 185.843 61.076 185.475 60.94C185.107 60.796 184.787 60.592 184.515 60.328C184.243 60.056 184.031 59.728 183.879 59.344C183.727 58.96 183.651 58.52 183.651 58.024C183.651 57.544 183.731 57.112 183.891 56.728C184.051 56.336 184.259 56.008 184.515 55.744C184.779 55.472 185.079 55.264 185.415 55.12C185.751 54.976 186.099 54.904 186.459 54.904C186.883 54.904 187.251 54.976 187.563 55.12C187.883 55.264 188.147 55.464 188.355 55.72C188.571 55.976 188.731 56.28 188.835 56.632C188.939 56.976 188.991 57.352 188.991 57.76C188.991 57.92 188.983 58.072 188.967 58.216C188.951 58.36 188.935 58.468 188.919 58.54H185.355C185.435 58.972 185.611 59.292 185.883 59.5C186.163 59.7 186.503 59.8 186.903 59.8C187.327 59.8 187.755 59.668 188.187 59.404L188.775 60.472C188.471 60.68 188.131 60.844 187.755 60.964C187.387 61.084 187.023 61.144 186.663 61.144ZM185.343 57.376H187.491C187.491 57.04 187.415 56.768 187.263 56.56C187.111 56.352 186.855 56.248 186.495 56.248C186.215 56.248 185.967 56.34 185.751 56.524C185.543 56.708 185.407 56.992 185.343 57.376ZM190.21 61V55.048H191.65L191.77 56.092H191.818C192.034 55.684 192.294 55.384 192.598 55.192C192.902 55 193.206 54.904 193.51 54.904C193.678 54.904 193.814 54.916 193.918 54.94C194.03 54.956 194.13 54.984 194.218 55.024L193.93 56.548C193.818 56.516 193.714 56.492 193.618 56.476C193.522 56.46 193.41 56.452 193.282 56.452C193.058 56.452 192.822 56.532 192.574 56.692C192.334 56.852 192.134 57.136 191.974 57.544V61H190.21ZM197.538 61.144C197.114 61.144 196.718 61.076 196.35 60.94C195.982 60.796 195.662 60.592 195.39 60.328C195.118 60.056 194.906 59.728 194.754 59.344C194.602 58.96 194.526 58.52 194.526 58.024C194.526 57.544 194.606 57.112 194.766 56.728C194.926 56.336 195.134 56.008 195.39 55.744C195.654 55.472 195.954 55.264 196.29 55.12C196.626 54.976 196.974 54.904 197.334 54.904C197.758 54.904 198.126 54.976 198.438 55.12C198.758 55.264 199.022 55.464 199.23 55.72C199.446 55.976 199.606 56.28 199.71 56.632C199.814 56.976 199.866 57.352 199.866 57.76C199.866 57.92 199.858 58.072 199.842 58.216C199.826 58.36 199.81 58.468 199.794 58.54H196.23C196.31 58.972 196.486 59.292 196.758 59.5C197.038 59.7 197.378 59.8 197.778 59.8C198.202 59.8 198.63 59.668 199.062 59.404L199.65 60.472C199.346 60.68 199.006 60.844 198.63 60.964C198.262 61.084 197.898 61.144 197.538 61.144ZM196.218 57.376H198.366C198.366 57.04 198.29 56.768 198.138 56.56C197.986 56.352 197.73 56.248 197.37 56.248C197.09 56.248 196.842 56.34 196.626 56.524C196.418 56.708 196.282 56.992 196.218 57.376ZM203.209 61.144C202.841 61.144 202.505 61.072 202.201 60.928C201.905 60.784 201.649 60.58 201.433 60.316C201.225 60.044 201.061 59.716 200.941 59.332C200.829 58.948 200.773 58.512 200.773 58.024C200.773 57.536 200.841 57.1 200.977 56.716C201.121 56.332 201.305 56.008 201.529 55.744C201.761 55.472 202.025 55.264 202.321 55.12C202.625 54.976 202.933 54.904 203.245 54.904C203.581 54.904 203.857 54.96 204.073 55.072C204.289 55.184 204.501 55.336 204.709 55.528L204.637 54.616V52.588H206.401V61H204.961L204.841 60.412H204.793C204.585 60.62 204.341 60.796 204.061 60.94C203.781 61.076 203.497 61.144 203.209 61.144ZM203.665 59.704C203.857 59.704 204.029 59.664 204.181 59.584C204.341 59.504 204.493 59.364 204.637 59.164V56.728C204.477 56.584 204.313 56.484 204.145 56.428C203.977 56.372 203.813 56.344 203.653 56.344C203.373 56.344 203.125 56.48 202.909 56.752C202.693 57.016 202.585 57.432 202.585 58C202.585 58.592 202.677 59.024 202.861 59.296C203.053 59.568 203.321 59.704 203.665 59.704ZM210.51 61V53.176H213.186C213.594 53.176 213.97 53.208 214.314 53.272C214.666 53.328 214.97 53.432 215.226 53.584C215.49 53.736 215.694 53.936 215.838 54.184C215.99 54.432 216.066 54.744 216.066 55.12C216.066 55.296 216.042 55.472 215.994 55.648C215.946 55.824 215.878 55.988 215.79 56.14C215.702 56.292 215.594 56.428 215.466 56.548C215.346 56.668 215.206 56.756 215.046 56.812V56.86C215.246 56.908 215.43 56.984 215.598 57.088C215.766 57.184 215.914 57.308 216.042 57.46C216.17 57.612 216.27 57.792 216.342 58C216.414 58.2 216.45 58.432 216.45 58.696C216.45 59.096 216.37 59.44 216.21 59.728C216.058 60.016 215.842 60.256 215.562 60.448C215.29 60.632 214.97 60.772 214.602 60.868C214.234 60.956 213.838 61 213.414 61H210.51ZM212.274 56.308H213.102C213.534 56.308 213.846 56.224 214.038 56.056C214.238 55.888 214.338 55.664 214.338 55.384C214.338 55.08 214.238 54.864 214.038 54.736C213.838 54.608 213.53 54.544 213.114 54.544H212.274V56.308ZM212.274 59.632H213.27C214.238 59.632 214.722 59.28 214.722 58.576C214.722 58.232 214.602 57.988 214.362 57.844C214.122 57.692 213.758 57.616 213.27 57.616H212.274V59.632ZM218.081 63.328C217.897 63.328 217.741 63.316 217.613 63.292C217.485 63.276 217.361 63.248 217.241 63.208L217.553 61.864C217.609 61.88 217.673 61.896 217.745 61.912C217.817 61.928 217.885 61.936 217.949 61.936C218.245 61.936 218.473 61.864 218.633 61.72C218.793 61.576 218.913 61.388 218.993 61.156L219.077 60.844L216.785 55.048H218.561L219.413 57.604C219.501 57.876 219.581 58.152 219.653 58.432C219.725 58.712 219.801 59 219.881 59.296H219.929C219.993 59.016 220.057 58.736 220.121 58.456C220.193 58.168 220.265 57.884 220.337 57.604L221.057 55.048H222.749L220.685 61.06C220.541 61.436 220.389 61.764 220.229 62.044C220.077 62.332 219.897 62.568 219.689 62.752C219.489 62.944 219.257 63.088 218.993 63.184C218.737 63.28 218.433 63.328 218.081 63.328ZM229.681 61.144C229.145 61.144 228.641 61.06 228.169 60.892C227.705 60.716 227.301 60.46 226.957 60.124C226.613 59.788 226.341 59.372 226.141 58.876C225.949 58.372 225.853 57.792 225.853 57.136C225.853 56.488 225.953 55.912 226.153 55.408C226.353 54.896 226.625 54.464 226.969 54.112C227.321 53.76 227.729 53.492 228.193 53.308C228.657 53.124 229.149 53.032 229.669 53.032C230.237 53.032 230.725 53.136 231.133 53.344C231.541 53.552 231.873 53.788 232.129 54.052L231.205 55.18C231.005 55.004 230.793 54.856 230.569 54.736C230.345 54.616 230.065 54.556 229.729 54.556C229.425 54.556 229.145 54.616 228.889 54.736C228.641 54.848 228.425 55.012 228.241 55.228C228.057 55.444 227.913 55.708 227.809 56.02C227.713 56.332 227.665 56.684 227.665 57.076C227.665 57.884 227.845 58.512 228.205 58.96C228.573 59.4 229.125 59.62 229.861 59.62C230.021 59.62 230.177 59.6 230.329 59.56C230.481 59.52 230.605 59.46 230.701 59.38V58.036H229.405V56.596H232.261V60.196C231.989 60.46 231.629 60.684 231.181 60.868C230.733 61.052 230.233 61.144 229.681 61.144ZM236.397 61.144C235.973 61.144 235.577 61.076 235.209 60.94C234.841 60.796 234.521 60.592 234.249 60.328C233.977 60.056 233.765 59.728 233.613 59.344C233.461 58.96 233.385 58.52 233.385 58.024C233.385 57.544 233.465 57.112 233.625 56.728C233.785 56.336 233.993 56.008 234.249 55.744C234.513 55.472 234.813 55.264 235.149 55.12C235.485 54.976 235.833 54.904 236.193 54.904C236.617 54.904 236.985 54.976 237.297 55.12C237.617 55.264 237.881 55.464 238.089 55.72C238.305 55.976 238.465 56.28 238.569 56.632C238.673 56.976 238.725 57.352 238.725 57.76C238.725 57.92 238.717 58.072 238.701 58.216C238.685 58.36 238.669 58.468 238.653 58.54H235.089C235.169 58.972 235.345 59.292 235.617 59.5C235.897 59.7 236.237 59.8 236.637 59.8C237.061 59.8 237.489 59.668 237.921 59.404L238.509 60.472C238.205 60.68 237.865 60.844 237.489 60.964C237.121 61.084 236.757 61.144 236.397 61.144ZM235.077 57.376H237.225C237.225 57.04 237.149 56.768 236.997 56.56C236.845 56.352 236.589 56.248 236.229 56.248C235.949 56.248 235.701 56.34 235.485 56.524C235.277 56.708 235.141 56.992 235.077 57.376ZM239.944 61V55.048H241.384L241.504 55.804H241.552C241.808 55.564 242.088 55.356 242.392 55.18C242.696 54.996 243.052 54.904 243.46 54.904C244.108 54.904 244.576 55.116 244.864 55.54C245.16 55.964 245.308 56.552 245.308 57.304V61H243.544V57.532C243.544 57.1 243.484 56.804 243.364 56.644C243.252 56.484 243.068 56.404 242.812 56.404C242.588 56.404 242.396 56.456 242.236 56.56C242.076 56.656 241.9 56.796 241.708 56.98V61H239.944ZM249.475 61.144C249.051 61.144 248.655 61.076 248.287 60.94C247.919 60.796 247.599 60.592 247.327 60.328C247.055 60.056 246.843 59.728 246.691 59.344C246.539 58.96 246.463 58.52 246.463 58.024C246.463 57.544 246.543 57.112 246.703 56.728C246.863 56.336 247.071 56.008 247.327 55.744C247.591 55.472 247.891 55.264 248.227 55.12C248.563 54.976 248.911 54.904 249.271 54.904C249.695 54.904 250.063 54.976 250.375 55.12C250.695 55.264 250.959 55.464 251.167 55.72C251.383 55.976 251.543 56.28 251.647 56.632C251.751 56.976 251.803 57.352 251.803 57.76C251.803 57.92 251.795 58.072 251.779 58.216C251.763 58.36 251.747 58.468 251.731 58.54H248.167C248.247 58.972 248.423 59.292 248.695 59.5C248.975 59.7 249.315 59.8 249.715 59.8C250.139 59.8 250.567 59.668 250.999 59.404L251.587 60.472C251.283 60.68 250.943 60.844 250.567 60.964C250.199 61.084 249.835 61.144 249.475 61.144ZM248.155 57.376H250.303C250.303 57.04 250.227 56.768 250.075 56.56C249.923 56.352 249.667 56.248 249.307 56.248C249.027 56.248 248.779 56.34 248.563 56.524C248.355 56.708 248.219 56.992 248.155 57.376ZM253.022 61V55.048H254.462L254.582 56.092H254.63C254.846 55.684 255.106 55.384 255.41 55.192C255.714 55 256.018 54.904 256.322 54.904C256.49 54.904 256.626 54.916 256.73 54.94C256.842 54.956 256.942 54.984 257.03 55.024L256.742 56.548C256.63 56.516 256.526 56.492 256.43 56.476C256.334 56.46 256.222 56.452 256.094 56.452C255.87 56.452 255.634 56.532 255.386 56.692C255.146 56.852 254.946 57.136 254.786 57.544V61H253.022ZM258.964 61.144C258.692 61.144 258.444 61.096 258.22 61C258.004 60.912 257.82 60.788 257.668 60.628C257.516 60.46 257.396 60.268 257.308 60.052C257.228 59.836 257.188 59.6 257.188 59.344C257.188 58.72 257.452 58.232 257.98 57.88C258.508 57.528 259.36 57.292 260.536 57.172C260.52 56.908 260.44 56.7 260.296 56.548C260.16 56.388 259.928 56.308 259.6 56.308C259.344 56.308 259.088 56.356 258.832 56.452C258.584 56.548 258.316 56.68 258.028 56.848L257.392 55.684C257.776 55.452 258.176 55.264 258.592 55.12C259.016 54.976 259.464 54.904 259.936 54.904C260.704 54.904 261.288 55.124 261.688 55.564C262.096 55.996 262.3 56.672 262.3 57.592V61H260.86L260.74 60.388H260.692C260.436 60.612 260.168 60.796 259.888 60.94C259.608 61.076 259.3 61.144 258.964 61.144ZM259.564 59.776C259.764 59.776 259.936 59.732 260.08 59.644C260.224 59.556 260.376 59.432 260.536 59.272V58.228C259.912 58.316 259.48 58.444 259.24 58.612C259 58.78 258.88 58.98 258.88 59.212C258.88 59.404 258.94 59.548 259.06 59.644C259.188 59.732 259.356 59.776 259.564 59.776ZM265.873 61.144C265.505 61.144 265.189 61.088 264.925 60.976C264.669 60.864 264.457 60.708 264.289 60.508C264.129 60.308 264.009 60.068 263.929 59.788C263.857 59.5 263.821 59.184 263.821 58.84V56.428H263.005V55.12L263.917 55.048L264.121 53.464H265.585V55.048H267.013V56.428H265.585V58.816C265.585 59.152 265.653 59.396 265.789 59.548C265.933 59.692 266.121 59.764 266.353 59.764C266.449 59.764 266.545 59.752 266.641 59.728C266.745 59.704 266.837 59.676 266.917 59.644L267.193 60.928C267.033 60.976 266.845 61.024 266.629 61.072C266.413 61.12 266.161 61.144 265.873 61.144ZM268.175 61V55.048H269.939V61H268.175ZM269.051 54.172C268.755 54.172 268.511 54.088 268.319 53.92C268.127 53.744 268.031 53.52 268.031 53.248C268.031 52.976 268.127 52.756 268.319 52.588C268.511 52.42 268.755 52.336 269.051 52.336C269.355 52.336 269.599 52.42 269.783 52.588C269.975 52.756 270.071 52.976 270.071 53.248C270.071 53.52 269.975 53.744 269.783 53.92C269.599 54.088 269.355 54.172 269.051 54.172ZM272.859 61L270.855 55.048H272.631L273.399 57.856C273.479 58.152 273.555 58.456 273.627 58.768C273.707 59.072 273.787 59.38 273.867 59.692H273.915C273.987 59.38 274.059 59.072 274.131 58.768C274.211 58.456 274.291 58.152 274.371 57.856L275.151 55.048H276.843L274.899 61H272.859ZM280.342 61.144C279.918 61.144 279.522 61.076 279.154 60.94C278.786 60.796 278.466 60.592 278.194 60.328C277.922 60.056 277.71 59.728 277.558 59.344C277.406 58.96 277.33 58.52 277.33 58.024C277.33 57.544 277.41 57.112 277.57 56.728C277.73 56.336 277.938 56.008 278.194 55.744C278.458 55.472 278.758 55.264 279.094 55.12C279.43 54.976 279.778 54.904 280.138 54.904C280.562 54.904 280.93 54.976 281.242 55.12C281.562 55.264 281.826 55.464 282.034 55.72C282.25 55.976 282.41 56.28 282.514 56.632C282.618 56.976 282.67 57.352 282.67 57.76C282.67 57.92 282.662 58.072 282.646 58.216C282.63 58.36 282.614 58.468 282.598 58.54H279.034C279.114 58.972 279.29 59.292 279.562 59.5C279.842 59.7 280.182 59.8 280.582 59.8C281.006 59.8 281.434 59.668 281.866 59.404L282.454 60.472C282.15 60.68 281.81 60.844 281.434 60.964C281.066 61.084 280.702 61.144 280.342 61.144ZM279.022 57.376H281.17C281.17 57.04 281.094 56.768 280.942 56.56C280.79 56.352 280.534 56.248 280.174 56.248C279.894 56.248 279.646 56.34 279.43 56.524C279.222 56.708 279.086 56.992 279.022 57.376ZM288.272 57.04L288.08 57.76H289.748L289.568 57.04C289.456 56.648 289.348 56.232 289.244 55.792C289.14 55.352 289.036 54.928 288.932 54.52H288.884C288.788 54.936 288.688 55.364 288.584 55.804C288.488 56.236 288.384 56.648 288.272 57.04ZM285.44 61L287.888 53.176H290.012L292.46 61H290.588L290.108 59.14H287.72L287.24 61H285.44ZM293.315 61V53.176H295.079V61H293.315Z" fill="#0000FF"/>
<defs>
<clipPath id="clip0_1144_4901">
<rect width="42.5" height="49" fill="white" transform="translate(0 6)"/>
</clipPath>
</defs>
</svg>
