<svg width="298" height="64" viewBox="0 0 298 64" fill="none" xmlns="http://www.w3.org/2000/svg">
<path fill-rule="evenodd" clip-rule="evenodd" d="M17.0352 10.235C17.0352 12.1334 18.2911 13.7443 20.0156 14.2803V17.1553H4.93414H4.60414C2.33914 17.1553 0.499141 19.0003 0.504141 21.3753L0.499141 41.5353H0.494141V41.7953L0.504141 41.8153C0.649141 43.9453 2.42914 45.6353 4.59914 45.6353H4.61414L4.91414 45.6453L21.3141 45.6053L38.3841 54.5203C38.7441 54.7203 39.1491 54.8303 39.5691 54.8303V54.8253C40.2191 54.8253 40.8391 54.5653 41.3091 54.0953C42.0541 53.3453 42.2241 52.1653 41.7141 51.1953L38.6391 45.5653C40.4641 45.2353 41.8691 43.6903 41.9991 41.8103L42.0391 21.5653C42.0391 21.3603 42.0191 21.1603 41.9941 20.9653C41.8391 18.8253 40.0491 17.1553 37.8991 17.1553H22.5256V14.28C24.2497 13.7437 25.5052 12.1331 25.5052 10.235C25.5052 7.9 23.6052 6 21.2702 6C18.9352 6 17.0352 7.9 17.0352 10.235ZM21.2702 8.51C20.3202 8.51 19.5452 9.285 19.5452 10.235C19.5452 11.185 20.3202 11.96 21.2702 11.96C22.2202 11.96 22.9952 11.185 22.9952 10.235C22.9952 9.285 22.2202 8.51 21.2702 8.51ZM3.00914 41.5053V41.2053V21.2653C3.00914 20.3803 3.71914 19.7503 4.65914 19.6653H37.8991C38.7441 19.6653 39.4441 20.3253 39.4941 21.1703L39.5041 21.2753C39.5191 21.3703 39.5291 21.4703 39.5291 21.5703V41.2353L39.4991 41.5753C39.4741 42.4103 38.8041 43.0903 37.8391 43.1403L37.8266 43.1418C37.7512 43.1513 37.6797 43.1603 37.5991 43.1603C36.9391 43.1603 36.3441 43.4953 36.0041 44.0603C35.6641 44.6253 35.6441 45.3153 35.9641 45.9153L39.5891 52.3153L22.6591 43.4753C22.1141 43.1853 21.9091 43.1353 21.2941 43.1353H4.91414H4.60914C3.72914 43.1353 3.00914 42.4153 3.00914 41.5053ZM11.7503 32.0905C12.8853 32.0905 13.8053 31.1704 13.8053 30.0355C13.8053 28.9005 12.8853 27.9805 11.7503 27.9805C10.6154 27.9805 9.69531 28.9005 9.69531 30.0355C9.69531 31.1704 10.6154 32.0905 11.7503 32.0905ZM21.2653 32.0905C22.4003 32.0905 23.3203 31.1704 23.3203 30.0355C23.3203 28.9005 22.4003 27.9805 21.2653 27.9805C20.1304 27.9805 19.2103 28.9005 19.2103 30.0355C19.2103 31.1704 20.1304 32.0905 21.2653 32.0905ZM32.8353 30.0355C32.8353 31.1704 31.9153 32.0905 30.7803 32.0905C29.6454 32.0905 28.7253 31.1704 28.7253 30.0355C28.7253 28.9005 29.6454 27.9805 30.7803 27.9805C31.9153 27.9805 32.8353 28.9005 32.8353 30.0355ZM24.1753 33.9355H18.3453C17.6803 33.9355 17.1353 34.5755 17.3453 35.2105C17.8853 36.8605 19.4303 38.0505 21.2603 38.0505C23.0903 38.0505 24.6403 36.8555 25.1753 35.2105C25.3853 34.5755 24.8403 33.9355 24.1753 33.9355Z" fill="#0000FF"/>
<path d="M55.321 47V15.704H63.049L68.089 29.624C68.409 30.552 68.713 31.512 69.001 32.504C69.289 33.464 69.593 34.424 69.913 35.384H70.105C70.425 34.424 70.713 33.464 70.969 32.504C71.257 31.512 71.561 30.552 71.881 29.624L76.825 15.704H84.505V47H78.073V35.528C78.073 34.76 78.105 33.912 78.169 32.984C78.233 32.056 78.313 31.128 78.409 30.2C78.505 29.24 78.601 28.312 78.697 27.416C78.793 26.488 78.889 25.64 78.985 24.872H78.793L76.249 32.312L71.785 44.264H67.897L63.433 32.312L60.937 24.872H60.745C60.841 25.64 60.937 26.488 61.033 27.416C61.129 28.312 61.225 29.24 61.321 30.2C61.417 31.128 61.497 32.056 61.561 32.984C61.625 33.912 61.657 34.76 61.657 35.528V47H55.321ZM97.3075 47.576C96.2195 47.576 95.2275 47.384 94.3315 47C93.4675 46.648 92.7315 46.152 92.1235 45.512C91.5155 44.84 91.0355 44.072 90.6835 43.208C90.3635 42.344 90.2035 41.4 90.2035 40.376C90.2035 37.88 91.2595 35.928 93.3715 34.52C95.4835 33.112 98.8915 32.168 103.596 31.688C103.532 30.632 103.212 29.8 102.636 29.192C102.092 28.552 101.164 28.232 99.8515 28.232C98.8275 28.232 97.8035 28.424 96.7795 28.808C95.7875 29.192 94.7155 29.72 93.5635 30.392L91.0195 25.736C92.5555 24.808 94.1555 24.056 95.8195 23.48C97.5155 22.904 99.3075 22.616 101.196 22.616C104.268 22.616 106.604 23.496 108.204 25.256C109.836 26.984 110.652 29.688 110.652 33.368V47H104.892L104.412 44.552H104.22C103.196 45.448 102.124 46.184 101.004 46.76C99.8835 47.304 98.6515 47.576 97.3075 47.576ZM99.7075 42.104C100.508 42.104 101.196 41.928 101.772 41.576C102.348 41.224 102.956 40.728 103.596 40.088V35.912C101.1 36.264 99.3715 36.776 98.4115 37.448C97.4515 38.12 96.9715 38.92 96.9715 39.848C96.9715 40.616 97.2115 41.192 97.6915 41.576C98.2035 41.928 98.8755 42.104 99.7075 42.104ZM116.62 47V23.192H123.676V47H116.62ZM120.124 19.688C118.94 19.688 117.964 19.352 117.196 18.68C116.428 17.976 116.044 17.08 116.044 15.992C116.044 14.904 116.428 14.024 117.196 13.352C117.964 12.68 118.94 12.344 120.124 12.344C121.34 12.344 122.316 12.68 123.052 13.352C123.82 14.024 124.204 14.904 124.204 15.992C124.204 17.08 123.82 17.976 123.052 18.68C122.316 19.352 121.34 19.688 120.124 19.688ZM136.366 47.576C135.15 47.576 134.126 47.384 133.294 47C132.462 46.616 131.79 46.088 131.278 45.416C130.798 44.712 130.446 43.88 130.222 42.92C129.998 41.928 129.886 40.824 129.886 39.608V13.352H136.942V39.896C136.942 40.632 137.07 41.144 137.326 41.432C137.614 41.72 137.902 41.864 138.19 41.864C138.35 41.864 138.478 41.864 138.574 41.864C138.702 41.864 138.862 41.832 139.054 41.768L139.918 47C139.534 47.16 139.038 47.288 138.43 47.384C137.854 47.512 137.166 47.576 136.366 47.576ZM150.292 47V21.656H141.7V15.704H165.988V21.656H157.396V47H150.292ZM170.292 47V23.192H177.348V47H170.292ZM173.796 19.688C172.612 19.688 171.636 19.352 170.868 18.68C170.1 17.976 169.716 17.08 169.716 15.992C169.716 14.904 170.1 14.024 170.868 13.352C171.636 12.68 172.612 12.344 173.796 12.344C175.012 12.344 175.988 12.68 176.724 13.352C177.492 14.024 177.876 14.904 177.876 15.992C177.876 17.08 177.492 17.976 176.724 18.68C175.988 19.352 175.012 19.688 173.796 19.688ZM183.558 47V23.192H189.318L189.798 26.264H189.99C190.982 25.272 192.038 24.424 193.158 23.72C194.278 22.984 195.622 22.616 197.19 22.616C198.886 22.616 200.246 22.968 201.27 23.672C202.326 24.344 203.158 25.32 203.766 26.6C204.822 25.512 205.926 24.584 207.078 23.816C208.262 23.016 209.654 22.616 211.254 22.616C213.814 22.616 215.686 23.48 216.87 25.208C218.086 26.904 218.694 29.24 218.694 32.216V47H211.638V33.128C211.638 31.4 211.398 30.216 210.918 29.576C210.47 28.936 209.734 28.616 208.71 28.616C207.526 28.616 206.166 29.384 204.63 30.92V47H197.574V33.128C197.574 31.4 197.334 30.216 196.854 29.576C196.406 28.936 195.67 28.616 194.646 28.616C193.43 28.616 192.086 29.384 190.614 30.92V47H183.558ZM235.37 47.576C233.674 47.576 232.09 47.304 230.618 46.76C229.146 46.184 227.866 45.368 226.778 44.312C225.69 43.224 224.842 41.912 224.234 40.376C223.626 38.84 223.322 37.08 223.322 35.096C223.322 33.176 223.642 31.448 224.282 29.912C224.922 28.344 225.754 27.032 226.778 25.976C227.834 24.888 229.034 24.056 230.378 23.48C231.722 22.904 233.114 22.616 234.554 22.616C236.25 22.616 237.722 22.904 238.97 23.48C240.25 24.056 241.306 24.856 242.138 25.88C243.002 26.904 243.642 28.12 244.058 29.528C244.474 30.904 244.682 32.408 244.682 34.04C244.682 34.68 244.65 35.288 244.586 35.864C244.522 36.44 244.458 36.872 244.394 37.16H230.138C230.458 38.888 231.162 40.168 232.25 41C233.37 41.8 234.73 42.2 236.33 42.2C238.026 42.2 239.738 41.672 241.466 40.616L243.818 44.888C242.602 45.72 241.242 46.376 239.738 46.856C238.266 47.336 236.81 47.576 235.37 47.576ZM230.09 32.504H238.682C238.682 31.16 238.378 30.072 237.77 29.24C237.162 28.408 236.138 27.992 234.698 27.992C233.578 27.992 232.586 28.36 231.722 29.096C230.89 29.832 230.346 30.968 230.09 32.504ZM267.087 31.16L266.319 34.04H272.991L272.271 31.16C271.823 29.592 271.391 27.928 270.975 26.168C270.559 24.408 270.143 22.712 269.727 21.08H269.535C269.151 22.744 268.751 24.456 268.335 26.216C267.951 27.944 267.535 29.592 267.087 31.16ZM255.759 47L265.551 15.704H274.047L283.839 47H276.351L274.431 39.56H264.879L262.959 47H255.759ZM287.259 47V15.704H294.315V47H287.259Z" fill="#0000FF"/>
<path d="M184.924 61V53.176H187.612C188.044 53.176 188.448 53.22 188.824 53.308C189.2 53.388 189.528 53.528 189.808 53.728C190.088 53.92 190.308 54.18 190.468 54.508C190.636 54.828 190.72 55.224 190.72 55.696C190.72 56.152 190.636 56.548 190.468 56.884C190.308 57.22 190.088 57.496 189.808 57.712C189.528 57.928 189.204 58.088 188.836 58.192C188.468 58.296 188.076 58.348 187.66 58.348H186.688V61H184.924ZM186.688 56.944H187.552C188.512 56.944 188.992 56.528 188.992 55.696C188.992 55.288 188.864 55 188.608 54.832C188.352 54.664 187.984 54.58 187.504 54.58H186.688V56.944ZM194.227 61.144C193.851 61.144 193.487 61.076 193.135 60.94C192.783 60.796 192.471 60.592 192.199 60.328C191.935 60.064 191.723 59.74 191.563 59.356C191.403 58.964 191.323 58.52 191.323 58.024C191.323 57.528 191.403 57.088 191.563 56.704C191.723 56.312 191.935 55.984 192.199 55.72C192.471 55.456 192.783 55.256 193.135 55.12C193.487 54.976 193.851 54.904 194.227 54.904C194.603 54.904 194.963 54.976 195.307 55.12C195.659 55.256 195.967 55.456 196.231 55.72C196.503 55.984 196.719 56.312 196.879 56.704C197.039 57.088 197.119 57.528 197.119 58.024C197.119 58.52 197.039 58.964 196.879 59.356C196.719 59.74 196.503 60.064 196.231 60.328C195.967 60.592 195.659 60.796 195.307 60.94C194.963 61.076 194.603 61.144 194.227 61.144ZM194.227 59.716C194.587 59.716 194.859 59.564 195.043 59.26C195.227 58.956 195.319 58.544 195.319 58.024C195.319 57.504 195.227 57.092 195.043 56.788C194.859 56.484 194.587 56.332 194.227 56.332C193.859 56.332 193.583 56.484 193.399 56.788C193.223 57.092 193.135 57.504 193.135 58.024C193.135 58.544 193.223 58.956 193.399 59.26C193.583 59.564 193.859 59.716 194.227 59.716ZM199.229 61L197.741 55.048H199.493L200.069 57.808C200.117 58.104 200.161 58.396 200.201 58.684C200.241 58.972 200.285 59.268 200.333 59.572H200.381C200.437 59.268 200.489 58.968 200.537 58.672C200.593 58.376 200.657 58.088 200.729 57.808L201.389 55.048H202.913L203.585 57.808C203.657 58.104 203.721 58.396 203.777 58.684C203.833 58.972 203.893 59.268 203.957 59.572H204.005C204.061 59.268 204.105 58.972 204.137 58.684C204.177 58.396 204.225 58.104 204.281 57.808L204.845 55.048H206.477L205.049 61H202.985L202.445 58.624C202.381 58.344 202.325 58.064 202.277 57.784C202.229 57.504 202.177 57.204 202.121 56.884H202.073C202.017 57.204 201.965 57.504 201.917 57.784C201.877 58.064 201.829 58.344 201.773 58.624L201.245 61H199.229ZM210.12 61.144C209.696 61.144 209.3 61.076 208.932 60.94C208.564 60.796 208.244 60.592 207.972 60.328C207.7 60.056 207.488 59.728 207.336 59.344C207.184 58.96 207.108 58.52 207.108 58.024C207.108 57.544 207.188 57.112 207.348 56.728C207.508 56.336 207.716 56.008 207.972 55.744C208.236 55.472 208.536 55.264 208.872 55.12C209.208 54.976 209.556 54.904 209.916 54.904C210.34 54.904 210.708 54.976 211.02 55.12C211.34 55.264 211.604 55.464 211.812 55.72C212.028 55.976 212.188 56.28 212.292 56.632C212.396 56.976 212.448 57.352 212.448 57.76C212.448 57.92 212.44 58.072 212.424 58.216C212.408 58.36 212.392 58.468 212.376 58.54H208.812C208.892 58.972 209.068 59.292 209.34 59.5C209.62 59.7 209.96 59.8 210.36 59.8C210.784 59.8 211.212 59.668 211.644 59.404L212.232 60.472C211.928 60.68 211.588 60.844 211.212 60.964C210.844 61.084 210.48 61.144 210.12 61.144ZM208.8 57.376H210.948C210.948 57.04 210.872 56.768 210.72 56.56C210.568 56.352 210.312 56.248 209.952 56.248C209.672 56.248 209.424 56.34 209.208 56.524C209 56.708 208.864 56.992 208.8 57.376ZM213.667 61V55.048H215.107L215.227 56.092H215.275C215.491 55.684 215.751 55.384 216.055 55.192C216.359 55 216.663 54.904 216.967 54.904C217.135 54.904 217.271 54.916 217.375 54.94C217.487 54.956 217.587 54.984 217.675 55.024L217.387 56.548C217.275 56.516 217.171 56.492 217.075 56.476C216.979 56.46 216.867 56.452 216.739 56.452C216.515 56.452 216.279 56.532 216.031 56.692C215.791 56.852 215.591 57.136 215.431 57.544V61H213.667ZM220.995 61.144C220.571 61.144 220.175 61.076 219.807 60.94C219.439 60.796 219.119 60.592 218.847 60.328C218.575 60.056 218.363 59.728 218.211 59.344C218.059 58.96 217.983 58.52 217.983 58.024C217.983 57.544 218.063 57.112 218.223 56.728C218.383 56.336 218.591 56.008 218.847 55.744C219.111 55.472 219.411 55.264 219.747 55.12C220.083 54.976 220.431 54.904 220.791 54.904C221.215 54.904 221.583 54.976 221.895 55.12C222.215 55.264 222.479 55.464 222.687 55.72C222.903 55.976 223.063 56.28 223.167 56.632C223.271 56.976 223.323 57.352 223.323 57.76C223.323 57.92 223.315 58.072 223.299 58.216C223.283 58.36 223.267 58.468 223.251 58.54H219.687C219.767 58.972 219.943 59.292 220.215 59.5C220.495 59.7 220.835 59.8 221.235 59.8C221.659 59.8 222.087 59.668 222.519 59.404L223.107 60.472C222.803 60.68 222.463 60.844 222.087 60.964C221.719 61.084 221.355 61.144 220.995 61.144ZM219.675 57.376H221.823C221.823 57.04 221.747 56.768 221.595 56.56C221.443 56.352 221.187 56.248 220.827 56.248C220.547 56.248 220.299 56.34 220.083 56.524C219.875 56.708 219.739 56.992 219.675 57.376ZM226.666 61.144C226.298 61.144 225.962 61.072 225.658 60.928C225.362 60.784 225.106 60.58 224.89 60.316C224.682 60.044 224.518 59.716 224.398 59.332C224.286 58.948 224.23 58.512 224.23 58.024C224.23 57.536 224.298 57.1 224.434 56.716C224.578 56.332 224.762 56.008 224.986 55.744C225.218 55.472 225.482 55.264 225.778 55.12C226.082 54.976 226.39 54.904 226.702 54.904C227.038 54.904 227.314 54.96 227.53 55.072C227.746 55.184 227.958 55.336 228.166 55.528L228.094 54.616V52.588H229.858V61H228.418L228.298 60.412H228.25C228.042 60.62 227.798 60.796 227.518 60.94C227.238 61.076 226.954 61.144 226.666 61.144ZM227.122 59.704C227.314 59.704 227.486 59.664 227.638 59.584C227.798 59.504 227.95 59.364 228.094 59.164V56.728C227.934 56.584 227.77 56.484 227.602 56.428C227.434 56.372 227.27 56.344 227.11 56.344C226.83 56.344 226.582 56.48 226.366 56.752C226.15 57.016 226.042 57.432 226.042 58C226.042 58.592 226.134 59.024 226.318 59.296C226.51 59.568 226.778 59.704 227.122 59.704ZM233.967 61V53.176H236.643C237.051 53.176 237.427 53.208 237.771 53.272C238.123 53.328 238.427 53.432 238.683 53.584C238.947 53.736 239.151 53.936 239.295 54.184C239.447 54.432 239.523 54.744 239.523 55.12C239.523 55.296 239.499 55.472 239.451 55.648C239.403 55.824 239.335 55.988 239.247 56.14C239.159 56.292 239.051 56.428 238.923 56.548C238.803 56.668 238.663 56.756 238.503 56.812V56.86C238.703 56.908 238.887 56.984 239.055 57.088C239.223 57.184 239.371 57.308 239.499 57.46C239.627 57.612 239.727 57.792 239.799 58C239.871 58.2 239.907 58.432 239.907 58.696C239.907 59.096 239.827 59.44 239.667 59.728C239.515 60.016 239.299 60.256 239.019 60.448C238.747 60.632 238.427 60.772 238.059 60.868C237.691 60.956 237.295 61 236.871 61H233.967ZM235.731 56.308H236.559C236.991 56.308 237.303 56.224 237.495 56.056C237.695 55.888 237.795 55.664 237.795 55.384C237.795 55.08 237.695 54.864 237.495 54.736C237.295 54.608 236.987 54.544 236.571 54.544H235.731V56.308ZM235.731 59.632H236.727C237.695 59.632 238.179 59.28 238.179 58.576C238.179 58.232 238.059 57.988 237.819 57.844C237.579 57.692 237.215 57.616 236.727 57.616H235.731V59.632ZM241.538 63.328C241.354 63.328 241.198 63.316 241.07 63.292C240.942 63.276 240.818 63.248 240.698 63.208L241.01 61.864C241.066 61.88 241.13 61.896 241.202 61.912C241.274 61.928 241.342 61.936 241.406 61.936C241.702 61.936 241.93 61.864 242.09 61.72C242.25 61.576 242.37 61.388 242.45 61.156L242.534 60.844L240.242 55.048H242.018L242.87 57.604C242.958 57.876 243.038 58.152 243.11 58.432C243.182 58.712 243.258 59 243.338 59.296H243.386C243.45 59.016 243.514 58.736 243.578 58.456C243.65 58.168 243.722 57.884 243.794 57.604L244.514 55.048H246.206L244.142 61.06C243.998 61.436 243.846 61.764 243.686 62.044C243.534 62.332 243.354 62.568 243.146 62.752C242.946 62.944 242.714 63.088 242.45 63.184C242.194 63.28 241.89 63.328 241.538 63.328ZM252.946 61.144C252.45 61.144 251.982 61.06 251.542 60.892C251.102 60.716 250.714 60.46 250.378 60.124C250.05 59.788 249.79 59.372 249.598 58.876C249.406 58.372 249.31 57.792 249.31 57.136C249.31 56.488 249.41 55.912 249.61 55.408C249.81 54.896 250.078 54.464 250.414 54.112C250.75 53.76 251.142 53.492 251.59 53.308C252.038 53.124 252.51 53.032 253.006 53.032C253.51 53.032 253.962 53.136 254.362 53.344C254.762 53.544 255.094 53.78 255.358 54.052L254.422 55.18C254.222 54.996 254.01 54.848 253.786 54.736C253.57 54.616 253.322 54.556 253.042 54.556C252.778 54.556 252.526 54.616 252.286 54.736C252.054 54.848 251.85 55.012 251.674 55.228C251.506 55.444 251.37 55.708 251.266 56.02C251.17 56.332 251.122 56.684 251.122 57.076C251.122 57.884 251.294 58.512 251.638 58.96C251.982 59.4 252.442 59.62 253.018 59.62C253.338 59.62 253.622 59.552 253.87 59.416C254.126 59.272 254.35 59.096 254.542 58.888L255.478 59.992C254.822 60.76 253.978 61.144 252.946 61.144ZM256.522 61V52.588H258.286V54.652L258.202 55.72C258.426 55.52 258.686 55.336 258.982 55.168C259.278 54.992 259.63 54.904 260.038 54.904C260.686 54.904 261.154 55.116 261.442 55.54C261.738 55.964 261.886 56.552 261.886 57.304V61H260.122V57.532C260.122 57.1 260.062 56.804 259.942 56.644C259.83 56.484 259.646 56.404 259.39 56.404C259.166 56.404 258.974 56.456 258.814 56.56C258.654 56.656 258.478 56.796 258.286 56.98V61H256.522ZM264.878 61.144C264.606 61.144 264.358 61.096 264.134 61C263.918 60.912 263.734 60.788 263.582 60.628C263.43 60.46 263.31 60.268 263.222 60.052C263.142 59.836 263.102 59.6 263.102 59.344C263.102 58.72 263.366 58.232 263.894 57.88C264.422 57.528 265.274 57.292 266.45 57.172C266.434 56.908 266.354 56.7 266.21 56.548C266.074 56.388 265.842 56.308 265.514 56.308C265.258 56.308 265.002 56.356 264.746 56.452C264.498 56.548 264.23 56.68 263.942 56.848L263.306 55.684C263.69 55.452 264.09 55.264 264.506 55.12C264.93 54.976 265.378 54.904 265.85 54.904C266.618 54.904 267.202 55.124 267.602 55.564C268.01 55.996 268.214 56.672 268.214 57.592V61H266.774L266.654 60.388H266.606C266.35 60.612 266.082 60.796 265.802 60.94C265.522 61.076 265.214 61.144 264.878 61.144ZM265.478 59.776C265.678 59.776 265.85 59.732 265.994 59.644C266.138 59.556 266.29 59.432 266.45 59.272V58.228C265.826 58.316 265.394 58.444 265.154 58.612C264.914 58.78 264.794 58.98 264.794 59.212C264.794 59.404 264.854 59.548 264.974 59.644C265.102 59.732 265.27 59.776 265.478 59.776ZM271.787 61.144C271.419 61.144 271.103 61.088 270.839 60.976C270.583 60.864 270.371 60.708 270.203 60.508C270.043 60.308 269.923 60.068 269.843 59.788C269.771 59.5 269.735 59.184 269.735 58.84V56.428H268.919V55.12L269.831 55.048L270.035 53.464H271.499V55.048H272.927V56.428H271.499V58.816C271.499 59.152 271.567 59.396 271.703 59.548C271.847 59.692 272.035 59.764 272.267 59.764C272.363 59.764 272.459 59.752 272.555 59.728C272.659 59.704 272.751 59.676 272.831 59.644L273.107 60.928C272.947 60.976 272.759 61.024 272.543 61.072C272.327 61.12 272.075 61.144 271.787 61.144ZM277.689 61.144C277.153 61.144 276.649 61.06 276.177 60.892C275.713 60.716 275.309 60.46 274.965 60.124C274.621 59.788 274.349 59.372 274.149 58.876C273.957 58.372 273.861 57.792 273.861 57.136C273.861 56.488 273.961 55.912 274.161 55.408C274.361 54.896 274.633 54.464 274.977 54.112C275.329 53.76 275.737 53.492 276.201 53.308C276.665 53.124 277.157 53.032 277.677 53.032C278.245 53.032 278.733 53.136 279.141 53.344C279.549 53.552 279.881 53.788 280.137 54.052L279.213 55.18C279.013 55.004 278.801 54.856 278.577 54.736C278.353 54.616 278.073 54.556 277.737 54.556C277.433 54.556 277.153 54.616 276.897 54.736C276.649 54.848 276.433 55.012 276.249 55.228C276.065 55.444 275.921 55.708 275.817 56.02C275.721 56.332 275.673 56.684 275.673 57.076C275.673 57.884 275.853 58.512 276.213 58.96C276.581 59.4 277.133 59.62 277.869 59.62C278.029 59.62 278.185 59.6 278.337 59.56C278.489 59.52 278.613 59.46 278.709 59.38V58.036H277.413V56.596H280.269V60.196C279.997 60.46 279.637 60.684 279.189 60.868C278.741 61.052 278.241 61.144 277.689 61.144ZM281.885 61V53.176H284.573C285.005 53.176 285.409 53.22 285.785 53.308C286.161 53.388 286.489 53.528 286.769 53.728C287.049 53.92 287.269 54.18 287.429 54.508C287.597 54.828 287.681 55.224 287.681 55.696C287.681 56.152 287.597 56.548 287.429 56.884C287.269 57.22 287.049 57.496 286.769 57.712C286.489 57.928 286.165 58.088 285.797 58.192C285.429 58.296 285.037 58.348 284.621 58.348H283.649V61H281.885ZM283.649 56.944H284.513C285.473 56.944 285.953 56.528 285.953 55.696C285.953 55.288 285.825 55 285.569 54.832C285.313 54.664 284.945 54.58 284.465 54.58H283.649V56.944ZM290.393 61V54.664H288.245V53.176H294.317V54.664H292.169V61H290.393Z" fill="#0000FF"/>
</svg>
