<svg width="148" height="26" viewBox="0 0 148 26" fill="none" xmlns="http://www.w3.org/2000/svg">
<path d="M12.1011 12.1013C12.7087 12.7848 13.5441 13.1646 14.4049 13.1646C15.2909 13.1646 16.1011 12.7848 16.7087 12.076L26.7846 0.759494C27.0378 0.481013 26.8353 0.0253165 26.4555 0C26.4302 0 26.4049 0 26.4049 0H2.3036C2.25297 0 2.20234 0 2.12639 0C1.77196 0.0253165 1.59474 0.481013 1.84791 0.759494L12.1011 12.1013Z" fill="white"/>
<path d="M0.886076 1.41778C0.658228 1.16462 0.253165 1.24057 0.126582 1.56968C0.0253165 1.82285 0 2.07601 0 2.35449V16.8861C0 16.9368 0 17.0127 0 17.0634C0.0253165 17.4431 0.481013 17.595 0.759494 17.3418L8.17721 10.152C8.35443 9.97475 8.35443 9.69627 8.20253 9.51905L0.886076 1.41778Z" fill="white"/>
<path d="M26.0252 19.8734C25.8733 19.5696 26.0758 19.2151 26.4302 19.2151C26.7087 19.2151 26.9619 19.1645 27.1897 19.0886C27.4935 18.9873 27.5948 18.5822 27.3416 18.3291L19.8479 11.0632C19.6707 10.886 19.3669 10.886 19.1897 11.0886L17.5948 12.886C16.7593 13.8227 15.6201 14.3544 14.4049 14.3544C14.4049 14.3544 14.4049 14.3544 14.3796 14.3544C13.1644 14.3544 12.0505 13.848 11.215 12.9113L9.54414 11.0632C9.36693 10.886 9.08845 10.8607 8.88592 11.0379L1.39225 18.3291C1.1644 18.5569 1.24035 18.962 1.54415 19.0886C1.77199 19.1645 2.05047 19.2151 2.30364 19.2151H14.4049C14.7087 19.2151 14.7087 19.2151 14.9872 19.367L27.4935 25.8987C27.6201 25.9746 27.772 25.9999 27.8986 25.9999C28.1264 25.9999 28.3543 25.8987 28.5315 25.7468C28.81 25.4683 28.8606 25.0632 28.6834 24.7088L26.0252 19.8734Z" fill="white"/>
<path d="M28.7594 2.32968C28.7594 2.02589 28.7087 1.7474 28.6075 1.46892C28.4809 1.16513 28.0758 1.08918 27.848 1.34234L20.5821 9.51956C20.4302 9.69677 20.4302 9.97525 20.6074 10.1525L27.9999 17.317C28.2783 17.5702 28.734 17.4183 28.7594 17.0385C28.7594 16.9879 28.7594 16.912 28.7594 16.8613V2.32968Z" fill="white"/>
<path d="M40.228 0.58252L45.8482 15.5445L51.4938 0.58252H54.7343V18.38H52.4811V3.56986H52.4305L46.8609 18.38H44.8356L39.266 3.56986H39.2153V18.38H36.9622V0.58252H40.228Z" fill="white"/>
<path d="M66.1266 0.582031L73.0886 18.3795H70.481L68.5316 13.0124H61.0127L59.0127 18.3795H56.5823L63.519 0.582031H66.1266ZM67.7722 11.0377L64.8101 2.73393H64.7595L61.7468 11.0377H67.7722Z" fill="white"/>
<path d="M77.2914 0.582031V18.3795H74.9116V0.582031H77.2914Z" fill="white"/>
<path d="M83.6456 0.582031V16.4048H93.0633V18.4048H81.2659V0.582031H83.6456Z" fill="white"/>
<path d="M90.9619 2.58203V0.582031H105.19V2.58203H99.2657V18.4048H96.886V2.58203H90.9619Z" fill="white"/>
<path d="M109.646 0.582031V18.3795H107.266V0.582031H109.646Z" fill="white"/>
<path d="M116.912 0.582031L122.532 15.5441L128.177 0.582031H131.418V18.3795H129.165V3.56937H129.114L123.544 18.3795H121.519L115.95 3.56937H115.899V18.3795H113.646V0.582031H116.912Z" fill="white"/>
<path d="M147.646 0.582031V2.58203H137.722V8.25292H146.962V10.2529H137.722V16.4048H147.722V18.4048H135.342V0.582031H147.646Z" fill="white"/>
</svg>
