<svg width="28" height="28" viewBox="0 0 28 28" fill="none" xmlns="http://www.w3.org/2000/svg">
<g clip-path="url(#clip0_995_4914)">
<path d="M25.7179 9.83281C26.9785 9.83281 28.0003 8.81609 28.0003 7.56191C28.0003 6.30773 26.9785 5.29102 25.7179 5.29102C24.4574 5.29102 23.4355 6.30773 23.4355 7.56191C23.4355 8.81609 24.4574 9.83281 25.7179 9.83281Z" fill="#0000FF"/>
<path d="M25.7179 22.7591C26.9785 22.7591 28.0003 21.7424 28.0003 20.4882C28.0003 19.234 26.9785 18.2173 25.7179 18.2173C24.4574 18.2173 23.4355 19.234 23.4355 20.4882C23.4355 21.7424 24.4574 22.7591 25.7179 22.7591Z" fill="#0000FF"/>
<path d="M2.28239 9.83281C3.54291 9.83281 4.56477 8.81609 4.56477 7.56191C4.56477 6.30773 3.54291 5.29102 2.28239 5.29102C1.02186 5.29102 0 6.30773 0 7.56191C0 8.81609 1.02186 9.83281 2.28239 9.83281Z" fill="#0000FF"/>
<path d="M2.28239 22.7591C3.54291 22.7591 4.56477 21.7424 4.56477 20.4882C4.56477 19.234 3.54291 18.2173 2.28239 18.2173C1.02186 18.2173 0 19.234 0 20.4882C0 21.7424 1.02186 22.7591 2.28239 22.7591Z" fill="#0000FF"/>
<path d="M2.2821 17.731C2.6528 17.731 3.00796 17.8044 3.33208 17.9376V10.1131C3.00796 10.2463 2.65474 10.3197 2.2821 10.3197C1.90947 10.3197 1.52131 10.2386 1.18555 10.0938V17.9569C1.52131 17.8121 1.892 17.731 2.2821 17.731Z" fill="#0000FF"/>
<path d="M22.9822 7.99854L13.9963 13.1602L5.01427 8.00047C4.89394 8.74585 4.47278 9.39274 3.87695 9.81371L13.9148 15.5798L13.9963 15.6261L14.0778 15.5798L24.1176 9.81178C23.5218 9.39274 23.1026 8.74585 22.9822 7.99854Z" fill="#0000FF"/>
<path d="M25.7179 17.7305C26.1061 17.7305 26.4748 17.8116 26.8125 17.9545V10.0952C26.4768 10.24 26.108 10.3192 25.7179 10.3192C25.3278 10.3192 24.9901 10.2439 24.666 10.1107V17.9371C24.9901 17.8039 25.3453 17.7286 25.7179 17.7286V17.7305Z" fill="#0000FF"/>
<path d="M14.2544 0.0695393L14.2467 0.0656773H14.2428C14.2272 0.0560221 14.2098 0.0463669 14.1923 0.0405738H14.1884L14.1826 0.0367117C14.171 0.0328497 14.1535 0.0270566 14.136 0.0212635L14.1205 0.0174014C14.105 0.0135393 14.0895 0.00967726 14.0739 0.00774623H14.0565C14.0371 0.00388416 14.0176 0.00195312 13.9982 0.00195312H13.9924C13.973 0.00195312 13.9536 0.00195312 13.9361 0.00581519H13.9322L13.9206 0.00774623C13.9031 0.00967726 13.8876 0.0135393 13.874 0.0174014L13.8585 0.0212635C13.841 0.0270566 13.8216 0.0328497 13.8042 0.0386428C13.7828 0.0463669 13.7653 0.0560221 13.7498 0.0637462L13.742 0.0695393L4.18164 5.55947C4.43395 5.79699 4.63967 6.07892 4.78911 6.39368L13.482 1.40002V7.87285C13.482 8.15478 13.7129 8.38457 13.9963 8.38457C14.2797 8.38457 14.5106 8.15478 14.5106 7.87285V1.40002L23.2054 6.39561C23.3549 6.07892 23.5606 5.79699 23.8129 5.55947L14.2544 0.0695393Z" fill="#0000FF"/>
<path d="M13.9992 16.2962C15.2597 16.2962 16.2816 15.2795 16.2816 14.0253C16.2816 12.7711 15.2597 11.7544 13.9992 11.7544C12.7387 11.7544 11.7168 12.7711 11.7168 14.0253C11.7168 15.2795 12.7387 16.2962 13.9992 16.2962Z" fill="#0000FF"/>
<path d="M23.1901 21.6158L14.5147 26.5998V20.127C14.5147 19.845 14.2838 19.6152 14.0004 19.6152C13.7171 19.6152 13.4861 19.845 13.4861 20.127V26.5998L4.81265 21.6177C4.66903 21.9363 4.46719 22.2221 4.2207 22.4616L13.7442 27.9322L13.752 27.9361H13.7559C13.7733 27.9457 13.7889 27.9554 13.8063 27.9612H13.8102L13.816 27.965C13.8277 27.9689 13.8452 27.9766 13.8646 27.9805L13.8801 27.9843C13.8956 27.9882 13.9111 27.9921 13.9267 27.994H13.9422C13.9616 27.9979 13.983 27.9998 14.0043 27.9998C14.0257 27.9998 14.0451 27.9998 14.0664 27.9959H14.0703L14.08 27.994C14.0975 27.9921 14.113 27.9882 14.1285 27.9843L14.144 27.9805C14.1634 27.9747 14.1809 27.9689 14.1984 27.9631C14.2197 27.9554 14.2372 27.9457 14.2527 27.938L14.2605 27.9322L23.786 22.4596C23.5395 22.2202 23.3376 21.9344 23.194 21.6158H23.1901Z" fill="#0000FF"/>
</g>
<defs>
<clipPath id="clip0_995_4914">
<rect width="28" height="28" fill="white"/>
</clipPath>
</defs>
</svg>
