<svg width="303" height="273" viewBox="0 0 303 273" fill="none" xmlns="http://www.w3.org/2000/svg">
<path d="M301.29 21.45C300.61 9.91 291.07 0.75 279.36 0.75C278.99 0.75 278.63 0.79 278.26 0.81C278.16 0.8 278.08 0.76 277.98 0.75H23.6C23.54 0.75 23.49 0.78 23.44 0.78C23.21 0.78 22.98 0.75 22.75 0.75C10.6 0.75 0.75 10.6 0.75 22.75C0.75 23.13 0.79 23.5 0.81 23.88C0.79 24.28 0.75 24.68 0.75 25.1V178.7C0.75 178.7 0.75 178.73 0.76 178.74C0.76 178.81 0.75 178.88 0.75 178.96C0.75 191.11 10.6 200.96 22.75 200.96C22.97 200.96 23.19 200.93 23.41 200.93C23.98 200.97 24.54 200.99 25.1 200.99H151.35C153.47 200.99 155.467 201.49 157.34 202.49L287.9 270.67C289.21 271.42 290.71 271.79 292.21 271.79C294.64 271.79 296.89 270.85 298.77 268.98C301.58 266.17 302.14 261.67 300.27 258.12L272.92 208.11C271.23 204.93 273.48 201.18 277.04 201.18C278.16 201.18 279.24 201.07 280.31 200.92C291.83 200.43 301.04 191.1 301.33 179.52C301.43 179.2 301.54 178.87 301.58 178.51V25.1C301.58 23.85 301.47 22.64 301.29 21.45Z" stroke="url(#paint0_linear_1105_5048)" stroke-width="1.5" stroke-miterlimit="10"/>
<defs>
<linearGradient id="paint0_linear_1105_5048" x1="51.34" y1="239.73" x2="289.92" y2="1.15001" gradientUnits="userSpaceOnUse">
<stop stop-color="#0000FF"/>
<stop offset="0.01" stop-color="#0017FF"/>
<stop offset="0.03" stop-color="#0045FF"/>
<stop offset="0.06" stop-color="#006FFF"/>
<stop offset="0.08" stop-color="#0093FF"/>
<stop offset="0.11" stop-color="#00B1FF"/>
<stop offset="0.14" stop-color="#00CAFF"/>
<stop offset="0.18" stop-color="#00DDFF"/>
<stop offset="0.22" stop-color="#00EAFF"/>
<stop offset="0.27" stop-color="#00F2FF"/>
<stop offset="0.37" stop-color="#00F5FF"/>
<stop offset="1" stop-color="#0000FF"/>
</linearGradient>
</defs>
</svg>
