<svg width="24" height="21" viewBox="0 0 24 21" fill="none" xmlns="http://www.w3.org/2000/svg">
<path fill-rule="evenodd" clip-rule="evenodd" d="M11.6534 5.74377L11.7054 6.60162L10.8383 6.49658C7.68221 6.09391 4.92494 4.72835 2.58386 2.43492L1.43933 1.29695L1.14453 2.1373C0.52024 4.01056 0.91909 5.98887 2.21969 7.31941C2.91334 8.05471 2.75727 8.15976 1.56072 7.72208C1.14453 7.58202 0.78036 7.47698 0.745677 7.5295C0.624288 7.65205 1.04048 9.2452 1.36996 9.87546C1.82084 10.7508 2.73993 11.6087 3.74573 12.1164L4.59545 12.519L3.58965 12.5365C2.61854 12.5365 2.58386 12.5541 2.68791 12.9217C3.03473 14.0597 4.4047 15.2677 5.93073 15.7929L7.0059 16.1605L6.06946 16.7208C4.68216 17.5261 3.05207 17.9813 1.42199 18.0163C0.641629 18.0338 0 18.1038 0 18.1563C0 18.3314 2.11564 19.3118 3.34688 19.697C7.04058 20.8349 11.4279 20.3447 14.7228 18.4014C17.0639 17.0184 19.4049 14.2698 20.4974 11.6087C21.087 10.1906 21.6767 7.59953 21.6767 6.35652C21.6767 5.55119 21.7287 5.44615 22.6998 4.48325C23.2721 3.92302 23.8096 3.31027 23.9137 3.1352C24.0871 2.80257 24.0698 2.80257 23.1854 3.10019C21.7113 3.6254 21.5032 3.55537 22.2316 2.76755C22.7692 2.20732 23.4108 1.19191 23.4108 0.894287C23.4108 0.841766 23.1507 0.929301 22.8559 1.08687C22.5437 1.26194 21.8501 1.52454 21.3298 1.68211L20.3934 1.97973L19.5437 1.40199C19.0755 1.08687 18.4165 0.736723 18.0697 0.63168C17.1853 0.38658 15.8326 0.421594 15.0349 0.701708C12.8673 1.48953 11.4973 3.52036 11.6534 5.74377Z" fill="#D9DBE1"/>
</svg>
