<svg width="24" height="24" viewBox="0 0 24 24" fill="none" xmlns="http://www.w3.org/2000/svg">
<path d="M9.6 0.8L12 4H8C6.89543 4 6 3.10457 6 2C6 0.895431 6.89543 0 8 0C8.62951 0 9.22229 0.296388 9.6 0.8Z" fill="#919AA6"/>
<path d="M14.4 0.8L12 4H16C17.1046 4 18 3.10457 18 2C18 0.895431 17.1046 0 16 0C15.3705 0 14.7777 0.296388 14.4 0.8Z" fill="white"/>
<rect x="2" y="4" width="20" height="20" rx="4" fill="#BABFC4"/>
<rect x="2" y="4" width="14" height="20" rx="4" fill="white"/>
<path fill-rule="evenodd" clip-rule="evenodd" d="M12 4C9.79086 4 8 5.79086 8 8V20C8 22.2091 9.79086 24 12 24C14.2091 24 16 22.2091 16 20V14H11.5V11.5C11.5 9.567 13.067 8 15 8C15.3475 8 15.6831 8.05064 16 8.14494V8C16 5.79086 14.2091 4 12 4Z" fill="#919AA6"/>
<path fill-rule="evenodd" clip-rule="evenodd" d="M18.4649 14C18.8052 13.4117 19 12.7286 19 12C19 9.79086 17.2091 8 15 8C12.7909 8 11 9.79086 11 12C11 12.7286 11.1948 13.4117 11.5351 14H18.4649Z" fill="white"/>
<path d="M17.5 10.7956C17.5 10.4719 17.2386 10.2128 16.9188 10.2128C16.599 10.2128 16.3376 10.4749 16.3376 10.7956C16.3376 10.8141 16.3376 10.8326 16.3407 10.8511L15.2891 11.4586C15.206 11.4031 15.1076 11.3692 15 11.3692C14.8924 11.3692 14.794 11.4031 14.7109 11.4586L13.6593 10.8481C13.6624 10.8265 13.6624 10.8018 13.6624 10.7771C13.6624 10.4534 13.401 10.1943 13.0812 10.1943C12.7583 10.1943 12.5 10.4564 12.5 10.7771C12.5 11.0022 12.6292 11.1996 12.8167 11.2952V12.4824C12.6292 12.5779 12.5 12.7753 12.5 13.0004C12.5 13.0898 12.5215 13.17 12.5554 13.2471H13.607C13.6408 13.1731 13.6624 13.0898 13.6624 13.0004C13.6624 12.7722 13.5301 12.5718 13.3395 12.4793V11.2983C13.3487 11.2921 13.3579 11.289 13.3672 11.2828L14.4834 11.9304C14.5049 12.1987 14.7263 12.4114 15 12.4114C15.2737 12.4114 15.4951 12.1987 15.5166 11.9304L16.6205 11.2921C16.6328 11.3013 16.6482 11.3075 16.6605 11.3137V12.47C16.4699 12.5656 16.3376 12.763 16.3376 12.9912C16.3376 13.0806 16.3592 13.1669 16.3961 13.244H17.4416C17.4785 13.1669 17.5 13.0837 17.5 12.9912C17.5 12.766 17.3708 12.5687 17.1833 12.4731V11.3075C17.3708 11.2181 17.5 11.0238 17.5 10.7956Z" fill="#334155"/>
<line x1="10" y1="13.75" x2="20" y2="13.75" stroke="#DEE0E2" stroke-width="1.5"/>
</svg>
