<svg width="24" height="24" viewBox="0 0 24 24" fill="none" xmlns="http://www.w3.org/2000/svg">
<path d="M12 5.99967V3.33301" stroke="white" stroke-width="1.33333" stroke-miterlimit="10"/>
<path d="M12 3.99902C13.1046 3.99902 14 3.10359 14 1.99902C14 0.894454 13.1046 -0.000976562 12 -0.000976562C10.8954 -0.000976562 10 0.894454 10 1.99902C10 3.10359 10.8954 3.99902 12 3.99902Z" fill="white"/>
<path fill-rule="evenodd" clip-rule="evenodd" d="M5 5.99902C3.34315 5.99902 2 7.34217 2 8.99902V16.999C2 18.6559 3.34315 19.999 5 19.999H12L19.7264 23.433C20.1551 23.6235 20.5865 23.1721 20.3767 22.7525L19 19.999C20.6569 19.999 22 18.6559 22 16.999V8.99902C22 7.34217 20.6569 5.99902 19 5.99902H5ZM7.20072 11.8683C7.91061 11.1542 9.05995 11.1542 9.76985 11.8683L10.7154 10.9282C9.48421 9.68972 7.48635 9.68972 6.25513 10.9282C5.02607 12.1646 5.02607 14.1675 6.25513 15.4038C7.48635 16.6423 9.48421 16.6423 10.7154 15.4038L12.4728 13.636L14.2302 11.8683C14.9401 11.1542 16.0894 11.1542 16.7993 11.8683C17.5113 12.5845 17.5113 13.7475 16.7993 14.4638C16.0894 15.1779 14.9401 15.1779 14.2302 14.4638L13.2846 15.4038C14.5158 16.6423 16.5136 16.6423 17.7449 15.4038C18.9739 14.1675 18.9739 12.1646 17.7449 10.9282C16.5136 9.68972 14.5158 9.68972 13.2846 10.9282L11.5272 12.696L9.76985 14.4638C9.05995 15.1779 7.91061 15.1779 7.20072 14.4638C6.48865 13.7475 6.48865 12.5845 7.20072 11.8683Z" fill="white"/>
</svg>
