<svg width="24" height="24" viewBox="0 0 24 24" fill="none" xmlns="http://www.w3.org/2000/svg">
<path d="M12 7L12 3" stroke="white" stroke-miterlimit="10"/>
<path fill-rule="evenodd" clip-rule="evenodd" d="M5 5.99902C3.34315 5.99902 2 7.34217 2 8.99902V16.999C2 18.6559 3.34315 19.999 5 19.999H12L19.7264 23.433C20.1551 23.6235 20.5865 23.1721 20.3767 22.7525L19 19.999C20.6569 19.999 22 18.6559 22 16.999V8.99902C22 7.34217 20.6569 5.99902 19 5.99902H5ZM8 13C8.55228 13 9 12.5523 9 12C9 11.4477 8.55228 11 8 11C7.44772 11 7 11.4477 7 12C7 12.5523 7.44772 13 8 13ZM12 13C12.5523 13 13 12.5523 13 12C13 11.4477 12.5523 11 12 11C11.4477 11 11 11.4477 11 12C11 12.5523 11.4477 13 12 13ZM17 12C17 12.5523 16.5523 13 16 13C15.4477 13 15 12.5523 15 12C15 11.4477 15.4477 11 16 11C16.5523 11 17 11.4477 17 12ZM13.5 14C13.7761 14 14.0064 14.2273 13.9383 14.4949C13.718 15.3601 12.9337 16 12 16C11.0663 16 10.282 15.3601 10.0617 14.4949C9.99359 14.2273 10.2239 14 10.5 14H13.5Z" fill="white"/>
<path d="M12 3.99902C13.1046 3.99902 14 3.10359 14 1.99902C14 0.894454 13.1046 -0.000976562 12 -0.000976562C10.8954 -0.000976562 10 0.894454 10 1.99902C10 3.10359 10.8954 3.99902 12 3.99902Z" fill="white"/>
</svg>
