<svg width="24" height="24" viewBox="0 0 24 24" fill="none" xmlns="http://www.w3.org/2000/svg">
<path d="M20.0457 16.4027V7.06836L12.0033 12.2L3.96094 7.06836V16.4027" stroke="#99A0AA" stroke-width="1.97947" stroke-linejoin="round"/>
<path d="M12.0033 2.39941L12.2793 1.92384C12.1086 1.8248 11.898 1.8248 11.7273 1.92384L12.0033 2.39941ZM11.4535 7.06656C11.4535 7.37024 11.6996 7.61641 12.0033 7.61641C12.307 7.61641 12.5532 7.37024 12.5532 7.06656H11.4535ZM20.3217 6.59099L12.2793 1.92384L11.7273 2.87499L19.7697 7.54213L20.3217 6.59099ZM11.7273 1.92384L3.68495 6.59099L4.23692 7.54213L12.2793 2.87499L11.7273 1.92384ZM11.4535 2.39941V7.06656H12.5532V2.39941H11.4535Z" fill="#99A0AA"/>
<path d="M12.0033 21.499L12.2793 21.9746C12.1086 22.0736 11.898 22.0736 11.7273 21.9746L12.0033 21.499ZM11.4535 16.8319C11.4535 16.5282 11.6996 16.282 12.0033 16.282C12.307 16.282 12.5532 16.5282 12.5532 16.8319H11.4535ZM20.3217 17.3074L12.2793 21.9746L11.7273 21.0235L19.7697 16.3563L20.3217 17.3074ZM11.7273 21.9746L3.68495 17.3074L4.23692 16.3563L12.2793 21.0235L11.7273 21.9746ZM11.4535 21.499V16.8319H12.5532V21.499H11.4535Z" fill="#99A0AA"/>
<ellipse cx="11.9989" cy="11.9911" rx="2.01059" ry="2.01059" fill="#334155"/>
<ellipse cx="3.95591" cy="7.16293" rx="2.01059" ry="2.01059" fill="#334155"/>
<ellipse cx="3.95591" cy="16.8192" rx="2.01059" ry="2.01059" fill="#334155"/>
<ellipse cx="20.0418" cy="16.8192" rx="2.01059" ry="2.01059" fill="#334155"/>
<ellipse cx="20.0418" cy="7.16293" rx="2.01059" ry="2.01059" fill="#334155"/>
</svg>
