<?xml version="1.0" encoding="utf-8"?>
<!-- Generator: Adobe Illustrator 27.4.0, SVG Export Plug-In . SVG Version: 6.00 Build 0)  -->
<svg version="1.2" baseProfile="tiny-ps" xmlns="http://www.w3.org/2000/svg" xmlns:xlink="http://www.w3.org/1999/xlink" viewBox="0 0 500 500" overflow="visible" xml:space="preserve">
<title>MailTime AI</title>
<g id="design">
	<rect fill="#0000FF" width="500" height="500"/>
	<g>
		<path fill="#FFFFFF" d="M382.9,365.9c14-2.5,24.7-14.3,25.7-28.7l0.3-154.9c0-1.6-0.2-3.1-0.3-4.6c-1.2-16.4-14.9-29.2-31.3-29.2
			H259.6v-22c13.2-4.1,22.8-16.4,22.8-31c0-17.9-14.5-32.4-32.4-32.4c-17.9,0-32.4,14.5-32.4,32.4c0,14.5,9.6,26.8,22.8,31v22H125
			h-2.5c-17.3,0-31.4,14.1-31.4,32.3l0,154.3h0v2l0.1,0.2c1.1,16.3,14.7,29.2,31.3,29.2h0.1l2.3,0.1l125.5-0.3L381,434.4
			c2.8,1.5,5.9,2.4,9.1,2.4v0c5,0,9.7-2,13.3-5.6c5.7-5.7,7-14.8,3.1-22.2L382.9,365.9z M250,82.4c7.3,0,13.2,5.9,13.2,13.2
			c0,7.3-5.9,13.2-13.2,13.2c-7.3,0-13.2-5.9-13.2-13.2C236.8,88.3,242.8,82.4,250,82.4z M260.7,349.9c-4.2-2.2-5.7-2.6-10.4-2.6
			H124.9h-2.3c-6.7,0-12.2-5.5-12.2-12.5v-2.3V180c0-6.8,5.4-11.6,12.6-12.2h254.4c6.5,0,11.8,5.1,12.2,11.5l0.1,0.8
			c0.1,0.7,0.2,1.5,0.2,2.3v150.5l-0.2,2.6c-0.2,6.4-5.3,11.6-12.7,12c-0.6,0.1-1.2,0.2-1.8,0.2c-5.1,0-9.6,2.6-12.2,6.9
			c-2.6,4.3-2.8,9.6-0.3,14.2l27.7,49L260.7,349.9z"/>
		<circle fill="#FFFFFF" cx="177.2" cy="247.1" r="15.7"/>
		<circle fill="#FFFFFF" cx="250" cy="247.1" r="15.7"/>
		<path fill="#FFFFFF" d="M322.8,231.4c-8.7,0-15.7,7-15.7,15.7c0,8.7,7,15.7,15.7,15.7c8.7,0,15.7-7,15.7-15.7
			C338.5,238.4,331.5,231.4,322.8,231.4z"/>
		<path fill="#FFFFFF" d="M272.3,276.9h-44.6c-5.1,0-9.3,4.9-7.7,9.8c4.1,12.6,16,21.7,30,21.7c14,0,25.9-9.1,30-21.7
			C281.5,281.8,277.3,276.9,272.3,276.9z"/>
	</g>
</g>
</svg>
