<?xml version="1.0" standalone="no"?>
<!DOCTYPE svg PUBLIC "-//W3C//DTD SVG 20010904//EN"
 "http://www.w3.org/TR/2001/REC-SVG-20010904/DTD/svg10.dtd">
<svg version="1.0" xmlns="http://www.w3.org/2000/svg"
 width="512.000000pt" height="512.000000pt" viewBox="0 0 512.000000 512.000000"
 preserveAspectRatio="xMidYMid meet">
<metadata>
Created by potrace 1.14, written by Peter Selinger 2001-2017
</metadata>
<g transform="translate(0.000000,512.000000) scale(0.100000,-0.100000)"
fill="#000000" stroke="none">
<path d="M2441 5104 c-111 -30 -224 -121 -274 -221 -36 -72 -48 -114 -51 -189
-7 -173 84 -331 237 -410 l73 -37 0 -149 0 -148 -836 0 c-906 0 -886 1 -990
-56 -61 -33 -139 -115 -170 -179 -51 -106 -50 -70 -50 -1266 0 -1214 -2 -1166
55 -1265 62 -106 180 -191 295 -212 25 -5 448 -8 940 -7 l895 2 40 -22 c22
-12 112 -59 200 -105 88 -46 201 -104 250 -130 50 -26 149 -78 220 -115 72
-37 162 -84 200 -105 39 -20 147 -77 240 -125 94 -48 204 -106 245 -128 352
-186 439 -227 493 -233 144 -16 277 102 279 246 0 67 -13 101 -91 243 -37 67
-87 158 -111 202 -23 44 -50 94 -60 110 -66 114 -90 166 -78 169 7 3 31 10 53
17 129 39 246 170 275 307 13 57 18 2222 6 2291 -24 143 -110 254 -246 320
l-75 36 -857 3 -858 3 0 149 0 149 45 20 c231 102 330 373 220 605 -30 63
-116 154 -182 190 -91 51 -230 68 -332 40z m208 -275 c95 -53 116 -184 45
-269 -79 -94 -227 -81 -289 25 -94 160 81 336 244 244z m1744 -1172 c46 -35
64 -62 72 -107 4 -19 7 -519 7 -1111 0 -1006 -1 -1078 -17 -1110 -34 -65 -84
-95 -173 -103 -107 -9 -177 -62 -201 -151 -20 -75 -17 -81 167 -405 74 -129
150 -264 170 -300 19 -36 39 -71 45 -78 15 -19 4 -23 -23 -8 -362 189 -417
218 -940 491 -236 123 -387 202 -558 292 -57 30 -149 78 -205 106 l-102 52
-931 1 -931 1 -45 26 c-89 52 -82 -45 -83 1197 -1 613 3 1107 8 1122 13 41 71
95 114 105 24 6 713 10 1814 9 l1776 -1 36 -28z"/>
<path d="M1515 2810 c-198 -47 -232 -309 -52 -402 77 -39 182 -24 245 35 104
96 78 283 -46 346 -45 22 -106 31 -147 21z"/>
<path d="M2504 2808 c-45 -10 -117 -65 -138 -107 -58 -111 0 -259 119 -303 87
-32 195 3 250 81 26 37 30 53 32 112 1 57 -3 77 -24 114 -46 83 -142 125 -239
103z"/>
<path d="M3483 2801 c-197 -77 -185 -353 18 -409 98 -27 215 32 255 127 18 44
14 131 -9 176 -49 98 -166 145 -264 106z"/>
<path d="M2180 2161 c-31 -25 -35 -34 -34 -72 2 -109 122 -250 257 -301 106
-41 251 -32 356 21 104 54 211 196 211 282 0 30 -7 43 -35 68 l-36 31 -342 0
-343 0 -34 -29z"/>
</g>
</svg>
